<svg width="489" height="554" fill="none" xmlns="http://www.w3.org/2000/svg"><path d="M450.399 427.272l22.659-3.284c11.493-3.284 18.389-15.106 15.105-26.599l-7.881-22.33c-3.94-13.792-4.269-28.57-.657-42.69 4.598-18.39 6.896-37.764 6.896-57.796 0-20.36-2.627-40.063-7.224-58.781-3.612-14.12-2.955-28.569.657-42.69l7.881-17.733c2.955-11.493-3.612-23.315-15.106-26.27l-22.658-7.881c-13.792-3.613-26.928-10.837-37.108-20.689-28.241-27.256-63.05-47.944-101.799-59.109-14.12-3.94-27.256-11.493-37.436-22.002L261.25 6.94c-8.538-8.538-22.002-8.538-30.54 0l-17.076 12.478c-10.509 10.509-23.316 18.061-37.436 22.002-38.749 11.165-73.558 31.853-101.47 59.109-10.51 10.18-23.645 17.733-37.765 21.674l-17.733 7.881C7.737 133.368.84 145.19 4.124 156.683l2.956 17.733c3.94 13.792 4.269 28.569.657 42.69C3.139 235.495.84 254.87.84 274.901c0 20.36 2.627 40.063 7.224 58.781 3.612 14.121 2.956 28.57-.657 42.69l-2.955 22.331c-2.956 11.493 3.612 23.315 15.105 26.27l17.733 2.956c13.792 3.612 26.928 10.836 37.108 20.688 28.241 27.256 63.05 47.944 101.799 59.109 14.12 3.941 27.256 11.494 37.436 22.002l17.076 17.076c8.538 8.538 22.002 8.538 30.54 0l12.478-17.076c10.508-10.508 23.316-18.061 37.436-22.002 38.749-11.165 73.558-31.853 101.471-59.109 10.508-9.852 23.315-17.404 37.764-21.345z" fill="url(#paint0_linear)"/><path d="M245.815 7.923c3.941 0 7.553 1.642 10.18 4.269l12.478 12.478c11.166 11.165 25.286 19.375 40.72 23.972 36.779 10.509 70.931 30.54 98.844 57.468 10.837 10.508 24.629 18.389 40.063 22.658l22.33 7.882h.657c7.553 1.97 12.15 9.523 10.18 17.076l-7.553 17.076-.329.656v.657c-4.269 15.434-4.269 31.197-.656 46.302 4.597 18.39 6.896 37.765 6.896 57.139 0 19.047-2.299 37.765-6.568 56.154-3.612 15.106-3.284 30.868.985 46.302v.657l7.881 22.33c1.971 7.553-2.298 15.106-9.851 17.405l-22.002 2.955h-.657c-15.105 4.269-29.226 12.15-41.048 23.644-27.584 26.927-61.736 46.63-98.515 57.139-15.434 4.269-29.226 12.807-40.72 23.972l-.328.328-.329.329-11.821 16.747c-2.627 2.627-6.24 3.941-9.852 3.941-3.941 0-7.553-1.642-10.18-4.269l-17.076-17.076c-11.165-11.165-25.285-19.375-40.72-23.972-36.779-10.509-70.931-30.54-98.843-57.468-10.837-10.508-24.958-18.389-40.392-22.658h-.656l-17.405-2.956c-7.553-2.298-11.822-9.851-9.851-17.732v-.657l2.955-22.002c3.94-15.106 4.27-31.196.657-45.645-4.598-18.39-6.896-37.765-6.896-57.139 0-19.047 2.298-37.765 6.567-56.154 3.613-14.777 3.284-30.868-.656-45.974l-2.956-17.404v-.657c-.985-3.612-.657-7.553 1.314-10.837 1.97-3.284 4.925-5.582 8.866-6.896h.657l.657-.328 17.404-7.553c15.106-4.269 28.898-12.15 40.391-23.315 27.585-26.928 61.737-46.631 98.516-57.14 15.105-4.268 28.898-12.478 40.063-23.315l16.747-12.15.329-.328.328-.329c1.642-3.94 5.254-5.582 9.195-5.582zm0-7.225c-5.583 0-11.165 1.97-15.106 6.24l-17.076 12.478c-10.508 10.508-23.315 18.061-37.436 22.002-38.749 11.165-73.558 31.853-101.47 59.109-10.509 10.18-23.644 17.733-37.765 21.674l-17.733 7.881C7.737 133.366.84 145.188 4.125 156.681l2.955 17.733c3.94 13.792 4.27 28.569.657 42.69C3.139 235.493.84 254.868.84 274.899c0 20.36 2.627 40.063 7.224 58.781 3.613 14.121 2.956 28.57-.656 42.69l-2.956 22.331c-2.955 11.493 3.612 23.315 15.106 26.27l17.733 2.956c13.792 3.612 26.927 10.836 37.107 20.688 28.241 27.256 63.05 47.944 101.799 59.109 14.121 3.941 27.256 11.494 37.436 22.002l17.076 17.076c4.269 4.269 9.852 6.239 15.106 6.239s11.165-1.97 15.106-6.239l12.478-17.076c10.509-10.508 23.316-18.061 37.436-22.002 38.749-11.165 73.558-31.853 101.471-59.109 10.508-10.18 23.644-17.733 37.764-21.673l22.659-3.284c11.493-3.284 18.389-15.106 15.105-26.599l-7.881-22.331c-3.94-13.792-4.269-28.569-.657-42.69 4.598-18.389 6.896-37.764 6.896-57.795 0-20.36-2.627-40.063-7.224-58.781-3.612-14.121-2.955-28.57.657-42.69l7.881-17.733c2.955-11.493-3.612-23.315-15.106-26.271l-22.658-7.881c-13.792-3.612-26.928-10.837-37.108-20.688-28.241-27.256-63.05-47.944-101.799-59.11-14.12-3.94-27.256-11.493-37.436-22.001L260.921 6.609C256.98 2.997 251.397.7 245.815.7z" fill="url(#paint1_linear)"/><defs><linearGradient id="paint0_linear" x1="244.689" y1="553.633" x2="244.689" y2=".773" gradientUnits="userSpaceOnUse"><stop stop-color="#D7E1EB"/><stop offset="1" stop-color="#ECEFF4"/></linearGradient><linearGradient id="paint1_linear" x1="244.689" y1="553.631" x2="244.689" y2=".771" gradientUnits="userSpaceOnUse"><stop stop-color="#A6BCD2"/><stop offset="1" stop-color="#fff"/></linearGradient></defs></svg>