<svg width="358" height="271" fill="none" xmlns="http://www.w3.org/2000/svg"><path d="M352.379 222.081a31.396 31.396 0 00-7.553-8.538c-10.837-8.209-16.747-21.345-16.419-35.137.657-14.777-4.597-30.211-15.762-42.033-31.525-33.495-67.976-62.393-107.711-85.052A445.391 445.391 0 0070.954 1.735C35.487-5.161 2.32 21.438 1.006 57.232v.657c-.985 28.898 19.375 54.183 47.945 60.094 67.647 13.464 130.04 48.273 177.656 98.844 10.508 11.165 24.3 17.404 38.421 18.389 13.464.986 26.27 7.882 33.167 19.375.656 1.314 1.642 2.299 2.298 3.612 11.494 14.778 33.824 16.748 47.616 2.956 10.18-9.852 12.15-26.599 4.269-39.078z" fill="url(#paint0_linear)"/><path d="M59.132 5.674c3.612 0 6.896.329 10.508.985 46.959 9.195 91.62 25.614 132.668 48.93 39.406 22.33 75.528 50.571 106.725 84.066 9.851 10.509 15.105 24.301 14.449 38.75-.657 15.105 6.239 29.883 18.389 39.077 2.627 1.971 4.926 4.269 6.568 7.225 6.568 10.837 4.926 24.957-3.941 33.823-5.254 4.926-11.822 7.882-19.046 7.882-8.538 0-16.419-3.941-21.345-10.509l-1.97-2.955c-7.225-12.479-21.017-20.688-36.779-22.002-13.464-.985-26.271-6.896-35.466-17.076-47.944-50.899-111.651-86.365-180.283-100.157-26.6-5.254-44.989-28.57-44.004-55.169v-.657C6.59 28.661 30.235 5.674 59.132 5.674zm0-4.925C28.264.749 1.665 25.377.68 57.559v.657c-.986 28.898 19.374 54.183 47.944 60.094 67.647 13.464 130.04 48.273 177.656 98.844 10.508 11.165 24.3 17.404 38.421 18.39 13.464.985 26.271 7.881 33.167 19.374.657 1.314 1.642 2.299 2.298 3.612 6.24 8.21 15.763 12.151 25.286 12.151 7.881 0 16.091-2.956 22.33-9.195 10.508-10.18 12.479-26.928 4.598-39.735a31.444 31.444 0 00-7.553-8.538c-10.837-8.209-16.748-21.345-16.42-35.137.657-14.777-4.597-30.211-15.762-42.033-31.525-33.495-67.976-62.393-107.71-85.052A445.39 445.39 0 0070.954 1.405C66.684 1.077 63.073.75 59.132.75z" fill="url(#paint1_linear)"/><defs><linearGradient id="paint0_linear" x1="170.155" y1="164.391" x2="214.867" y2="71.129" gradientUnits="userSpaceOnUse"><stop stop-color="#002F7A"/><stop offset="1" stop-color="#17459A"/></linearGradient><linearGradient id="paint1_linear" x1="153.134" y1="187.202" x2="228.17" y2="65.54" gradientUnits="userSpaceOnUse"><stop stop-color="#00164D"/><stop offset="1" stop-color="#4F7CCB"/></linearGradient></defs></svg>