<svg width="10" height="10" fill="none" xmlns="http://www.w3.org/2000/svg"><g clip-path="url(#clip0)"><path d="M6.101 5.002l3.74-3.74a.544.544 0 000-.773L9.512.162a.542.542 0 00-.387-.16.542.542 0 00-.387.16L5 3.9 1.261.162a.542.542 0 00-.387-.16.542.542 0 00-.386.16L.16.489a.547.547 0 000 .774l3.739 3.739L.16 8.74a.544.544 0 00-.16.387c0 .147.057.284.16.387l.328.328c.103.103.24.16.386.16a.542.542 0 00.387-.16l3.74-3.74 3.738 3.74c.103.103.24.16.387.16a.543.543 0 00.387-.16l.327-.328a.543.543 0 00.16-.387.544.544 0 00-.16-.386L6.101 5z" fill="#7C8882"/></g><defs><clipPath id="clip0"><path fill="#fff" d="M0 0h10v10H0z"/></clipPath></defs></svg>