<svg width="20" height="20" fill="none" xmlns="http://www.w3.org/2000/svg"><g clip-path="url(#clip0)"><path d="M12.203 10.003l7.477-7.478c.206-.206.32-.48.32-.773 0-.293-.113-.568-.32-.774l-.655-.655a1.085 1.085 0 00-.774-.32c-.292 0-.567.114-.773.32L10 7.801 2.522.323a1.084 1.084 0 00-.773-.32c-.293 0-.568.114-.773.32L.32.978a1.095 1.095 0 000 1.547l7.478 7.478L.32 17.481c-.206.206-.32.48-.32.774 0 .293.114.567.32.773l.655.655c.206.206.481.32.774.32.293 0 .567-.114.773-.32L10 12.206l7.478 7.477c.206.206.48.32.773.32.293 0 .568-.114.774-.32l.655-.655c.206-.206.32-.48.32-.773 0-.293-.114-.568-.32-.774l-7.477-7.478z" fill="#3E4E46"/></g><defs><clipPath id="clip0"><path fill="#fff" d="M0 0h20v20H0z"/></clipPath></defs></svg>