<svg width="28" height="28" fill="none" xmlns="http://www.w3.org/2000/svg"><path d="M23.906 4.099c-5.46-5.46-14.345-5.46-19.805 0A13.916 13.916 0 000 14c0 3.74 1.457 7.257 4.101 9.901a13.96 13.96 0 009.902 4.095 13.96 13.96 0 009.902-4.095c5.46-5.46 5.46-14.343 0-19.803zm-1.534 18.27c-4.614 4.614-12.123 4.614-16.737 0A11.757 11.757 0 012.169 14c0-3.16 1.232-6.133 3.466-8.368 4.614-4.615 12.123-4.614 16.737 0 4.613 4.614 4.613 12.122 0 16.735z" fill="#CECECE"/><path d="M18.677 16.998l-3.07-3.066 3.07-3.066a1.085 1.085 0 10-1.534-1.535l-3.073 3.068-3.072-3.068a1.085 1.085 0 10-1.534 1.535l3.07 3.066-3.07 3.066a1.085 1.085 0 101.534 1.535l3.072-3.068 3.073 3.068a1.084 1.084 0 101.534-1.535z" fill="#CECECE"/></svg>