<svg width="46" height="46" fill="none" xmlns="http://www.w3.org/2000/svg"><g clip-path="url(#clip0)"><path d="M29.133 0a.767.767 0 000 1.533c8.455 0 15.333 6.879 15.333 15.334a.767.767 0 001.533 0C46 7.567 38.433 0 29.133 0z" fill="url(#paint0_linear)"/><path d="M29.133 4.6a.767.767 0 000 1.533c5.918 0 10.733 4.815 10.733 10.734a.767.767 0 001.534 0C41.4 10.103 35.897 4.6 29.133 4.6z" fill="url(#paint1_linear)"/><path d="M29.133 9.2a.767.767 0 000 1.534 6.14 6.14 0 016.133 6.133.767.767 0 001.534 0c0-4.228-3.44-7.667-7.667-7.667z" fill="url(#paint2_linear)"/><path d="M41.487 28.77a28.025 28.025 0 01-6.113-1.521 5.262 5.262 0 00-5.528 1.179l-2.424 2.418a34.983 34.983 0 01-12.33-12.304l2.426-2.42a5.237 5.237 0 001.18-5.516 27.904 27.904 0 01-1.525-6.109c-.367-2.59-2.61-4.507-5.23-4.497H5.235a5.21 5.21 0 00-4.018 1.88A5.197 5.197 0 00.023 5.711a45.075 45.075 0 006.98 19.677 44.606 44.606 0 0013.645 13.62 45.3 45.3 0 0019.643 6.97c.158.014.317.02.477.02h.014c2.889-.011 5.229-2.367 5.217-5.247v-6.684a5.233 5.233 0 00-4.512-5.299zm2.979 5.27v6.716a3.706 3.706 0 01-3.69 3.711c-.119-.004-.234-.004-.335-.013a43.76 43.76 0 01-18.967-6.736A43.077 43.077 0 018.292 24.559 43.535 43.535 0 011.55 5.562a3.665 3.665 0 01.845-2.7 3.684 3.684 0 012.84-1.329h6.752a3.712 3.712 0 013.668 3.172c.29 2.197.83 4.363 1.608 6.44a3.7 3.7 0 01-.83 3.896l-2.84 2.833a.766.766 0 00-.126.922 36.51 36.51 0 0013.702 13.675c.3.171.677.12.92-.124l2.837-2.83a3.726 3.726 0 013.912-.831 29.595 29.595 0 006.442 1.603 3.698 3.698 0 013.187 3.751z" fill="url(#paint3_linear)"/><path d="M11.5 3.067H5.234a2.165 2.165 0 00-1.665.78c-.172.206-.567.769-.498 1.541.29 2.72.815 5.366 1.56 7.865a.768.768 0 001.47-.439A42.19 42.19 0 014.598 5.24c-.018-.195.109-.363.148-.41.063-.075.203-.205.488-.229H11.5a.766.766 0 00.001-1.533z" fill="url(#paint4_linear)"/><path d="M42.166 33.733a.767.767 0 00-.766.767l-.001 6.255a.639.639 0 01-.617.645l-.07-.002a42.151 42.151 0 01-7.525-1.5.767.767 0 00-.44 1.47 43.713 43.713 0 007.813 1.556 2.158 2.158 0 001.743-.633c.408-.412.632-.96.63-1.539V34.5a.767.767 0 00-.767-.767z" fill="url(#paint5_linear)"/></g><defs><linearGradient id="paint0_linear" x1="45.999" y1="8.817" x2="29.181" y2="11.755" gradientUnits="userSpaceOnUse"><stop stop-color="#008CB9"/><stop offset="1" stop-color="#96BF53"/></linearGradient><linearGradient id="paint1_linear" x1="41.4" y1="11.117" x2="28.969" y2="13.289" gradientUnits="userSpaceOnUse"><stop stop-color="#008CB9"/><stop offset="1" stop-color="#96BF53"/></linearGradient><linearGradient id="paint2_linear" x1="36.8" y1="13.417" x2="28.756" y2="14.822" gradientUnits="userSpaceOnUse"><stop stop-color="#008CB9"/><stop offset="1" stop-color="#96BF53"/></linearGradient><linearGradient id="paint3_linear" x1="46.001" y1="23" x2="2.128" y2="30.667" gradientUnits="userSpaceOnUse"><stop stop-color="#008CB9"/><stop offset="1" stop-color="#96BF53"/></linearGradient><linearGradient id="paint4_linear" x1="12.266" y1="8.434" x2="3.42" y2="9.759" gradientUnits="userSpaceOnUse"><stop stop-color="#008CB9"/><stop offset="1" stop-color="#96BF53"/></linearGradient><linearGradient id="paint5_linear" x1="42.933" y1="38.333" x2="32.805" y2="40.398" gradientUnits="userSpaceOnUse"><stop stop-color="#008CB9"/><stop offset="1" stop-color="#96BF53"/></linearGradient><clipPath id="clip0"><path fill="#fff" d="M0 0h46v46H0z"/></clipPath></defs></svg>