<svg width="48" height="48" fill="none" xmlns="http://www.w3.org/2000/svg"><path d="M24 0C14.223 0 6.269 7.954 6.269 17.731c0 3.22 1.443 6.681 1.504 6.827.466 1.107 1.386 2.826 2.05 3.833L21.98 46.812C22.477 47.567 23.213 48 24 48c.786 0 1.523-.433 2.02-1.187l12.16-18.422c.664-1.007 1.583-2.726 2.05-3.833.06-.145 1.502-3.607 1.502-6.827C41.731 7.954 33.777 0 24 0zm14.305 23.749c-.416.992-1.272 2.59-1.868 3.494L24.279 45.665c-.24.364-.317.364-.556 0l-12.16-18.422c-.596-.903-1.452-2.503-1.868-3.495-.018-.043-1.341-3.23-1.341-6.017C8.355 9.105 15.373 2.086 24 2.086s15.645 7.019 15.645 15.645c0 2.792-1.326 5.986-1.34 6.018z" fill="url(#paint0_linear)"/><path d="M24 8.345c-5.177 0-9.388 4.212-9.388 9.387 0 5.176 4.211 9.388 9.388 9.388 5.176 0 9.387-4.212 9.387-9.388 0-5.175-4.21-9.387-9.387-9.387zm0 16.689c-4.026 0-7.302-3.275-7.302-7.302 0-4.026 3.276-7.3 7.302-7.3 4.025 0 7.3 3.274 7.3 7.3 0 4.027-3.275 7.302-7.3 7.302z" fill="url(#paint1_linear)"/><defs><linearGradient id="paint0_linear" x1="41.731" y1="24" x2="7.447" y2="28.426" gradientUnits="userSpaceOnUse"><stop stop-color="#008CB9"/><stop offset="1" stop-color="#96BF53"/></linearGradient><linearGradient id="paint1_linear" x1="33.387" y1="17.732" x2="15.48" y2="20.862" gradientUnits="userSpaceOnUse"><stop stop-color="#008CB9"/><stop offset="1" stop-color="#96BF53"/></linearGradient></defs></svg>