<svg width="48" height="48" fill="none" xmlns="http://www.w3.org/2000/svg"><g clip-path="url(#clip0)"><path d="M47.99 18.35a.751.751 0 00-.032-.162.795.795 0 00-.046-.137.722.722 0 00-.08-.123.763.763 0 00-.106-.124c-.013-.01-.019-.026-.032-.037L40 11.79V5.598a2.4 2.4 0 00-2.4-2.4h-8.67L25.457.503a2.372 2.372 0 00-2.918 0l-3.472 2.695h-8.67a2.4 2.4 0 00-2.4 2.4v6.193L.306 17.767c-.013.011-.019.026-.032.037a.75.75 0 00-.106.124.716.716 0 00-.08.123.79.79 0 00-.046.137.76.76 0 00-.032.16c0 .017-.01.032-.01.049V45.6c.001.509.166 1.004.47 1.412.004.007.005.016.01.023.006.006.018.013.026.022A2.39 2.39 0 002.398 48H45.6a2.39 2.39 0 001.898-.947c.006-.008.016-.01.021-.018.006-.008.007-.016.011-.023.304-.408.469-.903.47-1.412V18.4c0-.017-.009-.032-.01-.048zM23.52 1.766a.767.767 0 01.954 0l1.846 1.433h-4.64l1.84-1.433zM2.599 46.4l20.92-16.25a.768.768 0 01.954 0L45.398 46.4H2.6zm43.8-1.247l-20.94-16.265a2.374 2.374 0 00-2.918 0L1.598 45.153V19.617l13.11 10.18a.8.8 0 10.98-1.264L2.37 18.19l5.628-4.374v6.182a.8.8 0 101.6 0v-14.4a.8.8 0 01.8-.8h27.201a.8.8 0 01.8.8v14.4a.8.8 0 101.6 0v-6.181l5.629 4.374-13.343 10.36a.8.8 0 10.981 1.264L46.4 19.617v25.536z" fill="url(#paint0_linear)"/><path d="M33.6 19.199v-3.2a9.6 9.6 0 00-9.601-9.601 9.6 9.6 0 100 19.2.8.8 0 100-1.6 8 8 0 118-8v3.2a1.6 1.6 0 01-3.2 0v-3.2a.8.8 0 00-1.6 0 3.2 3.2 0 11-3.2-3.2.8.8 0 100-1.6 4.8 4.8 0 103.235 8.338 3.191 3.191 0 006.365-.337z" fill="url(#paint1_linear)"/></g><defs><linearGradient id="paint0_linear" x1="48" y1="24.001" x2="2.219" y2="32.001" gradientUnits="userSpaceOnUse"><stop stop-color="#008CB9"/><stop offset="1" stop-color="#96BF53"/></linearGradient><linearGradient id="paint1_linear" x1="33.599" y1="15.998" x2="15.286" y2="19.199" gradientUnits="userSpaceOnUse"><stop stop-color="#008CB9"/><stop offset="1" stop-color="#96BF53"/></linearGradient><clipPath id="clip0"><path fill="#fff" d="M0 0h48v48H0z"/></clipPath></defs></svg>