<svg width="63" height="63" fill="none" xmlns="http://www.w3.org/2000/svg"><circle cx="31.5" cy="31.5" r="30.5" stroke="#B3DBF1" stroke-width="2"/><circle cx="31.5" cy="31.5" r="27.741" fill="#fff" stroke="#D8F1FF"/><g clip-path="url(#clip0)"><path d="M46.644 25.672a.47.47 0 10-.845.415c.942 1.92 1.14 3.895 1.14 5.214 0 1.783-.37 5.143-2.846 7.62a4.16 4.16 0 01-2.961 1.226 4.16 4.16 0 01-2.961-1.227 4.16 4.16 0 01-1.227-2.96 4.164 4.164 0 011.227-2.962c.163-.163.3-.342.408-.532l.005-.01a2.36 2.36 0 00.075-.144c.488.297.78.75.924 1.031a.47.47 0 10.838-.429c-.362-.706-.9-1.244-1.538-1.549l.002-.064a2.42 2.42 0 00-.025-.346c.649-.303 1.194-.844 1.561-1.561a.47.47 0 00-.838-.43c-.157.308-.486.81-1.047 1.1a2.344 2.344 0 00-.084-.126 2.563 2.563 0 00-.281-.334 4.192 4.192 0 010-5.922 4.16 4.16 0 012.96-1.226 4.16 4.16 0 012.962 1.227c.201.201.395.416.577.638a.47.47 0 10.728-.597 9.668 9.668 0 00-.64-.707c-2-2-5.253-2-7.253 0a5.138 5.138 0 00-.79 6.233l-.637-.222a2.967 2.967 0 01-1.599-1.331l-.879-1.541a2.91 2.91 0 01-.382-1.44v-5.408c0-.766-.587-1.394-1.337-1.429a1.392 1.392 0 00-1.036.387 1.41 1.41 0 00-.435 1.016v5.434a2.91 2.91 0 01-.382 1.44l-.878 1.54a2.967 2.967 0 01-1.6 1.332l-.633.221a5.09 5.09 0 00.71-2.606c0-1.37-.534-2.658-1.502-3.626a5.095 5.095 0 00-3.627-1.502c-1.37 0-2.658.533-3.626 1.502-2.716 2.716-3.122 6.356-3.122 8.284 0 1.674.314 4.874 2.42 7.5a.47.47 0 10.734-.588c-1.925-2.402-2.213-5.362-2.213-6.912 0-1.782.37-5.142 2.846-7.619a4.16 4.16 0 012.961-1.226 4.16 4.16 0 012.961 1.226 4.16 4.16 0 011.227 2.961 4.16 4.16 0 01-1.227 2.961 2.578 2.578 0 00-.366.46c-.56-.29-.89-.792-1.046-1.1a.47.47 0 00-.838.43c.367.717.912 1.258 1.561 1.56-.016.114-.025.23-.025.347l.002.064c-.638.305-1.176.843-1.538 1.55a.47.47 0 00.838.428c.143-.28.436-.734.924-1.03a2.284 2.284 0 00.09.17c.107.184.24.357.398.515a4.205 4.205 0 01.716.955c.333.608.51 1.293.51 2.006a4.16 4.16 0 01-1.226 2.961 4.194 4.194 0 01-5.045.672.47.47 0 00-.469.817 5.134 5.134 0 006.18-.823 5.095 5.095 0 001.502-3.627c0-.52-.077-1.027-.225-1.51l.066.02c.415.131.694.51.694.946v7.672a1.406 1.406 0 002.809 0v-7.672c0-1.67-1.07-3.126-2.663-3.625l-.078-.025.248-.086a5.777 5.777 0 003.111-2.591l.225-.395.225.395a5.776 5.776 0 003.112 2.59l.248.088-.077.024a3.783 3.783 0 00-2.663 3.625v7.672c0 .775.63 1.405 1.404 1.405.774 0 1.404-.63 1.404-1.404v-7.673c0-.435.28-.815.695-.945l.066-.02a5.14 5.14 0 00-.225 1.51c0 1.37.533 2.657 1.502 3.626 1 1 2.313 1.5 3.627 1.5 1.313 0 2.626-.5 3.626-1.5 2.716-2.716 3.122-6.357 3.122-8.285 0-1.418-.214-3.547-1.236-5.629zM30.03 35.415v7.672a.463.463 0 01-.926 0v-7.672c0-.849-.544-1.59-1.355-1.843l-.863-.27a5.15 5.15 0 00-.64-.843l.496-.173 1.284.402a2.846 2.846 0 012.004 2.727zm2.827-6.793l-.553-.97a.565.565 0 00-.98 0l-.553.97a4.834 4.834 0 01-2.604 2.168l-2.44.853a1.443 1.443 0 01-.04-.342c0-.248.058-.477.174-.685l2-.7a3.91 3.91 0 002.106-1.753l.879-1.541c.33-.58.505-1.239.505-1.906v-5.434a.46.46 0 01.486-.462c.243.01.44.23.44.488v5.408c0 .667.175 1.326.505 1.906l.88 1.54a3.908 3.908 0 002.105 1.754l2.002.7c.116.209.175.438.175.685 0 .119-.016.233-.042.342l-2.44-.853a4.835 4.835 0 01-2.605-2.168zm3.023 4.95a1.924 1.924 0 00-1.354 1.843v7.672a.464.464 0 01-.926 0v-7.672c0-1.256.805-2.352 2.004-2.727l1.284-.402.496.174c-.244.26-.458.542-.64.841l-.864.27z" fill="#56A1CC"/></g><defs><clipPath id="clip0"><path fill="#fff" transform="translate(15.75 15.12)" d="M0 0h32.13v32.13H0z"/></clipPath></defs></svg>