<svg width="63" height="63" fill="none" xmlns="http://www.w3.org/2000/svg"><circle cx="31.5" cy="31.5" r="30.5" stroke="#B3DBF1" stroke-width="2"/><circle cx="31.392" cy="31.241" r="27.742" fill="#fff" stroke="#D8F1FF"/><g clip-path="url(#clip0)" fill="#56A1CC"><path d="M34.158 24.427c-.007-.006-.013-.013-.02-.013-1.98-1.434-2.41-4.773-2.417-4.82a.546.546 0 10-1.086.13c.02.15.464 3.7 2.71 5.461-.068.246-.327.724-.423.895-.075.136-.136.246-.177.334a.113.113 0 00-.014.034c-.109.308-.211.615-.314.915-.362 1.086-.703 2.103-1.325 3.012-.805 1.14-1.74 2.143-2.498 2.676-.506.348-1.066.6-1.653.86-.54.246-1.106.492-1.638.833-.287.185-.56.39-.82.608-.519.423-1.01.82-1.618.88-.102.008-.198.021-.294.028-.62.055-1.27.11-1.96.512-2.416 1.427-2.362 4.711-2.334 6.289.007.3.245.539.546.539h.007c.3-.007.54-.253.54-.553v-.007c-.049-2.205.143-4.37 1.781-5.332.471-.273.929-.314 1.502-.362.103-.007.205-.02.308-.028.928-.088 1.597-.635 2.198-1.112.226-.192.465-.37.717-.533.471-.3.97-.526 1.502-.758.608-.273 1.243-.553 1.83-.963 1.243-.874 2.349-2.348 2.772-2.95.71-1.037 1.1-2.184 1.468-3.29.096-.287.198-.58.3-.874.028-.048.076-.144.13-.233.39-.703.922-1.665.28-2.178z"/><path d="M43.472 26.203c-1.127-2.089-2.93-3.352-5.21-3.652h-.027c-.137-.014-.267-.014-.39-.014-.252-.007-.484-.007-.62-.089-.008 0-.008-.007-.014-.007-.437-.246-2.158-2.219-2.254-3.618a.543.543 0 10-1.085.075c.116 1.816 2.041 4.062 2.8 4.5.382.224.791.231 1.16.238.11 0 .212 0 .307.014 1.94.252 3.407 1.297 4.37 3.093.799 1.502 1.202 3.461 1.127 5.53-.212 5.217-2.793 9-7.272 10.658-1.27.478-5.688 1.441-9.245-.402 0 0-.007 0-.007-.007-.655-.328-1.256-.874-1.912-1.728l-.006-.013c-.512-.69-1.209-1.639-2.581-1.1-1.523.574-1.523 2.78-1.523 3.715 0 .3.246.546.546.546.3 0 .547-.246.547-.546 0-.656 0-2.383.819-2.697h.007c.54-.212.744-.041 1.31.724l.014.013.007.007c.751.99 1.482 1.639 2.287 2.041 1.544.8 3.346 1.202 5.354 1.202.28 0 .56-.007.846-.02 1.844-.103 3.339-.505 3.92-.73 2.47-.916 4.417-2.418 5.796-4.473 1.331-1.987 2.069-4.404 2.178-7.17.082-2.26-.362-4.417-1.25-6.09z"/><path d="M41.833 31.413c-.089-.205-.396-.8-.99-.881h-.02c-.294-.027-.861.048-1.346.901-1.14 1.755-2.902 2.704-4.185 3.196-2.035.791-4.097.928-6.282 1.065-.56.034-1.215.102-1.843.355-.99.375-1.687 1.126-1.905 2.062-.219.935.061 1.918.778 2.704.485.518 1.175.935 2.103 1.276 1.127.41 2.322.622 3.523.615.874 0 1.748-.11 2.602-.314 1.925-.465 3.775-1.496 5.346-2.984 1.188-1.147 1.966-2.322 2.383-3.598.532-1.482.47-3.08-.164-4.397zm-.874 4.035c0 .007-.007.014-.007.014-.362 1.106-1.045 2.137-2.103 3.154-1.427 1.359-3.107 2.294-4.848 2.717-1.877.451-3.775.362-5.49-.266-.75-.28-1.317-.614-1.672-.997-.464-.505-.655-1.126-.519-1.707.137-.58.587-1.051 1.236-1.297.007 0 .007 0 .014-.007.491-.198 1.037-.252 1.508-.28 2.165-.136 4.411-.28 6.596-1.133 2.602-.99 4.001-2.52 4.718-3.633a.105.105 0 00.02-.034 1.09 1.09 0 01.267-.341c.061.068.11.143.143.225 0 .007.007.014.014.02.512 1.059.56 2.356.123 3.565z"/></g><defs><clipPath id="clip0"><path fill="#fff" transform="translate(18.27 18.27)" d="M0 0h26.46v26.46H0z"/></clipPath></defs></svg>