<svg width="63" height="63" fill="none" xmlns="http://www.w3.org/2000/svg"><circle cx="31.5" cy="31.5" r="30.5" stroke="#B3DBF1" stroke-width="2"/><circle cx="31.392" cy="31.391" r="27.741" fill="#fff" stroke="#D8F1FF"/><g clip-path="url(#clip0)" fill="#56A1CC"><path d="M42.552 31.06c.689-3.741-.436-8.884-4.533-11.335a11.386 11.386 0 00-8.508-1.07c-3.97 1.062-6.89 3.911-7.808 7.623a7.546 7.546 0 00-.257 2.312c.044.483.133.961.267 1.428a6.17 6.17 0 01.263 1.833c-.018.739-.527 1.505-.977 2.181-.49.739-.913 1.376-.667 1.964a1.44 1.44 0 001.102.706.527.527 0 00.08.008.413.413 0 01.462.44c0 .917.023 1.39.402 1.607a.81.81 0 00-.069.217.786.786 0 00.248.695c.193.186.436.31.7.357l.053.012c.01.065.015.132.014.198a4.757 4.757 0 01-.035.49c-.073.706-.174 1.672 1.237 2.133.283.079.577.114.87.106a13.813 13.813 0 003.92-.752c.365.636.585 1.345.644 2.076a.44.44 0 00.44.44h11.023a.438.438 0 00.411-.304.451.451 0 00-.158-.497c-.456-.346-1.966-3.995-2.013-5.306.134-.302.312-.642.523-1.036a20.716 20.716 0 002.366-6.526zm-3.774 7.518c.011 1.054.962 3.84 1.779 5.27h-9.753a6.316 6.316 0 00-.648-1.934c1.278-.5 2.403-1.144 2.943-1.85a.441.441 0 00-.7-.536C31.15 41.16 25.958 42.4 24.8 42.02c-.734-.24-.705-.522-.634-1.203a5.65 5.65 0 00.04-.582c0-.743-.3-.964-.75-1.069a.565.565 0 01-.238-.092c.087-.082.185-.152.292-.206a.441.441 0 00-.195-.837c-.159 0-.336 0-.429-.011a6.807 6.807 0 01-.028-.87 1.29 1.29 0 00-1.29-1.322c-.318-.066-.415-.153-.423-.173-.064-.153.361-.792.59-1.136.489-.737 1.098-1.654 1.123-2.647.012-.55-.05-1.1-.182-1.635a4.396 4.396 0 011.662-.917c.219-.038.444-.022.655.046a.44.44 0 10.235-.85 2.224 2.224 0 00-1.073-.058 4.543 4.543 0 00-1.708.848 5.244 5.244 0 01-.122-.78 6.524 6.524 0 01.234-2.038c.852-3.445 3.47-5.99 7.18-6.983a10.472 10.472 0 017.827.976c3.736 2.235 4.754 6.967 4.119 10.419a19.672 19.672 0 01-2.276 6.269 14.5 14.5 0 00-.603 1.204.432.432 0 00-.028.204z"/><path d="M39.653 32.068a1.321 1.321 0 00-1.074-1.422l-.844-1.17c.052-.095.092-.197.118-.302l.818-.327a1.32 1.32 0 101.277-2.16l-.662-1.32a1.317 1.317 0 00-1.62-2.051l-.739-.613a1.308 1.308 0 00-.742-1.685 1.32 1.32 0 00-1.447.314l-1.307-.326a1.314 1.314 0 00-2.53-.016l-1.746.35a1.316 1.316 0 00-2.105 1.553l-.855 1.14a1.319 1.319 0 00-.076 2.58l.708 1.746a1.32 1.32 0 102.17 1.381h2.367c.197.608.814.976 1.443.861l1.463 2.227a1.32 1.32 0 102.28 1.11l1.092-.873c.208.131.448.201.694.202.683 0 1.254-.52 1.317-1.2zm.006-4.532a.44.44 0 11-.404.615c-.001-.003 0-.008-.002-.012l-.003-.004a.433.433 0 01-.032-.159.44.44 0 01.441-.44zm-1.754-3.176a.44.44 0 11.272.498l-.003-.002c-.004-.002-.008 0-.012-.002a.44.44 0 01-.257-.494zm-.439 1.078l-.815 2.037-1.428-1.143a1.31 1.31 0 00.408-.627l1.747-.35c.028.03.058.056.088.083zm-.47 3.54a.44.44 0 11-.264-.529l.004.003c.004.002.008 0 .012.002a.44.44 0 01.249.523zm-1.305-7.174a.44.44 0 110 .882.44.44 0 010-.882zm-2.32.095l1.007.252c-.002.032-.01.062-.01.094.001.73.593 1.322 1.323 1.323.237-.001.468-.067.67-.189l.74.613a1.31 1.31 0 00-.087.458c0 .026.006.051.008.078l-1.436.287a1.323 1.323 0 00-1.014-.786l-1.614-1.614c.179-.134.321-.312.413-.516zm1.438 3.432a.44.44 0 11-.881 0 .44.44 0 01.882 0zm-2.645-4.408a.44.44 0 110 .881.44.44 0 010-.881zm.088 2.033l1.323 1.324a1.32 1.32 0 00-.448.61h-1.044a1.32 1.32 0 00-.575-.695l.744-1.239zm-2.74-.789l1.435-.287c.113.26.306.477.55.62l-.8 1.333-1.383-.887a1.31 1.31 0 00.205-.7c0-.027-.006-.052-.008-.079zm1.77 3.164a.44.44 0 11-.881 0 .44.44 0 01.881 0zm-3.085-3.527a.44.44 0 110 .882.44.44 0 010-.882zm-.48 1.67c.268.111.567.124.844.036l1.361.874a1.32 1.32 0 00-.322.506h-1.926a1.325 1.325 0 00-.52-.665l.563-.75zm-1.284 2.298a.44.44 0 110-.881.44.44 0 010 .881zm1.323 3.968a.44.44 0 110-.882.44.44 0 010 .882zm.25-1.738a1.318 1.318 0 00-.25-.025c-.044 0-.085.008-.128.012l-.6-1.483a1.32 1.32 0 00.646-.734H29.6c.08.222.217.419.398.57l-1.992 1.66zm3.358.856h-2.367a1.31 1.31 0 00-.201-.366l2.165-1.804.737 1.653a1.32 1.32 0 00-.334.517zm.719-3.086h1.044c.104.292.308.538.575.695l-.917 1.528a1.22 1.22 0 00-.18-.018c-.034 0-.066.007-.1.01l-.756-1.698c.15-.143.265-.32.334-.517zm.522 3.968a.44.44 0 110-.882.44.44 0 010 .882zm1.882-2.868l1.231.985a1.316 1.316 0 00-.407.628l-1.489.297a1.323 1.323 0 00-.252-.381l.917-1.529zm.763 7.277a.44.44 0 110-.882.44.44 0 010 .882zm1.764-2.205c.001.148.028.294.078.432l-.744.595a1.271 1.271 0 00-1.3-.565l-1.463-2.227c.13-.145.227-.319.282-.506l1.489-.298a1.32 1.32 0 001.727.703l.544.754a1.32 1.32 0 00-.613 1.112zm.43-4.074l.84-2.103c.018 0 .035.005.052.005.053-.002.106-.007.159-.016l.534 1.065c-.425.23-.69.673-.693 1.156 0 .017.005.034.006.052l-.593.237a1.322 1.322 0 00-.306-.396zm.892 4.515a.44.44 0 110-.882.44.44 0 010 .882z"/></g><defs><clipPath id="clip0"><path fill="#fff" transform="translate(18.27 18.27)" d="M0 0h26.46v26.46H0z"/></clipPath></defs></svg>