<svg width="22" height="22" fill="none" xmlns="http://www.w3.org/2000/svg"><g clip-path="url(#clip0)"><path d="M19.665 10.48a9.773 9.773 0 00-6.93-2.87 9.769 9.769 0 00-6.878 2.818l-.16 1.127 1.13-.161a8.377 8.377 0 015.907-2.416 8.379 8.379 0 015.964 2.47.684.684 0 00.967-.967zM5.095 7.709a.684.684 0 01.58.774l-.516 3.61 3.61-.515a.684.684 0 01.194 1.354l-4.513.644a.682.682 0 01-.774-.773l.645-4.513a.684.684 0 01.774-.58z" fill="url(#paint0_linear)"/></g><defs><linearGradient id="paint0_linear" x1="15.475" y1="6.29" x2="5" y2="13.648" gradientUnits="userSpaceOnUse"><stop stop-color="#008CB9"/><stop offset="1" stop-color="#96BF53"/></linearGradient><clipPath id="clip0"><path fill="#fff" transform="scale(1 -1) rotate(45 31.087 2.397)" d="M0 0h14.588v14.588H0z"/></clipPath></defs></svg>