<svg width="378" height="244" fill="none" xmlns="http://www.w3.org/2000/svg"><path d="M352.423 10.988l-.657-.328c-23.315-17.076-55.825-12.807-74.543 9.195-45.974 53.198-108.039 90.634-176.014 106.396-13.793 3.284-25.286 11.165-33.496 21.674-9.194 11.821-22.33 20.359-37.435 21.345-2.3 0-4.598.656-6.896 1.313C9.588 174.524-.262 187.987.395 202.436c.656 19.375 18.06 33.167 36.779 30.212 1.97-.329 3.94-.657 5.582-1.314 14.12-4.925 29.883-3.284 43.019 4.269 12.15 6.896 26.927 9.523 42.033 5.911 46.63-10.836 91.291-28.898 132.01-53.855 38.093-23.315 72.902-52.541 102.785-86.037 23.972-27.256 19.046-69.289-10.18-90.634z" fill="url(#paint0_linear)"/><path d="M319.585 4.75c10.508 0 20.688 3.284 29.554 9.523l.657.329c13.135 9.523 21.673 23.972 23.315 40.063 1.642 16.09-3.284 31.525-13.792 43.346-29.555 33.496-64.035 62.065-101.799 85.052-40.391 24.629-84.395 42.362-130.697 53.198-3.941.986-8.21 1.314-12.15 1.314-9.195 0-18.39-2.299-26.271-6.896-8.867-4.926-18.718-7.553-28.57-7.553-6.239 0-12.478.985-18.39 2.955-1.641.657-3.283.986-4.925 1.314-1.314.328-2.627.328-4.269.328-14.449 0-26.6-11.493-27.256-26.27-.657-12.479 7.553-23.644 19.703-27.256 1.97-.657 3.94-.986 5.911-.986 15.434-.985 30.212-9.523 40.72-23.315 7.553-9.851 18.718-17.076 30.868-20.031 68.632-16.091 132.011-54.512 178.641-108.039 9.523-10.508 23.972-17.076 38.75-17.076zm0-4.597c-15.763 0-31.197 6.568-42.362 19.375-45.974 53.198-108.039 90.634-176.014 106.396-13.792 3.284-25.286 11.165-33.495 21.674-9.195 11.821-22.33 20.359-37.436 21.345-2.299 0-4.598.656-6.896 1.313C9.589 174.197-.262 187.66.395 202.109c.657 17.733 15.105 30.54 31.853 30.54 1.642 0 3.284 0 4.926-.328 1.97-.329 3.94-.657 5.582-1.314 5.583-1.97 11.165-2.955 16.748-2.955 9.195 0 18.061 2.298 26.27 6.896 8.539 4.926 18.39 7.553 28.57 7.553 4.269 0 8.867-.657 13.464-1.642 46.631-10.837 91.291-28.898 132.011-53.855 38.092-23.316 72.901-52.542 102.784-86.037 23.972-27.256 19.046-69.29-10.18-90.306l-.657-.328C341.915 3.437 330.75.153 319.585.153z" fill="url(#paint1_linear)"/><defs><linearGradient id="paint0_linear" x1="191.043" y1="241.617" x2="187.069" y2="2.292" gradientUnits="userSpaceOnUse"><stop stop-color="#439024"/><stop offset="1" stop-color="#61AE24"/></linearGradient><linearGradient id="paint1_linear" x1="221.083" y1="209.891" x2="161.63" y2="57.68" gradientUnits="userSpaceOnUse"><stop stop-color="#256D24"/><stop offset="1" stop-color="#88E575"/></linearGradient></defs></svg>