<svg width="12" height="12" fill="none" xmlns="http://www.w3.org/2000/svg"><path d="M6 9.457a.586.586 0 100-1.172.586.586 0 000 1.172z" fill="#91BD57"/><path d="M6 0C2.684 0 0 2.684 0 6s2.684 6 6 6 6-2.684 6-6-2.684-6-6-6zm0 11.063A5.06 5.06 0 01.937 6 5.06 5.06 0 016 .937 5.06 5.06 0 0111.063 6 5.06 5.06 0 016 11.063z" fill="#91BD57"/><path d="M6 3.012a1.877 1.877 0 00-1.875 1.875.469.469 0 10.938 0 .939.939 0 011.875 0A.938.938 0 016 5.824a.469.469 0 00-.469.469v1.172a.469.469 0 10.938 0v-.763a1.878 1.878 0 001.406-1.815A1.877 1.877 0 006 3.012z" fill="#91BD57"/></svg>