<svg width="24" height="24" fill="none" xmlns="http://www.w3.org/2000/svg"><path d="M17.503 0H6.497A6.504 6.504 0 000 6.497v11.007A6.504 6.504 0 006.497 24h11.007A6.504 6.504 0 0024 17.504V6.497A6.504 6.504 0 0017.503 0zM12 18.562A6.57 6.57 0 015.438 12 6.57 6.57 0 0112 5.438 6.57 6.57 0 0118.562 12 6.57 6.57 0 0112 18.562zm6.72-11.577c-1.07 0-1.94-.87-1.94-1.939 0-1.07.87-1.94 1.94-1.94 1.069 0 1.939.87 1.939 1.94 0 1.07-.87 1.94-1.94 1.94z" fill="url(#paint0_linear)"/><path d="M12 6.845A5.161 5.161 0 006.845 12 5.161 5.161 0 0012 17.155 5.161 5.161 0 0017.155 12 5.161 5.161 0 0012 6.845z" fill="url(#paint1_linear)"/><path d="M18.72 4.514a.533.533 0 100 1.066.533.533 0 000-1.066z" fill="url(#paint2_linear)"/><defs><linearGradient id="paint0_linear" x1="24" y1="12" x2="1.11" y2="16" gradientUnits="userSpaceOnUse"><stop stop-color="#008CB9"/><stop offset="1" stop-color="#96BF53"/></linearGradient><linearGradient id="paint1_linear" x1="17.155" y1="12" x2="7.321" y2="13.719" gradientUnits="userSpaceOnUse"><stop stop-color="#008CB9"/><stop offset="1" stop-color="#96BF53"/></linearGradient><linearGradient id="paint2_linear" x1="19.817" y1="5.042" x2="18.03" y2="5.355" gradientUnits="userSpaceOnUse"><stop stop-color="#008CB9"/><stop offset="0" stop-color="#51A9C6"/><stop offset="1" stop-color="#DCF2A5"/></linearGradient></defs></svg>