<svg width="140" height="412" fill="none" xmlns="http://www.w3.org/2000/svg"><path d="M115.412 40.5C103.591 6.35 64.184-9.084 32.332 7.663 6.388 21.126-5.762 51.666 3.761 79.25c11.165 32.51 16.747 66.334 17.404 101.471S16.897 250.01 7.046 282.52c-3.941 13.464-3.284 27.585 1.97 39.735 5.91 14.449 4.926 30.868-.985 45.317-.657 1.97-1.314 3.941-1.642 5.911-2.956 14.12 4.597 28.898 17.733 34.809 17.732 8.209 37.764-.986 43.675-19.047l.985-3.94c2.955-15.106 13.135-27.585 25.942-35.794 11.494-7.225 20.688-18.39 25.286-32.51 13.792-44.661 20.031-90.963 19.375-138.579-.986-47.615-8.867-93.918-23.973-137.921z" fill="url(#paint0_linear)"/><path d="M59.589 5.364c23.315 0 44.003 14.778 51.228 36.451 14.777 43.675 22.987 89.649 23.643 136.608.657 46.959-5.582 93.261-19.046 137.265-3.941 12.479-12.15 22.987-22.987 29.883-15.106 9.195-25.286 22.987-28.24 38.749-.33.985-.658 2.299-.986 3.284-3.612 11.165-14.12 18.718-25.943 18.718-3.94 0-7.88-.985-11.493-2.627-11.165-5.254-17.733-17.733-15.106-29.883.329-1.642.986-3.284 1.642-4.926 6.896-16.747 7.225-34.152.985-48.929-4.597-11.493-5.254-24.629-1.641-36.451 10.18-33.167 14.777-67.975 14.448-103.441-.656-35.465-6.567-69.946-17.732-102.784-8.867-25.614 2.298-53.199 26.27-66.006 7.553-3.612 16.091-5.91 24.958-5.91zm0-4.597c-9.195 0-18.718 2.299-27.256 6.568C6.39 20.799-5.76 51.338 3.763 78.923c11.165 32.51 16.748 66.333 17.405 101.47.656 35.138-4.27 69.29-14.12 101.8-3.941 13.464-3.285 27.584 1.97 39.734 5.91 14.449 4.925 30.868-.986 45.317-.657 1.971-1.313 3.941-1.642 5.911-2.955 14.121 4.598 28.898 17.733 34.809a32.126 32.126 0 0013.464 2.955c13.464 0 25.942-8.537 30.211-22.001l.985-3.941c2.956-15.106 13.136-27.584 25.943-35.794 11.493-7.224 20.688-18.389 25.285-32.51 13.793-44.66 20.032-90.962 19.375-138.578s-8.866-93.918-23.972-137.922C106.876 15.544 83.889.767 59.589.767z" fill="url(#paint1_linear)"/><defs><linearGradient id="paint0_linear" x1="70.031" y1="11.361" x2="69.552" y2="362.531" gradientUnits="userSpaceOnUse"><stop stop-color="#00A1CB"/><stop offset="1" stop-color="#0074BC"/></linearGradient><linearGradient id="paint1_linear" x1="66.546" y1="411.584" x2="71.311" y2=".875" gradientUnits="userSpaceOnUse"><stop stop-color="#004C8A"/><stop offset="1" stop-color="#5BCCEE"/></linearGradient></defs></svg>