<svg width="31" height="31" fill="none" xmlns="http://www.w3.org/2000/svg"><g clip-path="url(#clip0)"><path d="M30.621 28.794l-8.815-8.815a12.21 12.21 0 002.735-7.709C24.541 5.505 19.036 0 12.271 0 5.505 0 0 5.505 0 12.27c0 6.766 5.505 12.27 12.27 12.27 2.92 0 5.6-1.027 7.71-2.735l8.815 8.816a1.288 1.288 0 001.826 0 1.29 1.29 0 000-1.827zm-18.35-6.836c-5.343 0-9.688-4.345-9.688-9.688 0-5.342 4.345-9.687 9.688-9.687 5.342 0 9.687 4.345 9.687 9.687 0 5.343-4.345 9.688-9.687 9.688z" fill="#fff"/></g><defs><clipPath id="clip0"><path fill="#fff" d="M0 0h31v31H0z"/></clipPath></defs></svg>