<svg width="44" height="44" fill="none" xmlns="http://www.w3.org/2000/svg"><path d="M22 38.328a.86.86 0 100-1.719.86.86 0 000 1.72zm14.094-26.826l-13.75-6.016a.859.859 0 00-.688 0L7.912 11.5c-.009.008-.521.208-.521.79v5.304a2.582 2.582 0 00-1.72 2.43v3.438c0 .475.386.86.86.86H9.97a.86.86 0 00.86-.86v-3.438c0-1.12-.72-2.075-1.72-2.43v-3.99l5.157 2.256v5.883c0 .34.2.648.51.786.165.073 4.076 1.792 7.224 1.792 3.148 0 7.059-1.72 7.224-1.792a.86.86 0 00.51-.786V15.86l6.36-2.783a.86.86 0 000-1.574zM9.11 22.602H7.391v-2.579a.86.86 0 011.718 0v2.579zm18.907-1.434c-1.116.445-3.844 1.434-6.016 1.434-2.167 0-4.899-.99-6.016-1.434v-4.557l5.672 2.481a.86.86 0 00.688 0l5.672-2.481v4.557zM22 17.367l-11.606-5.078L22 7.211l11.606 5.078L22 17.367z" fill="#6AAF72"/><path d="M39.703 17.445h-7.39a.86.86 0 000 1.72h7.39a.86.86 0 000-1.72zm0 3.438h-7.39a.86.86 0 000 1.719h7.39a.86.86 0 000-1.72zM22 1.719a.86.86 0 100-1.72.86.86 0 000 1.72z" fill="#6AAF72"/><path d="M43.14 0H25.868a.86.86 0 000 1.719h16.414v26.297H1.72V1.719h16.414a.86.86 0 100-1.719H.859A.86.86 0 000 .86v33.17c0 .475.385.86.86.86h16.666l-1.395 7.39h-2.725a.86.86 0 000 1.719h17.188a.86.86 0 000-1.719h-2.725l-1.395-7.39h16.667a.86.86 0 00.859-.86V.86a.86.86 0 00-.86-.86zM17.88 42.281l1.395-7.39h5.45l1.394 7.39H17.88zm24.401-9.11H1.72v-3.437h40.56v3.438z" fill="#6AAF72"/></svg>