<svg width="42" height="42" fill="none" xmlns="http://www.w3.org/2000/svg"><g clip-path="url(#clip0)" fill="#6AAF72"><path d="M17.72 28.383a.82.82 0 100-1.64.82.82 0 000 1.64zM3.283 11.156v3.281c0 .454.367.82.82.82h23.708a.82.82 0 00.82-.82v-3.28a.82.82 0 00-.82-.821H4.104a.82.82 0 00-.82.82zm8.695.82H26.99v1.641H11.98v-1.64zm-7.054 0h5.414v1.641H4.924v-1.64zm-.82 6.564H27.81a.82.82 0 000-1.642H4.104a.82.82 0 000 1.641zm0 3.28H27.81a.82.82 0 100-1.64H4.104a.82.82 0 100 1.64zm0 3.282H17.72a.82.82 0 000-1.641H4.104a.82.82 0 000 1.64zm0 3.281h10.335a.82.82 0 100-1.64H4.104a.82.82 0 100 1.64zm7.054 6.562h4.184a4.108 4.108 0 004.02 3.282 4.106 4.106 0 004.1-4.102 4.106 4.106 0 00-4.1-4.102 4.109 4.109 0 00-4.02 3.282h-4.184a.82.82 0 100 1.64zm8.203-1.64h-2.32a2.465 2.465 0 012.32-1.64 2.464 2.464 0 012.461 2.46 2.464 2.464 0 01-2.46 2.46 2.465 2.465 0 01-2.32-1.64h2.32a.82.82 0 100-1.64zM27.81 6.563a.82.82 0 000-1.641h-1.64a.82.82 0 000 1.64h1.64zm-4.921 0a.82.82 0 000-1.641h-1.641a.82.82 0 000 1.64h1.64zm-4.922 0a.82.82 0 100-1.641h-1.64a.82.82 0 100 1.64h1.64zM16.08 42a.82.82 0 100-1.64.82.82 0 000 1.64z"/><path d="M.822 42H12.39a.82.82 0 000-1.64H1.643V8.202h5.742a.82.82 0 00.82-.82V1.64h22.067v23.186c-.373.44-.72.827-1.02 1.135l-1.74-1.739a4.098 4.098 0 00-5.8 0l-1.16 1.16a.82.82 0 000 1.16l9.72 9.72v4.096h-10.5a.82.82 0 100 1.641h11.32a.82.82 0 00.82-.82v-3.276l.24.24c.32.32.84.32 1.16 0l1.16-1.16a4.1 4.1 0 000-5.8l-1.738-1.74c1.556-1.516 4.978-4.034 6.777-4.817 2.524-1.1 3.435-4.531 1.281-6.685-2.137-2.139-5.554-1.27-6.674 1.262-.42.948-1.29 2.282-2.206 3.533V.82a.82.82 0 00-.82-.82H7.385a.83.83 0 00-.58.24L.242 6.803a.824.824 0 00-.24.58V41.18c0 .453.367.82.82.82zm32.49-9.657a2.46 2.46 0 010 3.48l-.58.58-10.44-10.44.58-.58a2.458 2.458 0 013.48 0l6.96 6.96zm-1.577-6.708c1.421-1.715 3.174-4.163 3.884-5.768.637-1.441 2.664-2.115 4.013-.765 1.35 1.35.664 3.393-.776 4.02-2.041.89-5.594 3.511-7.283 5.162l-1.162-1.162c.39-.398.844-.908 1.324-1.487zM6.565 2.801v3.761H2.802l3.761-3.761z"/></g><defs><clipPath id="clip0"><path fill="#fff" d="M0 0h42v42H0z"/></clipPath></defs></svg>