<svg width="55" height="55" fill="none" xmlns="http://www.w3.org/2000/svg"><path d="M48.984 13.75h4.297v-1.72h-5.156a.86.86 0 00-.86.86v.859h-2.578a.86.86 0 00-.859.86v.859h-1.484a18.983 18.983 0 00-8.649-2.556l-6.313-10.77a.86.86 0 00-1.163-.314L12.47 9.563a.86.86 0 00-.32 1.184L26.76 35.67a.86.86 0 001.162.314l13.75-7.734a.86.86 0 00.32-1.184l-.464-.792.82-.492h1.481v.86a.86.86 0 00.86.859h2.578v2.578a.86.86 0 00.859.86h5.156v-1.72h-4.297V13.75zM35.581 29.703a6.046 6.046 0 00-4.644-2.203 5.97 5.97 0 00-2.267.447l-2.089-3.564 3.316-1.865.003.004a2.685 2.685 0 003.794 0l1.54-1.541.252.252a4.476 4.476 0 001.725 1.075l.289.494a6.003 6.003 0 00-1.86 6.867l-.059.034zm-1.528.86l-2.895 1.628-1.607-2.742a4.287 4.287 0 014.502 1.113zM29.9 18.727a2.665 2.665 0 00-.762 2.246L25.712 22.9l-2.256-3.848 8.908-5.011.822 1.402-3.286 3.285zm-5.686 5.015l-1.845 1.038-2.257-3.848 1.846-1.038 2.256 3.848zm-3.589-15.15a4.294 4.294 0 01-1.427 3.194l-1.78-3.035L20.355 7.1c.179.477.27.984.27 1.494zm1.719 0c0-.805-.162-1.602-.478-2.343l.008-.005a6.025 6.025 0 004.767 2.349c.778 0 1.548-.152 2.268-.448l2.586 4.412-8.908 5.01-2.508-4.277a6.016 6.016 0 002.265-4.697zm3.982-4.852l1.702 2.904a4.304 4.304 0 01-4.635-1.254l2.933-1.65zM15.92 9.594l5.168 8.818-1.845 1.038-5.169-8.817 1.846-1.039zm11.894 24.477l-4.576-7.807 1.845-1.038 4.577 7.807-1.846 1.038zm9.345-5.256a4.293 4.293 0 011.222-4.51l1.685 2.875-2.907 1.635zm4.95-4.753a.86.86 0 00-.442.123l-1.01.606-1.34-2.287a4.482 4.482 0 002.54-1.271l-1.215-1.216a2.79 2.79 0 01-3.94 0l-.86-.86a.86.86 0 00-1.215 0l-2.149 2.15a.963.963 0 11-1.363-1.363l3.756-3.755a.86.86 0 00.133-1.043l-.248-.424a17.263 17.263 0 016.911 2.343.86.86 0 00.442.122h1.72v6.875h-1.72zm3.438 1.72V15.468h1.719V25.78h-1.72zm-33.516 6.015a.857.857 0 00-.86-.86H7.735a.86.86 0 00-.859.86v3.437a.859.859 0 00.86.86h3.437a.859.859 0 00.86-.86v-3.437zm-1.719 2.578H8.595v-1.719h1.719v1.719zm8.594-2.578a.857.857 0 00-.86-.86H14.61a.86.86 0 00-.859.86v3.437a.859.859 0 00.86.86h3.437a.859.859 0 00.86-.86v-3.437zm-1.718 2.578h-1.72v-1.719h1.72v1.719zm4.296-3.437a.86.86 0 00-.859.859v3.437a.859.859 0 00.86.86h2.578v-1.719h-1.72v-3.438h-.859zm-9.453 7.734a.857.857 0 00-.86-.86H7.735a.86.86 0 00-.859.86v3.437a.859.859 0 00.86.86h3.437a.859.859 0 00.86-.86v-3.437zm-1.719 2.578H8.595v-1.719h1.719v1.719zm15.469-2.578a.857.857 0 00-.86-.86h-3.437a.86.86 0 00-.859.86v3.437a.859.859 0 00.86.86h3.437a.859.859 0 00.86-.86v-3.437zm-1.718 2.578h-1.72v-1.719h1.72v1.719zm8.593-2.578a.857.857 0 00-.86-.86H28.36a.86.86 0 00-.859.86v3.437a.859.859 0 00.86.86h3.437a.859.859 0 00.86-.86v-3.437zm-1.718 2.578h-1.72v-1.719h1.72v1.719zm-19.766 3.438H7.734a.86.86 0 00-.859.859v3.437a.859.859 0 00.86.86h3.437a.859.859 0 00.86-.86v-3.437a.857.857 0 00-.86-.86zm-.86 3.437H8.595v-1.719h1.719v1.719zm3.438-2.578v3.437a.859.859 0 00.86.86h3.437a.859.859 0 00.86-.86v-3.437a.857.857 0 00-.86-.86h-3.438a.86.86 0 00-.859.86zm1.719.86h1.719v1.718h-1.72v-1.719zm9.453-1.719h-3.438a.86.86 0 00-.859.859v3.437a.859.859 0 00.86.86h3.437a.859.859 0 00.86-.86v-3.437a.857.857 0 00-.86-.86zm-.86 3.437h-1.718v-1.719h1.718v1.719zm7.735-3.437h-3.438a.86.86 0 00-.859.859v3.437a.859.859 0 00.86.86h3.437a.859.859 0 00.86-.86v-3.437a.857.857 0 00-.86-.86zm-.86 3.437H29.22v-1.719h1.718v1.719zm-15.72-5.408l1.111-1.11 1.111 1.11 1.216-1.215-1.111-1.111 1.11-1.111-1.215-1.215-1.11 1.11-1.112-1.11-1.215 1.215 1.111 1.11-1.111 1.112 1.215 1.215z" fill="#6AAF72"/><path d="M36.094 33.516v18.047H3.437V29.218h16.329V27.5H3.438v-1.719h14.609v-1.718H2.578a.86.86 0 00-.86.859v27.5a.859.859 0 00.86.86h34.375a.857.857 0 00.86-.86V33.516h-1.72z" fill="#6AAF72"/></svg>