<svg width="528" height="530" fill="none" xmlns="http://www.w3.org/2000/svg"><path opacity=".4" d="M514.098 188.419c.25.82.492 1.64.735 2.468l1.836 6.843c-.469-1.562-.469-1.563-2.571-9.311zm5.471 21.557c-.094-.437-.18-.882-.274-1.32l.461 2.023.391 1.859-.547-2.39v-.172h-.031zm-.563 112.058a106.52 106.52 0 01-.516 2.241c-2.188 7.366-5.47 17.075-8.447 24.176.101-.399.14-.781.273-1.195 2.571-7.577 6.518-17.521 8.69-25.222zm-12.793 37.203c.187-.406.359-.82.539-1.242a121.286 121.286 0 01-3.908 12.951l-.781 1.71a117.688 117.688 0 004.103-13.278l.078-.164-.031.023zM284.129 526.113l-1.758.133c-.852.039-4.978.07-15.778.117.359-.117.359-.117 10.159-.172 6.002-.039 7.088-.063 7.362-.078h.015zM68.032 88.93c1.196-.461 1.798-.688 7.378-1.203l-.578.648c-.157.187-.18.492-.477.562-1.215.19-2.438.319-3.665.383 0 0-3.173.336-3.76.836l1.102-1.227zm271.223-75.308l-.836-.258c5.314 1.766 12.434 4.007 17.677 5.976l2.54.984c-5.767-2.047-13.433-4.859-19.279-6.67h-.102v-.032zm165.239 348.92c.148-.234.297-.477.43-.727-8.081 21.817-8.401 22.652-18.803 40.618-.532.859-1.079 1.726-1.626 2.585 11.981-20.793 12.45-21.605 19.936-42.398a.593.593 0 01.063-.086v.008zM165.695 20.857a55.959 55.959 0 018.401-2.344c-.5.188-.984.43-1.5.586-1.039.305-2.454.57-3.501.781-1.516.36-3.486 1.031-4.955 1.562l1.563-.625-.008.04zm-44.686 23.049C138.772 33.322 144.454 30.16 169 20.583c-9.026 3.983-18.334 7.319-27.196 11.716-7.033 3.453-15.966 8.772-22.624 12.841l1.829-1.195v-.039zM253.643 2.39h.907c-22.913 1.46-41.013 2.617-71.897 13.185l-.86.258c19.819-6.444 35.472-11.537 71.71-13.412l.14-.03zm-43.036 13.388c-.304.164-.531.461-.906.492-11.261.907-22.562 1.18-33.815 2.281 1.383-.53 2.938-1.14 34.721-2.773zm22.28 509.468l3.126.336h.25l-3.391-.367.015.031zM66.939 439.05l1.71 1.836a125.615 125.615 0 01-1.671-1.851l-.04.015zm79.4 60.631c-4.072-2.343-4.15-2.39-5.69-4.827-.555-.875.102-2.453.477-3.406l1.336.781c-.351.961-.961 2.531-.398 3.383 1.227 1.866 1.899 2.89 5.767 4.788l-1.492-.781v.062zM11.656 188.332c8.455-23.769 18.982-53.357 59.025-94.154-1.93 5.327-8.846 9.826-12.699 13.974-11.87 12.786-33.768 40.492-46.975 82.352l.11-.368.539-1.804zm-3.18 11.498c.125-.484.25-.976.383-1.46 1.97 3.46 9.643 6.373 43.044 11.029a24.1 24.1 0 00-.328 1.562c-29.697-4.077-42.2-7.256-43.146-10.935 0-.055 0-.133.047-.196zm56.868 237.252c-.226-.273-.46-.546-.687-.828 20.365 20.395 34.096 31.159 70.623 50.983.187.172.445.406.648.57-36.37-19.527-50.085-30.236-70.49-50.615l-.094-.11zm-3.937-4.733l-.984-1.187c2.735.305 7.322.781 58.611 1.656.196.359.415.726.633 1.078-27.352 0-56.267-1.148-58.166-1.453l-.078-.094h-.016zm12.955-93.834c.172.336.415.781.61 1.094-23.75 29.525-38.856 53.177-16.81 88.811-29.696-36.173 3.634-75.204 16.2-89.905zm-70.458-30.76c-2.735-33.298 9.683-57.505 47.444-92.483 0 .344.094.782.149 1.141C17.322 249.727.63 273.308 4.232 309.7a60.214 60.214 0 01-.328-1.945zm4.392 21.035c1.563.781 4.376 2.211 64.449 4.476.117.734.148.906.281 1.484-16.317-.461-63.167-2.242-64.308-4.304l-.422-1.656zm443.283 68.355c.367-.531.64-.992.781-1.218 15.841 13.388 21.882 22.871 11.191 37.563-.367.445-.742.883-1.117 1.32 8.377-11.959 8.987-21.035-10.941-37.493l.109-.172h-.023zM247.134 526.504l-1.633-.109c1.047.046 2.259.078 6.346.14l1.289.102c-4.087-.063-5.142-.102-5.877-.125l-.125-.008z" fill="#73A6C8"/><path opacity=".4" d="M146.557 494.471c.289.14.688.304.977.461 11.457 6.116 21.882 14.161 34.385 18.402 23.406 7.96 32.245 9.585 57.002 12.545-53.665-4.921-80.767-23.48-92.333-31.408h-.031zm158.548 24.448c-2.517 1.039-34.253 6.585-37.863 7.217.195-.085.328-.148 8.033-1.562a1358.966 1358.966 0 0029.83-5.686v.031zM72.754 94.678a26.1 26.1 0 00.781-.578c-10.73 20.129-26.946 50.537-17.341 107.979-.305.25-.704.594-.985.86-3.384-25.542-8.502-64.145 17.45-108.191l.102-.07h-.007zm93.45-72.604h.242c-23.491 11.31-50.117 24.136-82.79 58.927 16.098-16.607 38.136-39.259 82.54-58.927h.008z" fill="#73A6C8"/><path opacity=".4" d="M169.915 20.856l1.126-.421c-14.161 7.81-40.505 22.269-34.565 55.278a19.21 19.21 0 00-1.141.89c-1.563-13.45-4.189-35.93 34.432-55.692l.148-.055zM131.841 80.47c-.32.476-.406.609-.742 1.171-28.642 2.914-38.027 4.187-51.695 6.554.781-.922 2.266-2.632 52.437-7.725zm-8.533 357.714c.516.429.648.531 1.172.914-1.415 17.246-1.133 29.963 15.036 48.701-.203-.109-20.17-13.575-16.208-49.615zm26.945 56.935a7.225 7.225 0 00-.438-.422c27.938 13.342 56.345 25.777 96.53 31.244l.57.071c-23.781-3.453-50.797-8.686-96.615-30.869l-.047-.055v.031z" fill="#73A6C8"/><path opacity=".4" d="M148.401 493.564l-.891-.656c20.374 7.991 42.06 16.052 83.049 26.948l.391.219a662.858 662.858 0 01-82.432-26.425l-.117-.086zM56.928 220.896a8.23 8.23 0 00.9-.343c1.273 25.542 2.86 57.325 18.692 104.019a9.61 9.61 0 00-1.016.375c-7.94-25.503-17.818-57.231-18.7-104.019h.124v-.032zM130.59 87.164l.547.312c-29.134 35.548-48.882 64.285-69.81 114.237l-.524-.321c15.63-38.321 32.041-69.292 69.787-114.228zm4.972-.313c.312-.156.727-.383 1.031-.555-2.344 36.369 4.142 71.807 44.248 145.286-.437.242-.992.593-1.406.867-31.205-58.333-48.453-100.856-44.022-145.559l.149-.07v.031zM62.836 213.366c.078-.304.196-.718.352-1.468 17.45 5.077 43.818 12.748 112.604 26.276-.078.375-.172.891-.234 1.273-44.467-7.811-88.683-18.605-112.784-25.877a2.06 2.06 0 00.062-.204zm143.77-194.182C188.632 30.9 170.025 42.976 143.009 73.86a5.588 5.588 0 00-.68-.203c15.153-16.482 34.01-36.986 64.277-54.482v.008zm30.454 37.79v.992c-30.76 6.647-62.566 13.528-94.146 21.52.133-.259.313-.602.438-.868 13.801-3.679 28.071-7.49 93.708-21.644zm-60.635 189.105c.172.343.414.781.609 1.117-42.364 33.157-63.621 49.795-92.56 82.18-.187-.321-.445-.782-.648-1.047 12.848-15.091 30.478-35.751 92.599-82.25zM130.669 440.73c.195-.094.381-.206.555-.336 16.075 17.63 53.719 58.903 98.358 78.407-12.731-5.913-51.461-23.917-98.999-78.032l.086-.039zm-48.733-96.701c.274 0 .641-.101.915-.164 9.135 26.644 15.747 45.89 37.511 82.016a7.823 7.823 0 00-.86.141c-15.239-25.73-24.5-42.227-37.73-82.016l.164.023zm4.485-8.278c0-.336-.086-.688-.219-1.422 27.001 3.054 50.633 5.601 109.065 10.647v1.179c-45.045-2.937-102.43-9.475-108.83-10.209.003-.065.003-.13 0-.195h-.016zm45.396 100.824a9.39 9.39 0 00-.351-1.047c20.732 7.647 35.659 13.068 79.422 27.433-.02.343-.02.687 0 1.031-43.669-14.349-57.627-19.333-79.071-27.276 0-.047 0-.102-.039-.141h.039zm72.328-80.578c.32 0 .742.07 1.062.085 3.079 50.405 4.345 71.268 11.418 103.161-.313 0-.727-.055-1.04-.063-3.907-18.074-9.815-45.374-11.44-103.183zm-7.112-4.313c.309.457.654.888 1.032 1.289-28.845 23.972-55.947 47.866-70.561 76.493a15.631 15.631 0 00-1.125-1.046c8.596-15.443 19.232-34.673 70.654-76.736zm14.675-333.766c.297-.132.594-.28.883-.43-1.156 9.374 2.517 16.959 26.571 34.94a6.955 6.955 0 00-.696.78c-22.288-16.863-28.313-24.776-26.852-35.266 0 0 .086 0 .125-.063l-.031.04zm46.844-15.645h1.501c-32.362.782-48.195 4.937-47.062 12.389-.351.156-.711.32-1.062.492-.649-7.757 14.965-12.084 46.42-12.857l.203-.024zm4.447-.03c.077.077.15.157.218.242a58.808 58.808 0 01-7.236 2.203c-12.949 3.491-25.969 6.74-38.926 10.232.586-.39.586-.39 9.331-2.773.93-.25 4.876-1.297 21.35-5.468 13.137-3.35 14.239-3.726 15.497-4.32l-.234-.093v-.023zm2.399 524.011c-.226.125-.226.125-3.126.18-6.181.109-7.924.171-8.502.195l-1.196-.094c3.188-.109 6.596-.172 12.785-.281h.039zm-29.65-4.242c1.563.507 2.853 1.624 4.439 2.101a87.58 87.58 0 009.91 2.187c-8.284-.844-11.785-2.835-14.349-4.288zm167.153-479.23l1.422.906c1.258.976 3.009 2.343 3.782 3.726.477.874.329 2.343.11 3.327l-1.329-.953a6.722 6.722 0 00-.453-3.811c-.703-1.242-2.344-2.344-3.532-3.195z" fill="#73A6C8"/><path opacity=".4" d="M216.117 471.006c.35.172.71.323 1.079.453-1.376 14.06-3.447 35.282 14.645 47.647-.219-.062-21.405-8.662-15.724-48.085v-.015zm21.897 50.624l-.641-.297c18.17 2.789 24.297 3.726 28.345 4.749-.43.235-1.133-.117-1.618-.211-4.767-.976-9.268-1.656-26.008-4.202h-.078v-.039zM263.826 2.352c2.532 1.82 4.056 2.913.196 14.013-2.978 8.592-10.769 22.878-17.029 34.368l-.672-.25c16.841-31.892 23.14-43.828 17.505-48.14v.009zm25.204 508.733c.077.062.158.12.242.172-8.596 6.694-13.793 10.732-21.147 14.239 6.588-3.749 9.894-5.624 20.905-14.411zm-66.427-39.992c.213-.145.412-.31.594-.492 35.605 35.993 46.303 48.256 43.889 54.896l-.29.101c1.485-6.913-5.962-16.075-44.286-54.443l.093-.062zm60.237-39.392c.108.345.247.68.415 1-36.84 17.567-42.498 20.262-60.355 30.463a9.239 9.239 0 00-.633-.867c20.319-11.795 29.306-16.083 60.573-30.627v.031zm-58.775 37.438c.087-.27.149-.547.187-.828 42.568 20.535 56.572 27.932 67.404 37.376-.188.148-.43.351-.602.515-13.567-10.607-23.593-16.129-67.028-36.954a.661.661 0 000-.109h.039zM240.64 62.05l.914.18c-24.593 68.035-36.941 102.184-53.36 168.719l-.977-.227c7.479-34.22 19.131-78.337 53.423-168.671zm263.916 294.665c0 .117-5.791 12.685-50.273 35.15.159-.461.292-.931.399-1.406 21.194-10.936 36.112-19.231 49.874-33.713v-.031zM294.985 123.657l.876.719c-32.542 38.219-69.475 72.291-103.29 109.308a22.976 22.976 0 00-.883-.883c33.182-37.563 70.068-71.627 103.297-109.144zm-83.323 230.254c.335-.298.644-.624.922-.976 63.41 59.457 63.41 59.457 73.381 69.69-.25.195-.586.46-.828.671-4.892-4.686-4.892-4.686-73.624-69.26l.149-.125zm2.674-5.976v-1.39c131.602 10.764 131.602 10.764 146.333 12.068a33.185 33.185 0 00-.328 1.562c-8.995-.781-8.995-.781-146.013-11.998v-.195l.008-.047zm-28.463-96.669a9.829 9.829 0 001.415-.235c3.97 26.339 7.103 47.148 16.02 85.922-.36 0-.836.093-1.188.156-4.611-18.926-10.347-42.477-16.411-85.804h.203l-.039-.039zm8.91-9.186c.047-.461.07-1.078.086-1.562 54.595 2.897 109.189 5.467 163.776 8.529v1.734c-54.61-3.038-109.244-5.639-163.862-8.545v-.172.016zm164.698 12.959c.211.468.523 1.093.781 1.562-47.835 30.603-98.217 56.856-147.006 85.828-.234-.43-.578-.992-.851-1.406 48.96-28.776 99.358-55.092 147.083-85.969l-.007-.015zM246.704 61.066c.274-.173.535-.366.781-.578 12.23 14.685 15.919 19.114 47.554 50.733a7.396 7.396 0 00-.993.851c-28.383-28.549-35.948-36.641-47.483-50.928l.125-.078h.016zM275.612 8.57l.461.195c.196 8.756-2.469 15.84-27.719 42.874a4.582 4.582 0 00-.782-.57c18.178-19.582 29.134-32.212 28.001-42.5h.039zm51.382 32.595c.164.203.391.468.563.663-17.975 4.32-37.512 7.515-77.727 13.771v-.984c29.993-4.687 53.68-8.35 77.195-13.45h-.031zm-9.417-28.825c28.689 12.498 59.393 29.042 91.293 81.486l-.554-.07c-21.327-32.706-42.881-61.403-90.739-81.415zm91.388 41.799c.164.109 15.786 13.161 5.978 43.413-.484-.492-.625-.617-1.125-1.062 3.532-12.42 6.877-24.16-4.853-42.351z" fill="#73A6C8"/><path opacity=".4" d="M313.67 11.326c5.236 1.617 12.098 8.288 12.59 8.983 5.205 7.42 5.283 8.545 5.853 17.286a13.916 13.916 0 00-1.039-.617c-.992-13.06-3.126-17.083-17.404-25.652zM278.597 8.78v-.196c13.824 7.359 24.835 13.678 46.615 27.823a2.54 2.54 0 00-.187.477c-20.108-13.1-30.15-19.309-46.46-28.08l.032-.024zm89.55 252.242a9.745 9.745 0 001.563-.141c2.048 31.752 3.126 53.639.727 89.827-.32 0-.781 0-1.078.071 1.07-31.94 1.719-51.217-1.172-89.773l-.04.016zM263.24 2.243h-.265c2.735.164 13.941 1.101 43.083 6.584l1.11.367c-29.814-5.67-41.13-6.748-43.889-6.944l-.039-.007z" fill="#73A6C8"/><path opacity=".4" d="M264.1 2.352h-.07a71.495 71.495 0 018.26 3.03.464.464 0 00-.046.086 70.524 70.524 0 00-8.136-3.124l-.008.008zm13.434 4.928l-.414-.297c16.88 1.242 21.1 1.562 30.587 2.39l1.196.398c-8.909-.78-13.918-1.171-31.322-2.452l-.047-.04zm59.948 37.813c.063-.16.108-.329.133-.5 29.259 19.692 41.989 29.112 68.114 50.42a6.851 6.851 0 00-.226.782c-26.43-21.63-39.153-31.088-68.052-50.647a.326.326 0 000-.063l.031.008zm-6.423-.405c.234.132.539.296.781.413-.289 12.006-.687 28.44-25.976 66.746a10.325 10.325 0 00-1.204-.781c11.347-17.911 26.891-42.445 26.407-66.394l-.008.016zm108.533 192.033c.057.576.143 1.15.258 1.718-24.054 4.757-31.494 6.155-62.722 11.412a14.258 14.258 0 00-.227-1.734c31.259-5.288 38.918-6.671 62.691-11.396zM304.714 125.789c.344-.125.782-.312 1.11-.468 19.842 35.149 38.59 68.362 58.87 115.197-.329.125-.782.305-1.079.453-19.631-42.32-26.977-58.153-59.065-115.127l.164-.055zm102.641-24.104l.602.976c-9.198 2-28.353 6.155-98.71 14.935a23.133 23.133 0 00-.242-1.047c90.144-13.318 90.144-13.318 98.35-14.841v-.023zm5.322 5.936l.579.367c1.828 33.392-4.181 67.472-39.739 134.131a21.607 21.607 0 00-1.329-.921c21.577-41.219 42.474-85.484 40.489-133.569v-.008zM291.89 436.083c.386-.087.767-.197 1.141-.328 3.689 18.848 9.277 47.335 2.071 68.3l-.781.203c2.797-11.396 6.643-27.01-2.611-68.143h.165l.015-.032zm69.373-69.8c.234.393.512.757.829 1.086-23.906 21.512-26.969 24.128-64.449 56.239a17.6 17.6 0 00-.626-.695c21.327-18.973 43.107-37.422 64.246-56.606v-.024zm-63.113 64.722c.148-.362.276-.732.383-1.109 25.343 6.249 72.514 17.786 96.834 30.713l-.782.781c-18.912-8.186-36.777-15.919-96.474-30.252 0-.047.046-.109.062-.148l-.023.015zm-2.54 78.151c.195-.164.39-.344.578-.524 8.518 3.828 11.23 5.468 12.73 8.764l-1.109.438c-1.36-3.031-3.126-4.531-12.285-8.592l.086-.071v-.015zm95.702-43.751c-.11.172-3.564 4.64-93.357 40.852 0-.141.102-.32.141-.453 70.146-29.346 70.146-29.346 93.216-40.399zm51.96-62.995c.156.054.375.117.539.156-12.707 20.543-19.084 30.853-39.684 53.63a4.471 4.471 0 00-.57-.14c16.278-18.708 23.702-27.237 39.715-53.646zm-70.311-34.946a10.45 10.45 0 001.071-.922c20.944 35.15 31.205 60.067 25.453 90.866l-.86.539c2.869-22.699 2.79-43.742-25.789-90.366l.157-.117h-.032zM338.521 13.49c33.65 9.819 56.165 27.456 63.558 33.252l-.375-.195-.352-.188c-3.993-2.086-8.456-6.249-12.082-8.96-7.736-5.74-22.827-14.551-50.749-23.909zm-21.17-1.75l-.61-.28c33.604 10.482 52.196 18.41 83.049 35.352.187.196.445.446.641.633-24.797-13.6-43.975-23.433-83.01-35.673h-.07v-.031zm102.016 96.271a4.21 4.21 0 00.258-.687c21.241 20.73 35.331 34.899 56.314 63.863-.086.195-.195.461-.266.664-16.872-22.191-27.055-35.587-56.353-63.754 0 0 0-.062.047-.086zm-3.198 1.133l.665.07c9.628 20.543 25.742 54.928 29.97 116.721l-.672-.086c-4.236-36.798-8.237-71.549-29.963-116.705zm26.361 135.021c.258.273.625.624.914.874-11.519 24.996-24.57 53.28-67.755 107.793a13.3 13.3 0 00-1.023-.875c34.026-43.742 51.148-70.987 67.864-107.792zm36.23 84.329c.164.093.391.211.562.289-8.487 23.136-12.363 33.697-25.562 56.942a4.45 4.45 0 00-.68-.304c11.254-21.27 17.459-32.986 25.68-56.927zm-102.462 34.822c.201-.429.375-.87.523-1.32 31.072 11.013 47.39 17.473 68.076 28.963-.36.578-.477.781-.782 1.398-13.715-7.506-25.562-13.989-67.856-28.901l.078-.172-.039.032zm100.452-42.415c0 .367-.062.86-.078 1.234-18.474 8.913-38.683 17.786-99.171 36.236v-1.164c62.777-20.676 70.85-23.331 99.249-36.306zm1.697-136.42c.36.601.461.781.836 1.304-7.541 16.513-10.362 22.699-27.102 44.773-.229-.48-.49-.944-.781-1.39 13.191-17.716 18.13-24.347 27.071-44.687h-.024zm-27.118 60.255c.271-.291.517-.604.734-.937 10.371 19.043 21.101 38.743 28.658 66.722-.308.322-.596.664-.86 1.023-5.767-18.481-11.722-37.595-28.649-66.691l.117-.117zM390.506 468.57l.297.258c-17.974 14.567-40.294 32.697-75.406 46.967 19.623-8.943 41.864-19.066 75.109-47.225zm92.536-346.639c18.459 30.947 22.124 39.156 32.706 73.197-10.941-34.728-14.638-42.961-32.706-73.197zm-28.97 322.229l-1.149 1.211c-4.204 3.382-10.557 8.49-50.992 16.856.313-.351.391-.898.915-1.078 2.704-.937 6.525-1.406 9.323-2.007 10.37-2.226 35.214-8.139 41.903-14.982zm-27.501 25.393l-2.219 1.757c-17.381 12.584-25.305 18.325-50.461 30.276 10.159-5.538 20.702-10.428 30.619-16.458 6.924-4.21 15.629-10.67 22.061-15.575zm-29.376-3.039c.36-.255.711-.516 1.055-.781-1.274 9.85-2.868 22.105-27 36.524l-1.344.602c10.995-7.03 26.054-16.661 27.141-36.22l.148-.109v-.016zM414.224 55.85a12.385 12.385 0 00-.547-.586c17.584 11.997 39.473 26.94 59.198 52.224l.461.656c-12.262-14.45-26.156-30.83-59.049-52.216l-.063-.078z" fill="#73A6C8"/><path opacity=".4" d="M413.498 56.85c.437.163 47.67 34.485 66.09 113.486l-.524-.242c-8.369-30.206-19.834-71.573-65.566-113.26v.015zm66.418 60.605c7.994 11.467 15.153 30.783 3.782 57.685-.344-.633-.43-.781-.782-1.367 5.135-14.06 11.52-31.635-2.993-56.318h-.007zM314.819 7.374l2.063.422 9.065 2.093c-1.188-.289-1.188-.289-11.128-2.515zm-36.886-4.686l1.805.109c18.162 1.351 27.126 3.265 30.947 6.6-.445-.133-.891-.219-1.328-.383a7.762 7.762 0 01-1.462-1.093c-.391-.297-2.962-1.617-8.284-2.71-7.971-1.633-16.551-2.188-21.678-2.524zm34.831 7.325l-1.165-.367c9.823.523 14.02.828 17.974 1.304l1.634.446c-3.658-.453-7.174-.781-18.295-1.344l-.117-.039h-.031zm207.273 204.55c4.103 27.831 10.293 69.885-9.557 130.398 8.885-31.01 19.943-69.612 9.557-130.398zm-33.893 108.378c.234-.617.383-1.117.469-1.391 9.604 8.928 17.193 15.974 20.318 28.847a81.51 81.51 0 00-.601 1.507c-2.689-8.733-4.634-15.044-20.225-28.776l.078-.187h-.039zM308.66 518.911l1.055-.375c1.649 1.218 4.689 3.483-9.12 5.702-1.008.164-2.345.351-3.368.484l-1.743.227c10.769-1.461 17.13-3.023 13.168-5.906l-.133-.086.141-.046zm52.735-11.631l1.188-.477c-13.09 5.601-13.598 5.819-24.148 9.108l-1.969.586c13.613-4.39 15.356-4.952 24.773-9.155l.156-.062zm2.768-1.834c-.094.047-11.098 4.686-52.852 12.497a8.029 8.029 0 011.07-.437c17.248-4.077 34.808-6.827 51.782-12.052v-.008zM482.886 188.8l.601.117c7.753 40.266 9.926 68.511 1.321 120.126l-.625-.132c6.643-45.148 7.932-71.815-1.297-120.111zm3.188-6.748c-.11-.609-.25-1.148-.305-1.382 17.724 8.53 23.929 12.334 30.876 21.09.125.546.243 1.085.368 1.624-6.487-7.811-10.824-11.615-30.908-21.128v-.188l-.031-.016z" fill="#73A6C8"/><path opacity=".4" d="M518.843 210.835c.117.414 10.8 41.672-31.447 102.067a20.062 20.062 0 00-.282-1.117c14.286-21.98 35.87-55.2 31.729-100.95zM11.117 190.152c-1.195 4.039-3.438 12.654-4.368 16.763a255.24 255.24 0 014.368-16.763zm225.162 335.484l-.485-.054c5.002.499 11.91 1.101 20.944 1.312h-.461a264.306 264.306 0 01-19.998-1.25v-.008zM54.584 424.155c0-.062-.094-.117-.125-.179.492.531 12.504 15.106 12.613 15.208a.77.77 0 01-.14-.133 266.37 266.37 0 01-12.348-14.896zM262.842 2.235c-4.493 0-8.354.117-10.8.219 3.584-.141 7.184-.214 10.8-.22zM175.504 17.99c-4.557 1.694-8.597 3.413-9.316 4.006l.055.078c1.274-.164 17.646-6.553 18.224-6.936h-.109a86.738 86.738 0 00-8.854 2.882v-.03zM75.105 88.07c3.564-4.039 7.135-7.03 8.487-7.109 2.267.43-7.103 11.186-10.94 13.787-1.563 1.078-2.4 1.101-2.189.062.258-1.226 1.993-3.749 4.642-6.74zm64.614 402.479c-4.29-2.796-5.845-4.499-5.165-4.741.062-.004.125-.004.187 0 2.767.219 16.81 9.131 15.817 10.037-.461.422-5.22-1.609-10.839-5.272v-.024zM51.614 210.781c.852-4.686 3.501-9.568 7.518-9.779 6.252.094 5.666 13.177.5 18.246-3.759 3.687-8.471 1.719-8.33-5.428.029-1.019.133-2.035.312-3.039zm21.295 123.43c-1.337-6.616 1.484-9.702 4.689-9.764 8.518.57 11.128 14.895 6.869 18.52-3.298 2.804-9.784 0-11.543-8.756h-.015zm179.61 192.379a62.091 62.091 0 01-6.909-.781c4.931.226 9.816 1.007 14.762 1.109-.883 0-4.04-.071-7.814-.352l-.039.024zm-133.126-93.116c-2.642-4.414-2.165-7.546 1.156-7.624 7.034.414 13.973 11.607 10.675 14.544-1.977 1.766-7.947-.414-11.831-6.92zm12.41-352.942c2.211-3.18 5.978-6.663 9.901-6.92 4.517 0 1.946 6.248-2.126 10.326-4.579 4.561-9.643 4.811-9.768 1.562-.063-1.719 1.219-3.835 1.993-4.945v-.023zm78.594-64.644c3.126-1.656 6.627-2.953 8.221-3.023.281 0 .946 0 0 .867-2.954 2.719-12.262 7.03-12.168 5.187.039-.602 1.501-1.734 3.908-3.03h.039zm22.505 505.086c-2.758-1.141-3.743-1.961-3.29-2.188a.86.86 0 01.352-.054c2.173.039 10.347 3.679 10.316 4.272-.649.219-4.447-.781-7.378-2.03zm-57.461-280.205c.226-6.031 4.126-10.053 9.925-10.248 10.456.039 12.027 12.786 6.252 18.168-5.471 5.132-16.576 2.578-16.193-7.92h.016zm35.838 224.707c-1.235-3.64.539-6.249 4.313-6.296 7.229 0 10.723 8.217 7.581 11.42-2.634 2.687-9.769 1.101-11.894-5.124zm-15.972-118.854c-.532-6.616 3.985-9.646 8.698-9.717 10.261.235 12.98 11.795 7.901 16.747-5.26 5.132-15.904 1.859-16.599-7.03zm41.972-290.921c.32-1.21 1.782-5.202 7.127-5.468 6.057.07 6.799 6.57 3.54 9.858-3.579 3.617-10.941 2.624-10.941-2.593.007-.602.088-1.2.243-1.781l.031-.016zm45.343 372.259c.524-3.257 3.126-6.819 8.87-7.03 9.112.305 8.823 9.311 4.47 13.138-5.15 4.531-14.066 2.133-13.433-5.288 0-.242.054-.562.093-.781v-.039z" fill="#73A6C8"/><path opacity=".4" d="M262.841 2.234c.437-.021.874.024 1.298.133a1.564 1.564 0 01-.383 0 4.972 4.972 0 00-.915-.102v-.03zm2.486 524.067a6.058 6.058 0 012.493-.938c.43 0 .391.18.203.344-.781.664-3.352 1.156-3.798 1.133a.251.251 0 01.094-.063 9.557 9.557 0 001.008-.476zm26.891-409.291c0-3.343 1.985-7.03 7.589-7.202 9.151.25 12.011 10.154 7.674 14.341-4.541 4.406-15.263 1.812-15.263-7.139zM273.182 6.858c-.782-.719-1.454-1.563-.461-1.617 2.11.078 6.822 2.812 5.751 3.71-.555.469-2.93.156-5.29-2.093zm16.567 500.821a8.427 8.427 0 016.369-3.726c2.688.062 2.681 2.195 0 4.757-3.126 2.968-7.494 3.796-7.416 1.398a4.986 4.986 0 011.055-2.429h-.008zm68.833-257.342c-.063-6.038 3.563-10.154 9.018-10.318 10.355.281 11.902 13.997 6.252 18.887-5.259 4.546-15.153 1.913-15.262-8.592l-.008.023zm1.751 109.853c1.227-7.374 6.9-9.42 10.057-9.467 9.433.274 8.347 11.373 3.494 15.958-5.229 4.944-13.731 3.124-13.7-4.687.004-.614.054-1.228.149-1.835v.031zM326.198 40.11c-.68-1-2.642-4.264.734-4.405 5.658.234 12.504 7.811 10.23 9.85-1.735 1.562-7.456-.313-10.941-5.468l-.023.023zm-19.561 478.192c3.235-1.305 6.768-2.648 8.401-2.726.266 0 .508.047.266.336-1.157 1.413-12.504 5.124-13.84 4.827l-.039-.063c.187-.203.39-.437 5.212-2.343v-.031zm132.844-283.384c-.063-5.382 2.391-8.944 6.252-9.085 7.541.047 10.409 14.201 5.47 19.02-4.118 4.031-11.613.563-11.722-9.935zM406.706 100.49c-2.344-4.632-1.023-6.725 1.298-6.741 5.775 0 14.356 11.678 10.941 14.841-2.212 2.031-8.597-.781-12.223-8.084l-.016-.016zM308.911 9.772c-4.759-1.562-5.744-1.921-6.142-2.171l.078-.079c2.118.086 15.145 3.719 15.293 4.812-.64.273-5.267-1.226-9.229-2.562zm84.572 452.798c3.399-3.859 7.158-6.358 9.815-6.53 2.814.047 1.47 3.577-2.993 7.881-4.954 4.765-9.901 6.343-9.979 4.039 0-1.117 1.086-3.031 3.126-5.39h.031zm49.828-68.689c2.297-5.007 5.822-8.366 8.971-8.592 5.291.046 1.711 10.154-3.126 14.786-3.845 3.648-7.494 3.242-7.369-.828a14.379 14.379 0 011.563-5.397l-.039.031zm33.933-76.034c.922-4.156 3.126-8.686 6.658-8.944 5.658.196 4.322 13.849-.555 18.583-2.712 2.624-6.666 1.999-6.682-4.96.031-1.578.225-3.149.579-4.687v.008zm-1.267-139.685c-.977-3.866-.969-8.077 1.954-8.303 5.095.062 10.94 14.685 7.361 18.403-2.11 2.202-7.033-1.149-9.315-10.1zm-71.693-127.5c-2.845-2.21-6.01-4.89-4.955-5.054 2.923.196 16.536 10.272 15.489 11.475-.32.375-2.946-.492-10.534-6.42zm-38.121 453.877c5.752-2.609 8.37-3.796 9.198-3.905-.461 1.14-16.411 7.811-17.974 8.076.078-.179.078-.179 8.784-4.132l-.008-.039zm139.339-150.543c1.993-5.514 3.806-9.068 4.736-9.271 1.704.375-4.306 17.481-6.635 18.871-.664.391-.672-.953 0-3.523.508-2.007 1.329-4.413 1.93-6.077h-.031zM330.604 11.28c-3.126-.86-6.345-1.477-9.464-2.438 4.111.781 16.138 4.03 19.538 5.265a6.672 6.672 0 01-1.313-.344c-4.595-1.335-5.987-1.742-8.722-2.484h-.039zM517.31 204.649c-.961-4.109-2.032-9.131-1.727-9.717.868.703 5.025 18.333 4.689 19.864-.563-.188-2.094-6.445-2.954-10.155l-.008.008zm-40.489-91.6c-1.688-2.398-3.454-4.733-5.087-7.17l2.884 3.859 8.526 12.341c-2.196-2.953-4.205-6.038-6.33-9.037l.007.007z" fill="#73A6C8"/><path d="M357.308 510.936l-.899.391c20.077-7.968 28.392-11.264 49.773-24.347l1.993-1.305c-17.583 10.717-24.163 14.732-50.797 25.214l-.109.047h.039zm67.623-37.243l1.634-1.274c11.636-10.021 11.855-10.217 16.974-16.27-.36.32-.782.617-1.094.953-2.345 2.218-5.158 5.468-7.362 7.858-2.751 2.929-7.033 6.249-10.159 8.733h.007z" fill="#73A6C8"/><path d="M358.982 510.046c31.783-14.326 47.913-22.918 79.961-50.577l-.046-.148c-27.032 22.886-41.833 33.884-79.915 50.717v.008zM451.361 79l-1.407-1.414-1.188-1.18c-17.974-16.403-51.437-47.022-113.05-65.48C377.917 26.683 411.231 39.133 451.376 79h-.015zm13.996 15.358c-.383-.461-.781-.914-1.156-1.367-2.102-2.11-4.931-4.929-7.213-6.843.351.407.664.836 1.047 1.211 2.172 2.125 5.283 4.742 7.322 7.03v-.031zm43.31 107.104c.172.258.391.617.547.883-1.422-22.028-3.376-52.194-30.009-90.07l-1.649-2.343c12.653 19.262 29.986 45.632 31.033 91.389l.078.11v.031zM335.919 19.387l1.078.554c1.008-2.757 1.282-3.499-.437-5.936-1.337-1.898-4.572-3.421-6.932-4.538l-1.563-.438c3.907 1.836 5.814 2.758 7.447 4.93 1.634 2.17.923 3.67.258 5.35l.149.078z" fill="#73A6C8"/><path d="M447.375 77.408c-26.695-24.48-55.259-47.96-110.916-66.199 35.409 12.498 68.2 26.081 110.916 66.199z" fill="#73A6C8"/><path d="M449.851 80.734c-.195-.234-25.195-25.73-108.337-58.004 3.352 2.718 9.268 3.905 13.285 5.545 56.525 22.793 83.533 43.578 95.068 52.46h-.016zm-95.176 430.733c.219-.086 22.233-8.397 36.957-27.167-.399.235-.837.414-1.212.688-2.344 1.749-4.603 5.139-6.572 7.334-.352.391-8.815 9.678-29.173 19.145zm98.647-66.066c36.199-39.243 52.36-67.824 66.638-117.635.476-1.952.937-3.905 1.375-5.889-7.26 27.339-19.42 73.072-67.989 123.493l-.024.031zm74.171-187.559c0-.687-.039-1.374-.063-2.062-1.469-12.591-2.735-23.433-14.996-41.398a5.532 5.532 0 00.101 1.546c1.157 3.351 4.29 7.077 6.135 10.108a71.067 71.067 0 018.862 31.838l-.039-.032zm-37.824 35.416c.168.23.322.47.461.719 8.339-21.152 16.208-41.141 18.67-74.791a9.782 9.782 0 01-.625-.937c-2.282 21.09-4.431 41.07-18.592 74.9.027.038.055.075.086.109zm1.595 6.249c0 .672 0 1.234-.055 1.508 22.663-10.366 34.534-17.786 36.285-29.581v-1.835c-1.852 8.74-5.541 15.989-36.269 29.682v.226h.039zM294.297 525.425c16.771-4.25 47.976-12.162 91.653-39.47l.125-.445c-19.334 11.561-51.688 30.901-91.739 39.899l-.039.016zm149.711-393.38c.25.336.492.688.726 1.031 13.004-15.536 18.756-27.338 11.848-45l-1.126-1.163c5.221 14.74 4.814 25.23-11.573 44.976l.125.164v-.008zm63.37 68.105c.141.094.313.234.446.336-4.971-26.839-11.785-63.59-47.14-108.722l-.5-.336c16.083 21.793 38.098 51.655 47.124 108.683l.07.039zm-2.587 4.18c0-2.172-15.629-27.964-57.001-63.012 0 .273 0 .633-.039.898 21.389 19.309 39.856 35.978 57.048 62.114h-.008zM399.892 477.833l-.68.687c12.574-5.741 26.829-12.248 42.2-22.48l1.001-1.086c-11.324 7.163-20.272 12.818-42.419 22.769l-.102.11z" fill="#73A6C8"/><path d="M451.228 446.457c.469-.367 46.366-42.297 36.519-135.366l-.547.539c3.079 44.078 2.493 84.641-35.949 134.827h-.023z" fill="#73A6C8"/><path d="M447.414 449.901c.18-.18 18.185-18.278-14.16-53.263-.297.462-.618.908-.962 1.335 13.434 15.294 24.695 30.768 15.122 51.928zM264.585.079c1.19.067 2.382.067 3.572 0a4.459 4.459 0 00-.555 0h-1.798.782c-.666.052-1.334.065-2.001.039V.079z" fill="#73A6C8"/><path d="M325.072 8.202c-6.252-1.695-36.862-6.17-59.901-8.069 53.673 6.929 53.673 6.929 59.901 8.07z" fill="#73A6C8"/><path d="M321.353 6.935l1.062.25c-14.606-3.444-20.654-4.874-42.442-6.64l-2.149-.132c18.716 1.492 24.937 2.117 43.365 6.483h.164v.04zm-40.232 521.646l2.681-.203c28.008-3.062 35.253-4.562 59.635-12.302-17.974 5.616-33.518 10.474-62.316 12.497v.008z" fill="#73A6C8"/><path d="M291.109 526.268l-1.008.219c21.741-3.367 36.05-6.335 54.704-11.342l1.43-.531c-14.45 3.905-28.564 7.459-54.993 11.63h-.133v.024zm42.466-23.745c-.148.164-.351.367-.5.523 24.523-8.014 37.605-12.873 54.532-19.528.297-.304.602-.601.907-.898-19.733 7.811-29.329 11.334-54.868 19.848l-.078.078.007-.023zm64.534-26.979c.235-.11 24.227-19.754 30.83-74.518-.258.157-.609.352-.875.492-3.908 24.324-7.213 45.305-29.955 74.026zm-105.226 49.944c1.703-.32 17.098-3.507 31.869-17.27a5.152 5.152 0 00-.86.265c-2.774 1.5-5.689 4.687-8.127 6.648-5.752 4.686-18.756 9.162-22.882 10.357zm-28.861 3.711h1.837c16.552-.281 20.318-1.336 21.756-2.219l-1.25.219c-.275.09-.537.213-.782.367-1.101.547-5.423.961-7.033 1.109-1.61.149-5.9.453-14.536.539l.008-.015z" fill="#73A6C8"/><path d="M262.841 529.207c5.822-.18 8.737-.274 20.124-1.719l1.047-.187c-10.222 1.304-13.801 1.726-21.171 1.906zm222.554-236.949l.68-.289c-1.454-29.315-3.908-78.369-39.856-147.082l-.704.273c18.811 38.274 37.387 81.157 39.903 147.098h-.023zm-50.453 93.17c.094.102.219.242.305.352 14.317-18.27 29.126-37.158 46.983-73.948a4.671 4.671 0 01-.649-.851c-11.839 23.394-20.389 40.289-46.725 74.361l.086.086zm-7.588 1.125l.781-.57c-2.907-17.544-10.612-64.137-71.216-150.472-.376.32-.883.726-1.282 1.015 30.9 45.367 63.597 98.669 71.748 150.027h-.031zm53.696-87.242c.101-.382.242-.89.359-1.273-27.563-22.339-62.878-41.914-121.912-67.542-.078.383-.203.883-.312 1.258 51.226 23.855 88.237 41.094 121.857 67.557h.008zM295.446 118.954c.422-.046.993-.085 1.415-.109h.047c-3.822-20.02-15.458-80.961-27.813-110.354h-.43c3.126 8.287 12.715 33.532 26.789 110.432l-.008.031zm34.573-100.138c-2.094-1.562-43.763-15.34-63.84-18.527 12.098 2.523 27.157 5.663 63.84 18.527zm1.774 1.22c-.993-.649-1.009-.664-9.574-2.547-17.294-3.82-34.682-7.17-51.969-11.021l.118.336c20.42 4.686 40.997 8.592 61.425 13.232z" fill="#73A6C8"/><path d="M263.795 529.19c11.723-1.148 25.008-2.452 57.831-20.714l-.125-.274c-16.959 9.233-36.168 19.684-57.643 20.988h-.063zm172.077-401.527l.508-.132c-22.71-39.68-47.312-72.338-93.544-102.708 30.876 21.691 59.19 44.398 93.036 102.84zm-132.901-6.787c.274.211.625.524.883.781 30.197-33.946 55.345-69.284 35.011-97.724l-1.102-.492c12.981 20.31 12.012 44.594-34.948 97.342l.156.117v-.024zm54.548 100.09c.261.356.501.727.719 1.11 35.331-27.097 62.519-51.1 80.408-80.142-.43-.492-.626-.718-1.048-1.281-12.738 19.419-28.461 40.165-80.212 80.142l.133.171zm77.743-84.452a46.587 46.587 0 01-.579-1.468c-26.18-1.968-55.681-4.054-128.109-7.866.047.438.094 1.023.109 1.461 31.58 1.671 84.44 4.476 128.579 7.873z" fill="#73A6C8"/><path d="M262.841 529.206c8.073 0 11.395-2.531 9.894-7.499a5.38 5.38 0 01-.477.273c.133 1.649.086 4.367-1.227 5.374-1.617 1.242-4.298 1.844-8.19 1.852zm12.123-10.35l-.079.281c15.896-4.187 47.39-12.763 47.671-12.841l.664-.68c-16.083 4.406-32.212 8.663-48.264 13.185v.055h.008zm148.858-127.96c.195-.328.453-.781.656-1.093-24.03-16.599-53.672-31.166-109.353-53.732-.125.367-.305.851-.453 1.211 63.089 27.291 80.04 34.626 109.15 53.614zM333.95 500.164c24.914-18.285 55.102-44.234 90.144-98.06a7.665 7.665 0 01-.828-.359c-15.63 23.496-41.856 62.824-89.371 98.419h.055zm-7.152 2.563c.344-.234.696-.453 1.048-.672-6.018-12.45-16.091-21.019-44.897-38.196a7.039 7.039 0 01-.664.969c28.915 17.262 38.887 25.776 44.545 37.899h-.032zm-43.238-45c.086.235.172.547.25.781 91.106-36.891 123.85-53.544 137.831-60.652 0-.399.078-.938.133-1.344-41.903 20.895-60.401 28.612-138.269 61.083l.055.124v.008zm6.784-336.054c.203-.234.492-.539.719-.781-48.101-45.796-58.112-55.325-69.615-75.923-.203.156-.485.351-.696.5 13.246 23.495 30.478 40.398 69.553 76.181l.039.023zm-1.69 4.998c0-.421.055-.992.11-1.413-58.01-9.413-84.487-13.709-125.554-22.168-.188.398-.446.922-.649 1.312 42.138 8.592 66.716 12.615 126.093 22.269zm20.836 196.964c.359.125.781.328 1.156.476 14.653-30.775 22.992-49.616 36.73-86.632a10.806 10.806 0 01-1.563-.656c-11.175 29.479-17.333 45.718-36.542 86.749l.195.063h.024zm35.385-105.449c.321-.164.782-.375 1.087-.524-10.293-21.933-15.458-32.947-43.084-82.43-.289.141-.687.313-.984.438 35.167 66.48 35.167 66.48 42.981 82.516zM151.73 224.38l.383.71c45.952-31.189 92.896-60.871 138.855-92.029-.297-.36-.664-.859-.93-1.242-46.108 30.799-93.638 59.559-138.417 92.389l.109.172zm1.422 5.609v1.015c22.89.297 22.89.297 187.299-2.57 0-.515-.078-1.21-.093-1.734-62.394 1.078-124.788 2-187.182 3.164v.125h-.024zM254.731.187l-1.336.063 11.058-.125-.344-.047-9.276.102-.102.007zm-53.797 507.874l.781.461c5.181-11.17 18.045-21.973 68.498-44.101a5.887 5.887 0 01-.43-1.016c-39.02 17.333-64.176 30.838-69.006 44.586l.133.07h.024zm71.442 8.992h.547c1.821-7.608 4.564-19.098 4.486-49.452-.385.059-.774.09-1.164.094 0 14.13-.047 35.47-3.908 49.397l.039-.039zm-14.075 11.919c-17.974-2.179-35.424-9.608-50.796-16.161.062.094 21.608 11.818 50.796 16.161zm1.565.093l.523.047a7.118 7.118 0 01-3.055-1.171c.695-1.469 1.164-2.437 11.448-6.632a2.128 2.128 0 010-.391c-2.633 1.125-6.181 2.555-8.674 3.961a10.99 10.99 0 00-3.126 2.702c.672 1.18.688 1.195 2.868 1.477l.016.007zm9.103-9.288c.04-.101.102-.242.149-.351-21.499-3.57-43.154-5.999-64.707-9.147.86.602.86.602 8.463 1.727 18.678 2.741 37.426 4.991 56.095 7.811v-.04zM162.663 95.373c.189.156.369.323.539.5 19.49-19.715 28.384-28.713 50.851-49.585a2.609 2.609 0 01-.562-.492c-16.787 15.576-31.197 29.112-50.93 49.507l.102.07zm107.65 362.581l.476-.781c-52.398-30.893-107.22-57.529-158.587-90.241l-.133.89c18.076 12.029 22.374 14.841 46.89 28.846 36.815 20.973 74.491 40.376 111.346 61.278l.008.008zm7.628-3.789l.617.063c11.605-41.602 24.468-104.004 25.898-110.987a10.358 10.358 0 01-1.617-.211c-6.01 29.252-9.98 48.569-25.055 111.128l.157.007zm18.598-125.485c.25-.453.61-1.039.891-1.468-107.845-64.785-107.845-64.785-145.356-91.514a28.743 28.743 0 01-.829 1.523c35.816 25.167 35.816 25.167 145.318 91.459h-.024zm-185.328 32.089c.101.289.226.687.328.984 121.365-17.965 121.365-17.965 184.025-26.347-.047-.499-.11-1.163-.125-1.663-84.268 11.115-135.127 17.832-184.299 26.831.02.066.044.131.071.195zM268.149 4.35c.109.056.219.11.32.173-.086-.781-.211-1.789-.297-2.555L266.305.5 266 .437l1.891 1.508c.062.719.148 1.672.211 2.343h.047v.063zm-52.766 6.03l-.727.36c48.327-9.42 48.327-9.42 50.305-10.318a1.59 1.59 0 010-.195l-.36-.07c0 .077 0 .179-.047.257-.867.336-.867.336-49.093 9.912l-.117.055h.039zm9.159 26.989c.07.148.148.344.203.5 27.876-17.872 35.448-23.707 41.872-30.018l-.359-.312c-6.143 5.717-9.847 9.17-41.763 29.76l.047.07zm-8.862 1.351c.273-.276.559-.536.859-.782-6.408-7.756-13.027-15.786-6.392-25.151-1.243.523-5.15 3.007-3.048 12.864.617 2.898 3.509 7.288 8.596 13.045l-.015.023zm-1.282-27.855l-.782.375c13.285-1.195 51.625-4.686 51.969-4.757a2.996 2.996 0 01-.109-.382c-16.99 1.562-33.987 3.022-50.969 4.686l-.117.055.008.023zm-19.576 495.15c-20.725-17.02-59.315-48.702-86.964-133.928l-.695.055c12.316 38.774 34.799 94.826 87.659 133.873zM37.259 273.933c.07.391.148.922.203 1.32 28.97-15.247 48.108-23.675 97.866-40.617-.12-.561-.201-1.13-.243-1.703-48.382 16.45-70.334 25.597-97.865 40.774.003.07.003.14 0 .211l.039.015zm67.77 79.727l.641.305c8.096-41.258 13.183-61.707 34.659-113.049a21.81 21.81 0 01-1.337-.703c-21.952 52.49-28.032 76.415-34.119 113.377l.156.07zm37.864-133.044c.328-.063.781-.125 1.117-.164.446-48.124 1.446-68.667 10.941-110.136-.367.055-.859.117-1.235.148-8.072 35.361-11.362 58.482-10.815 110.136l-.008.016zm-6.596 5.366c.251-.523.543-1.024.875-1.5-27.258-22.238-49.453-41.398-66.38-68.737-.406.609-.516.781-.938 1.312 12.559 19.176 24.672 35.338 66.427 68.902l.016.023zm83.032 298.225c.414.046.823.135 1.219.266-8.44-2.89-15.106-5.171-18.459-12.334a18.668 18.668 0 01-1.125-.547c2.61 4.726 4.493 8.132 18.201 12.584h.164v.031zm-24.992-17.442c-29.056-16.794-47.124-27.651-80.595-55.576 0 .141-.063.321-.094.461 17.794 14.779 39.934 33.166 80.689 55.115zm-90.395-68.144c.258.141.594.344.844.5-5.314-23.433-6.807-35.415-1.414-68.026-.43-.231-.843-.492-1.235-.782-4.338 28.339-4.736 42.914 1.672 68.277l.133.07v-.039zm-6.751-81.845c.094-.281.234-.656.352-.929-24.453-24.519-42.115-42.234-60.55-71.705-.117.402-.26.796-.43 1.179 11.933 18.27 24.226 37.157 60.628 71.455zM214.109 9.436c.344-.11.695-.203 1.031-.32 5.166-1.828 11.902-4.75 17.193-6.124 4.689-1.211 11.066-1.883 15.849-2.39-19.538 1.562-30.479 7.03-34.081 8.834h.008zM156.865 95.06c.274-.101.649-.219.922-.305 5.471-25.682 12.246-57.653 48.234-80.453-.368.086-37.934 14.333-49.156 80.766v-.008zm-1.031-68.94l-.985.54c13.23-4.172 23.679-7.468 51.578-14.115.328-.172.664-.344 1.008-.5-27.516 6.507-37.808 9.623-51.484 13.99l-.149.085h.032zM74.122 146.598c0 .313-.07.727-.11 1.039 18.037-10.935 36.683-22.183 74.812-40.914a6.522 6.522 0 010-1.234c-21.006 10.443-47.139 23.433-74.702 40.945.004.055.004.11 0 .164zm77.844-47.96c.334-.397.688-.775 1.062-1.133-21.209-25.776-28.751-45.117-4.517-67.448-.172.086-17.192 10.084-16.106 31.174.781 14.88 12.504 28.979 19.537 37.407h.024zM40.275 121.462c4.275-6.038 9.972-14.115 14.583-19.903.148-.227.297-.445.453-.664-4.04 5.319-9.519 12.365-13.286 17.887-.593.891-1.18 1.789-1.758 2.68h.008zm19.663-26.605v.156l1.102-1.296v-.164c-.368.437-.735.867-1.094 1.304h-.008z" fill="#73A6C8"/><path d="M214.554 523.254c-25.68-7.967-64.488-20.019-102.672-70.775a6.589 6.589 0 01-.781-.165c21.881 27.472 47.889 55.584 103.453 70.94z" fill="#73A6C8"/><path d="M215.727 523.73c-36.433-10.155-45.084-12.576-76.156-27.964.187.141 24.835 15.622 76.156 27.964zM8.179 192.229c4.618-10.279 11.808-20.215 53.195-37.688.141-.649.196-.828.399-1.562C31.67 165.96 14.29 175.771 8.679 190.471c-.172.579-.336 1.157-.5 1.735v.023zm24.773 74.588c.164.055.375.148.531.211 4.322-30.815 8.401-59.926 29.924-106.355a5.467 5.467 0 01-.782-.305c-11.504 26.198-24.539 55.896-29.782 106.418h.101l.008.031zm31.065-118.805c.407-.657.508-.782.93-1.399-9.51-15.309-15.973-28.658-5.697-49.256-3.79 4.429-14.653 21.168 4.767 50.655zm4.423-4.827c.297-.18.711-.399 1.024-.547 6.47-27.19 17.286-72.697 74.757-110.55-.57.22-58.612 28.964-75.804 111.097h.023zm31.611 294.717c-22.827-32.416-54.087-76.821-65.723-149.917l-.711.25c5.275 28.213 16.247 86.937 66.426 149.667h.008zm27.499 50.288l.938.538c-14.473-14.489-18.232-21.316-21.17-38.43-.43-.336-.665-.515-1.204-.968 2.978 16.692 6.127 23.8 21.288 38.781l.148.079zM15.11 357.925c12.504 27.221 29.697 48.624 84.854 83.734-.125-.281-.164-.718-.383-.937-3.306-3.304-9.159-5.936-13.082-8.475-53.532-34.697-66.067-62.738-72.092-76.212l.703 1.89zM.536 228.746c-.14 10.451-.312 23.433 27.102 46.007.055-.727.078-.961.18-1.711C11.915 259.17-1.097 246.117.794 226.895c-.094.614-.18 1.231-.258 1.851zm5.862 101.646c-1.563-11.28-3.345-24.066 21.881-48.109a19.82 19.82 0 01-.343-1.702C16.213 292.36 1.592 307.029 5.952 328.579c.149.602.305 1.211.461 1.813h-.015zm254.498 198.76c-3.728-.164-14.645-.844-35.331-3.632 2.516.507 21.928 3.03 35.331 3.632zm-85.752-14.841c8.651 2.812 19.412 6.311 45.279 10.56-38.457-8.217-38.457-8.217-46.983-11.201.563.211 1.133.414 1.704.61v.031zm73.944 14.536c-6.197-.375-16.576-1.008-23.828-3.062l-1.563-.281c3.447.929 8.659 2.343 23.523 3.249l1.829.094h.039zM32.358 394.669c12.723 20.426 36.402 58.442 91.684 92.459-3.993-4.288-11.323-7.655-16.208-10.935-7.955-5.273-49.054-34.158-77.367-84.992a802.952 802.952 0 001.915 3.429l-.024.039zm119.654 110.213c-7.815-3.906-12.121-6.116-17.294-10.741l-1.407-.781c5.533 4.421 8.315 6.64 17.036 10.764l1.665.781v-.023z" fill="#73A6C8"/><path d="M95.628 469.592c10.636 7.96 15.489 11.592 31.494 19.887-.383-.266-.781-.547-1.133-.781-3.009-1.922-7.323-3.984-10.456-5.694a156.232 156.232 0 01-21.421-14.646c.5.422 1.008.836 1.516 1.25v-.016zM256.098.086a26.585 26.585 0 00-3.016.157c3.407-.172 3.407-.172 4.806-.196h-1.79v.04zM205.95 6.147c-21.483 5.335-32.822 8.772-51.202 19.223 7.088-3.202 13.652-7.467 20.975-10.154 12.417-4.577 15.942-5.702 32.392-9.514l-2.165.461v-.016z" fill="#73A6C8"/><path d="M159.553 23.918l-.391.273C181.56 15.013 206.95 4.609 245.556.758l.695-.07c-21.577 2.632-46.037 5.616-86.643 23.16l-.055.038v.032zm-7.283.281a7.898 7.898 0 00-2.556 1.913c-.273.407 0 1.188.196 1.625l1.469-.781a2.467 2.467 0 01.086-1.937 6.73 6.73 0 012.344-1.563l-1.563.711.024.032zM70.932 82.516l-6.533 7.373c1.352-1.484 1.352-1.484 8.073-8.982-.516.53-1.032 1.07-1.563 1.609h.023zm-3.789 5.117l-.258.375c16.966-16.458 36.199-35.111 75.75-55.857l.469-.399C122.238 43.282 96.261 57.63 67.19 87.57l-.047.063zm386.265-2.93c4.29 4.686 7.111 7.28 7.744 7.186.383-1.36-11.722-14.365-13.73-14.802h-.071c-.164.484 1.876 3.038 6.057 7.592v.024zm-8.933 368.119c-6.017 6.131-5.713 6.647-5.47 6.662 1.641.086 15.129-13.333 14.293-14.216a.138.138 0 00-.05-.032.147.147 0 00-.059-.007c-.422.055-2.134.899-8.706 7.593h-.008zm-96.115 61.005c-7.986 2.984-7.986 2.984-8.268 3.124 1.563.211 17.326-5.741 18.858-6.842v-.078c-.61.078-.61.078-10.574 3.796h-.016zM326.448 8.576c9.979 2.75 9.979 2.75 10.159 2.765-.719-.78-16.693-4.983-19.42-5.264.906.34 1.839.6 2.79.78 1.11.29 3.72.97 6.447 1.72h.024zm179.289 202.861c1.68 7.373 4.548 10.506 5.986 8.373 2.211-3.265-1.016-19.598-5.142-19.918-2.485.375-2.009 6.452-.844 11.545zM390.365 480.965c-4.486 3.843-4.986 5.335-3.947 5.467 3.251.368 16.568-9.888 14.997-11.544a.858.858 0 00-.609-.195c-2.001.086-6.002 2.491-10.441 6.248v.024zm89.997-177.124c-.508 7.921 3.337 10.936 6.838 7.812 4.931-4.39 5.853-19.466-.149-19.817-3.438.101-6.252 5.163-6.689 12.029v-.024zm-45.193-167.586c3.751 8.857 10.831 11.123 12.347 7.03 1.626-4.382-4.11-15.552-10.526-15.849-3.235.055-3.986 3.687-1.821 8.827v-.008zm-12.693 257.617c-2.516 6.937.86 9.842 5.471 7.71 6.721-3.125 10.855-15.146 5.822-16.927a4.186 4.186 0 00-1.368-.218c-3.907.172-7.916 3.968-9.893 9.435h-.032zM333.528 21.113c6.463 3.906 9.573 4.242 9.495 3.328-.148-1.82-10.589-7.397-14.137-7.553-.406 0-1.086.093.438 1.39a37.23 37.23 0 004.204 2.835zm-47.624 505.82c-2.024.399-4.087.578-6.08 1.125 1.399.07 12.973-1.789 14.708-2.742l-.101-.054c-.188 0-.188 0-8.527 1.671zm38.293-22.23c-2.782 2.39-3.533 3.905-1.938 4.015 3.907.226 13.801-6.663 11.988-8.382a1.48 1.48 0 00-1.008-.273c-2.345.078-5.791 1.859-9.042 4.64zm16.162-277.144c.563 10.732 11.847 13.021 16.872 7.608 4.548-4.906 3.212-17.591-7.682-18.185-5.822.118-9.518 4.375-9.19 10.577zM264.287.102c.5.07.938.164 1.485.289.446.133.91.201 1.375.203-.164-.211-2.055-.594-4.306-.594.484-.002.967.032 1.446.102zm31.16 333.195c-.266 10.225 11.05 12.404 16.794 7.311 5.588-4.952 4.572-16.755-5.384-17.497h-.836c-7.604.407-10.449 5.546-10.574 10.217v-.031zm-6.705-205.227c1.133 8.904 12.3 10.279 16.333 5.397 3.485-4.226 1.367-14.216-8.167-14.622h-.062c-5.471.054-8.808 3.843-8.12 9.225h.016zm-19.874 392.013c-.68 2.406 1.43 3.016 3.571 1.805 2.142-1.211 3.681-4.078 1.399-4.765a3.719 3.719 0 00-.859-.117 4.311 4.311 0 00-4.111 3.077zM265.476 6.086a3.215 3.215 0 003.181 2.437c2.212 0 2.196-1.906.649-3.383a3.955 3.955 0 00-2.431-1.1c-1.813.077-1.453 1.842-1.406 2.046h.007zm4.017 455.265c0 6.593 8.058 8.288 12.293 4.031 3.853-3.906 2.845-11.217-4.478-11.279-5.759.289-7.815 3.905-7.815 7.248zM213.398 42.008c-1.915 4.437 1.985 5.702 5.541 4.39 4.915-1.804 7.814-8.522 4.415-10.154a4.053 4.053 0 00-1.68-.336c-3.986.21-7.088 3.288-8.276 6.061v.04zm48.218 487.182h1.227a40.896 40.896 0 01-4.439-.281c-.297 0-.586-.078-.875-.086 1.362.217 2.738.332 4.118.343l-.031.024zM135.078 231.199c-.454 10.209 9.3 12.747 14.575 7.904 5.275-4.842 5.626-18.043-4.924-18.66-4.415.047-9.323 3.429-9.651 10.756zm14.432-128.398c-2.649 6.881 2.642 9.076 7.503 6.866 6.533-2.976 9.636-12.974 4.611-14.841a5.475 5.475 0 00-1.868-.313c-4.173.063-8.386 3.484-10.246 8.311v-.023zm49.016 407.456c4.689 2.812 9.378 4.186 9.19 3.038-.266-1.562-9.065-7.288-12.551-7.303-1.125 0-1.18.664-.133 1.718a20.785 20.785 0 003.494 2.547zM97.8 363.948c2.993 8.522 11.542 10.646 13.879 5.171 2.04-4.796-1.641-15.888-9.55-16.099-5.47.32-6.103 5.89-4.33 10.936v-.008z" fill="#73A6C8"/><path d="M208.841 11.435c-3.907 1.718-5.275 2.867-4.564 3.077 1.47.43 13.973-4.89 13.934-5.936a1.072 1.072 0 00-.273-.062c-1.509.07-5.588 1.382-9.097 2.921zM102.732 445.839c4.915 5.999 10.659 8.326 11.003 5.429.398-3.39-7.471-13.334-12.73-13.576-2.345.039-2.556 2.913 1.727 8.147zM62.274 151.604c-2.79 7.194-.22 10.545 3.86 8.592 6.19-2.914 10.722-16.263 6.064-17.856a3.12 3.12 0 00-.93-.141c-3.196.094-6.892 3.945-8.994 9.373v.032zM253.479.227c-4.689.218-8.08.562-8.596.64C250.869.68 256.832 0 262.857 0c-3.126 0-6.252.078-9.323.227h-.055zM222.65 525.292c4.814.945 9.261 1.562 9.769 1.562-.094 0-17.084-3.577-17.974-3.624.351.391 5.704 1.562 8.244 2.046l-.039.016zM27.638 277.956c.531 9.374 5.142 12.209 7.861 9.1 3.908-4.429 2.415-20.16-3.297-20.348-3.587.25-4.877 5.828-4.564 11.248zm121.42-249.774c-3.001 1.562-6.549 3.687-6.674 4.358.781.547 16.888-7.725 17.583-9.03l-.125-.062c-1.297.14-6.134 2.265-10.784 4.734zm-17.974 463.843c4.126 2.515 8.971 5.046 9.612 4.812-.274-1.023-15.185-10.154-16.982-10.42h-.102c-.195.586 3.736 3.304 7.472 5.585v.023zM60.313 94.569c-2.008 2.39-5.814 7.092-5.846 7.811.782 0 13.028-14.497 13.067-15.482-.657.235-4.173 4.101-7.198 7.702l-.023-.031zm-48 103.074c-.14.219-.32.524-.453.782 5.275-30.128 9.088-44.562 28.415-76.939.578-.891 1.164-1.789 1.758-2.679-18.756 31.072-23.718 44.319-29.696 78.766l-.063.094.04-.024z" fill="#73A6C8"/><path d="M59.937 94.857c.36-.437.727-.867 1.094-1.304 1.36-.469 3.048-1.063 26.453-2.078-.328.422-.64.844-.953 1.273-13.285.61-25.265 1.227-26.57 2.11h-.024zM9.93 203.431c-.14.492-.266.984-.399 1.476-2.141-6.451-2.47-7.443-1.352-12.669.164-.578.329-1.156.5-1.734-.781 6.335-.937 7.311 1.313 12.732a1.9 1.9 0 01-.062.195zm5.181 154.495l-.703-1.89c-.993-3.414-2.524-7.913-3.236-11.389 1.563 4.351 2.345 8.936 3.908 13.279h.031zM.536 228.746a72.62 72.62 0 01.258-1.851c2.454-9.256 2.657-10.014 7.815-17.551a6.692 6.692 0 01-.242 1.624c-.946 2.281-3.04 4.89-4.338 6.983-1.805 2.891-2.805 7.46-3.477 10.795H.536zm7.94 106.95c.117.461.234.929.36 1.398l-2.447-6.702c-.156-.601-.312-1.21-.46-1.812l2.5 6.929c0 .054 0 .124.047.187zm166.668 178.615a61.465 61.465 0 01-1.704-.609c-2.094-.782-4.9-1.883-6.955-2.789 2.891 1.133 5.744 2.343 8.659 3.398zm85.291 14.88h1.524c-5.424-.062-6.877-.078-12.871-.351l-1.829-.094c5.697.273 6.885.336 12.965.437l.211.008zM32.358 394.668c-.641-1.14-1.28-2.283-1.915-3.429-10.605-21.488-11.722-23.73-17.693-42.711.078.157.211.36.282.524 2.172 5.124 4.188 12.294 5.986 17.567 3 8.818 8.98 19.816 13.34 28.049zM160.28 508.32l1.29.554c-2.876-1.172-6.721-2.71-9.558-3.991l-1.665-.781c2.915 1.265 6.799 2.976 9.761 4.139l.172.071v.008zm-64.652-38.727c-.508-.414-1.016-.828-1.516-1.25-9.175-8.373-13.786-12.576-19.201-22.316.375.359.781.679 1.125 1.07 1.735 1.968 3.314 5.14 4.736 7.335.156.249 4.024 6.147 14.848 15.161h.008zM256.098.086h3.688c-1.227 0-2.461 0-3.688.07v-.07zM205.95 6.148l2.165-.461c16.802-3.124 24.469-4.507 45.326-5.515a279.899 279.899 0 00-47.459 5.976h-.032zM152.269 24.2l1.563-.712c3.071-1.171 7.276-2.78 23.218-5.272-.449.234-.911.442-1.383.625a41.76 41.76 0 01-5.142.843c-1.337.227-13.223 2.219-18.248 4.515h-.008zM70.933 82.516a60.159 60.159 0 011.563-1.609c12.809-12.177 39.465-37.493 100.031-60.473-4.134 2.383-10.277 4.288-14.692 6.093-11.941 4.89-30.478 14.169-40.434 20.27-24.43 14.934-35.87 24.737-46.429 35.72h-.039z" fill="#73A6C8"/><path d="M185.264 15.06l-.781.242C203.926 7.374 216.579 2.687 250.339.344l1.008-.047c-22.741 1.875-39.176 3.234-65.965 14.755h-.118v.008zm-4.729 3.25c1.431-.656 2.142-.984 45.108-2.757-.188.164-.242.468-.555.492-14.848.906-29.697 1.343-44.545 2.265h-.008zm72.547 510.709h.414c-23.57-1.796-45.826-3.491-79.251-15.395l-.343-.157c22.772 7.265 44.286 14.123 79.141 15.529l.039.023zm-96.975-22.816c-.383-.14-41.528-16.887-76.711-56.458 5.15 2.703 9.558 9.631 13.621 13.794.977 1 24.437 24.824 63.09 42.664zm8.502 3.492c-1.86-.781-2.149-.883-2.954-1.992a4.34 4.34 0 01-.57-2.828c.226-1.515 2.805-3.124 4.876-4.405.414.257.836.507 1.258.781-2.954 1.898-4.181 2.679-4.735 4.476-.501 1.624.656 2.671 2.125 3.999v-.031zM8.28 330.305c-5.047-26.088-11.33-58.582.29-113.767-5.517 32.228-10.73 62.668-.29 113.767zm6.363-131.865c0-.265 12.074-42.75 69.357-100.2l.055.516c-27.415 28.76-49.938 54.365-69.412 99.684zm75.529 20.535c-.078.414-.14.828-.203 1.242-12.582-1.187-55.305-5.561-76.585-11.865.132-.554.265-1.109.383-1.664 13.605 3.781 30.478 6.976 76.46 12.154.005.065.005.131 0 .196l-.055-.063zm70.694 277.651c.078.094.195.211.281.305-16.02-7.6-49.343-23.433-81.275-48.78l-.61-.914c15.216 11.537 38.216 28.979 81.526 49.319l.062.07h.016zm-.649-52.044c.117.273.297.632.43.898-32.995 0-83.916-1.961-84.323-1.984-.36-.414-.719-.836-1.086-1.25 8.768.398 23.445 1.078 84.94 2.242l.039.094zm-93.403-9.249c-15.395-17.895-36.48-42.414-52.953-85.765l.046-.445c9.566 22.73 21.476 51.021 52.915 86.179l-.008.031zm5.923 4.203c-.273-.273-23.882-30.275 47.53-88.85.196.335.461.781.672 1.109-26.367 23.862-59.182 53.568-48.202 87.741z" fill="#73A6C8"/><path d="M10.524 335.641c-.141-.406-13.02-41.906 79.563-110.761.086.36.21.836.313 1.188-33.292 26.495-78.884 62.793-79.876 109.573zm108.142 9.905c0 .32.109.781.172 1.085-37.3-.406-94.513-3.639-106.665-5.608-.157-.554-.32-1.117-.485-1.671 9.956 1.46 26.422 3.124 106.962 6.061a.984.984 0 000 .133h.016zm349.371 86.03c3.618-5.976 6.744-11.131 2.977-20.309.336-.445.664-.898.985-1.367 1.844 6.296 3.43 11.716-2.845 20.309-.375.461-.781.921-1.117 1.374v-.007zm-211.986 97.575c-52.469-1.484-74.328-17.965-84.831-25.839.25.11.61.235.852.368 2.806 1.562 6.017 4.421 8.596 6.311 5.549 4.069 14.067 7.928 20.679 9.936 21.326 6.491 27.969 7.615 54.704 9.224zm7.588.047c4.298-.078 14.848-.71 37.512-4.147-1.001.226-21.804 3.64-37.512 4.147zM94.885 211.305a12.46 12.46 0 00-1.047.781c-8.206-26.902-20.616-67.542-5.877-113.221.32-.188.782-.461 1.07-.672-9.049 32.658-10.94 61.621 6.01 113.002l-.156.102v.008zM96.87 84.391h-.445c15.106-18.309 33.916-41.094 74.241-62.355h.406c-21.1 11.966-45.045 25.534-74.241 62.37l.039-.015zm71.646-4.983c-.289.219-.555.46-.828.703-7.362-13.279-21.1-37.876 7.033-59.294.422-.164.844-.336 1.258-.515-10.503 8.764-28.078 23.433-7.33 58.997a.983.983 0 00-.141.109h.008zM94.995 92.015c.234-.328.468-.648.687-.976 9.98-1.398 19.413-2.719 68.935-6.733-.194.399-.366.808-.515 1.226-37.731 3.062-50.016 4.327-69.107 6.483zm71.224 405.112c-.172-.094-16.076-11.896-2.243-47.382.367.323.753.622 1.156.898-6.346 17.185-9.44 28.901 1.087 46.484z" fill="#73A6C8"/><path d="M260.154 529.152h.492c-19.005-1.563-39.801-4.625-84.892-25.23-.094-.133-.219-.313-.321-.438 26.93 12.233 53.673 23.434 84.659 25.644l.062.024z" fill="#73A6C8"/><path d="M248.931 525.512l.328.235c-38.105-10.342-58.478-17.474-74.843-23.191l-.844-.688c16.247 5.733 36.472 12.865 75.312 23.613h.047v.031zM123.738 336.727l-.641.164A431.452 431.452 0 0197.832 230.77c.398-.094.922-.25 1.305-.375 3.212 24.495 7.611 58.052 24.765 106.269h-.164v.063zM101.762 210.86c-.344-.164-.782-.368-1.173-.493 17.256-42.273 31.361-70.861 64.864-119l.547.25c-27.258 41.398-42.49 65.464-64.207 119.243h-.031zm143.872 31.876c-.242.125-.547.305-.781.43-62.003-92.998-70.334-135.912-73.46-152.026.383-.188.883-.446 1.25-.657 8.229 37.939 20.218 67.464 73.218 152.152l-.195.101h-.032zm-5.306 6.898a21.525 21.525 0 00-.227 1.562c-45.952-8.592-90.864-17.184-135.197-28.002.125-.516.273-1.211.367-1.727 23.288 5.546 55.181 13.154 135.096 27.94a2.03 2.03 0 01-.047.219l.008.008zM176.136 77.392a9.884 9.884 0 00-.688-.187c10.027-14.88 25.172-37.36 48.64-57.966l.336.102c-12.3 11.716-26.25 24.995-48.288 58.051zm1.962 5.938c.102-.352.219-.837.297-1.196 33.924-7.647 67.989-14.536 101.945-22.168.094.32.234.734.344 1.047-34.167 7.553-68.458 14.544-102.586 22.316zm-44.749 258.248c-.211-.321-.5-.781-.719-1.063 12.801-11.841 36.629-33.892 108.627-82.89.195.351.477.82.703 1.156-85.369 61.543-85.369 61.543-108.626 82.797h.015zm115.232 183.121c-8.495-4.812-34.386-19.434-76.719-72.401a7.72 7.72 0 00.837-.359c12.667 15.528 46.318 56.755 75.905 72.744l-.023.016zm-85.37-86.99c-.156 0-.367 0-.531.055-12.192-22.762-20.546-39.61-33.682-81.501.436-.021.87-.079 1.297-.172 9.511 29.862 15.301 47.054 33.057 81.61l-.141.008zm95.278-79.697c0 .234-.047.554-.07.781-9.894-.532-39.997-2.164-123.131-10.616a13.032 13.032 0 00-.18-1.624c31.26 3.124 58.471 5.803 123.405 11.263v.188l-.024.008zm-4.673 116.212l-.149.492c-6.416-1.961-25.945-7.905-79.367-26.354a9.02 9.02 0 00-.18-1.156c9.815 3.39 9.815 3.39 79.711 26.909v.117l-.015-.008zm7.08-3.656c-.304 0-.726-.054-1.039-.062.781-17.184 1.399-29.557 7.112-101.606.547.065 1.097.097 1.648.094-3.751 45.749-6.017 73.361-7.721 101.543v.031zm-90.018-29.298c-.235-.242-.555-.555-.782-.781 12.746-15.732 30.173-34.548 89.715-75.939.203.304.492.703.719.992-45.537 33.337-68.396 50.069-89.629 75.767l-.023-.039zm109.97-386.03a6.473 6.473 0 00-.337.656c-32.76-18.676-43.763-26.83-51.359-37.938l.782-.531c8.127 11.771 18.755 18.996 50.968 37.712l-.062.101h.008zm-53.61-40.89l-.594.406c-3.524-2.719-12.887-9.944 12.441-13.404C244.954.57 251.277.282 255.051.125l1.673-.054c-28.454 1.164-38.942 5.468-31.166 12.802.492.469 1.242.992 1.774 1.414l-.094.062zm5.58.273c.086-.117.133-.343.273-.398 2.345-.922 5.65-1.828 8.081-2.593C261.78 5.148 267.445 3.086 268.039.899a8.897 8.897 0 00-2.649-.78c2.196.163 2.345.304 3.126 1.1-1.383 2.14-4.814 3.86-35.706 13.428l.008-.024zm29.689 514.575c-1.563 0-5.471-.328-5.471-.336a16.753 16.753 0 01-4.931-1.828c.946.32 1.672 1.094 2.673 1.305 2.558.47 5.146.757 7.744.859h-.015zM423.165 54.186l.203.172c-.524-.406-1.071-.781-1.563-1.219l1.375 1.047h-.015z" fill="#73A6C8"/><path d="M250.386 524.91c-.125-.039-12.59-5.132 6.361-43.109.311.163.632.307.961.429-6.642 13.967-15.747 33.104-7.322 42.68zm13.332 4.28h-.586a11.657 11.657 0 001.883-.171c0-.055-.062-.133-.094-.188-1.438-.484-2.696-.781-10.839-2.031l-.383-.242c10.277 1.648 11.285 1.937 11.722 2.398a7.621 7.621 0 01-1.625.227l-.078.007zm24.834-475.809a7.698 7.698 0 00-1.063-.343c2.673-16.99 7.635-48.609-19.537-52.702 13.598 1.383 28.211 11.717 20.584 53.045h.016zM266.68 529.05c11.925-1.164 21.975-4.843 34.338-10.389.009.063.022.126.04.188-14.13 5.858-21.218 8.803-34.386 10.201h.008z" fill="#73A6C8"/><path d="M266.319 529.058h-.258c16.411-3.249 21.147-11.998-2.86-47.108.306-.149.599-.324.875-.524 18.084 27.151 24.226 43.641 2.29 47.648l-.047-.016zm-.179-54.677c-.094-.219-.219-.5-.32-.711 12.589-6.155 12.589-6.155 64.082-29.502 0 .25.047.594.086.844-21.171 10.006-42.592 19.465-63.809 29.369h-.039zm41.145 39.703l-.727.391c-2.267-7.671-6.932-15.544-41.177-34.314.199-.279.374-.575.524-.883 20.858 11.717 39.723 23.23 41.497 34.752l-.117.054zm-53.251-272.137a26.086 26.086 0 00-1.766-.335c22.984-102.489 30.728-137.014 33.604-176.28l.868.172c-2.595 40.68-8.37 66.745-32.69 176.443h-.016zm246.365 139.31c-5.143 7.608-9.199 13.607-25.938 24.558.149-.495.378-.962.68-1.382 2.165-2.125 5.806-4.054 8.291-5.796 1.946-1.359 11.973-8.678 17.764-19.004l-.782 1.624h-.015zM258.996 244.83a28.45 28.45 0 00-1.008-.922c73.71-81.875 73.71-81.875 94.341-113.346.274.234.641.531.923.781-19.327 30.924-38.7 54.271-94.248 113.526l-.008-.039zm75.555 190.589c-.301.206-.591.427-.868.664-12.433-17.965-22.249-32.08-58.767-69.104a8.67 8.67 0 001.227-1.094c25.101 25.777 41.575 43.305 58.564 69.433l-.156.101zm76.242-63.027l-.258.781c-44.107-3.124-88.027-8.311-132.072-12.06.063-.469.125-1.109.149-1.562 54.032 4.624 91.113 8.014 132.251 12.693 0 .054-.047.133-.07.187v-.039zm-143.154-22.583c-.383.04-.89.118-1.273.18-7.393-41.547-13.989-82.406-14.716-86.929a11.371 11.371 0 001.798-.258c4.735 29.01 9.682 57.982 14.41 86.992h-.219v.015zm149.968-88.038v.937c-52.055-1.656-103.938-6.069-155.938-8.959.071-.591.097-1.186.078-1.781 72.905 4.046 109.33 6.295 155.915 9.615v.188h-.055zm-139.723 93.57c-.203-.438-.508-1-.781-1.414 63.097-34.478 102.25-57.271 141.113-86.148.172.484.422 1.125.633 1.562-35.425 25.737-64.176 44.226-140.965 86zm72.366-237.729a5.216 5.216 0 00-.672.781c-19.162-18.106-38.59-35.931-57.83-53.959a4.71 4.71 0 00.735-.687c19.287 17.965 38.73 35.68 57.877 53.763l-.11.102zM290.294 54.34a8.175 8.175 0 00-.976-.608c9.557-18.325 15.88-33.338 3.321-45.867 2.555.883 8.307 7.64 7.854 16.731-.516 10.202-3.704 17.724-10.199 29.745zm2.932 4.229a14.9 14.9 0 00-.274-.782c55.416-10.709 55.416-10.709 67.802-14.224l.782.711c-5.822 1.836-19.444 6.14-68.31 14.318v-.023zm151.969 41.249l-.594-.094h-.101c-28.353-39.25-55.4-66.136-109.784-87.39 43.123 17.318 75.023 37.189 110.479 87.484zm5.463 3.952c-.36-.382-.852-.632-1.102-1.117-1.211-2.343-.571-6.14-.782-8.772-.687-7.428-4.985-19.691-21.568-35.93 6.58 5.069 22.061 19.684 23.444 45.819h.008z" fill="#73A6C8"/><path d="M363.677 39.75a7.882 7.882 0 01-1.196-.671c-1.75-1.508-2.5-4.773-3.571-6.82-5.314-10.154-20.92-17.527-28.415-21.09 5.901 1.797 16.615 8.468 18.17 9.804 9.565 8.24 9.878 8.834 15.012 18.746v.032zm-6.579-1.257v.313c-24.226-13.88-37.324-20.98-61.261-30.659l-.211-.25c22.608 9.108 36.394 15.958 61.448 30.534v.062h.024zm63.058 325.847c-.32 0-.781.046-1.062.093 4.47-27.745 7.697-47.78 6.486-90.498.438-.006.875-.05 1.305-.133.398 28.432.703 50.889-6.729 90.538zM321.476 8.381l1.032.32c-9.48-1.921-34.683-7.03-56.213-8.592l-.734-.046c22.108 1.468 47.436 6.576 55.751 8.264l.164.046v.008z" fill="#73A6C8"/><path d="M285.122 4.195l.07.086c-4.97-1.39-11.667-3.038-16.755-3.906l-.258-.039c5.135.914 11.926 2.445 16.935 3.906l.008-.047zm38.417 4.819l1.282.398c-5.853-.64-13.137-1.445-31.65-2.952-.289-.133-.578-.266-.875-.383 7.674.633 20.514 1.687 31.071 2.882l.172.055zm119.63 92.092v.398c-17.145-14.653-38.48-32.884-71.576-53.677a5.302 5.302 0 00-.086-.601c16.239 10.49 43.419 28.041 71.67 53.786a.37.37 0 000 .094h-.008zm-82.687 17.106a10.996 10.996 0 00-1.251-.843c7.034-18.481 16.607-43.789 6.573-70.042.195.102 15.309 20.824-5.322 70.885zm73.052 144.294a16.768 16.768 0 00-.164-1.804c26.313-5.265 32.518-6.663 51.094-11.451.062.781.086 1.023.187 1.781-18.669 4.788-24.64 6.186-51.117 11.474zm-10.729-9.686c-.188.086-.438.219-.625.313-15.872-39.423-26.36-65.472-60.667-120.236.336-.148.781-.359 1.102-.539 21.038 33.807 41.481 68.449 60.354 120.4l-.164.062zm-58.238-128.56c-.11-.328-.266-.781-.391-1.094 68.951-11.67 68.951-11.67 81.884-15.099.305.461.61.914.922 1.359-14.543 3.687-32.892 7.866-82.415 14.841v-.007zm65.989 130.201a19.108 19.108 0 00-1.133-.961c22.335-51.81 33.103-91.186 22.053-139.161.313.234 22.968 41-20.92 140.122zM311.122 512.623l-.36.086c9.667-10.513 22.913-24.917 25.711-64.199a11.7 11.7 0 001.219-.351c-2.071 18.02-5.189 45.257-26.492 64.449h-.078v.015zm33.565-76.329a10.33 10.33 0 00-.383-.696c43.435-35.493 45.131-36.883 65.879-55.731.102.257.25.586.375.835-16.309 15.076-27.086 24.996-65.871 55.592zm64.464 36.524l-.953.781c-5.47-5.819-13.77-14.614-64.965-29.9.254-.393.487-.8.695-1.219 19.647 6.038 56.221 17.286 65.38 30.229l-.157.117v-.008zM305.95 523.942l-1.235.289c1.165-.64 3.126-1.312 3.603-2.554.781-2.14.781-2.179-.977-4.57l1-.507c.672.898 1.985 2.273 1.657 3.351-.602 1.976-.781 2.202-3.907 3.952l-.164.039h.023zm5.673-9.398c2.766-2.288 7.814-2.921 11.237-4.108 38.207-13.326 58.698-22.254 81.174-33.174-.102.102-23.867 14.458-92.411 37.282zm105.57-46.029l-.235-.125c19.874-18.395 28.134-26.003 47.367-52.178l.226.141c-15.63 20.762-22.71 30.244-47.358 52.162zm-3.674 1.219a18.62 18.62 0 00-.844.531c15.122-25.128 20.702-46.765 6.901-89.046.417-.315.814-.657 1.187-1.023 10.574 34.314 12.575 58.731-7.111 89.46l-.133.086v-.008zm-2.399-424.22l6.4 4.546-8.901-6.248 2.501 1.679v.023zm6.018 4.657l.782.601c-26.79-17.106-44.373-26.315-83.955-39.055l-.899-.351c36.667 11.716 54.704 20.058 83.994 38.743l.094.078-.016-.016zm88.582 131.28v.836c-12.371-22.027-20.538-36.579-49.156-67.401a6.8 6.8 0 000-.782c20.092 22.074 32.283 36.08 49.179 67.261a.506.506 0 000 .11l-.023-.024z" fill="#73A6C8"/><path d="M489.871 238.096l-.695-.109c-3.064-31.666-6.87-71.08-34.729-122.024l.664.086c12.949 24.909 30.673 59.012 34.76 122.047zM424.225 366.51c-.22-.31-.46-.605-.719-.883 25.485-32.806 46.311-61.59 63.066-108.628.219.32.532.726.782 1.023-9.847 26.058-21.006 55.599-63.121 108.488h-.008zm51.806 33.244c-.062-.063-.133-.157-.187-.219 12.964-22.059 19.482-33.127 28.36-56.786l.226.249c-8.791 21.785-13.629 33.783-28.399 56.756zm-7.19 5.296c-.243.344-.477.688-.704 1.039-10.011-10.076-17.302-15.849-45.076-28.94.287-.48.548-.975.782-1.484 24.226 11.506 34.643 17.653 45.154 29.221l-.117.164h-.039zm-43.91-33.002c.089-.517.151-1.038.187-1.562 35.433-12.396 57.408-21.269 79.165-35.415a67.97 67.97 0 00-.242 1.242c-14.02 9.537-28.744 18.215-79.11 35.712v.023zm68.911-129.109a13.053 13.053 0 00-.594-1.445c9.635-19.332 12.55-25.776 15.629-46.28.04.101 3.447 11.623-15.066 47.725h.031zm14.223 81.86a13.63 13.63 0 00-.484.781c-1.469-19.316-2.853-37.571-14.551-67.792.242-.346.456-.712.64-1.093 7.088 20.434 13.786 39.742 14.474 68.003l-.079.117v-.016zM312.513 522.661c23.272-7.03 49.655-15.045 89.152-42.383-19.1 12.904-45.248 30.58-89.152 42.383zm122.24-57.013c-4.291 2.695-7.128 4.476-22.288 8.647.398-.336.672-.781 1.18-1.031a63.38 63.38 0 016.502-1.836c9.901-2.812 14.418-5.882 15.895-6.889l-1.289 1.109zm-70.069 43.195c18.076-8.342 30.783-14.958 42.2-30.369.43-.281.86-.562 1.282-.851-7.276 9.279-14.153 18.035-41.567 30.463l-1.892.781-.023-.024zM434.926 63.7l-4.626-3.79-.844-.71 3.587 2.897 1.883 1.601zm72.606 116.791c-4.767-3.686-4.524-13.278-6.322-19.059-5.056-16.192-22.014-58.411-70.138-100.567 28.915 26.316 58.611 57.224 76.46 119.626zm-1.6-20.591c4.102 13.107 4.352 13.888 4.431 25.636a8.05 8.05 0 01-.602-1.43c-.555-2.905-.258-6.889-.368-9.841-.187-5.015-2.594-11.436-4.251-16.169.266.601.532 1.203.782 1.804h.008zM306.457 3.586c5.619 1.039 14.067 2.601 19.263 5.397-2.618-.78-5.025-2.077-7.658-2.788a122.015 122.015 0 00-13.395-2.898l1.79.289zm31.807 7.358c-2.345-.476-4.173-.695-9.98-1.187l-1.516-.453c3.298.177 6.582.563 9.831 1.156l1.665.492v-.008zm172.255 347.052c1.563-7.904 2.344-11.872-1.344-20.605a42.93 42.93 0 00.555-1.562c2.625 8.147 3.907 12.24 1.422 20.48l-.633 1.703v-.016zM287.123 528.097c7.69-.781 12.73-1.523 15.747-2.999l1.5-.321c-2.204 1.094-4.736 2.023-15.442 3.125l-1.805.172v.023zm59.01-12.31c-9.206 2.757-17.443 4.976-39.715 8.538 13.762-3.187 27.86-4.89 41.419-9.108l-1.688.57h-.016zm164.55-192.55c8.292-45.694 10.902-71.19 1.149-123.477 8.229 40.993 10.159 69.925-1.149 123.477zm9.793-119.485c-3.126-6.358-3.212-6.475-7.854-10.787a53.731 53.731 0 00-.399-1.64c6.01 6.249 6.252 6.475 7.815 10.685.148.578.281 1.156.422 1.742h.016zm6.954 68.51c-2.618 23.613-4.032 29.815-15.887 54.888a5.382 5.382 0 010-1.281c1.203-4.32 4.454-9.467 6.361-13.521a123.074 123.074 0 009.573-42.484c0 .781 0 1.562-.054 2.398h.007zM11.9 340.046c.78 2.781 2.625 9.303 1.78 9.74-1.562-.515-7.032-19.145-5.891-19.933.781.273 2.344 4.077 4.11 10.154v.039zm154.375 170.358c2.688 1.094 5.47 1.961 8.057 3.289-1.165.07-17.779-6.663-18.912-7.671.179 0 .179 0 10.839 4.39l.016-.008zM13.75 206.633c-1.992 9.155-4.368 11.287-5.133 9.905-1.814-3.25 2.344-19.754 5.056-20.059.633.07 1.907 1.211.094 10.092l-.016.062zm249.093 322.574c-5.643 0-9.949-.203-9.988-.203l9.988.203zM75.762 442.848c4.603 5.28 5.384 7.217 4.587 7.264-2.516.156-14.958-13.638-13.45-14.911a.306.306 0 01.22-.07c1.297.125 4.61 3.077 8.643 7.717zM259.215.024c-4.134.062-6.619.18-10.378.367.055 0 5.588-.383 14.004-.39h-3.626v.023zm-78.352 18.113c-6.431 2.953-9.917 4.242-10.37 3.828.07-1.375 14.286-7.272 16.95-7.42h.118l.054.093c-.211.281-.922.781-6.752 3.492v.008zM95.05 91.945c-5.768 7.81-10.668 9.022-11.027 6.647-.54-3.57 8.229-14.138 12.746-14.208 2.563.094.906 3.983-1.72 7.56zm76.366 408.375c5.283 3.617 4.618 4.171 4.087 4.242-3.071.414-16.31-7.639-15.067-9.155.117-.156.406-.179.61-.195 2.047.133 5.822 1.992 10.37 5.108zM105.38 220.569c-1.164 10.521-9.987 12.927-13.809 7.811-3.907-5.226-1.117-17.966 7.206-18.294 3.852.071 7.392 3.336 6.603 10.467v.016zm29.697 125.929c1.493 9.561-6.502 11.928-11.808 7.811-6.252-4.858-6.65-16.794 1.094-17.692.367-.047.657-.047.836-.055 6.252.383 9.214 5.585 9.878 9.928v.008z" fill="#73A6C8"/><path d="M262.843 529.205c-2.102 0-3.462-.085-3.47-.085 1.157 0 2.344.078 3.47.085zm-89.285-83.71c2.407 5.874-1.493 8.365-6.377 6.249-5.838-2.492-10.441-11.491-5.768-13.654a5.08 5.08 0 012.118-.43c5.166.281 8.596 4.374 10.027 7.811v.024zm3.72-360.105c-3.696 7.312-11.894 8.218-13.402 4.195-1.345-3.593 3.266-12.107 10.55-12.498 4.063 0 5.259 3.515 2.852 8.28v.024zm54.399-69.423c-3.838 3.858-8.292 4.14-8.159 2.413.14-1.913 5.548-5.874 8.854-5.983 2.032.07.969 1.89-.695 3.57zm21.764 510.435c1.633.992 1.664 1.148 1.68 1.234-.461.648-6.65-1.882-6.689-2.726 0-.18.172-.273.547-.281 1.563 0 3.743 1.343 4.462 1.773zm8.276-273.964c-.164 11.029-12.918 13.279-18.654 7.623-5.736-5.655-3.571-18.23 7.815-18.535 5.306.047 10.941 3.476 10.855 10.935l-.016-.023zm4.751 224.654c-.469 5.866-7.995 7.256-11.426 3.358-2.758-3.124-2.242-9.834 4.814-9.943 3.439 0 6.971 2.101 6.612 6.585zm12.152-117.605c-.437 10.249-12.566 11.85-17.849 6.359-4.9-5.109-2.282-15.974 7.87-16.075 6.916.179 10.253 5.022 9.979 9.716zm14.863-299.7c.782 6.202-6.658 7.28-10.682 4.038-4.197-3.367-3.634-10.389 2.133-10.982h.719a7.967 7.967 0 017.815 6.975l.015-.031zm50.9 381.655c-2.892 7.444-11.973 9.49-14.114 4.632-1.672-3.796 1.829-12.123 9.683-12.443 5.423.234 5.775 4.351 4.431 7.811zM264.475.023c1.385.02 2.766.14 4.134.36a2.48 2.48 0 01-.602 0c-.781-.086-1.633-.18-2.454-.242a36.683 36.683 0 00-2.711-.102h1.633V.023zm-1.632 529.184c1.406 0 2.805-.164 4.204-.203-1.396.154-2.8.222-4.204.203zm101.99-403.933c1.665 7.444-5.408 10.155-11.277 6.249-5.72-3.773-7.166-13.701-.781-15.302a8.232 8.232 0 011.735-.203c4.97.18 9.112 3.906 10.323 9.233v.023zM292.413 6.132c2.923 1.234 3.908 2.109 3.345 2.343-.203.086-1.125.242-4.548-1.156-.055 0-6.01-2.616-6.088-3.194 0 0 .07-.07.266-.079a27.833 27.833 0 017.033 2.094l-.008-.008zm16.936 509.905c-3.993 2.304-8.745 3.749-8.331 2.538.414-1.21 7.628-6.006 10.996-6.053 1.618.055.5 1.218.125 1.562a16.768 16.768 0 01-2.79 1.945v.008zM433.51 264.279c-.344 5.733-3.532 9.615-7.932 9.678-9.253-.352-9.909-15.357-4.619-19.95a6.894 6.894 0 014.549-1.757c5.134.203 8.424 5.147 8.01 12.029h-.008zm-9.089 109.746c-2.977 9.279-11.519 11.193-13.934 6.546-2.539-4.89 2.134-16.114 9.66-16.208 4.353.179 6.064 4.069 4.267 9.662h.007zM368.882 43.75c3.446 3.328 3.274 5.077 1.32 5.077-4.251 0-14.848-8.904-12.894-10.85.277-.205.617-.307.961-.288 3.025.172 7.628 3.179 10.613 6.061zm-63.933 480.903c-4.877 1.07-8.972 1.695-9.644 1.726.352-.211 16.576-3.851 17.357-3.905h.094c-.336.359-4.236 1.374-7.815 2.156l.008.023zm189.948-274.707c0 8.21-3.908 11.491-7.19 8.421-4.689-4.382-4.791-20.129 1.367-20.379 3.345.117 5.791 5.147 5.823 11.958zm-40.488-141.169c3.219 5.288 2.547 7.811.039 7.186-4.892-1.203-13.575-14.248-10.683-16.044.227-.12.478-.186.734-.195 2.548.093 6.791 3.991 9.886 9.053h.024zM327.323 9.46c3.908 1.172 7.096 2.343 7.768 2.812l-.062.094c-1.313-.063-17.623-5.156-18.178-5.468h.063a89.291 89.291 0 0110.409 2.609V9.46zm84.15 465.655c-5.314 4.296-9.839 6.475-9.816 5.241 0-1.89 11.645-11.716 15.13-11.99 1.219.055.172 1.828-2.61 4.413-.977.914-2.016 1.774-2.704 2.344v-.008zm61.588-66.871c-4.212 6.78-8.596 9.764-9.018 7.35-.649-3.382 7.275-15.919 11.198-16.255 1.915.102 1.016 3.765-2.18 8.905zm37.333-74.665c-2.172 8.115-5.118 10.849-6.189 9.17-1.899-2.984 2.157-19.231 5.986-19.668 1.735.179 1.821 4.499.203 10.498zm1.485-143.535c2.001 7.03 1.563 10.693-.047 9.717-3.384-2.031-8.026-19.02-5.392-19.762h.156c1.454.125 3.626 4.265 5.283 10.068v-.023zM424.891 55.53c2.727 2.124 6.627 5.288 6.76 5.678-.696-.265-15.857-11.959-16.06-12.388a106.172 106.172 0 019.3 6.71z" fill="#73A6C8"/></svg>