<svg width="10" height="10" viewBox="0 0 10 10" fill="none" xmlns="http://www.w3.org/2000/svg">
<g clip-path="url(#clip0)">
<path d="M6.10138 5.00163L9.84024 1.2626C9.94309 1.15968 9.99984 1.02236 10 0.875937C10 0.729433 9.94325 0.591953 9.84024 0.489189L9.5126 0.161628C9.40959 0.0584572 9.27228 0.00195312 9.12569 0.00195312C8.97935 0.00195312 8.84203 0.0584572 8.73902 0.161628L5.00016 3.90041L1.26114 0.161628C1.15829 0.0584572 1.02089 0.00195312 0.87439 0.00195312C0.728049 0.00195312 0.59065 0.0584572 0.487805 0.161628L0.16 0.489189C-0.0533333 0.702522 -0.0533333 1.04951 0.16 1.2626L3.89894 5.00163L0.16 8.74049C0.0570732 8.84358 0.000406504 8.9809 0.000406504 9.12732C0.000406504 9.27374 0.0570732 9.41106 0.16 9.51407L0.487724 9.84163C0.590569 9.94472 0.728049 10.0013 0.874309 10.0013C1.02081 10.0013 1.15821 9.94472 1.26106 9.84163L5.00008 6.10277L8.73894 9.84163C8.84195 9.94472 8.97927 10.0013 9.12561 10.0013H9.12577C9.27219 10.0013 9.40951 9.94472 9.51252 9.84163L9.84016 9.51407C9.94301 9.41114 9.99976 9.27374 9.99976 9.12732C9.99976 8.9809 9.94301 8.84358 9.84016 8.74057L6.10138 5.00163Z" fill="#F03838"/>
</g>
<defs>
<clipPath id="clip0">
<rect width="10" height="10" fill="white"/>
</clipPath>
</defs>
</svg>
