<svg width="40" height="40" fill="none" xmlns="http://www.w3.org/2000/svg"><g clip-path="url(#clip0)" fill="#56A1CC"><path d="M13.57 4.96h1.147v3.255H13.57V4.96zm4.613 16.214a13.742 13.742 0 011.412 2.78l1.076-.401a14.893 14.893 0 00-1.53-3.012l-.958.633zm-.559-2.601a13.738 13.738 0 01-1.628-2.658l-1.04.484a14.894 14.894 0 001.763 2.88l.905-.706zm-2.43-4.857a13.73 13.73 0 01-.468-3.081l-1.147.042c.042 1.127.212 2.25.507 3.34l1.108-.3zm6.41 15.022c0-.918-.086-1.84-.255-2.742l-1.128.212c.156.832.235 1.683.235 2.53v.603h1.148v-.604zm-1.148 3.045h1.148v3.254h-1.148v-3.254z"/><path d="M10.508 10.129c0 2.154.39 4.275 1.157 6.305l1.073-.406a16.63 16.63 0 01-1.082-5.9V1.564h1.913v.956h1.148v-.956h1.913v4.464l.56.014c1.108.027 3.294.21 5.47 1.12a6.776 6.776 0 005.531-.116l1.398-.667.824 1.726-2.855 1.365-.923-1.102-.88.737 1.212 1.447c1.444 1.688 3.075 2.816 3.825 3.289l-.642 1.874c-.907-.446-2.855-1.656-5.2-4.602a6.85 6.85 0 00-1.83-1.579l-.594.982c.617.374 1.13.815 1.525 1.311 1.367 1.717 2.781 3.09 4.204 4.082 1.107.771 1.855 1.052 2.058 1.12l.54.18 1.33-3.89-.42-.233c-.019-.01-1.773-.997-3.418-2.72l3.6-1.72-1.816-3.798-2.432 1.163a5.626 5.626 0 01-4.594.093c-2.023-.847-4.043-1.11-5.325-1.186V.415h-7.27v5.14c-.998.225-1.984.55-2.942.972L2.147 3.312 0 6.932l3.519 2.087c-1.225 1.001-1.908 1.829-1.993 1.934l-.36.445 2.82 2.29.442.356.363-.436c.023-.027 2.173-2.575 5.717-3.695v.216zm-6.216 2.329L2.8 11.246a15.982 15.982 0 012.077-1.83L5.57 8.9 1.573 6.53l.976-1.645L7.497 7.82l.273-.127c.89-.41 1.808-.73 2.738-.957v1.98c-3.174.904-5.37 2.876-6.216 3.742z"/><path d="M36.796 30.454l-.929.674c.646.89 1.174 1.885 1.573 2.963l-1.822.588c-.884-2.33-2.472-4.154-4.727-5.427-2.174-1.227-4.561-1.718-6.317-1.909l-.277-1.952c1.297.112 3.023.378 4.829.994a4.4 4.4 0 004.157-.696l3.923-3.086 1.182 1.503-5.356 4.215.57.452c.576.457 1.109.962 1.583 1.501l.862-.757a13.237 13.237 0 00-1.178-1.18L40 24.299l-2.603-3.308-4.825 3.796a3.255 3.255 0 01-3.077.511c-2.058-.702-4.015-.975-5.41-1.076a18.007 18.007 0 00-3.779-7.2c-1.63-1.889-2.529-4.337-2.529-6.895v-.99a13.5 13.5 0 011.838.27c.704.153 1.363.362 1.957.62l.457-1.054a11.79 11.79 0 00-2.17-.688 14.886 14.886 0 00-2.637-.328l-.592-.02v2.19c0 2.833.997 5.548 2.807 7.645a16.851 16.851 0 013.628 7.106l.43 3.04c.01.516.018 7.273.021 10.52h-1.912v-.957h-1.148v.956h-1.913v-7.284l-.724.195c-3.9 1.051-7.5 3.625-8.735 4.57l-1.229-1.47a32.2 32.2 0 012.22-1.568l2.04-1.152-.564-1-1.697.96-2.426-2.17 1.275-1.426.2.18a7.557 7.557 0 007.395 1.537c.609-.202 2.245-.596 2.245-.596v-.475c0-2.799-1-5.515-2.812-7.647a17.267 17.267 0 01-2.562-4.026l-1.044.476a18.418 18.418 0 002.731 4.294 10.67 10.67 0 012.53 6.464c-.476.118-.96.259-1.449.42a6.406 6.406 0 01-6.268-1.303l-1.056-.944-2.806 3.137 3.033 2.712a28.554 28.554 0 00-2.17 1.604l-.44.368 2.33 2.79.369.438.44-.366c.04-.033 3.786-3.12 8.026-4.485v6.916h7.27v-.575c-.001-.952-.007-8.236-.018-10.504 1.621.193 3.751.656 5.678 1.745 2.169 1.224 3.645 3.014 4.389 5.32l.176.547 4.006-1.291-.177-.546a13.593 13.593 0 00-1.924-3.828z"/></g><defs><clipPath id="clip0"><path fill="#fff" d="M0 0h40v40H0z"/></clipPath></defs></svg>