<svg width="36" height="36" fill="none" xmlns="http://www.w3.org/2000/svg"><g clip-path="url(#clip0)" fill="#56A1CC"><path d="M14.278 18.206a.702.702 0 10-.994.993.702.702 0 00.994-.993zm3.722 1.2c-1.163 0-2.11.947-2.11 2.11 0 1.163.947 2.109 2.11 2.109 1.163 0 2.11-.946 2.11-2.11A2.112 2.112 0 0018 19.406zm0 2.813a.704.704 0 11.002-1.408.704.704 0 01-.002 1.408z"/><path d="M18 15.89c-.786 0-1.546.16-2.259.473a.703.703 0 00.566 1.287 4.224 4.224 0 015.912 3.865A4.224 4.224 0 0118 25.736a4.224 4.224 0 01-4.219-4.22v-.071a.703.703 0 00-1.405-.033l-.001.105A5.631 5.631 0 0018 27.14a5.631 5.631 0 005.625-5.625A5.631 5.631 0 0018 15.89zm0-10.546a.703.703 0 00-.703.703v4.219a.703.703 0 101.406 0v-4.22A.703.703 0 0018 5.345zm-7.855 5.213L7.162 7.574a.703.703 0 00-.994.995L9.15 11.55a.703.703 0 00.995-.994zm19.687-2.983a.703.703 0 00-.994 0l-2.983 2.983a.703.703 0 00.995.994l2.982-2.982a.703.703 0 000-.995z"/><path d="M35.824 21.636C31.357 16.579 24.725 12.375 18 12.375c-6.726 0-13.358 4.205-17.824 9.26a.703.703 0 101.054.932c.15-.17.303-.339.459-.507 3.474 5.25 9.773 8.596 16.311 8.596s12.837-3.346 16.311-8.596c.156.168.309.337.459.507a.703.703 0 001.054-.931zM18 29.25c-6.181 0-12.127-3.212-15.306-8.225C5.199 18.57 10.987 13.78 18 13.78s12.801 4.79 15.306 7.244C30.126 26.038 24.182 29.25 18 29.25z"/></g><defs><clipPath id="clip0"><path fill="#fff" d="M0 0h36v36H0z"/></clipPath></defs></svg>