<svg width="41" height="41" fill="none" xmlns="http://www.w3.org/2000/svg"><g clip-path="url(#clip0)"><path d="M15.864 22.562v5.706a.593.593 0 101.186 0v-6.39l1.762-1.018a.593.593 0 10-.593-1.027l-1.17.676v-4.824a.828.828 0 00-.512-.767.827.827 0 00-.904.18L9.98 20.75a.637.637 0 01-.446.184.623.623 0 01-.575-.369.624.624 0 01.096-.677l6.394-7.426a2.568 2.568 0 011.947-.893h1.598c.632 0 1.146-.514 1.146-1.146V9.368h1.897v1.055c0 .312.125.595.328.802l-.38.22a.593.593 0 00.592 1.026l1.562-.902h.643c.748 0 1.457.326 1.946.893l2.241 2.603a.591.591 0 00.836.062.593.593 0 00.063-.836l-2.242-2.603a3.753 3.753 0 00-1.73-1.134l2.97-1.714c.25.239.558.413.902.505 1.086.291 2.27-.38 2.565-1.48a2.097 2.097 0 00-1.481-2.566 2.096 2.096 0 00-2.579 2.514l-4.451 2.57h-.6v-1.16a2.641 2.641 0 001.779-2.493V4.192A3.916 3.916 0 0021.09.28a3.918 3.918 0 00-3.714 2.685h-5.254a2.097 2.097 0 00-3.49-.888 2.097 2.097 0 000 2.961 2.096 2.096 0 003.49-.888h5.057v2.58a2.64 2.64 0 001.777 2.493v1.16h-1.56c-1.093 0-2.13.476-2.844 1.305l-6.394 7.427a1.8 1.8 0 00-.275 1.944 1.8 1.8 0 001.652 1.06c.476 0 .952-.195 1.286-.532l5.043-5.045v4.651l-7.014 4.05a2.08 2.08 0 00-.9-.505 2.113 2.113 0 00-2.566 1.48 2.116 2.116 0 001.481 2.565 2.107 2.107 0 002.565-1.48c.094-.35.093-.704.013-1.034l6.421-3.707zM29.433 7.087a.91.91 0 011.756.47.92.92 0 01-1.114.643.91.91 0 01-.642-1.113zM11.022 3.558a.91.91 0 11-1.551-.643.91.91 0 011.55.642v.001zm7.341 3.172V4.192l.001-.042h1.02a.593.593 0 100-1.185h-.728a2.729 2.729 0 012.434-1.5 2.73 2.73 0 012.726 2.727V6.73c0 .8-.651 1.452-1.452 1.452h-2.549c-.8 0-1.452-.651-1.452-1.452zM8.285 26.995a.91.91 0 01-1.756-.47.919.919 0 011.113-.643.91.91 0 01.643 1.113zM34.774 24.6a2.097 2.097 0 00-3.49.888h-4.969v-8.944l5.043 5.044c.343.343.8.532 1.286.532a1.8 1.8 0 001.653-1.06c.3-.654.194-1.399-.276-1.944l-2.347-2.726a.593.593 0 00-.898.774l2.347 2.726c.246.285.136.59.096.676a.623.623 0 01-.575.369.628.628 0 01-.447-.185l-5.65-5.651a.828.828 0 00-1.416.588v9.801h-1.109a.593.593 0 100 1.186h1.108V37.53c0 .622.42 1.169 1.022 1.33l1.177.315c.096.029.142.089.142.186a.193.193 0 01-.192.193H24.12a.192.192 0 01-.192-.174l-1.326-13.543a1.535 1.535 0 00-1.513-1.371c-.785 0-1.436.59-1.513 1.372L18.25 39.38a.192.192 0 01-.191.174H14.9c-.121-.005-.193-.071-.193-.193 0-.087.06-.163.143-.186l1.179-.315a1.382 1.382 0 001.02-1.33v-6.497a.593.593 0 10-1.185 0v6.497a.194.194 0 01-.142.186l-1.179.314a1.381 1.381 0 00-1.021 1.331A1.39 1.39 0 0014.9 40.74h3.159c.712 0 1.302-.534 1.371-1.243l1.326-13.543a.334.334 0 01.333-.302.34.34 0 01.334.302l1.326 13.543c.07.709.659 1.243 1.371 1.243h3.16a1.38 1.38 0 001.377-1.378c0-.613-.428-1.174-1.022-1.33l-1.176-.315a.194.194 0 01-.144-.186V26.673h4.97a2.096 2.096 0 003.489.888 2.097 2.097 0 000-2.962zm-.839 2.123a.91.91 0 01-1.285-1.285.91.91 0 011.285 1.285z" fill="#56A1CC"/></g><defs><clipPath id="clip0"><path fill="#fff" transform="translate(.12 .28)" d="M0 0h40.461v40.461H0z"/></clipPath></defs></svg>