<svg width="33" height="34" fill="none" xmlns="http://www.w3.org/2000/svg"><g clip-path="url(#clip0)"><path d="M32.986 12.713c0 .98-.153 1.952-.46 2.889-1.516 6.813-14.614 15.11-15.17 15.457a.707.707 0 01-.38.11.707.707 0 01-.382-.11c-.265-.166-6.547-4.136-11.002-8.839a.714.714 0 111.039-.98c3.719 3.928 8.908 7.427 10.345 8.367 2.167-1.419 12.905-8.693 14.174-14.382.276-.86.407-1.681.407-2.51a7.95 7.95 0 00-4.1-6.949 7.976 7.976 0 00-3.828-.983 7.906 7.906 0 00-6.105 2.87.718.718 0 01-.55.258.708.708 0 01-.55-.258 7.927 7.927 0 00-6.11-2.87c-1.332 0-2.656.34-3.829.983a7.946 7.946 0 00-4.1 6.947c0 .828.133 1.648.393 2.443.167.743.5 1.503.95 2.298h4.784l1.53-2.563a.711.711 0 01.601-.347c.221-.029.477.117.613.326l2.505 3.859 2.792-7.545a.714.714 0 01.669-.468h.001c.299 0 .566.186.67.466l2.337 6.272h4.139a.715.715 0 010 1.43h-4.637a.718.718 0 01-.671-.464l-1.835-4.934-2.616 7.078a.71.71 0 01-.67.466.72.72 0 01-.6-.326l-2.657-4.093-1.151 1.927a.716.716 0 01-.613.349H1.001a.715.715 0 010-1.43h1.1c-.324-.667-.565-1.312-.7-1.922a9.058 9.058 0 01-.445-2.82 9.383 9.383 0 014.839-8.2 9.415 9.415 0 014.52-1.16 9.342 9.342 0 016.658 2.778 9.333 9.333 0 016.655-2.779c1.575 0 3.133.4 4.519 1.161a9.368 9.368 0 014.84 8.198z" fill="#56A1CC"/></g><defs><clipPath id="clip0"><path fill="#fff" transform="translate(.286 .911)" d="M0 0h32.7v32.7H0z"/></clipPath></defs></svg>