<svg width="37" height="36" fill="none" xmlns="http://www.w3.org/2000/svg"><g clip-path="url(#clip0)" fill="#56A1CC"><path d="M33.141 17.138c.922-5.006-.583-11.887-6.065-15.166A15.234 15.234 0 0015.693.54C10.38 1.96 6.474 5.774 5.246 10.74a10.097 10.097 0 00-.344 3.092c.059.647.178 1.287.357 1.912a8.26 8.26 0 01.352 2.452c-.024.988-.705 2.014-1.307 2.92-.655.987-1.222 1.84-.893 2.626.311.533.86.885 1.474.945a.7.7 0 00.108.01.553.553 0 01.618.59c0 1.226.03 1.859.537 2.149a1.08 1.08 0 00-.091.29c-.051.347.073.696.332.93.257.25.583.416.935.478l.072.016c.014.088.02.177.018.265a6.51 6.51 0 01-.046.656c-.098.944-.232 2.236 1.655 2.853.38.106.772.154 1.165.142a18.474 18.474 0 005.244-1.005c.488.85.782 1.799.862 2.777a.59.59 0 00.59.59H31.63a.586.586 0 00.55-.408.604.604 0 00-.21-.665c-.61-.463-2.631-5.345-2.694-7.099.179-.404.417-.859.7-1.386a27.719 27.719 0 003.165-8.732zm-5.049 10.059c.015 1.41 1.287 5.138 2.38 7.05H17.423a8.45 8.45 0 00-.867-2.587c1.71-.67 3.215-1.53 3.937-2.476a.59.59 0 00-.937-.716c-1.67 2.184-8.616 3.842-10.167 3.335-.982-.321-.943-.698-.848-1.61.031-.258.049-.517.053-.778 0-.993-.4-1.29-1.004-1.43a.757.757 0 01-.317-.123 1.67 1.67 0 01.39-.276.59.59 0 00-.26-1.12c-.213 0-.45 0-.574-.015a9.107 9.107 0 01-.038-1.163 1.725 1.725 0 00-1.727-1.769c-.425-.09-.554-.204-.565-.231-.085-.205.483-1.06.788-1.52.655-.986 1.47-2.214 1.504-3.542a8.276 8.276 0 00-.244-2.188 5.878 5.878 0 012.224-1.226c.293-.052.594-.03.877.06a.59.59 0 00.313-1.136 2.975 2.975 0 00-1.434-.079c-.833.212-1.612.6-2.285 1.135a7.008 7.008 0 01-.164-1.044c-.04-.92.066-1.84.313-2.726 1.14-4.61 4.642-8.015 9.607-9.343A14.012 14.012 0 0126.47 2.985c5 2.99 6.361 9.322 5.51 13.94a26.321 26.321 0 01-3.044 8.388c-.324.605-.604 1.128-.807 1.611a.577.577 0 00-.037.273z"/><path d="M29.263 18.486a1.768 1.768 0 00-1.437-1.902l-1.13-1.566a1.75 1.75 0 00.159-.404l1.093-.438a1.766 1.766 0 101.71-2.888L28.77 9.52a1.762 1.762 0 00-2.167-2.744l-.988-.82a1.75 1.75 0 00.115-.612 1.766 1.766 0 00-3.044-1.222l-1.749-.437a1.759 1.759 0 00-3.384-.02l-2.337.467A1.761 1.761 0 0012.4 6.21l-1.145 1.525a1.764 1.764 0 00-.1 3.45l.946 2.338a1.766 1.766 0 102.904 1.848h3.167a1.708 1.708 0 001.93 1.152l1.959 2.979a1.765 1.765 0 103.05 1.486l1.46-1.168c.28.175.601.269.93.27.914 0 1.678-.695 1.762-1.605zm.007-6.064a.59.59 0 11-.54.824c-.002-.005 0-.01-.003-.016l-.003-.006a.582.582 0 01-.043-.212.59.59 0 01.59-.59zm-2.347-4.249a.59.59 0 11.365.667l-.005-.003c-.005-.002-.01-.001-.016-.003a.59.59 0 01-.344-.66zm-.586 1.442l-1.09 2.726-1.911-1.529c.259-.221.448-.513.545-.84l2.337-.467c.037.04.078.074.119.11zm-.628 4.736a.59.59 0 11-.355-.706l.005.003.016.004a.59.59 0 01.334.7zm-1.747-9.597a.59.59 0 110 1.18.59.59 0 010-1.18zm-3.104.127l1.347.337c-.003.042-.013.083-.013.126a1.772 1.772 0 001.77 1.77 1.75 1.75 0 00.897-.253l.988.82a1.75 1.75 0 00-.116.612c0 .036.009.07.01.105l-1.92.384a1.77 1.77 0 00-1.357-1.051l-2.16-2.16c.24-.18.43-.417.554-.69zm1.924 4.592a.59.59 0 11-1.18 0 .59.59 0 011.18 0zm-3.54-5.899a.59.59 0 110 1.18.59.59 0 010-1.18zm.118 2.721l1.77 1.771a1.767 1.767 0 00-.599.817h-1.397c-.14-.39-.412-.72-.769-.93l.995-1.658zM15.693 5.24l1.921-.385c.15.348.41.638.737.829l-1.07 1.784-1.852-1.187c.178-.28.274-.605.274-.937 0-.036-.008-.07-.01-.104zm2.37 4.233a.59.59 0 11-1.18 0 .59.59 0 011.18 0zm-4.13-4.719a.59.59 0 11.001 1.18.59.59 0 010-1.18zm-.641 2.235c.36.148.76.165 1.13.047l1.821 1.169c-.194.19-.341.422-.43.678h-2.578a1.771 1.771 0 00-.697-.89l.754-1.004zm-1.718 3.074a.59.59 0 110-1.18.59.59 0 010 1.18zm1.77 5.309a.59.59 0 110-1.18.59.59 0 010 1.18zm.336-2.326a1.767 1.767 0 00-.336-.034c-.058 0-.114.012-.17.017l-.804-1.984c.403-.204.713-.556.865-.982h2.577c.106.297.29.56.533.762l-2.665 2.221zm4.492 1.146h-3.167a1.757 1.757 0 00-.27-.49l2.898-2.414.986 2.212a1.77 1.77 0 00-.447.692zm.962-4.13h1.397c.14.391.412.72.77.93l-1.227 2.045a1.742 1.742 0 00-.241-.025c-.046 0-.089.01-.134.014l-1.012-2.271a1.79 1.79 0 00.447-.692zm.699 5.31a.59.59 0 110-1.18.59.59 0 010 1.18zm2.518-3.837l1.647 1.318c-.26.221-.449.513-.546.84l-1.99.398a1.772 1.772 0 00-.338-.511l1.227-2.045zm1.02 9.735a.59.59 0 110-1.18.59.59 0 010 1.18zm2.36-2.949c.002.197.038.392.105.578l-.996.796a1.702 1.702 0 00-1.738-.757l-1.958-2.978c.175-.196.304-.427.378-.679l1.99-.398a1.767 1.767 0 002.312.941l.727 1.009c-.51.323-.819.884-.82 1.488zm.575-5.451l1.125-2.814c.024 0 .046.007.07.007.071-.003.142-.01.212-.022l.714 1.425c-.568.307-.924.9-.926 1.546 0 .024.006.046.007.07l-.793.317a1.79 1.79 0 00-.41-.53zm1.195 6.04a.59.59 0 110-1.179.59.59 0 010 1.18z"/></g><defs><clipPath id="clip0"><path fill="#fff" transform="translate(.653 .024)" d="M0 0h35.403v35.403H0z"/></clipPath></defs></svg>