<svg width="36" height="36" fill="none" xmlns="http://www.w3.org/2000/svg"><g clip-path="url(#clip0)" fill="#56A1CC"><path d="M21.637 8.433c-.01-.01-.019-.018-.028-.018-2.65-1.919-3.225-6.386-3.234-6.45a.73.73 0 10-1.452.174c.027.2.62 4.951 3.626 7.308-.09.329-.438.968-.566 1.197-.1.182-.183.329-.238.447-.009.019-.018.037-.018.046-.146.411-.283.822-.42 1.224-.484 1.453-.94 2.814-1.772 4.029-1.078 1.526-2.33 2.868-3.344 3.58-.676.467-1.425.805-2.21 1.152-.722.329-1.48.658-2.193 1.114-.384.247-.75.521-1.096.814-.695.566-1.352 1.096-2.165 1.178-.137.01-.265.027-.393.037-.832.073-1.7.146-2.622.685C.278 26.859.352 31.253.388 33.363a.731.731 0 00.73.722h.01a.739.739 0 00.721-.74v-.009c-.064-2.95.192-5.847 2.385-7.135.63-.365 1.242-.42 2.01-.484.136-.009.273-.027.41-.037 1.243-.118 2.138-.849 2.942-1.488.302-.256.621-.494.96-.713.63-.402 1.296-.703 2.01-1.014.812-.366 1.662-.74 2.447-1.288 1.663-1.17 3.143-3.143 3.71-3.947.95-1.388 1.47-2.923 1.963-4.403.128-.384.265-.776.402-1.17.037-.063.1-.191.174-.31.52-.94 1.233-2.229.375-2.914z"/><path d="M34.097 10.809c-1.507-2.796-3.919-4.486-6.97-4.888h-.037c-.182-.018-.356-.018-.52-.018-.338-.01-.649-.01-.832-.119-.009 0-.009-.01-.018-.01-.584-.328-2.886-2.968-3.014-4.84a.727.727 0 10-1.453.1c.155 2.43 2.732 5.435 3.745 6.02.512.301 1.06.31 1.554.32.146 0 .283 0 .41.018 2.595.338 4.56 1.736 5.847 4.138 1.07 2.01 1.608 4.632 1.508 7.4-.284 6.98-3.737 12.04-9.73 14.26-1.699.64-7.61 1.928-12.369-.539 0 0-.009 0-.009-.009-.877-.439-1.68-1.17-2.558-2.311l-.009-.018c-.685-.923-1.617-2.193-3.453-1.471-2.037.767-2.037 3.718-2.037 4.97 0 .401.328.73.73.73a.733.733 0 00.731-.73c0-.878 0-3.189 1.097-3.61h.009c.721-.282.995-.054 1.754.97l.018.017.01.01c1.004 1.324 1.981 2.192 3.06 2.731 2.064 1.069 4.476 1.608 7.162 1.608.374 0 .749-.01 1.132-.027 2.467-.138 4.468-.677 5.244-.978 3.307-1.224 5.91-3.234 7.756-5.984 1.781-2.658 2.768-5.892 2.914-9.592.11-3.024-.484-5.91-1.672-8.149z"/><path d="M31.905 17.779c-.119-.274-.53-1.07-1.325-1.179h-.027c-.393-.036-1.151.064-1.8 1.206-1.526 2.348-3.883 3.618-5.6 4.275-2.722 1.06-5.481 1.243-8.404 1.425-.75.046-1.627.138-2.467.476-1.325.502-2.256 1.507-2.549 2.759-.292 1.251.082 2.567 1.042 3.617.648.694 1.57 1.252 2.813 1.708 1.508.548 3.106.832 4.714.823 1.17 0 2.339-.147 3.48-.42 2.577-.622 5.053-2.001 7.154-3.993 1.59-1.535 2.63-3.106 3.188-4.814.713-1.982.63-4.12-.22-5.883zm-1.17 5.399c0 .009-.009.018-.009.018-.484 1.48-1.397 2.86-2.813 4.22-1.91 1.818-4.157 3.07-6.486 3.636-2.513.603-5.052.485-7.345-.356-1.005-.375-1.764-.822-2.239-1.334-.62-.676-.877-1.507-.694-2.284.183-.776.786-1.406 1.654-1.735.009 0 .009 0 .018-.01.658-.264 1.389-.337 2.019-.374 2.896-.183 5.901-.375 8.825-1.516 3.48-1.325 5.353-3.371 6.312-4.86a.2.2 0 00.028-.046c.082-.174.21-.329.356-.457.082.092.146.192.192.302 0 .009.009.018.018.027.685 1.416.75 3.152.164 4.769z"/></g><defs><clipPath id="clip0"><path fill="#fff" transform="translate(.379 .195)" d="M0 0h35.403v35.403H0z"/></clipPath></defs></svg>