<svg width="44" height="44" fill="none" xmlns="http://www.w3.org/2000/svg"><g clip-path="url(#clip0)"><path d="M42.086 14.135a.63.63 0 10-1.13.555c1.26 2.57 1.525 5.212 1.525 6.977 0 2.385-.495 6.88-3.809 10.194a5.566 5.566 0 01-3.961 1.641 5.566 5.566 0 01-3.962-1.641 5.566 5.566 0 01-1.64-3.962 5.572 5.572 0 011.64-3.961c.22-.22.401-.458.546-.713l.007-.012a3.14 3.14 0 00.101-.193c.653.397 1.044 1.004 1.236 1.38a.63.63 0 101.121-.575c-.484-.945-1.204-1.665-2.057-2.073l.002-.085c0-.157-.012-.312-.034-.464.869-.404 1.598-1.128 2.09-2.088a.63.63 0 00-1.122-.574c-.21.41-.65 1.084-1.4 1.471a3.23 3.23 0 00-.113-.169 3.437 3.437 0 00-.377-.447 5.609 5.609 0 010-7.923 5.566 5.566 0 013.962-1.641 5.57 5.57 0 013.962 1.641c.27.27.53.557.772.854a.63.63 0 10.975-.798c-.27-.329-.558-.647-.857-.947a6.87 6.87 0 00-9.704 0c-2.258 2.258-2.61 5.71-1.059 8.34l-.852-.297a3.97 3.97 0 01-2.138-1.781l-1.176-2.062a3.894 3.894 0 01-.51-1.926V5.62c0-1.025-.787-1.865-1.79-1.912a1.863 1.863 0 00-1.387.517c-.37.353-.582.849-.582 1.36v7.271c0 .674-.176 1.34-.51 1.926l-1.176 2.062a3.97 3.97 0 01-2.139 1.78l-.848.297c.619-1.045.95-2.24.95-3.486a6.817 6.817 0 00-2.01-4.853 6.817 6.817 0 00-4.852-2.01 6.817 6.817 0 00-4.853 2.01C1.293 14.217.75 19.087.75 21.667c0 2.24.421 6.52 3.238 10.035a.63.63 0 10.983-.787C2.395 27.7 2.01 23.74 2.01 21.667c0-2.385.495-6.88 3.808-10.194A5.566 5.566 0 019.78 9.832c1.496 0 2.903.583 3.961 1.641a5.566 5.566 0 011.641 3.962 5.566 5.566 0 01-1.64 3.961 3.454 3.454 0 00-.49.616c-.75-.387-1.19-1.06-1.4-1.471a.63.63 0 00-1.122.574c.492.96 1.221 1.684 2.09 2.088a3.25 3.25 0 00-.034.464l.002.085c-.854.408-1.574 1.128-2.058 2.073a.63.63 0 001.121.574c.193-.375.584-.982 1.236-1.38a3.114 3.114 0 00.122.229c.143.246.32.477.532.69a5.626 5.626 0 01.958 1.277c.446.813.683 1.73.683 2.684a5.566 5.566 0 01-1.64 3.962 5.611 5.611 0 01-6.75.9.63.63 0 10-.628 1.092 6.869 6.869 0 008.268-1.101 6.817 6.817 0 002.01-4.853c0-.695-.104-1.374-.302-2.02l.089.028c.556.174.929.682.929 1.264v10.266c0 1.036.843 1.879 1.879 1.879a1.881 1.881 0 001.879-1.88V27.172a5.062 5.062 0 00-3.564-4.85l-.103-.033.33-.116a7.728 7.728 0 004.164-3.466l.301-.529.301.528a7.728 7.728 0 004.163 3.467l.333.116-.103.032a5.062 5.062 0 00-3.564 4.851v10.266a1.88 1.88 0 001.88 1.879 1.88 1.88 0 001.878-1.88V27.172c0-.582.373-1.09.93-1.264l.088-.028a6.886 6.886 0 00-.301 2.02c0 1.833.713 3.557 2.01 4.853a6.84 6.84 0 004.852 2.006 6.842 6.842 0 004.852-2.006c3.634-3.635 4.177-8.505 4.177-11.085 0-1.898-.287-4.746-1.654-7.532zm-22.23 13.036v10.266a.62.62 0 01-1.238 0V27.17a2.574 2.574 0 00-1.812-2.466l-1.156-.362c-.243-.4-.53-.777-.857-1.127l.664-.232 1.719.538a3.807 3.807 0 012.68 3.65zm3.783-9.09l-.739-1.296a.757.757 0 00-1.312 0l-.74 1.297a6.468 6.468 0 01-3.484 2.901l-3.263 1.14a1.93 1.93 0 01-.056-.456c0-.332.079-.639.234-.918l2.677-.935a5.23 5.23 0 002.817-2.346l1.176-2.062a5.156 5.156 0 00.676-2.55V5.585a.617.617 0 01.65-.619c.324.016.588.309.588.654v7.236c0 .893.234 1.774.677 2.55l1.176 2.062a5.228 5.228 0 002.817 2.346l2.679.936a1.928 1.928 0 01.177 1.375l-3.265-1.142a6.469 6.469 0 01-3.485-2.902zm4.046 6.624a2.574 2.574 0 00-1.812 2.466v10.266a.62.62 0 01-1.24 0V27.17a3.808 3.808 0 012.682-3.649l1.717-.537.665.232a6.891 6.891 0 00-.857 1.126l-1.155.362z" fill="#56A1CC"/></g><defs><clipPath id="clip0"><path fill="#fff" transform="translate(.75 .016)" d="M0 0h42.989v42.989H0z"/></clipPath></defs></svg>