<svg width="38" height="38" fill="none" xmlns="http://www.w3.org/2000/svg"><g clip-path="url(#clip0)" fill="#56A1CC"><path d="M1.914 32.483c-.269 0-.538-.09-.763-.266a1.2 1.2 0 01-.39-1.372c.78-2.157 3.083-6.082 4.367-7.14 2.1-1.73 5.126-2.36 9.25-1.928 3.152.33 6.21-.863 8.181-3.19.851-1.005 1.562-2.225 2.114-3.627a6.11 6.11 0 01-1.378-3.444 6.011 6.011 0 01.956-3.714c.9-1.392 2.679-2.928 4.533-3.912 2.267-1.203 4.242-1.395 5.562-.543 2.942 1.9 1.802 8.383.09 11.035a6.326 6.326 0 01-.13.191.543.543 0 11-.89-.623c.037-.052.072-.105.107-.158.793-1.229 1.409-3.327 1.53-5.221.137-2.12-.336-3.69-1.297-4.311-.96-.62-2.587-.405-4.462.59-1.677.89-3.337 2.313-4.13 3.542a4.948 4.948 0 00.37 5.904 1 1 0 01.172 1.008c-.599 1.536-1.378 2.877-2.318 3.985-2.204 2.602-5.614 3.936-9.122 3.568-3.821-.4-6.584.152-8.448 1.687-1.036.853-3.261 4.532-4.036 6.671-.01.028-.033.09.04.148.025.02.089.059.154.015 0 0 .01-.008.027-.029l3.389-3.976a7.59 7.59 0 014.347-2.322c1.336-.213 2.825-.243 4.306-.088 4.205.44 8.302-1.168 10.958-4.304.979-1.155 1.804-2.517 2.455-4.048a1.01 1.01 0 011.09-.605 5.003 5.003 0 003.288-.606.543.543 0 11.544.94 6.09 6.09 0 01-3.945.748c-.69 1.61-1.565 3.048-2.603 4.273-2.574 3.04-6.388 4.76-10.417 4.76-.492 0-.986-.025-1.483-.077-1.388-.146-2.779-.118-4.022.08a6.5 6.5 0 00-3.7 1.963l-3.38 3.967c-.08.095-.163.17-.252.229-.201.134-.433.2-.664.2zm.423-10.143a.807.807 0 01-.552-.219.794.794 0 01-.154-.979c.941-1.695 2.09-4.47 2.161-5.506.237-3.471 2.05-6.674 4.857-8.59a5.073 5.073 0 012.55-5.151.544.544 0 01.536.946 3.992 3.992 0 00-1.997 4.136.921.921 0 01-.395.91c-2.58 1.724-4.25 4.649-4.467 7.823-.073 1.076-.942 3.246-1.736 4.879a10.593 10.593 0 001.713-1.858c.839-1.154 1.42-2.52 1.73-4.063.434-2.17 1.636-4.059 3.383-5.32a.923.923 0 011.138.05 4.007 4.007 0 004.667.371c2.079-1.257 4.636-5.117 3.587-6.853-.748-1.237-3.356-1.36-5.545-.842a.543.543 0 11-.25-1.057c1.316-.311 2.66-.401 3.788-.253 1.404.185 2.42.735 2.937 1.59.689 1.14.482 2.798-.584 4.669-.865 1.518-2.188 2.96-3.371 3.676a5.093 5.093 0 01-5.835-.393c-1.468 1.099-2.478 2.719-2.85 4.576-.34 1.696-.985 3.207-1.917 4.488-.847 1.164-1.841 2.12-2.954 2.839a.81.81 0 01-.44.13zm9.839 15.18a.809.809 0 01-.543-1.398c.969-.907 2.135-1.641 3.468-2.182 1.467-.595 3.089-.856 4.818-.777.302.014.608.01.908-.01a.544.544 0 01.077 1.083c-.343.024-.69.028-1.034.013-1.572-.072-3.04.163-4.36.698a10.58 10.58 0 00-2.216 1.213c1.777-.377 4.09-.695 5.154-.507 3.257.578 6.583-.418 8.898-2.662.36-.349.725-.728 1.118-1.16a.907.907 0 011.099-.186 3.986 3.986 0 004.723-.707c1.716-1.72 3.27-6.082 1.835-7.515-1.436-1.432-5.795.13-7.51 1.85a4.01 4.01 0 00-.891 4.31.901.901 0 01-.167.935c-.457.513-.88.956-1.291 1.356a8.342 8.342 0 01-2.87 1.817.543.543 0 01-.386-1.016 7.26 7.26 0 002.5-1.581c.37-.36.752-.759 1.163-1.217a5.097 5.097 0 011.172-5.372c.977-.979 2.694-1.92 4.374-2.397 2.07-.589 3.73-.395 4.673.546.943.942 1.14 2.6.556 4.673-.475 1.681-1.412 3.4-2.389 4.378a5.051 5.051 0 01-2.888 1.446 5.142 5.142 0 01-2.994-.485c-.373.406-.724.768-1.071 1.105-2.564 2.486-6.244 3.59-9.844 2.952-1.024-.182-3.994.264-5.865.768a.834.834 0 01-.217.029zm5.966-8.033a.543.543 0 110-1.087.543.543 0 010 1.087zm15.528 6.302a.543.543 0 110-1.087.543.543 0 010 1.087zM6.465 34.624a.543.543 0 110-1.086.543.543 0 010 1.086zm27.748-15.797a.543.543 0 110-1.086.543.543 0 010 1.086zM24.098 3.574a.543.543 0 110-1.086.543.543 0 010 1.086z"/><path d="M19.772 14.079a.543.543 0 110-1.087.543.543 0 010 1.087zm-6.822 4.104a.543.543 0 110-1.087.543.543 0 010 1.087zM36.162 2.968a.543.543 0 110-1.087.543.543 0 010 1.087zM4.701 5.27a.543.543 0 110-1.087.543.543 0 010 1.086z"/></g><defs><clipPath id="clip0"><path fill="#fff" transform="translate(.684 .563)" d="M0 0h37.089v37.089H0z"/></clipPath></defs></svg>