<svg width="40" height="40" fill="none" xmlns="http://www.w3.org/2000/svg"><g clip-path="url(#clip0)" fill="#56A1CC"><path d="M3.23 38.36a.586.586 0 00-.586.585v.47a.586.586 0 101.171 0v-.47a.586.586 0 00-.586-.586zm2.045-9.084a.583.583 0 00.827-.049c.178-.2.367-.394.561-.577a.586.586 0 10-.803-.853c-.22.206-.432.425-.633.651a.586.586 0 00.048.828zm-.99 1.536a.586.586 0 00-.773.3c-.123.275-.234.56-.33.846a.586.586 0 101.11.376c.085-.252.183-.504.291-.749a.586.586 0 00-.298-.773zm5.025-5.159c-.283.105-.565.224-.837.354a.586.586 0 10.505 1.057c.24-.114.49-.22.74-.313a.586.586 0 10-.408-1.098zm-6.071 8.851H3.23a.586.586 0 00-.585.577l-.001.15v.716a.586.586 0 101.171 0v-.715l.001-.134a.586.586 0 00-.577-.594zm9.231-8.306c.127-.006.258-.009.388-.009h.055a.586.586 0 00.362-1.046 8.317 8.317 0 01-.337-.28.586.586 0 00-.97.41.586.586 0 00.502.926zm-1.723-2.494a.586.586 0 00.505-.881 8.269 8.269 0 01-.352-.673.586.586 0 00-1.062.495c.121.261.257.52.402.768.11.187.305.291.507.291zm-.603-4.538a.586.586 0 00-.58-.55l-.47-.003h-.003a.586.586 0 00-.066 1.168.586.586 0 001.157-.178 8.266 8.266 0 01-.038-.437zm-3.13.604l.468.003h.004a.586.586 0 00.108-1.162.586.586 0 00-1.162.104v.47c0 .321.26.583.582.585zM17.911 1.181h.025c.29-.012.588-.012.88 0a.586.586 0 10.047-1.17 12.163 12.163 0 00-.975 0 .586.586 0 00.023 1.17zm10.28 6.304a.586.586 0 101.066-.487 11.932 11.932 0 00-.442-.87.586.586 0 00-1.022.572c.143.255.277.52.398.785zm-2.918-3.817c.224.188.444.386.653.591a.584.584 0 00.829-.008.586.586 0 00-.008-.828 12.053 12.053 0 00-.724-.655.586.586 0 00-.75.9zm-14.853.767a.584.584 0 00.41-.168c.208-.204.428-.404.653-.591a.586.586 0 10-.751-.9c-.25.208-.493.429-.723.656a.586.586 0 00.41 1.003zM21.836 1.74c.277.093.553.2.821.317a.584.584 0 00.771-.305.586.586 0 00-.304-.77 11.44 11.44 0 00-.912-.352.586.586 0 00-.376 1.11zm-7.973.37a.584.584 0 00.234-.05c.267-.116.543-.223.82-.317a.586.586 0 00-.378-1.11 11.92 11.92 0 00-.91.353.586.586 0 00.234 1.124zm-6.86 9.76l.034.002c.308 0 .567-.24.585-.552.017-.293.046-.588.086-.876a.586.586 0 10-1.16-.163c-.045.32-.078.647-.096.971-.019.323.228.6.55.619zm.789-4.084a.584.584 0 00.776-.29c.121-.267.255-.531.398-.786a.586.586 0 10-1.023-.572c-.159.283-.307.576-.442.871a.586.586 0 00.29.777zm-.774 8.264a.586.586 0 00.586-.586v-.929a.586.586 0 10-1.172 0v.929c0 .324.262.586.586.586zm23.314-1.527a.586.586 0 10-1.172 0v.929a.586.586 0 101.172 0v-.93zm-1.278-4.091c.04.289.07.584.087.876a.586.586 0 101.17-.07 12.11 12.11 0 00-.097-.97.586.586 0 10-1.16.164zm.692 7.698a.586.586 0 00-.577.481.586.586 0 00.108 1.162h.004l.47-.003a.586.586 0 00.581-.586v-.469a.586.586 0 00-.586-.586zm-2.007 1.651a.586.586 0 00-.066-1.168h-.004l-.469.003a.586.586 0 00-.58.55 8.266 8.266 0 01-.039.437.586.586 0 001.158.178zM26.19 22.85a.585.585 0 00.776-.292c.09-.198.173-.4.249-.604a.586.586 0 10-1.098-.409c-.066.178-.14.356-.218.529a.586.586 0 00.291.775zm-.508.832a.586.586 0 00-.823.096c-.09.114-.185.227-.28.336a.586.586 0 10.878.775c.11-.124.217-.253.32-.383a.586.586 0 00-.095-.824zm-8.722 9.432c.12 0 .233.043.322.122a1.652 1.652 0 002.2 0 .483.483 0 01.321-.122h2.525a.586.586 0 000-1.172h-2.525c-.406 0-.796.148-1.1.418a.484.484 0 01-.643 0 1.654 1.654 0 00-1.1-.418h-2.524a.586.586 0 100 1.172h2.524z"/><path d="M36.77 30.074a.586.586 0 00.586-.586v-1.314c0-1.1-.746-2.055-1.814-2.323l-4.391-1.096a.585.585 0 00-.284 0l-4.392 1.096a2.391 2.391 0 00-1.74 1.738 7.746 7.746 0 00-.83-.046h-2.017v-2.945a6.903 6.903 0 003.393-5.94v-.44h.677a1.85 1.85 0 001.849-1.848v-4.42a7.97 7.97 0 00-.01-.401.585.585 0 10-1.17.059c.005.103.008.215.008.342v1.437a1.839 1.839 0 00-.677-.129h-1.263a.586.586 0 00-.585.586v1.775l-2.471-3.887a.585.585 0 00-.867-.138l-1.888 1.553a2.577 2.577 0 01-1.633.585h-2.578c-.18 0-.35.083-.46.224l-1.558 1.982v-2.094a.586.586 0 00-.586-.585h-1.263a1.84 1.84 0 00-.677.128V11.95c0-4.55 3.702-8.252 8.253-8.252 2.205 0 4.277.858 5.836 2.416a8.309 8.309 0 011.914 2.992.586.586 0 001.1-.404 9.49 9.49 0 00-2.186-3.416 9.363 9.363 0 00-6.664-2.76c-5.197 0-9.425 4.228-9.425 9.424v4.42c0 1.02.83 1.848 1.849 1.848h.677v.44a6.902 6.902 0 003.393 5.94v2.945h-2.018a7.687 7.687 0 00-7.633 6.763.586.586 0 101.164.14 6.515 6.515 0 016.469-5.731h2.604a.586.586 0 00.586-.586v-2.978a6.87 6.87 0 002.334.407c.819 0 1.605-.144 2.334-.407v2.978c0 .324.263.586.586.586h2.604c.253 0 .506.016.756.046v4.234a6.021 6.021 0 003.054 5.233l1.063.6H11.47v-.992a.586.586 0 10-1.171 0v.992H6.34V37.11a.586.586 0 10-1.172 0v2.305c0 .324.262.586.586.586H31.01c.1 0 .199-.025.288-.076l3.005-1.697a6.02 6.02 0 003.054-5.232v-.772a.586.586 0 10-1.172 0v.772a4.847 4.847 0 01-2.459 4.212l-2.716 1.534-2.717-1.534a4.847 4.847 0 01-2.458-4.212v-4.821c0-.562.38-1.05.926-1.186l4.25-1.06 4.247 1.06c.546.137.927.624.927 1.186v1.314c0 .324.262.586.586.586zM25.281 14.43h.677c.373 0 .677.304.677.677v1.263a.678.678 0 01-.677.677h-.677V14.43zM10.13 16.37v-1.263c0-.373.303-.677.677-.677h.676v2.617h-.676a.678.678 0 01-.677-.677zm2.525 2.288v-.823l2.303-2.931h2.294c.864 0 1.709-.303 2.377-.852l1.377-1.132 3.104 4.883v.855a5.734 5.734 0 01-5.727 5.728 5.734 5.734 0 01-5.728-5.727z"/><path d="M29.746 35.796h2.526a.586.586 0 00.586-.586v-1.308h1.308a.586.586 0 00.586-.586V30.79a.586.586 0 00-.586-.585h-1.308v-1.308a.586.586 0 00-.586-.586h-2.526a.586.586 0 00-.585.585v1.309h-1.309a.586.586 0 00-.586.586v2.525c0 .324.263.586.586.586h1.308v1.308c0 .324.263.586.586.586zm-1.308-3.066v-1.353h1.308a.586.586 0 00.586-.586v-1.309h1.354v1.309c0 .323.262.585.586.585h1.308v1.354h-1.308a.586.586 0 00-.586.586v1.308h-1.354v-1.308a.586.586 0 00-.586-.586h-1.308z"/></g><defs><clipPath id="clip0"><path fill="#fff" d="M0 0h40v40H0z"/></clipPath></defs></svg>