<svg width="60" height="60" fill="none" xmlns="http://www.w3.org/2000/svg"><g clip-path="url(#clip0)" fill="#6AAF72"><path d="M52.64 28.69a.89.89 0 00.093-1.048l-4.174-6.782a2.654 2.654 0 00-2.246-1.255h-25.84a.88.88 0 100 1.758h2.002l-3.992 5.279-3.956-5.279h1.842a.88.88 0 000-1.758H13.7c-.91 0-1.77.481-2.246 1.255L7.28 27.642a.891.891 0 00.096 1.05l21.107 23.415c.889.986 2.162.693 3.047 0l21.108-23.415.002-.003c0 .001.026-.03 0 0 0 .001.256-.285 0 0zm-2.23-1.466h-7.1l3.932-5.15 3.169 5.15zm-20.404 4.103a.88.88 0 00-.88.879v16.362l-9.259-19.586h20.277l-9.26 19.587V32.206a.88.88 0 00-.878-.88zm9.759-4.103h-7.992l3.996-5.283 3.996 5.283zm-2.229-5.86h8.036l-4.036 5.286-4-5.287zm-17.29 5.86l3.997-5.283 3.995 5.283h-7.991zm13.756-5.86l-3.996 5.282-3.996-5.283h7.992zm-21.19.642l3.91 5.218H9.601l3.21-5.218zm5.11 6.976l8.733 18.473-16.652-18.473h7.92zm15.434 18.473l8.733-18.473h7.919L33.356 47.455zM16.435 44.26l-1.564-3.168a1.457 1.457 0 00-1.314-.816H2.967c-.562 0-1.065.313-1.314.816L.089 44.26a.89.89 0 00.15.993l6.959 7.351a1.47 1.47 0 001.064.458c.4 0 .788-.167 1.064-.458l6.96-7.35c.258-.313.308-.644.149-.994zM3.149 42.034h10.226l.857 1.736H2.292l.857-1.736zm-.229 3.494h4.463v4.714L2.92 45.528zm6.22 4.714v-4.714h4.463l-4.462 4.714zM2.888 16.611l.845.266a3.812 3.812 0 012.493 2.493l.265.845c.147.466.574.78 1.063.78a1.11 1.11 0 001.062-.78l.265-.845a3.812 3.812 0 012.494-2.493l.845-.266c.466-.146.78-.573.78-1.062a1.11 1.11 0 00-.78-1.063l-.845-.265a3.812 3.812 0 01-2.494-2.493l-.265-.845a1.11 1.11 0 00-1.062-.78c-.49 0-.916.314-1.063.78l-.265.845a3.812 3.812 0 01-2.493 2.493l-.845.266c-.467.146-.78.573-.78 1.062 0 .489.313.916.78 1.062zm4.666-3.5A5.575 5.575 0 009.99 15.55a5.575 5.575 0 00-2.437 2.437 5.576 5.576 0 00-2.438-2.437 5.574 5.574 0 002.438-2.438zM59.923 44.26l-1.564-3.168a1.457 1.457 0 00-1.314-.816h-10.59c-.562 0-1.065.313-1.314.816l-1.564 3.168a.89.89 0 00.15.993l6.959 7.351s.47.458 1.064.458c.4 0 .788-.167 1.064-.458l6.96-7.35c.239-.256.289-.588.149-.994zm-13.286-2.226h10.226l.857 1.736H45.78l.857-1.736zm-.23 3.494h4.464v4.714l-4.463-4.714zm6.222 4.714v-4.714h4.463l-4.463 4.714zm-4.783-33.631l.845.266a3.811 3.811 0 012.493 2.493l.265.845c.147.466.574.78 1.063.78a1.11 1.11 0 001.062-.78l.265-.845a3.812 3.812 0 012.494-2.493l.844-.266c.467-.146.78-.573.78-1.062a1.11 1.11 0 00-.78-1.063l-.844-.265a3.812 3.812 0 01-2.494-2.493l-.265-.845a1.11 1.11 0 00-1.062-.78 1.11 1.11 0 00-1.063.78l-.265.845a3.811 3.811 0 01-2.493 2.493l-.845.265c-.467.147-.78.574-.78 1.063s.313.916.78 1.062zm4.666-3.5a5.575 5.575 0 002.437 2.438 5.574 5.574 0 00-2.437 2.437 5.575 5.575 0 00-2.438-2.437 5.575 5.575 0 002.438-2.438zm-27.172.335l.845.265a3.812 3.812 0 012.493 2.494l.265.845c.147.466.574.78 1.063.78a1.11 1.11 0 001.062-.78l.265-.845a3.812 3.812 0 012.494-2.493l.844-.266c.467-.146.78-.573.78-1.062a1.11 1.11 0 00-.78-1.063l-.844-.265a3.812 3.812 0 01-2.494-2.493l-.265-.845a1.11 1.11 0 00-1.063-.78 1.11 1.11 0 00-1.062.78l-.265.845a3.811 3.811 0 01-2.494 2.493l-.844.266c-.467.146-.78.573-.78 1.062 0 .489.313.916.78 1.062zm4.666-3.5a5.575 5.575 0 002.437 2.438 5.574 5.574 0 00-2.437 2.437 5.575 5.575 0 00-2.438-2.437 5.573 5.573 0 002.438-2.438z"/></g><defs><clipPath id="clip0"><path fill="#fff" d="M0 0h60v60H0z"/></clipPath></defs></svg>