<svg width="489" height="554" viewBox="0 0 489 554" fill="none" xmlns="http://www.w3.org/2000/svg">
<path d="M450.399 427.272L473.058 423.988C484.551 420.704 491.447 408.882 488.163 397.389L480.282 375.059C476.342 361.267 476.013 346.489 479.625 332.369C484.223 313.979 486.521 294.605 486.521 274.573C486.521 254.213 483.894 234.51 479.297 215.792C475.685 201.672 476.342 187.223 479.954 173.102L487.835 155.369C490.79 143.876 484.223 132.054 472.729 129.099L450.071 121.218C436.279 117.605 423.143 110.381 412.963 100.529C384.722 73.2733 349.913 52.5851 311.164 41.42C297.044 37.4794 283.908 29.9266 273.728 19.4183L261.25 6.93963C252.712 -1.59837 239.248 -1.59837 230.71 6.93963L213.634 19.4183C203.125 29.9266 190.318 37.4794 176.198 41.42C137.449 52.5851 102.64 73.2733 74.7271 100.529C64.2188 110.709 51.0834 118.262 36.9629 122.203L19.2301 130.084C7.73662 133.368 0.840576 145.19 4.12442 156.683L7.07986 174.416C11.0205 188.208 11.3489 202.985 7.73662 217.106C3.13924 235.495 0.840576 254.87 0.840576 274.901C0.840576 295.261 3.46764 314.964 8.06503 333.682C11.6773 347.803 11.0205 362.252 7.40827 376.372L4.45278 398.703C1.49732 410.196 8.06503 422.018 19.5585 424.973L37.2912 427.929C51.0834 431.541 64.2188 438.765 74.3987 448.617C102.64 475.873 137.449 496.561 176.198 507.726C190.318 511.667 203.454 519.22 213.634 529.728L230.71 546.804C239.248 555.342 252.712 555.342 261.25 546.804L273.728 529.728C284.236 519.22 297.044 511.667 311.164 507.726C349.913 496.561 384.722 475.873 412.635 448.617C423.143 438.765 435.95 431.213 450.399 427.272Z" fill="url(#paint0_linear)"/>
<path d="M245.815 7.92275C249.756 7.92275 253.368 9.56463 255.995 12.1917L268.473 24.6703C279.639 35.8354 293.759 44.045 309.193 48.6424C345.972 59.1507 380.124 79.1822 408.037 106.11C418.874 116.618 432.666 124.499 448.1 128.768L470.43 136.65H470.758H471.087C478.64 138.62 483.237 146.173 481.267 153.726L473.714 170.802L473.385 171.458V172.115C469.116 187.549 469.116 203.312 472.729 218.417C477.326 236.807 479.625 256.182 479.625 275.556C479.625 294.603 477.326 313.321 473.057 331.71C469.445 346.816 469.773 362.578 474.042 378.012V378.341V378.669L481.923 400.999C483.894 408.552 479.625 416.105 472.072 418.404L450.07 421.359H449.742H449.413C434.308 425.628 420.187 433.509 408.365 445.003C380.781 471.93 346.629 491.633 309.85 502.142C294.416 506.411 280.624 514.949 269.13 526.114L268.802 526.442L268.473 526.771L256.652 543.518C254.025 546.145 250.412 547.459 246.8 547.459C242.859 547.459 239.247 545.817 236.62 543.19L219.544 526.114C208.379 514.949 194.259 506.739 178.824 502.142C142.045 491.633 107.893 471.602 79.9806 444.674C69.1439 434.166 55.0234 426.285 39.5893 422.016H39.261H38.9326L21.5282 419.06C13.9753 416.762 9.70631 409.209 11.6766 401.328V400.999V400.671L14.6321 378.669C18.5727 363.563 18.9011 347.473 15.2889 333.024C10.6915 314.634 8.39277 295.259 8.39277 275.885C8.39277 256.838 10.6915 238.12 14.9605 219.731C18.5727 204.954 18.2443 188.863 14.3037 173.757L11.3483 156.353V156.024V155.696C10.3631 152.084 10.6915 148.143 12.6618 144.859C14.6321 141.575 17.5875 139.277 21.5282 137.963H22.185L22.8417 137.635L40.2461 130.082C55.3518 125.813 69.1439 117.932 80.6374 106.767C108.222 79.839 142.374 60.1359 179.153 49.6276C194.258 45.3586 208.051 37.149 219.216 26.3123L235.963 14.162L236.292 13.8336L236.62 13.5053C238.262 9.56466 241.874 7.92275 245.815 7.92275ZM245.815 0.698242C240.232 0.698242 234.65 2.66858 230.709 6.93758L213.633 19.4162C203.125 29.9245 190.318 37.4774 176.197 41.418C137.448 52.5831 102.639 73.2713 74.7265 100.527C64.2182 110.707 51.0828 118.26 36.9623 122.201L19.2295 130.082C7.73601 133.366 0.839966 145.188 4.12381 156.681L7.07925 174.414C11.0199 188.206 11.3482 202.983 7.73601 217.104C3.13863 235.493 0.839966 254.868 0.839966 274.899C0.839966 295.259 3.46703 314.962 8.06442 333.68C11.6767 347.801 11.0199 362.25 7.40766 376.37L4.45217 398.701C1.49671 410.194 8.06442 422.016 19.5579 424.971L37.2906 427.927C51.0828 431.539 64.2182 438.763 74.3981 448.615C102.639 475.871 137.448 496.559 176.197 507.724C190.318 511.665 203.453 519.218 213.633 529.726L230.709 546.802C234.978 551.071 240.561 553.041 245.815 553.041C251.069 553.041 256.98 551.071 260.921 546.802L273.399 529.726C283.908 519.218 296.715 511.665 310.835 507.724C349.584 496.559 384.393 475.871 412.306 448.615C422.814 438.435 435.95 430.882 450.07 426.942L472.729 423.658C484.222 420.374 491.118 408.552 487.834 397.059L479.953 374.728C476.013 360.936 475.684 346.159 479.296 332.038C483.894 313.649 486.192 294.274 486.192 274.243C486.192 253.883 483.565 234.18 478.968 215.462C475.356 201.341 476.013 186.892 479.625 172.772L487.506 155.039C490.461 143.546 483.894 131.724 472.4 128.768L449.742 120.887C435.95 117.275 422.814 110.05 412.634 100.199C384.393 72.9429 349.584 52.2546 310.835 41.0896C296.715 37.149 283.579 29.5961 273.399 19.0878L260.921 6.60918C256.98 2.99694 251.397 0.698242 245.815 0.698242Z" fill="url(#paint1_linear)"/>
<defs>
<linearGradient id="paint0_linear" x1="244.689" y1="553.633" x2="244.689" y2="0.773197" gradientUnits="userSpaceOnUse">
<stop stop-color="#D7E1EB"/>
<stop offset="1" stop-color="#ECEFF4"/>
</linearGradient>
<linearGradient id="paint1_linear" x1="244.689" y1="553.631" x2="244.689" y2="0.771134" gradientUnits="userSpaceOnUse">
<stop stop-color="#A6BCD2"/>
<stop offset="1" stop-color="white"/>
</linearGradient>
</defs>
</svg>
