<svg width="358" height="271" viewBox="0 0 358 271" fill="none" xmlns="http://www.w3.org/2000/svg">
<path d="M352.379 222.081C350.409 218.797 347.782 215.842 344.826 213.543C333.989 205.334 328.079 192.198 328.407 178.406C329.064 163.629 323.81 148.195 312.645 136.373C281.12 102.878 244.669 73.9796 204.934 51.3211C163.229 27.6774 117.912 10.9298 70.9534 1.73504C35.4879 -5.16104 2.32099 21.4381 1.00746 57.232V57.8888C0.022301 86.7866 20.3821 112.072 48.9516 117.983C116.599 131.447 178.992 166.256 226.608 216.827C237.116 227.992 250.908 234.231 265.029 235.216C278.493 236.202 291.299 243.098 298.196 254.591C298.852 255.905 299.838 256.89 300.494 258.203C311.988 272.981 334.318 274.951 348.11 261.159C358.29 251.307 360.26 234.56 352.379 222.081Z" fill="url(#paint0_linear)"/>
<path d="M59.1321 5.6743C62.7443 5.6743 66.0281 6.0027 69.6404 6.65947C116.599 15.8542 161.26 32.2735 202.308 55.5888C241.714 77.9189 277.836 106.16 309.033 139.655C318.884 150.164 324.138 163.956 323.482 178.405C322.825 193.51 329.721 208.288 341.871 217.482C344.498 219.453 346.797 221.751 348.439 224.707C355.007 235.544 353.365 249.664 344.498 258.53C339.244 263.456 332.676 266.412 325.452 266.412C316.914 266.412 309.033 262.471 304.107 255.903C303.45 254.918 302.793 253.933 302.137 252.948C294.912 240.469 281.12 232.26 265.358 230.946C251.894 229.961 239.087 224.05 229.892 213.87C181.948 162.971 118.241 127.505 49.6089 113.713C23.0098 108.459 4.62019 85.1434 5.60534 58.5443V57.8874C6.5905 28.6612 30.2342 5.6743 59.1321 5.6743ZM59.1321 0.748535C28.2639 0.748535 1.66473 25.3774 0.679574 57.5591V58.2158C-0.30558 87.1137 20.0543 112.399 48.6238 118.31C116.271 131.774 178.664 166.583 226.28 217.154C236.788 228.319 250.58 234.558 264.701 235.544C278.165 236.529 290.972 243.425 297.868 254.918C298.525 256.232 299.51 257.217 300.166 258.53C306.406 266.74 315.929 270.681 325.452 270.681C333.333 270.681 341.543 267.725 347.782 261.486C358.29 251.306 360.261 234.558 352.38 221.751C350.409 218.468 347.782 215.512 344.827 213.213C333.99 205.004 328.079 191.868 328.407 178.076C329.064 163.299 323.81 147.865 312.645 136.043C281.12 102.548 244.669 73.6499 204.935 50.9914C163.23 27.3477 117.913 10.6001 70.9539 1.40529C66.6849 1.07691 63.0727 0.748535 59.1321 0.748535Z" fill="url(#paint1_linear)"/>
<defs>
<linearGradient id="paint0_linear" x1="170.155" y1="164.391" x2="214.867" y2="71.1291" gradientUnits="userSpaceOnUse">
<stop stop-color="#002F7A"/>
<stop offset="1" stop-color="#17459A"/>
</linearGradient>
<linearGradient id="paint1_linear" x1="153.134" y1="187.202" x2="228.17" y2="65.5401" gradientUnits="userSpaceOnUse">
<stop stop-color="#00164D"/>
<stop offset="1" stop-color="#4F7CCB"/>
</linearGradient>
</defs>
</svg>
