<svg width="28" height="28" viewBox="0 0 28 28" fill="none" xmlns="http://www.w3.org/2000/svg">
<path d="M23.9056 4.09886C18.4463 -1.36043 9.56051 -1.36043 4.10122 4.09886C1.45673 6.74439 0 10.261 0 14.001C0 17.741 1.45673 21.2576 4.10122 23.9021C6.83141 26.6323 10.4174 27.9968 14.0034 27.9968C17.5893 27.9968 21.1754 26.6323 23.9055 23.9021C29.3648 18.4428 29.3648 9.55919 23.9056 4.09886ZM22.3718 22.3683C17.7575 26.9826 10.2492 26.9826 5.63495 22.3683C3.4005 20.1339 2.16936 17.1618 2.16936 14.001C2.16936 10.8402 3.4005 7.86812 5.63495 5.63259C10.2492 1.01828 17.7575 1.01938 22.3718 5.63259C26.985 10.2469 26.985 17.7551 22.3718 22.3683Z" fill="#CECECE"/>
<path d="M18.677 16.9984L15.6062 13.932L18.677 10.8656C19.1 10.4426 19.1 9.75597 18.6781 9.33181C18.254 8.90661 17.5674 8.9077 17.1433 9.33072L14.0704 12.3993L10.9975 9.33072C10.5733 8.9077 9.88674 8.90661 9.46263 9.33181C9.03962 9.75592 9.03962 10.4425 9.46372 10.8656L12.5345 13.932L9.46372 16.9984C9.03962 17.4214 9.03962 18.108 9.46263 18.5322C9.67416 18.7448 9.95291 18.85 10.2306 18.85C10.5083 18.85 10.786 18.7437 10.9975 18.5332L14.0704 15.4646L17.1433 18.5332C17.3549 18.7448 17.6325 18.85 17.9102 18.85C18.1879 18.85 18.4667 18.7437 18.6782 18.5322C19.1011 18.108 19.1011 17.4214 18.677 16.9984Z" fill="#CECECE"/>
</svg>
