<svg width="20" height="20" viewBox="0 0 20 20" fill="none" xmlns="http://www.w3.org/2000/svg">
<g clip-path="url(#clip0)">
<path d="M12.2028 10.0033L19.6805 2.52521C19.8862 2.31935 19.9997 2.04472 20 1.75187C20 1.45887 19.8865 1.18391 19.6805 0.978378L19.0252 0.323256C18.8192 0.116914 18.5446 0.00390625 18.2514 0.00390625C17.9587 0.00390625 17.6841 0.116914 17.478 0.323256L10.0003 7.80082L2.52228 0.323256C2.31659 0.116914 2.04179 0.00390625 1.74878 0.00390625C1.4561 0.00390625 1.1813 0.116914 0.97561 0.323256L0.32 0.978378C-0.106667 1.40504 -0.106667 2.09903 0.32 2.52521L7.79789 10.0033L0.32 17.481C0.114146 17.6872 0.000813008 17.9618 0.000813008 18.2546C0.000813008 18.5475 0.114146 18.8221 0.32 19.0281L0.975447 19.6833C1.18114 19.8894 1.4561 20.0026 1.74862 20.0026C2.04163 20.0026 2.31642 19.8894 2.52211 19.6833L10.0002 12.2055L17.4779 19.6833C17.6839 19.8894 17.9585 20.0026 18.2512 20.0026H18.2515C18.5444 20.0026 18.819 19.8894 19.025 19.6833L19.6803 19.0281C19.886 18.8223 19.9995 18.5475 19.9995 18.2546C19.9995 17.9618 19.886 17.6872 19.6803 17.4811L12.2028 10.0033Z" fill="#3E4E46"/>
</g>
<defs>
<clipPath id="clip0">
<rect width="20" height="20" fill="white"/>
</clipPath>
</defs>
</svg>
