<svg width="48" height="48" viewBox="0 0 48 48" fill="none" xmlns="http://www.w3.org/2000/svg">
<g clip-path="url(#clip0)">
<path d="M47.9903 18.3507C47.9854 18.2956 47.9744 18.2411 47.9575 18.1883C47.9466 18.1412 47.9313 18.0951 47.912 18.0507C47.8896 18.0073 47.8627 17.9662 47.832 17.9282C47.8011 17.8832 47.7654 17.8416 47.7256 17.8042C47.7127 17.7931 47.7072 17.7778 47.6936 17.7666L39.9996 11.7912V5.59809C39.9996 4.27258 38.925 3.19797 37.5995 3.19797H28.9294L25.458 0.502612C24.6004 -0.166235 23.3978 -0.166235 22.5402 0.502612L19.068 3.19797H10.398C9.07246 3.19797 7.99784 4.27249 7.99784 5.59809V11.7912L0.306297 17.7667C0.292702 17.778 0.287077 17.7931 0.274326 17.8043C0.234481 17.8416 0.19876 17.8832 0.167915 17.9283C0.137163 17.9663 0.110349 18.0073 0.087942 18.0508C0.0685347 18.0951 0.0533465 18.1413 0.0423772 18.1884C0.0256888 18.2405 0.0147195 18.2941 0.00956299 18.3485C0.00956299 18.3652 0 18.3797 0 18.3965V45.6001C0.00112506 46.109 0.165758 46.604 0.469618 47.0121C0.474399 47.0193 0.475243 47.0281 0.480774 47.0345C0.4864 47.0409 0.4984 47.0481 0.506369 47.0569C0.95583 47.6483 1.65487 47.997 2.39768 48.0002H45.5999C46.3456 47.9979 47.0475 47.6476 47.4976 47.053C47.5039 47.045 47.5136 47.0426 47.5191 47.0346C47.5248 47.0266 47.5255 47.0194 47.5304 47.0122C47.8342 46.604 47.9989 46.109 48 45.6002V18.3987C47.9999 18.3819 47.9912 18.3675 47.9903 18.3507ZM23.5187 1.76502C23.7981 1.54301 24.1937 1.54301 24.4731 1.76502L26.3187 3.19787H21.6785L23.5187 1.76502ZM2.59926 46.4002L23.5188 30.1505C23.7983 29.9289 24.1937 29.9289 24.4732 30.1505L45.3982 46.4002H2.59926ZM46.3999 45.1529L25.458 28.888C24.6002 28.2197 23.398 28.2197 22.5402 28.888L1.59758 45.1529V19.6171L14.7079 29.7977C15.0572 30.0686 15.5599 30.005 15.8308 29.6557C16.1016 29.3063 16.0381 28.8036 15.6887 28.5328L2.36965 18.1907L7.99794 13.8168V19.9987C7.99794 20.4406 8.35617 20.7987 8.79795 20.7987C9.23981 20.7987 9.59796 20.4405 9.59796 19.9987V5.598C9.59796 5.15613 9.9561 4.79799 10.398 4.79799H37.5993C38.0412 4.79799 38.3993 5.15613 38.3993 5.598V19.9987C38.3993 20.4406 38.7575 20.7987 39.1993 20.7987C39.6412 20.7987 39.9993 20.4405 39.9993 19.9987V13.8168L45.6276 18.1907L32.2854 28.5512C32.0559 28.7251 31.9375 29.009 31.9755 29.2945C32.0136 29.58 32.2021 29.823 32.4692 29.9307C32.7363 30.0385 33.0408 29.9944 33.2663 29.8152L46.3997 19.6171V45.1529H46.3999Z" fill="url(#paint0_linear)"/>
<path d="M33.5994 19.1986V15.9984C33.5994 10.6962 29.3011 6.39795 23.9989 6.39795C18.6967 6.39795 14.3984 10.6962 14.3984 15.9984C14.3984 21.3006 18.6967 25.5989 23.9989 25.5989C24.4408 25.5989 24.7989 25.2408 24.7989 24.7989C24.7989 24.357 24.4408 23.9989 23.9989 23.9989C19.5804 23.9989 15.9985 20.417 15.9985 15.9985C15.9985 11.5801 19.5804 7.99816 23.9989 7.99816C28.4174 7.99816 31.9993 11.5801 31.9993 15.9985V19.1987C31.9993 20.0824 31.2829 20.7988 30.3992 20.7988C29.5154 20.7988 28.7991 20.0824 28.7991 19.1987V15.9985C28.7991 15.5567 28.4409 15.1985 27.9991 15.1985C27.5572 15.1985 27.199 15.5567 27.199 15.9985C27.199 17.7659 25.7663 19.1987 23.9989 19.1987C22.2315 19.1987 20.7988 17.7659 20.7988 15.9985C20.7988 14.2312 22.2315 12.7984 23.9989 12.7984C24.4408 12.7984 24.7989 12.4403 24.7989 11.9984C24.7989 11.5565 24.4408 11.1984 23.9989 11.1984C21.8505 11.1936 19.9605 12.6169 19.3717 14.6831C18.783 16.7492 19.6387 18.955 21.4669 20.0834C23.2951 21.2119 25.6504 20.9882 27.2335 19.5356C27.4077 21.2275 28.8782 22.4855 30.5767 22.3956C32.2752 22.3056 33.6047 20.8995 33.5994 19.1986Z" fill="url(#paint1_linear)"/>
</g>
<defs>
<linearGradient id="paint0_linear" x1="48" y1="24.0006" x2="2.21936" y2="32.0009" gradientUnits="userSpaceOnUse">
<stop stop-color="#008CB9"/>
<stop offset="1" stop-color="#96BF53"/>
</linearGradient>
<linearGradient id="paint1_linear" x1="33.5994" y1="15.9984" x2="15.2862" y2="19.1987" gradientUnits="userSpaceOnUse">
<stop stop-color="#008CB9"/>
<stop offset="1" stop-color="#96BF53"/>
</linearGradient>
<clipPath id="clip0">
<rect width="48" height="48" fill="white"/>
</clipPath>
</defs>
</svg>
