<svg width="48" height="48" viewBox="0 0 48 48" fill="none" xmlns="http://www.w3.org/2000/svg">
<path d="M24 0C14.2227 0 6.26855 7.95411 6.26855 17.7314C6.26855 20.9502 7.7121 24.412 7.7726 24.558C8.23883 25.6647 9.15878 27.3836 9.82214 28.3911L21.9796 46.812C22.4772 47.5671 23.2135 48 24 48C24.7864 48 25.5228 47.5671 26.0203 46.813L38.1789 28.3911C38.8433 27.3836 39.7622 25.6647 40.2284 24.558C40.2889 24.413 41.7314 20.9512 41.7314 17.7314C41.7314 7.95411 33.7773 0 24 0ZM38.3051 23.7486C37.8889 24.7405 37.0326 26.3395 36.437 27.2428L24.2785 45.6647C24.0386 46.0287 23.9624 46.0287 23.7225 45.6647L11.564 27.2428C10.9684 26.3395 10.1121 24.7395 9.69593 23.7476C9.6782 23.7048 8.3546 20.5184 8.3546 17.7314C8.3546 9.10456 15.3731 2.08605 24 2.08605C32.6268 2.08605 39.6453 9.10456 39.6453 17.7314C39.6453 20.5226 38.3186 23.7173 38.3051 23.7486Z" fill="url(#paint0_linear)"/>
<path d="M23.9995 8.34521C18.823 8.34521 14.6123 12.5569 14.6123 17.7324C14.6123 22.9079 18.823 27.1197 23.9995 27.1197C29.1761 27.1197 33.3867 22.9079 33.3867 17.7324C33.3867 12.5569 29.1761 8.34521 23.9995 8.34521ZM23.9995 25.0336C19.9745 25.0336 16.6984 21.7585 16.6984 17.7324C16.6984 13.7064 19.9745 10.4313 23.9995 10.4313C28.0246 10.4313 31.3007 13.7064 31.3007 17.7324C31.3007 21.7585 28.0246 25.0336 23.9995 25.0336Z" fill="url(#paint1_linear)"/>
<defs>
<linearGradient id="paint0_linear" x1="41.7314" y1="24" x2="7.44681" y2="28.4264" gradientUnits="userSpaceOnUse">
<stop stop-color="#008CB9"/>
<stop offset="1" stop-color="#96BF53"/>
</linearGradient>
<linearGradient id="paint1_linear" x1="33.3867" y1="17.7324" x2="15.4804" y2="20.8616" gradientUnits="userSpaceOnUse">
<stop stop-color="#008CB9"/>
<stop offset="1" stop-color="#96BF53"/>
</linearGradient>
</defs>
</svg>
