<svg width="46" height="46" viewBox="0 0 46 46" fill="none" xmlns="http://www.w3.org/2000/svg">
<g clip-path="url(#clip0)">
<path d="M29.1328 0C28.7097 0 28.3662 0.343472 28.3662 0.766635C28.3662 1.1898 28.7097 1.53327 29.1328 1.53327C37.5877 1.53327 44.4662 8.41178 44.4662 16.8666C44.4662 17.2898 44.8097 17.6332 45.2328 17.6332C45.6568 17.6332 45.9994 17.2898 45.9994 16.8666C45.9994 7.56627 38.4333 0 29.1328 0Z" fill="url(#paint0_linear)"/>
<path d="M29.1328 4.6001C28.7097 4.6001 28.3662 4.94357 28.3662 5.36673C28.3662 5.7899 28.7097 6.13337 29.1328 6.13337C35.0515 6.13337 39.8662 10.948 39.8662 16.8667C39.8662 17.2899 40.2097 17.6333 40.6328 17.6333C41.0568 17.6333 41.3995 17.2899 41.3995 16.8667C41.3995 10.1033 35.8971 4.6001 29.1328 4.6001Z" fill="url(#paint1_linear)"/>
<path d="M29.1328 9.2002C28.7097 9.2002 28.3662 9.54367 28.3662 9.96683C28.3662 10.39 28.7097 10.7335 29.1328 10.7335C32.5146 10.7335 35.2662 13.485 35.2662 16.8668C35.2662 17.29 35.6097 17.6335 36.0328 17.6335C36.4568 17.6335 36.7995 17.29 36.7995 16.8668C36.7995 12.6395 33.3602 9.2002 29.1328 9.2002Z" fill="url(#paint2_linear)"/>
<path d="M41.4874 28.7692C39.4014 28.4947 37.3444 27.9826 35.374 27.2489C33.4659 26.5335 31.2977 26.9951 29.8456 28.428L27.4222 30.846C22.3407 27.8499 18.0957 23.6134 15.0927 18.5419L17.5176 16.1223C18.9513 14.6756 19.4143 12.5098 18.6976 10.6062C17.9624 8.63895 17.4494 6.58656 17.1734 4.49734C16.8062 1.90751 14.5637 -0.00993391 11.9425 3.87213e-05H5.23494C5.07853 3.87213e-05 4.92211 0.00767542 4.76731 0.0215113C3.37419 0.147292 2.11306 0.807373 1.21678 1.87921C0.320591 2.95176 -0.104189 4.30876 0.0231192 5.71247C0.766036 12.6953 3.18103 19.5009 7.00289 25.3889C10.4728 30.8384 15.1932 35.5495 20.648 39.0088C26.5253 42.8129 33.3125 45.2226 40.2915 45.9793C40.4494 45.9931 40.6081 45.9999 40.7675 45.9999C40.7721 45.9999 40.7767 45.9999 40.7821 45.9999C43.6709 45.9876 46.0107 43.6325 45.9992 40.7521V34.0676C46.0599 31.4173 44.1247 29.1403 41.4874 28.7692ZM44.4659 34.04C44.4659 34.0461 44.4659 34.053 44.4659 34.0591V40.756C44.4736 42.7938 42.8184 44.459 40.7768 44.4674C40.6572 44.4628 40.5422 44.4628 40.4409 44.4536C33.7143 43.7237 27.1577 41.3961 21.4744 37.7176C16.2029 34.3742 11.6458 29.8263 8.29241 24.5593C4.59777 18.8677 2.26561 12.2943 1.54875 5.56225C1.45981 4.57937 1.75962 3.62109 2.39364 2.86281C3.02767 2.10453 3.91928 1.63771 4.90522 1.54876C5.01483 1.53879 5.12453 1.5334 5.23485 1.5334H11.9493C11.9616 1.5334 11.9738 1.5334 11.9861 1.5334C13.8231 1.5334 15.3971 2.89426 15.6538 4.70506C15.9444 6.90155 16.4849 9.06813 17.2615 11.145C17.7683 12.4913 17.4409 14.0216 16.4312 15.0405L13.5915 17.8741C13.3461 18.1186 13.2955 18.4959 13.4665 18.7964C16.7156 24.5004 21.4544 29.2292 27.1684 32.4714C27.4689 32.6424 27.8445 32.5903 28.0884 32.3472L30.925 29.5167C31.95 28.5055 33.4856 28.1797 34.8365 28.6857C36.9157 29.46 39.0861 30.0005 41.2795 30.2887C43.1426 30.5509 44.5127 32.1632 44.4659 34.04Z" fill="url(#paint3_linear)"/>
<path d="M11.5002 3.06689H5.23421C5.16979 3.06689 5.10618 3.06995 5.04258 3.07606C4.26139 3.14659 3.78369 3.58969 3.56905 3.84656C3.39655 4.05275 3.0025 4.61553 3.0715 5.38836C3.36133 8.10775 3.88566 10.7535 4.63163 13.2528C4.73127 13.5848 5.03566 13.8002 5.3661 13.8002C5.43897 13.8002 5.51255 13.7903 5.58613 13.7681C5.99168 13.647 6.22249 13.2199 6.10129 12.8144C5.38218 10.4055 4.87618 7.8525 4.59785 5.23895C4.58024 5.04426 4.70674 4.87634 4.74582 4.82882C4.80871 4.75371 4.94896 4.62415 5.23421 4.60034H11.4986C11.4995 4.60034 11.4995 4.60034 11.4995 4.60034C11.9226 4.60034 12.2661 4.25768 12.2661 3.83443C12.2668 3.41109 11.9233 3.06689 11.5002 3.06689Z" fill="url(#paint4_linear)"/>
<path d="M42.1664 33.7334C41.7433 33.7334 41.3998 34.0769 41.3998 34.5L41.399 40.7552C41.3998 40.9277 41.3338 41.0902 41.2135 41.2113C41.0931 41.3325 40.9336 41.3992 40.7818 41.3999L40.7113 41.3984C38.0917 41.114 35.5601 40.6095 33.1873 39.8988C32.7833 39.7769 32.3547 40.0077 32.2328 40.4133C32.1109 40.8188 32.3417 41.2458 32.7472 41.3678C35.209 42.1053 37.8333 42.6282 40.5596 42.9241C40.6225 42.9302 40.7505 42.9333 40.7689 42.9333C41.3493 42.931 41.8936 42.7033 42.3023 42.2916C42.7109 41.8792 42.9348 41.3317 42.9324 40.7522L42.9332 34.5C42.9332 34.0769 42.5897 33.7334 42.1664 33.7334Z" fill="url(#paint5_linear)"/>
</g>
<defs>
<linearGradient id="paint0_linear" x1="45.9994" y1="8.81662" x2="29.1815" y2="11.7555" gradientUnits="userSpaceOnUse">
<stop stop-color="#008CB9"/>
<stop offset="1" stop-color="#96BF53"/>
</linearGradient>
<linearGradient id="paint1_linear" x1="41.3995" y1="11.1167" x2="28.9688" y2="13.289" gradientUnits="userSpaceOnUse">
<stop stop-color="#008CB9"/>
<stop offset="1" stop-color="#96BF53"/>
</linearGradient>
<linearGradient id="paint2_linear" x1="36.7995" y1="13.4168" x2="28.7561" y2="14.8224" gradientUnits="userSpaceOnUse">
<stop stop-color="#008CB9"/>
<stop offset="1" stop-color="#96BF53"/>
</linearGradient>
<linearGradient id="paint3_linear" x1="46.0006" y1="23" x2="2.12779" y2="30.6667" gradientUnits="userSpaceOnUse">
<stop stop-color="#008CB9"/>
<stop offset="1" stop-color="#96BF53"/>
</linearGradient>
<linearGradient id="paint4_linear" x1="12.2661" y1="8.43356" x2="3.41953" y2="9.75903" gradientUnits="userSpaceOnUse">
<stop stop-color="#008CB9"/>
<stop offset="1" stop-color="#96BF53"/>
</linearGradient>
<linearGradient id="paint5_linear" x1="42.9332" y1="38.3333" x2="32.8048" y2="40.3982" gradientUnits="userSpaceOnUse">
<stop stop-color="#008CB9"/>
<stop offset="1" stop-color="#96BF53"/>
</linearGradient>
<clipPath id="clip0">
<rect width="46" height="46" fill="white"/>
</clipPath>
</defs>
</svg>
