<svg width="63" height="63" viewBox="0 0 63 63" fill="none" xmlns="http://www.w3.org/2000/svg">
<circle cx="31.5005" cy="31.5005" r="30.5005" stroke="#B3DBF1" stroke-width="2"/>
<circle cx="31.392" cy="31.2409" r="27.7419" fill="white" stroke="#D8F1FF"/>
<g clip-path="url(#clip0)">
<path d="M34.1582 24.4275C34.1514 24.4206 34.1446 24.4138 34.1377 24.4138C32.1577 22.98 31.7275 19.6412 31.7207 19.5934C31.6866 19.293 31.4134 19.0813 31.113 19.1154C30.8126 19.1496 30.6009 19.4227 30.6351 19.7231C30.6556 19.8733 31.0994 23.4238 33.3457 25.1854C33.2774 25.4312 33.018 25.9091 32.9224 26.0798C32.8473 26.2164 32.7858 26.3256 32.7449 26.4144C32.738 26.428 32.7312 26.4417 32.7312 26.4485C32.622 26.7558 32.5196 27.063 32.4171 27.3634C32.0553 28.4491 31.7139 29.4664 31.0925 30.3745C30.2869 31.5147 29.3514 32.5184 28.5936 33.051C28.0883 33.3992 27.5284 33.6519 26.9412 33.9113C26.4018 34.1571 25.8351 34.4029 25.3026 34.7443C25.0158 34.9287 24.7427 35.1335 24.4832 35.352C23.9643 35.7753 23.4727 36.1713 22.865 36.2328C22.7626 36.2396 22.667 36.2533 22.5714 36.2601C21.9501 36.3147 21.3014 36.3693 20.6118 36.7722C18.1948 38.1992 18.2494 41.4834 18.2767 43.0606C18.2836 43.361 18.5225 43.6 18.823 43.6H18.8298C19.1302 43.5932 19.3692 43.3474 19.3692 43.0469V43.0401C19.3214 40.8347 19.5126 38.6703 21.1512 37.7076C21.6224 37.4345 22.0798 37.3935 22.6534 37.3457C22.7558 37.3389 22.8582 37.3252 22.9606 37.3184C23.8892 37.2296 24.5583 36.6834 25.1592 36.2055C25.3845 36.0143 25.6235 35.8368 25.8761 35.6729C26.3472 35.3725 26.8456 35.1472 27.3782 34.915C27.9859 34.6419 28.6209 34.362 29.2081 33.9523C30.4507 33.0783 31.5568 31.6035 31.9802 31.0027C32.6903 29.9648 33.0794 28.8178 33.4481 27.7117C33.5437 27.4249 33.6461 27.1313 33.7486 26.8377C33.7759 26.7899 33.8237 26.6943 33.8783 26.6055C34.2675 25.9023 34.8 24.9396 34.1582 24.4275Z" fill="#56A1CC"/>
<path d="M43.4717 26.2033C42.3451 24.114 40.5425 22.8509 38.2621 22.5505C38.2552 22.5505 38.2484 22.5505 38.2347 22.5505C38.0982 22.5368 37.9685 22.5368 37.8456 22.5368C37.5929 22.53 37.3608 22.53 37.2242 22.448C37.2174 22.448 37.2174 22.4412 37.2106 22.4412C36.7736 22.1954 35.053 20.2222 34.9574 18.8225C34.9369 18.522 34.6774 18.2967 34.377 18.3172C34.0766 18.3377 33.8513 18.5972 33.8718 18.8976C33.9878 20.7138 35.9133 22.9601 36.6712 23.3971C37.0535 23.6224 37.4632 23.6293 37.8319 23.6361C37.9411 23.6361 38.0436 23.6361 38.1392 23.6497C40.0783 23.9024 41.5462 24.947 42.509 26.7427C43.3078 28.2449 43.7107 30.2044 43.6355 32.2733C43.4239 37.4897 40.843 41.2723 36.3639 42.9315C35.0939 43.4094 30.6763 44.3722 27.1191 42.5287C27.1191 42.5287 27.1122 42.5287 27.1122 42.5218C26.4568 42.1941 25.8559 41.6479 25.2004 40.7944L25.1936 40.7807C24.6815 40.0911 23.9851 39.1421 22.6127 39.6815C21.0901 40.255 21.0901 42.4604 21.0901 43.3958C21.0901 43.6962 21.3359 43.942 21.6363 43.942C21.9367 43.942 22.1825 43.6962 22.1825 43.3958C22.1825 42.7403 22.1825 41.0129 23.0019 40.6988H23.0087C23.5481 40.4871 23.7529 40.6578 24.3196 41.4225L24.3333 41.4362L24.3401 41.443C25.0912 42.4331 25.8218 43.0817 26.6274 43.4845C28.1705 44.2834 29.9731 44.6862 31.9805 44.6862C32.2604 44.6862 32.5403 44.6794 32.8271 44.6658C34.6706 44.5633 36.1659 44.1605 36.7463 43.9352C39.2179 43.0203 41.1639 41.5181 42.5431 39.463C43.8745 37.4761 44.6119 35.059 44.7212 32.2938C44.8031 30.0337 44.3593 27.8762 43.4717 26.2033Z" fill="#56A1CC"/>
<path d="M41.8328 31.4126C41.7441 31.2077 41.4368 30.6137 40.8428 30.5318C40.836 30.5318 40.8291 30.5318 40.8223 30.5318C40.5287 30.5045 39.962 30.5796 39.4772 31.4331C38.337 33.1878 36.5754 34.1369 35.2918 34.6285C33.2571 35.4205 31.1951 35.5571 29.0102 35.6936C28.4503 35.7278 27.7948 35.796 27.1667 36.0487C26.1766 36.4242 25.4802 37.1753 25.2617 38.1107C25.0432 39.0461 25.3232 40.0293 26.0401 40.8145C26.5248 41.3334 27.2145 41.7499 28.143 42.0913C29.2696 42.501 30.4645 42.7126 31.6662 42.7058C32.5402 42.7058 33.4141 42.5965 34.2676 42.3917C36.193 41.9274 38.0434 40.8964 39.6138 39.408C40.8018 38.2609 41.5802 37.0865 41.9967 35.8097C42.5293 34.3281 42.4678 32.7303 41.8328 31.4126ZM40.9589 35.4478C40.9589 35.4546 40.952 35.4615 40.952 35.4615C40.5902 36.5676 39.9074 37.5986 38.8491 38.6159C37.422 39.9747 35.7424 40.9101 34.0013 41.3334C32.1237 41.784 30.2255 41.6953 28.5117 41.0671C27.7607 40.7872 27.194 40.4526 26.8389 40.0703C26.3746 39.565 26.1835 38.9437 26.32 38.3633C26.4566 37.7829 26.9072 37.3118 27.5558 37.066C27.5627 37.066 27.5627 37.066 27.5695 37.0592C28.0611 36.8612 28.6073 36.8066 29.0785 36.7792C31.2429 36.6427 33.4892 36.4993 35.6741 35.6458C38.2755 34.6558 39.6752 33.1264 40.3921 32.0134C40.399 32.0066 40.4058 31.9929 40.4126 31.9793C40.4741 31.8496 40.5697 31.7335 40.6789 31.6379C40.7404 31.7062 40.7882 31.7813 40.8223 31.8632C40.8223 31.87 40.8291 31.8769 40.836 31.8837C41.348 32.942 41.3958 34.2393 40.9589 35.4478Z" fill="#56A1CC"/>
</g>
<defs>
<clipPath id="clip0">
<rect width="26.4605" height="26.4605" fill="white" transform="translate(18.2703 18.2705)"/>
</clipPath>
</defs>
</svg>
