<svg width="63" height="63" viewBox="0 0 63 63" fill="none" xmlns="http://www.w3.org/2000/svg">
<circle cx="31.5" cy="31.5" r="30.5" stroke="#B3DBF1" stroke-width="2"/>
<circle cx="31.3918" cy="31.3913" r="27.7414" fill="white" stroke="#D8F1FF"/>
<g clip-path="url(#clip0)">
<path d="M42.5518 31.0604C43.2406 27.319 42.1161 22.1761 38.0187 19.7253C35.4308 18.2736 32.3783 17.8895 29.5114 18.6548C25.5401 19.7167 22.6211 22.5664 21.7032 26.2776C21.4986 27.0303 21.4118 27.8103 21.4462 28.5896C21.4902 29.0731 21.5794 29.5514 21.7127 30.0183C21.8922 30.6124 21.981 31.2302 21.9762 31.8508C21.9577 32.5896 21.4488 33.3562 20.9994 34.0325C20.5094 34.7707 20.0862 35.4081 20.3316 35.996C20.5645 36.3945 20.9744 36.657 21.4337 36.7021C21.4602 36.7068 21.487 36.7096 21.5138 36.7102C21.6366 36.6952 21.7596 36.7359 21.8492 36.8213C21.9387 36.9066 21.9853 37.0275 21.9762 37.1509C21.9762 38.067 21.999 38.5397 22.3775 38.7565C22.3445 38.8255 22.3214 38.8988 22.309 38.9741C22.271 39.2328 22.3642 39.4933 22.5574 39.6692C22.7496 39.8554 22.9931 39.9797 23.2566 40.0261C23.2751 40.0304 23.2928 40.0337 23.31 40.0377C23.3204 40.1033 23.325 40.1696 23.3238 40.236C23.3206 40.4 23.309 40.5637 23.2889 40.7264C23.2157 41.4316 23.1154 42.3975 24.5262 42.8586C24.8094 42.9378 25.1029 42.9735 25.3968 42.9646C26.7327 42.9052 28.053 42.6521 29.3161 42.2133C29.6808 42.8492 29.9007 43.5579 29.96 44.2886C29.9599 44.4056 30.0064 44.5177 30.0891 44.6004C30.1718 44.6831 30.2839 44.7295 30.4009 44.7295H41.4225C41.611 44.7272 41.7769 44.6044 41.8341 44.4247C41.8921 44.2426 41.8289 44.0437 41.6765 43.9283C41.2204 43.5819 39.7098 39.9329 39.6633 38.6222C39.7965 38.3199 39.9748 37.9804 40.186 37.5861C41.336 35.5595 42.1358 33.3532 42.5518 31.0604ZM38.7783 38.5779C38.7895 39.6322 39.7401 42.4182 40.5567 43.8478H30.8044C30.6946 43.1723 30.4757 42.5192 30.1564 41.914C31.4337 41.4133 32.5589 40.7697 33.099 40.0633C33.246 39.8697 33.2087 39.5936 33.0155 39.4461C32.8224 39.2985 32.5462 39.335 32.3981 39.5277C31.1504 41.1602 25.959 42.3998 24.8 42.0207C24.066 41.7806 24.0952 41.4988 24.1658 40.8178C24.1892 40.6247 24.2025 40.4305 24.2055 40.2361C24.2055 39.4933 23.9058 39.2715 23.4555 39.1671C23.3705 39.155 23.2893 39.1236 23.2182 39.0754C23.3047 38.9927 23.403 38.9231 23.5097 38.869C23.6937 38.7785 23.7912 38.5732 23.7448 38.3735C23.6984 38.1738 23.5205 38.0324 23.3155 38.0322C23.1562 38.0322 22.9793 38.0322 22.8863 38.0206C22.8583 37.7316 22.8488 37.4411 22.8579 37.1509C22.8665 36.8033 22.7343 36.4669 22.4914 36.2181C22.2485 35.9693 21.9153 35.8291 21.5676 35.8294C21.2498 35.7625 21.1534 35.6763 21.1452 35.6563C21.081 35.5033 21.506 34.864 21.7342 34.5204C22.2237 33.7833 22.8329 32.8659 22.8579 31.8733C22.8702 31.3225 22.8089 30.7726 22.6756 30.238C23.1564 29.815 23.7237 29.5021 24.338 29.3213C24.5569 29.2831 24.7819 29.2988 24.9933 29.3671C25.228 29.4318 25.4707 29.294 25.5353 29.0593C25.6 28.8246 25.4622 28.582 25.2275 28.5173C24.8803 28.4104 24.5123 28.3903 24.1555 28.4585C23.5325 28.6172 22.9502 28.9064 22.4472 29.3069C22.387 29.05 22.3462 28.789 22.3253 28.5261C22.2954 27.839 22.3743 27.1516 22.5591 26.4892C23.4115 23.0438 26.0283 20.4988 29.7395 19.5064C32.3757 18.7994 35.1838 19.1495 37.5657 20.4822C41.3023 22.7169 42.3201 27.4493 41.6846 30.9006C41.2884 33.1047 40.5187 35.225 39.4088 37.17C39.1664 37.6223 38.9572 38.0128 38.8061 38.3742C38.7806 38.4389 38.771 38.5088 38.7783 38.5779Z" fill="#56A1CC"/>
<path d="M39.6533 32.0675C39.7164 31.3874 39.2509 30.7713 38.5794 30.6463L37.7351 29.476C37.7869 29.3806 37.8266 29.279 37.8532 29.1737L38.6708 28.8467C39.0484 29.2766 39.66 29.4141 40.1853 29.1872C40.7105 28.9604 41.0296 28.4209 40.9756 27.8513C40.9216 27.2817 40.5065 26.8119 39.948 26.6879L39.2856 25.3667C39.7502 24.8933 39.7904 24.1483 39.3792 23.6278C38.9681 23.1072 38.2341 22.9736 37.6659 23.3159L36.9273 22.7027C36.9832 22.5566 37.0125 22.4017 37.0137 22.2453C37.0149 21.7051 36.6868 21.2188 36.1855 21.0176C35.6842 20.8165 35.1109 20.9411 34.7384 21.3323L33.4313 21.0056C33.2748 20.4386 32.7606 20.0446 32.1724 20.041C31.5843 20.0375 31.0653 20.4252 30.9019 20.9902L29.1552 21.3395C28.6995 20.8482 27.9475 20.7776 27.4084 21.1755C26.8693 21.5734 26.7152 22.3129 27.0504 22.893L26.1945 24.0329C25.5811 24.1438 25.1292 24.6689 25.1109 25.2919C25.0927 25.915 25.5132 26.4656 26.119 26.6122L26.8267 28.3594C26.4384 28.7406 26.3238 29.321 26.538 29.8213C26.7522 30.3215 27.2514 30.6391 27.7952 30.6211C28.339 30.6031 28.8162 30.2533 28.9969 29.7401H31.3637C31.5614 30.3479 32.178 30.716 32.8068 30.6014L34.2704 32.8276C33.8949 33.2439 33.8236 33.852 34.0924 34.344C34.3613 34.8359 34.9117 35.1042 35.4648 35.0129C36.0179 34.9216 36.4529 34.4907 36.5495 33.9385L37.642 33.0652C37.8499 33.1963 38.0905 33.2662 38.3363 33.267C39.0194 33.2675 39.5903 32.7476 39.6533 32.0675ZM39.659 27.5357C39.8795 27.5352 40.0664 27.6977 40.0965 27.9161C40.1268 28.1345 39.9909 28.3417 39.7787 28.4011C39.5664 28.4605 39.3428 28.3539 39.2552 28.1515C39.2537 28.1475 39.2545 28.1433 39.2529 28.1393L39.2501 28.135C39.2296 28.0846 39.2187 28.0309 39.2181 27.9765C39.2184 27.7332 39.4156 27.5359 39.659 27.5357ZM37.9048 24.36C37.9471 24.1553 38.1274 24.0086 38.3364 24.0087C38.5799 24.0087 38.7773 24.2061 38.7773 24.4496C38.7773 24.6931 38.5799 24.8904 38.3364 24.8904C38.2819 24.8897 38.228 24.8788 38.1774 24.8583L38.1737 24.8558C38.1698 24.8543 38.1657 24.8551 38.1617 24.8536C37.9697 24.7709 37.8624 24.5647 37.9048 24.36ZM37.4662 25.4377L36.6515 27.4747L35.2234 26.3323C35.4171 26.167 35.5586 25.949 35.631 25.7048L37.3777 25.3554C37.4055 25.3848 37.4358 25.411 37.4662 25.4377ZM36.9968 28.9774C36.9375 29.1894 36.7306 29.3251 36.5125 29.295C36.2943 29.2649 36.1319 29.0785 36.1321 28.8583C36.1323 28.6149 36.3295 28.4176 36.5729 28.4174C36.6275 28.4181 36.6814 28.429 36.7319 28.4495L36.7357 28.452C36.7396 28.4536 36.7438 28.4529 36.7478 28.4544C36.9499 28.542 37.0562 28.7653 36.9968 28.9774ZM35.6912 21.8044C35.9347 21.8044 36.132 22.0018 36.132 22.2453C36.132 22.4888 35.9346 22.6861 35.6912 22.6861C35.4477 22.6861 35.2503 22.4888 35.2503 22.2453C35.2506 22.0019 35.4478 21.8047 35.6912 21.8044ZM33.3711 21.8993L34.3781 22.151C34.3758 22.1828 34.3686 22.213 34.3686 22.2453C34.3694 22.9754 34.9611 23.5672 35.6912 23.5679C35.9276 23.5667 36.1593 23.5014 36.3616 23.379L37.1002 23.9922C37.0443 24.1383 37.0151 24.2932 37.0138 24.4497C37.0138 24.4763 37.0202 24.5013 37.0217 24.5276L35.5858 24.8147C35.4058 24.3956 35.0225 24.0988 34.5717 24.0293L32.9575 22.4152C33.1367 22.2809 33.2791 22.1034 33.3711 21.8993ZM34.8095 25.3314C34.8095 25.5749 34.6121 25.7722 34.3686 25.7722C34.1252 25.772 33.928 25.5748 33.9278 25.3314C33.9278 25.0879 34.1251 24.8905 34.3686 24.8905C34.6121 24.8905 34.8095 25.0879 34.8095 25.3314ZM32.1643 20.9227C32.4078 20.9227 32.6051 21.12 32.6051 21.3635C32.6051 21.607 32.4078 21.8044 32.1643 21.8044C31.9208 21.8044 31.7234 21.607 31.7234 21.3635C31.7236 21.1202 31.9209 20.9229 32.1643 20.9227ZM32.2516 22.9563L33.5753 24.2798C33.3695 24.4353 33.2137 24.6475 33.1272 24.8905H32.083C31.9789 24.5986 31.7755 24.3526 31.5083 24.1955L32.2516 22.9563ZM29.5112 22.1674L30.9471 21.8803C31.0598 22.1401 31.2528 22.3571 31.4977 22.4994L30.6974 23.8332L29.314 22.9455C29.4473 22.7362 29.5184 22.4934 29.5191 22.2453C29.5191 22.2186 29.5127 22.1937 29.5112 22.1674ZM31.2825 25.3314C31.2825 25.5749 31.0852 25.7722 30.8417 25.7722C30.5983 25.772 30.401 25.5748 30.4008 25.3314C30.4008 25.0879 30.5982 24.8905 30.8417 24.8905C31.0852 24.8905 31.2825 25.0879 31.2825 25.3314ZM28.1965 21.8044C28.44 21.8044 28.6373 22.0018 28.6373 22.2453C28.6373 22.4888 28.44 22.6861 28.1965 22.6861C27.953 22.6861 27.7556 22.4888 27.7556 22.2453C27.7559 22.0019 27.9531 21.8047 28.1965 21.8044ZM27.7166 23.4745C27.9852 23.5853 28.2843 23.5979 28.5613 23.5103L29.9225 24.3837C29.7776 24.5256 29.6674 24.6991 29.6004 24.8905H27.6744C27.5781 24.6176 27.3951 24.3837 27.1534 24.2247L27.7166 23.4745ZM26.433 25.7722C26.1895 25.7722 25.9922 25.5749 25.9922 25.3314C25.9924 25.088 26.1896 24.8907 26.433 24.8905C26.6765 24.8905 26.8738 25.0879 26.8738 25.3314C26.8738 25.5749 26.6765 25.7722 26.433 25.7722ZM27.7556 29.74C27.5121 29.74 27.3147 29.5426 27.3147 29.2992C27.3147 29.0557 27.5121 28.8583 27.7556 28.8583C27.9991 28.8583 28.1964 29.0557 28.1964 29.2992C28.1962 29.5425 27.999 29.7397 27.7556 29.74ZM28.0063 28.0019C27.9238 27.9854 27.8398 27.977 27.7556 27.9765C27.7119 27.9765 27.6707 27.9852 27.6281 27.9894L27.0274 26.5063C27.3291 26.3534 27.5606 26.0907 27.6743 25.7722H29.6003C29.6797 25.9943 29.8172 26.191 29.9984 26.3418L28.0063 28.0019ZM31.3638 28.8583H28.9969C28.9499 28.7262 28.8819 28.6025 28.7957 28.492L30.9609 26.6876L31.6982 28.3413C31.5476 28.4848 31.433 28.662 31.3638 28.8583ZM32.083 25.7722H33.1273C33.2314 26.0641 33.4348 26.3101 33.7021 26.4671L32.7854 27.9948C32.7258 27.9846 32.6656 27.9785 32.6052 27.9766C32.571 27.9766 32.5389 27.9841 32.5054 27.9866L31.7486 26.2892C31.8992 26.1456 32.0138 25.9685 32.083 25.7722ZM32.6051 29.74C32.3616 29.74 32.1643 29.5426 32.1643 29.2992C32.1643 29.0557 32.3617 28.8583 32.6051 28.8583C32.8486 28.8583 33.046 29.0557 33.046 29.2992C33.0458 29.5425 32.8485 29.7397 32.6051 29.74ZM34.487 26.8724L35.7182 27.8574C35.5245 28.0227 35.3829 28.2407 35.3106 28.4849L33.8223 28.7825C33.761 28.6416 33.6757 28.5125 33.5701 28.4009L34.487 26.8724ZM35.2503 34.1486C35.0068 34.1486 34.8095 33.9513 34.8095 33.7078C34.8095 33.4643 35.0068 33.2669 35.2503 33.2669C35.4938 33.2669 35.6912 33.4643 35.6912 33.7078C35.691 33.9512 35.4937 34.1484 35.2503 34.1486ZM37.0138 31.9443C37.0154 32.0916 37.0419 32.2376 37.0921 32.376L36.3479 32.971C36.0697 32.5363 35.5563 32.3129 35.0486 32.4056L33.585 30.1793C33.7157 30.0336 33.8123 29.8604 33.8675 29.6726L35.3557 29.3749C35.6395 30.0451 36.4117 30.3595 37.0828 30.0781L37.6266 30.832C37.2457 31.0737 37.0145 31.4932 37.0138 31.9443ZM37.4431 27.8701L38.2843 25.7669C38.3019 25.7677 38.3185 25.7722 38.3364 25.7722C38.3895 25.7701 38.4424 25.7648 38.4949 25.7562L39.0287 26.821C38.6037 27.0503 38.3381 27.4937 38.3364 27.9766C38.3364 27.9944 38.341 28.011 38.3416 28.0287L37.7489 28.2657C37.6731 28.1156 37.5693 27.9814 37.4431 27.8701ZM38.3364 32.3852C38.0929 32.3852 37.8955 32.1878 37.8955 31.9443C37.8958 31.701 38.093 31.5037 38.3364 31.5035C38.5798 31.5035 38.7772 31.7009 38.7772 31.9443C38.7772 32.1878 38.5798 32.3852 38.3364 32.3852Z" fill="#56A1CC"/>
</g>
<defs>
<clipPath id="clip0">
<rect width="26.46" height="26.46" fill="white" transform="translate(18.2703 18.2695)"/>
</clipPath>
</defs>
</svg>
