<svg width="63" height="63" viewBox="0 0 63 63" fill="none" xmlns="http://www.w3.org/2000/svg">
<circle cx="31.5" cy="31.5" r="30.5" stroke="#B3DBF1" stroke-width="2"/>
<circle cx="31.5002" cy="31.5002" r="27.7414" fill="white" stroke="#D8F1FF"/>
<g clip-path="url(#clip0)">
<path d="M46.6441 25.6722C46.5297 25.4389 46.2478 25.3424 46.0142 25.457C45.7808 25.5714 45.6845 25.8534 45.799 26.0868C46.741 28.0069 46.9387 29.9823 46.9387 31.3013C46.9387 33.0838 46.5689 36.4439 44.0926 38.9202C43.3017 39.7111 42.2502 40.1466 41.1316 40.1466C40.0132 40.1466 38.9617 39.7111 38.1708 38.9202C37.3798 38.1293 36.9443 37.0778 36.9443 35.9593C36.9443 35.2462 37.122 34.5607 37.4553 33.9523C37.4651 33.9373 37.4737 33.9217 37.4817 33.9058C37.6669 33.5776 37.897 33.2721 38.1707 32.9984C38.3344 32.8347 38.4705 32.656 38.5789 32.4657C38.5806 32.4627 38.5824 32.4599 38.5841 32.4568C38.6109 32.4093 38.6362 32.3613 38.6595 32.3124C39.1474 32.609 39.4395 33.0626 39.5832 33.3434C39.6666 33.5061 39.8315 33.5996 40.0026 33.5996C40.0747 33.5996 40.148 33.5829 40.2167 33.5478C40.4481 33.4293 40.5396 33.1457 40.4211 32.9143C40.0593 32.2078 39.5214 31.6697 38.8833 31.3651C38.8839 31.3438 38.8849 31.3227 38.8849 31.3013C38.8849 31.1836 38.8764 31.0679 38.86 30.9545C39.5089 30.6522 40.0538 30.1113 40.4211 29.3939C40.5396 29.1625 40.448 28.8789 40.2166 28.7604C39.9851 28.6419 39.7017 28.7335 39.5832 28.9649C39.4261 29.2718 39.0975 29.7749 38.5365 30.0647C38.5151 30.03 38.4927 29.9958 38.4694 29.9621C38.4638 29.9539 38.4583 29.9459 38.4522 29.9381C38.3696 29.8213 38.2761 29.7095 38.1707 29.6042C36.538 27.9716 36.538 25.3151 38.1707 23.6824C38.9615 22.8915 40.0131 22.4559 41.1316 22.4559C42.25 22.4559 43.3016 22.8915 44.0926 23.6825C44.2941 23.884 44.4884 24.0987 44.67 24.3206C44.8346 24.5218 45.1313 24.5514 45.3323 24.3867C45.5335 24.222 45.5631 23.9255 45.3985 23.7244C45.1971 23.4784 44.9817 23.2404 44.7582 23.0168C42.7585 21.0171 39.5047 21.0172 37.5051 23.0168C35.8179 24.7041 35.5543 27.2841 36.7143 29.2503L36.0776 29.0277C35.4015 28.7914 34.8338 28.3187 34.4791 27.6966L33.6001 26.1555C33.3504 25.7177 33.2185 25.22 33.2185 24.716V19.3081C33.2185 18.542 32.6312 17.9143 31.8815 17.879C31.4928 17.8608 31.1253 17.9981 30.845 18.2656C30.5685 18.5294 30.4099 18.8997 30.4099 19.2817V24.7161C30.4099 25.22 30.278 25.7178 30.0283 26.1555L29.1495 27.6966C28.7947 28.3187 28.2269 28.7914 27.5509 29.0277L26.9172 29.2491C27.3797 28.468 27.6269 27.5747 27.6269 26.6432C27.6269 25.2733 27.0935 23.9854 26.1248 23.0167C25.1561 22.048 23.8682 21.5145 22.4983 21.5145C21.1284 21.5145 19.8404 22.048 18.8718 23.0167C16.1556 25.7331 15.75 29.3732 15.75 31.3013C15.75 32.9749 16.0643 36.1749 18.1696 38.8017C18.3321 39.0045 18.6284 39.0372 18.8312 38.8746C19.034 38.7121 19.0667 38.4158 18.9041 38.213C16.9788 35.8107 16.6913 32.8514 16.6913 31.3013C16.6913 29.5188 17.0611 26.1588 19.5374 23.6824C20.3283 22.8915 21.3798 22.4559 22.4984 22.4559C23.6168 22.4559 24.6684 22.8915 25.4593 23.6824C26.2502 24.4733 26.6857 25.5248 26.6857 26.6433C26.6857 27.7618 26.2502 28.8134 25.4593 29.6042C25.3541 29.7094 25.2608 29.8209 25.1782 29.9375C25.1722 29.9452 25.1667 29.9532 25.1613 29.9612C25.1377 29.9953 25.1151 30.0297 25.0935 30.0647C24.5325 29.7749 24.2039 29.2718 24.0468 28.9648C23.9283 28.7335 23.6446 28.642 23.4133 28.7604C23.1819 28.8789 23.0905 29.1625 23.2089 29.3939C23.5763 30.1113 24.1212 30.6522 24.77 30.9544C24.7536 31.0679 24.7452 31.1836 24.7452 31.3012C24.7452 31.3226 24.7462 31.3438 24.7467 31.3651C24.1086 31.6697 23.5707 32.2077 23.2089 32.9143C23.0905 33.1457 23.182 33.4293 23.4133 33.5478C23.482 33.5829 23.5553 33.5996 23.6274 33.5996C23.7985 33.5996 23.9634 33.506 24.0468 33.3434C24.1905 33.0626 24.4826 32.609 24.9706 32.3124C24.995 32.3638 25.0218 32.4143 25.0502 32.4641C25.0537 32.4705 25.0573 32.4768 25.061 32.483C25.1679 32.6668 25.3005 32.8396 25.4592 32.9983C25.7328 33.272 25.9628 33.5773 26.1479 33.9052C26.1561 33.9215 26.1649 33.9374 26.1749 33.9526C26.508 34.561 26.6856 35.2464 26.6856 35.9593C26.6856 37.0777 26.2501 38.1293 25.4592 38.9202C24.1239 40.2554 22.0493 40.532 20.4142 39.5925C20.1888 39.4631 19.9012 39.5408 19.7716 39.7662C19.6422 39.9916 19.7199 40.2792 19.9453 40.4088C20.7396 40.8651 21.6184 41.0873 22.4919 41.0873C23.8212 41.0873 25.1379 40.5727 26.1247 39.5858C27.0934 38.6171 27.6269 37.3292 27.6269 35.9593C27.6269 35.4398 27.5497 34.9322 27.4016 34.4492L27.468 34.4699C27.8833 34.6 28.1623 34.9798 28.1623 35.415V43.0875C28.1623 43.8618 28.7923 44.4917 29.5666 44.4917C30.3409 44.4917 30.9709 43.8618 30.9709 43.0875V35.415C30.9709 33.7456 29.9006 32.2888 28.3075 31.7897L28.23 31.7654L28.4776 31.6789C29.7934 31.2189 30.8984 30.2987 31.589 29.088L31.8141 28.6932L32.0392 29.0878C32.7298 30.2987 33.8348 31.2189 35.1507 31.6789L35.399 31.7657L35.3223 31.7897C33.7292 32.2887 32.6589 33.7456 32.6589 35.415V43.0875C32.6589 43.8618 33.2888 44.4917 34.0632 44.4917C34.8375 44.4917 35.4674 43.8618 35.4674 43.0875V35.415C35.4674 34.9798 35.7464 34.6 36.1618 34.4699L36.2281 34.4492C36.08 34.9322 36.0029 35.4398 36.0029 35.9593C36.0029 37.3292 36.5364 38.6172 37.505 39.5858C38.5049 40.5858 39.8179 41.0857 41.1315 41.0856C42.4446 41.0854 43.7583 40.5855 44.758 39.5858C47.4744 36.8696 47.88 33.2293 47.88 31.3013C47.88 29.8826 47.6656 27.7544 46.6441 25.6722ZM30.0297 35.415V43.0875C30.0297 43.3428 29.822 43.5504 29.5667 43.5504C29.3114 43.5504 29.1038 43.3428 29.1038 43.0875V35.415C29.1038 34.5661 28.5595 33.8254 27.7494 33.5716L26.8859 33.3011C26.7039 33.0019 26.4894 32.7202 26.2452 32.4592L26.7417 32.2857L28.0262 32.688C29.2246 33.0634 30.0297 34.1593 30.0297 35.415ZM32.857 28.6215L32.3045 27.6528C32.2043 27.4771 32.0163 27.368 31.8141 27.3681C31.6118 27.3681 31.4239 27.4773 31.3238 27.6529L30.7713 28.6216C30.1933 29.6351 29.2684 30.4052 28.167 30.7902L25.7279 31.6428C25.7013 31.5331 25.6863 31.4195 25.6863 31.3012C25.6863 31.0534 25.7451 30.824 25.8612 30.6155L27.8615 29.9163C28.7519 29.605 29.4997 28.9823 29.9671 28.1629L30.846 26.6219C31.1765 26.0423 31.3512 25.3833 31.3512 24.7161V19.2817C31.3512 19.1539 31.4021 19.0349 31.4946 18.9467C31.5871 18.8585 31.709 18.8133 31.8371 18.8193C32.0797 18.8307 32.2771 19.05 32.2771 19.3081V24.716C32.2771 25.3832 32.4518 26.0422 32.7824 26.6218L33.6613 28.1629C34.1285 28.9823 34.8763 29.605 35.7669 29.9163L37.7691 30.6161C37.8849 30.8245 37.9435 31.0536 37.9435 31.3012C37.9435 31.4197 37.9284 31.5335 37.9018 31.6433L35.4613 30.7903C34.36 30.4053 33.4351 29.6351 32.857 28.6215ZM35.8804 33.5716C35.0704 33.8254 34.5262 34.5661 34.5262 35.415V43.0875C34.5262 43.3428 34.3184 43.5504 34.0632 43.5504C33.808 43.5504 33.6003 43.3428 33.6003 43.0875V35.415C33.6003 34.1593 34.4054 33.0634 35.6038 32.688L36.8875 32.286L37.3843 32.4596C37.1404 32.7205 36.926 33.002 36.7441 33.3011L35.8804 33.5716Z" fill="#56A1CC"/>
</g>
<defs>
<clipPath id="clip0">
<rect width="32.13" height="32.13" fill="white" transform="translate(15.75 15.1196)"/>
</clipPath>
</defs>
</svg>
