<svg width="22" height="22" viewBox="0 0 22 22" fill="none" xmlns="http://www.w3.org/2000/svg">
<g clip-path="url(#clip0)">
<path d="M19.6651 10.4806C18.7559 9.56921 17.6756 8.84641 16.4862 8.35375C15.2968 7.86109 14.0218 7.60828 12.7344 7.60983C11.4703 7.60819 10.2178 7.85194 9.04649 8.32758C7.85515 8.81047 6.77123 9.52448 5.85726 10.4284L5.6963 11.5552L6.8261 11.3938C8.39948 9.84016 10.5233 8.97166 12.7344 8.97763C13.8424 8.9746 14.94 9.19135 15.9636 9.61533C16.9873 10.0393 17.9167 10.6621 18.698 11.4477C18.8263 11.5759 19.0002 11.648 19.1816 11.648C19.3629 11.648 19.5369 11.5759 19.6651 11.4477C19.7933 11.3194 19.8654 11.1455 19.8654 10.9642C19.8654 10.7828 19.7933 10.6089 19.6651 10.4806ZM5.09458 7.70836C5.27412 7.734 5.43611 7.82992 5.54493 7.97501C5.65375 8.1201 5.70047 8.30247 5.67482 8.48201L5.15905 12.0924L8.76945 11.5766C8.85834 11.5639 8.94887 11.5689 9.03587 11.5912C9.12286 11.6134 9.20461 11.6526 9.27645 11.7065C9.34829 11.7604 9.40881 11.8279 9.45456 11.9052C9.50032 11.9825 9.5304 12.068 9.5431 12.1569C9.5558 12.2458 9.55087 12.3363 9.52858 12.4233C9.50629 12.5103 9.46709 12.592 9.41321 12.6639C9.35933 12.7357 9.29183 12.7962 9.21456 12.842C9.13729 12.8877 9.05176 12.9178 8.96286 12.9305L4.44987 13.5752C4.34477 13.5903 4.23763 13.5806 4.13692 13.547C4.0362 13.5135 3.94469 13.4569 3.86963 13.3818C3.79456 13.3068 3.738 13.2153 3.70443 13.1145C3.67086 13.0138 3.6612 12.9067 3.67621 12.8016L4.32092 8.2886C4.33363 8.1997 4.36371 8.11417 4.40946 8.0369C4.45522 7.95963 4.51574 7.89213 4.58758 7.83825C4.65942 7.78437 4.74117 7.74516 4.82816 7.72288C4.91515 7.70059 5.00568 7.69566 5.09458 7.70836Z" fill="url(#paint0_linear)"/>
</g>
<defs>
<linearGradient id="paint0_linear" x1="15.4745" y1="6.28998" x2="5.00026" y2="13.648" gradientUnits="userSpaceOnUse">
<stop stop-color="#008CB9"/>
<stop offset="1" stop-color="#96BF53"/>
</linearGradient>
<clipPath id="clip0">
<rect width="14.5882" height="14.5882" fill="white" transform="matrix(0.707107 -0.707107 -0.707107 -0.707107 10.8003 21.2793)"/>
</clipPath>
</defs>
</svg>
