<svg width="378" height="244" viewBox="0 0 378 244" fill="none" xmlns="http://www.w3.org/2000/svg">
<path d="M352.423 10.9882L351.766 10.6598C328.451 -6.41623 295.941 -2.14717 277.223 19.8546C231.249 73.0529 169.184 110.489 101.209 126.251C87.4165 129.535 75.9231 137.416 67.7135 147.925C58.5187 159.746 45.3833 168.284 30.2776 169.27C27.9789 169.27 25.6802 169.926 23.3815 170.583C9.58938 174.524 -0.262163 187.987 0.394606 202.436C1.05138 221.811 18.4558 235.603 37.1737 232.648C39.144 232.319 41.1143 231.991 42.7562 231.334C56.8767 226.409 72.6392 228.05 85.7746 235.603C97.9249 242.499 112.702 245.126 127.808 241.514C174.438 230.678 219.099 212.616 259.818 187.659C297.911 164.344 332.72 135.118 362.603 101.622C386.575 74.3664 381.649 32.3332 352.423 10.9882Z" fill="url(#paint0_linear)"/>
<path d="M319.585 4.7502C330.093 4.7502 340.273 8.03402 349.139 14.2733L349.796 14.6017C362.931 24.1249 371.469 38.5738 373.111 54.6646C374.753 70.7555 369.827 86.1896 359.319 98.0114C329.764 131.507 295.284 160.076 257.52 183.063C217.129 207.692 173.125 225.425 126.823 236.261C122.882 237.247 118.613 237.575 114.673 237.575C105.478 237.575 96.2831 235.276 88.4018 230.679C79.5354 225.753 69.6839 223.126 59.8324 223.126C53.5931 223.126 47.3537 224.111 41.4428 226.081C39.8009 226.738 38.159 227.067 36.517 227.395C35.2035 227.723 33.89 227.723 32.248 227.723C17.7991 227.723 5.64886 216.23 4.99209 201.453C4.33532 188.974 12.5449 177.809 24.6952 174.197C26.6655 173.54 28.6358 173.211 30.6061 173.211C46.0402 172.226 60.8175 163.688 71.3258 149.896C78.8787 140.045 90.0437 132.82 102.194 129.865C170.826 113.774 234.205 75.3528 280.835 21.8261C290.358 11.3178 304.807 4.7502 319.585 4.7502ZM319.585 0.152832C303.822 0.152832 288.388 6.7205 277.223 19.5275C231.249 72.7258 169.184 110.162 101.209 125.924C87.4167 129.208 75.9232 137.089 67.7136 147.598C58.5188 159.419 45.3834 167.957 30.2778 168.943C27.9791 168.943 25.6803 169.599 23.3817 170.256C9.5895 174.197 -0.262041 187.66 0.394728 202.109C1.0515 219.842 15.5004 232.649 32.248 232.649C33.89 232.649 35.5319 232.649 37.1738 232.321C39.1441 231.992 41.1144 231.664 42.7563 231.007C48.3389 229.037 53.9214 228.052 59.504 228.052C68.6987 228.052 77.5651 230.35 85.7747 234.948C94.3127 239.874 104.164 242.501 114.344 242.501C118.613 242.501 123.211 241.844 127.808 240.859C174.439 230.022 219.099 211.961 259.819 187.004C297.911 163.688 332.72 134.462 362.603 100.967C386.575 73.7109 381.649 31.6777 352.423 10.6611L351.766 10.3327C341.915 3.4366 330.75 0.152832 319.585 0.152832Z" fill="url(#paint1_linear)"/>
<defs>
<linearGradient id="paint0_linear" x1="191.043" y1="241.617" x2="187.069" y2="2.29213" gradientUnits="userSpaceOnUse">
<stop stop-color="#439024"/>
<stop offset="1" stop-color="#61AE24"/>
</linearGradient>
<linearGradient id="paint1_linear" x1="221.083" y1="209.891" x2="161.63" y2="57.6796" gradientUnits="userSpaceOnUse">
<stop stop-color="#256D24"/>
<stop offset="1" stop-color="#88E575"/>
</linearGradient>
</defs>
</svg>
