<svg width="140" height="412" viewBox="0 0 140 412" fill="none" xmlns="http://www.w3.org/2000/svg">
<path d="M115.412 40.5008C103.591 6.34884 64.1844 -9.08524 32.3311 7.66238C6.38873 21.1262 -5.76144 51.6659 3.76171 79.2502C14.9268 111.76 20.5093 145.584 21.1661 180.721C21.8228 215.858 16.8971 250.01 7.04556 282.52C3.10494 295.984 3.76173 310.105 9.01589 322.255C14.9268 336.704 13.9416 353.123 8.03067 367.572C7.3739 369.542 6.71714 371.513 6.38875 373.483C3.43329 387.603 10.9861 402.381 24.1215 408.292C41.8543 416.501 61.8858 407.306 67.7967 389.245C68.1251 387.932 68.4535 386.618 68.7818 385.305C71.7373 370.199 81.9172 357.72 94.7242 349.511C106.218 342.286 115.412 331.121 120.01 317.001C133.802 272.34 140.041 226.038 139.385 178.422C138.399 130.807 130.518 84.5044 115.412 40.5008Z" fill="url(#paint0_linear)"/>
<path d="M59.5887 5.36445C82.904 5.36445 103.592 20.1418 110.817 41.8152C125.594 85.4903 133.804 131.464 134.46 178.423C135.117 225.382 128.878 271.684 115.414 315.688C111.473 328.167 103.264 338.675 92.4272 345.571C77.3215 354.766 67.1415 368.558 64.1861 384.32C63.8577 385.305 63.5293 386.619 63.2009 387.604C59.5887 398.769 49.0803 406.322 37.2585 406.322C33.3179 406.322 29.3772 405.337 25.765 403.695C14.5999 398.441 8.03232 385.962 10.6594 373.812C10.9878 372.17 11.6446 370.528 12.3013 368.886C19.1974 352.139 19.5257 334.734 13.2864 319.957C8.68905 308.464 8.03228 295.328 11.6445 283.506C21.8244 250.339 26.4218 215.531 26.0934 180.065C25.4366 144.6 19.5257 110.119 8.36067 77.2807C-0.505721 51.6667 10.6594 24.0824 34.6314 11.2754C42.1843 7.66316 50.7223 5.36445 59.5887 5.36445ZM59.5887 0.76709C50.3939 0.76709 40.8707 3.06578 32.3327 7.33478C6.39032 20.7986 -5.75986 51.3383 3.7633 78.9226C14.9284 111.433 20.5109 145.256 21.1676 180.393C21.8244 215.531 16.8987 249.683 7.04715 282.193C3.10653 295.657 3.76332 309.777 9.01747 321.927C14.9284 336.376 13.9432 352.795 8.03226 367.244C7.37549 369.215 6.71872 371.185 6.39034 373.155C3.43488 387.276 10.9877 402.053 24.1231 407.964C28.3921 409.934 32.9895 410.919 37.5869 410.919C51.0507 410.919 63.5293 402.382 67.7983 388.918C68.1267 387.604 68.455 386.291 68.7834 384.977C71.7389 369.871 81.9188 357.393 94.7258 349.183C106.219 341.959 115.414 330.794 120.011 316.673C133.804 272.013 140.043 225.711 139.386 178.095C138.729 130.479 130.52 84.1768 115.414 40.1732C106.876 15.5444 83.8892 0.76709 59.5887 0.76709Z" fill="url(#paint1_linear)"/>
<defs>
<linearGradient id="paint0_linear" x1="70.0307" y1="11.3605" x2="69.552" y2="362.531" gradientUnits="userSpaceOnUse">
<stop stop-color="#00A1CB"/>
<stop offset="1" stop-color="#0074BC"/>
</linearGradient>
<linearGradient id="paint1_linear" x1="66.5465" y1="411.584" x2="71.311" y2="0.875446" gradientUnits="userSpaceOnUse">
<stop stop-color="#004C8A"/>
<stop offset="1" stop-color="#5BCCEE"/>
</linearGradient>
</defs>
</svg>
