<svg width="31" height="31" viewBox="0 0 31 31" fill="none" xmlns="http://www.w3.org/2000/svg">
<g clip-path="url(#clip0)">
<path d="M30.6212 28.7944L21.8057 19.9788C23.5133 17.8696 24.5414 15.1894 24.5414 12.2702C24.5414 5.50456 19.0364 -0.000488281 12.2707 -0.000488281C5.50499 -0.000488281 0 5.5045 0 12.2702C0 19.0359 5.50505 24.5409 12.2707 24.5409C15.1899 24.5409 17.8701 23.5128 19.9793 21.8052L28.7948 30.6207C29.0467 30.8726 29.3774 30.9992 29.7081 30.9992C30.0388 30.9992 30.3694 30.8726 30.6213 30.6207C31.1263 30.1157 31.1263 29.2994 30.6212 28.7944ZM12.2707 21.9576C6.92843 21.9576 2.58333 17.6125 2.58333 12.2702C2.58333 6.92788 6.92843 2.58278 12.2707 2.58278C17.613 2.58278 21.9581 6.92788 21.9581 12.2702C21.9581 17.6125 17.613 21.9576 12.2707 21.9576Z" fill="white"/>
</g>
<defs>
<clipPath id="clip0">
<rect width="31" height="31" fill="white"/>
</clipPath>
</defs>
</svg>
