<svg width="382" height="242" viewBox="0 0 382 242" fill="none" xmlns="http://www.w3.org/2000/svg">
<path d="M378.996 32.0818C374.727 18.2897 360.935 8.76652 346.486 10.0801C343.531 10.4084 340.904 10.7368 338.605 11.722C324.813 16.3194 309.379 15.991 296.9 8.43813C284.421 0.885284 269.316 -1.74179 253.882 1.87044C207.251 12.7071 162.591 30.7683 121.871 55.7255C82.1365 80.026 46.0142 110.566 15.4744 146.031C-7.8409 172.959 -0.944839 214.007 29.5949 232.396C54.8806 247.502 87.719 242.905 107.094 220.903C152.739 169.347 213.819 132.896 280.809 117.133C294.601 113.85 306.423 105.968 314.304 95.1317C323.171 83.3098 336.635 74.7718 351.412 73.7867C352.725 73.7867 354.039 73.4583 355.681 73.1299C373.414 69.5177 384.907 50.4714 378.996 32.0818Z" fill="url(#paint0_linear)"/>
<path d="M266.69 4.82637C276.213 4.82637 285.736 7.45346 293.946 12.3792C301.827 16.9766 310.693 19.2753 320.216 19.2753C326.784 19.2753 333.352 18.2902 339.591 15.9915C341.89 15.3347 344.188 14.6779 346.487 14.6779C347.144 14.6779 347.801 14.6779 348.457 14.6779C360.279 14.6779 370.788 22.5591 374.4 33.3958C376.699 40.9487 376.042 48.8299 371.773 55.3976C367.832 61.9653 361.264 66.5627 353.712 68.2046C352.398 68.533 351.413 68.533 350.099 68.533C334.665 69.5182 319.888 78.0562 309.708 91.52C302.155 101.7 290.99 108.924 278.84 111.551C211.521 127.314 148.8 164.75 102.826 216.634C92.3173 228.456 76.8833 235.352 60.7924 235.352C50.2841 235.352 40.1042 232.397 31.2378 227.143C17.774 218.933 8.90766 205.469 6.28058 190.364C3.98189 174.93 8.25088 159.496 18.4308 148.002C48.9706 112.865 84.4361 82.6536 123.842 58.6815C164.234 34.0526 208.237 16.3198 254.539 5.48315C258.48 5.15477 262.749 4.82637 266.69 4.82637ZM266.69 0.229004C262.421 0.229004 257.823 0.885773 253.226 1.87093C206.595 12.7076 161.935 30.7688 121.215 55.726C81.4807 80.0265 45.3584 110.566 14.8186 146.032C-8.49673 172.959 -1.60064 214.007 28.9391 232.397C38.7907 238.308 49.9557 241.263 61.1208 241.263C78.1968 241.263 94.9445 234.367 106.766 220.903C152.412 169.347 213.491 132.896 280.482 117.134C294.274 113.85 306.096 105.969 313.977 95.1321C322.843 83.3103 336.307 74.7723 351.084 73.7871C352.398 73.7871 353.712 73.4588 355.353 73.1304C373.743 69.5182 385.236 50.4718 379.654 32.0823C375.385 18.9469 362.906 10.0805 349.443 10.0805C348.786 10.0805 347.801 10.0805 347.144 10.0805C344.188 10.4089 341.561 10.7373 339.263 11.7225C333.352 13.6928 327.441 14.6779 321.53 14.6779C313.32 14.6779 304.782 12.7076 297.558 8.43862C287.706 3.18447 277.526 0.229004 266.69 0.229004Z" fill="url(#paint1_linear)"/>
<defs>
<linearGradient id="paint0_linear" x1="202.328" y1="135.033" x2="152.581" y2="51.7473" gradientUnits="userSpaceOnUse">
<stop stop-color="#F16A04"/>
<stop offset="0.1666" stop-color="#F17204"/>
<stop offset="0.662" stop-color="#F18604"/>
<stop offset="1" stop-color="#F18D04"/>
</linearGradient>
<linearGradient id="paint1_linear" x1="237.746" y1="174.109" x2="130.093" y2="42.7482" gradientUnits="userSpaceOnUse">
<stop stop-color="#BF4C04"/>
<stop offset="0.3001" stop-color="#D9750E"/>
<stop offset="0.5912" stop-color="#EE9516"/>
<stop offset="0.8345" stop-color="#FAA91B"/>
<stop offset="1" stop-color="#FFB01D"/>
</linearGradient>
</defs>
</svg>
