<svg width="44" height="44" viewBox="0 0 44 44" fill="none" xmlns="http://www.w3.org/2000/svg">
<path d="M22 38.3281C22.4746 38.3281 22.8594 37.9434 22.8594 37.4688C22.8594 36.9941 22.4746 36.6094 22 36.6094C21.5254 36.6094 21.1406 36.9941 21.1406 37.4688C21.1406 37.9434 21.5254 38.3281 22 38.3281Z" fill="#6AAF72"/>
<path d="M36.0944 11.5017L22.3444 5.48612C22.1249 5.39004 21.8751 5.39004 21.6556 5.48612C13.2238 9.17499 7.92034 11.4953 7.91158 11.4991C7.90307 11.5066 7.39062 11.7075 7.39062 12.2891V17.5932C6.3904 17.9479 5.67188 18.9031 5.67188 20.0235V23.461C5.67188 23.9356 6.0567 24.3204 6.53125 24.3204H9.96875C10.4433 24.3204 10.8281 23.9356 10.8281 23.461V20.0235C10.8281 18.9032 10.1096 17.9479 9.10938 17.5932V13.6031L14.2656 15.8589V21.7422C14.2656 22.082 14.4659 22.3899 14.7764 22.5278C14.9414 22.6009 18.8523 24.3204 22 24.3204C25.1477 24.3204 29.0586 22.6009 29.2236 22.5278C29.5341 22.3899 29.7344 22.082 29.7344 21.7422V15.8589L36.0944 13.0765C36.4073 12.9397 36.6094 12.6306 36.6094 12.2891C36.6094 11.9476 36.4072 11.6386 36.0944 11.5017ZM9.10938 22.6016H7.39062V20.0235C7.39062 19.5496 7.77614 19.1641 8.25 19.1641C8.72386 19.1641 9.10938 19.5496 9.10938 20.0235V22.6016ZM28.0156 21.1683C26.8999 21.6126 24.1722 22.6016 22 22.6016C19.8327 22.6016 17.1011 21.6121 15.9844 21.168V16.6109L21.6556 19.0921C21.875 19.1881 22.1249 19.1882 22.3444 19.0921L28.0156 16.6109V21.1683ZM22 17.3667C20.3564 16.6476 12.0392 13.0088 10.3941 12.2891L22 7.21149L33.6059 12.2891C32.0951 12.9501 22.8802 16.9816 22 17.3667Z" fill="#6AAF72"/>
<path d="M39.7031 17.4453H32.3125C31.838 17.4453 31.4531 17.8301 31.4531 18.3047C31.4531 18.7793 31.838 19.1641 32.3125 19.1641H39.7031C40.1777 19.1641 40.5625 18.7793 40.5625 18.3047C40.5625 17.8301 40.1777 17.4453 39.7031 17.4453Z" fill="#6AAF72"/>
<path d="M39.7031 20.8828H32.3125C31.838 20.8828 31.4531 21.2676 31.4531 21.7422C31.4531 22.2168 31.838 22.6016 32.3125 22.6016H39.7031C40.1777 22.6016 40.5625 22.2168 40.5625 21.7422C40.5625 21.2676 40.1777 20.8828 39.7031 20.8828Z" fill="#6AAF72"/>
<path d="M22 1.71875C22.4746 1.71875 22.8594 1.33399 22.8594 0.859375C22.8594 0.384755 22.4746 0 22 0C21.5254 0 21.1406 0.384755 21.1406 0.859375C21.1406 1.33399 21.5254 1.71875 22 1.71875Z" fill="#6AAF72"/>
<path d="M43.1406 0H25.8672C25.3926 0 25.0078 0.384742 25.0078 0.859375C25.0078 1.33401 25.3926 1.71875 25.8672 1.71875H42.2812V28.0156H1.71875V1.71875H18.1328C18.6074 1.71875 18.9922 1.33401 18.9922 0.859375C18.9922 0.384742 18.6074 0 18.1328 0H0.859375C0.384828 0 0 0.384742 0 0.859375V34.0312C0 34.5059 0.384828 34.8906 0.859375 34.8906H17.5258L16.1314 42.2812H13.4062C12.9317 42.2812 12.5469 42.666 12.5469 43.1406C12.5469 43.6153 12.9317 44 13.4062 44H30.5938C31.0683 44 31.4531 43.6153 31.4531 43.1406C31.4531 42.666 31.0683 42.2812 30.5938 42.2812H27.8686L26.4742 34.8906H43.1406C43.6152 34.8906 44 34.5059 44 34.0312V0.859375C44 0.384742 43.6152 0 43.1406 0ZM17.8804 42.2812L19.2748 34.8906H24.7251L26.1195 42.2812H17.8804ZM42.2812 33.1719C41.373 33.1719 1.81483 33.1719 1.71875 33.1719V29.7344H42.2812V33.1719Z" fill="#6AAF72"/>
</svg>
