<svg width="42" height="42" viewBox="0 0 42 42" fill="none" xmlns="http://www.w3.org/2000/svg">
<g clip-path="url(#clip0)">
<path d="M17.7207 28.3828C18.1737 28.3828 18.541 28.0155 18.541 27.5625C18.541 27.1095 18.1737 26.7422 17.7207 26.7422C17.2677 26.7422 16.9004 27.1095 16.9004 27.5625C16.9004 28.0155 17.2677 28.3828 17.7207 28.3828Z" fill="#6AAF72"/>
<path d="M3.2832 11.1562V14.4375C3.2832 14.8906 3.65046 15.2578 4.10352 15.2578H27.8105C28.2635 15.2578 28.6309 14.8906 28.6309 14.4375V11.1562C28.6309 10.7032 28.2635 10.3359 27.8105 10.3359H4.10352C3.65046 10.3359 3.2832 10.7032 3.2832 11.1562ZM11.9785 11.9766H26.9902V13.6172H11.9785V11.9766ZM4.92383 11.9766H10.3379V13.6172H4.92383V11.9766Z" fill="#6AAF72"/>
<path d="M4.10352 18.5391H27.8105C28.2635 18.5391 28.6309 18.1718 28.6309 17.7188C28.6309 17.2657 28.2635 16.8984 27.8105 16.8984H4.10352C3.65046 16.8984 3.2832 17.2657 3.2832 17.7188C3.2832 18.1718 3.65046 18.5391 4.10352 18.5391Z" fill="#6AAF72"/>
<path d="M4.10352 21.8203H27.8105C28.2635 21.8203 28.6309 21.4531 28.6309 21C28.6309 20.5469 28.2635 20.1797 27.8105 20.1797H4.10352C3.65046 20.1797 3.2832 20.5469 3.2832 21C3.2832 21.4531 3.65046 21.8203 4.10352 21.8203Z" fill="#6AAF72"/>
<path d="M4.10352 25.1016H17.7207C18.1738 25.1016 18.541 24.7343 18.541 24.2812C18.541 23.8282 18.1738 23.4609 17.7207 23.4609H4.10352C3.65046 23.4609 3.2832 23.8282 3.2832 24.2812C3.2832 24.7343 3.65046 25.1016 4.10352 25.1016Z" fill="#6AAF72"/>
<path d="M4.10352 28.3828H14.4395C14.8925 28.3828 15.2598 28.0156 15.2598 27.5625C15.2598 27.1094 14.8925 26.7422 14.4395 26.7422H4.10352C3.65046 26.7422 3.2832 27.1094 3.2832 27.5625C3.2832 28.0156 3.65046 28.3828 4.10352 28.3828Z" fill="#6AAF72"/>
<path d="M11.1582 34.9453H15.3423C15.7234 36.8152 17.3805 38.2266 19.3613 38.2266C21.6229 38.2266 23.4629 36.3866 23.4629 34.125C23.4629 31.8634 21.6229 30.0234 19.3613 30.0234C17.3806 30.0234 15.7234 31.4348 15.3423 33.3047H11.1582C10.7051 33.3047 10.3379 33.6719 10.3379 34.125C10.3379 34.5781 10.7051 34.9453 11.1582 34.9453ZM19.3613 33.3047H17.0415C17.3801 32.3499 18.2919 31.6641 19.3613 31.6641C20.7183 31.6641 21.8223 32.768 21.8223 34.125C21.8223 35.482 20.7183 36.5859 19.3613 36.5859C18.292 36.5859 17.3801 35.9001 17.0415 34.9453H19.3613C19.8143 34.9453 20.1816 34.5781 20.1816 34.125C20.1816 33.6719 19.8144 33.3047 19.3613 33.3047Z" fill="#6AAF72"/>
<path d="M27.8105 6.5625C28.2635 6.5625 28.6309 6.19525 28.6309 5.74219C28.6309 5.28913 28.2635 4.92188 27.8105 4.92188H26.1699C25.7169 4.92188 25.3496 5.28913 25.3496 5.74219C25.3496 6.19525 25.7169 6.5625 26.1699 6.5625H27.8105Z" fill="#6AAF72"/>
<path d="M22.8887 6.5625C23.3416 6.5625 23.709 6.19525 23.709 5.74219C23.709 5.28913 23.3416 4.92188 22.8887 4.92188H21.248C20.7951 4.92188 20.4277 5.28913 20.4277 5.74219C20.4277 6.19525 20.7951 6.5625 21.248 6.5625H22.8887Z" fill="#6AAF72"/>
<path d="M17.9668 6.5625C18.4199 6.5625 18.7871 6.19525 18.7871 5.74219C18.7871 5.28913 18.4199 4.92188 17.9668 4.92188H16.3262C15.8731 4.92188 15.5059 5.28913 15.5059 5.74219C15.5059 6.19525 15.8731 6.5625 16.3262 6.5625H17.9668Z" fill="#6AAF72"/>
<path d="M16.0801 42C16.5331 42 16.9004 41.6327 16.9004 41.1797C16.9004 40.7266 16.5331 40.3594 16.0801 40.3594C15.627 40.3594 15.2598 40.7266 15.2598 41.1797C15.2598 41.6327 15.627 42 16.0801 42Z" fill="#6AAF72"/>
<path d="M0.822266 42H12.3887C12.8417 42 13.209 41.6327 13.209 41.1797C13.209 40.7266 12.8417 40.3594 12.3887 40.3594H1.64258V8.20312H7.38477C7.83782 8.20312 8.20508 7.83587 8.20508 7.38281V1.64062H30.2715V24.8269C29.8994 25.2672 29.5519 25.6537 29.2513 25.9622L27.5122 24.2231C25.9097 22.6195 23.3144 22.6188 21.7114 24.2229L20.5514 25.3828C20.2311 25.7032 20.2311 26.2226 20.5514 26.5429L30.2714 36.2629V40.3594H19.7714C19.3183 40.3594 18.9511 40.7266 18.9511 41.1797C18.9511 41.6327 19.3183 42 19.7714 42H31.0917C31.5447 42 31.912 41.6327 31.912 41.1797V37.9035L32.1523 38.1438C32.4726 38.4639 32.9921 38.4641 33.3125 38.1438L34.4724 36.9839C36.0751 35.3811 36.0754 32.7863 34.4724 31.1833L32.7336 29.4444C34.2896 27.9282 37.7124 25.4098 39.5107 24.6265C42.035 23.5277 42.9459 20.0956 40.7922 17.9419C38.6547 15.8033 35.2378 16.6723 34.1184 19.2038C33.6986 20.1525 32.8288 21.4865 31.9121 22.7366V0.820312C31.9121 0.367254 31.5448 0 31.0918 0H7.38477C7.16107 0 6.95082 0.0943359 6.80472 0.24027L0.242223 6.80277C0.0938281 6.95084 0.00195312 7.16018 0.00195312 7.38281V41.1797C0.00195312 41.6327 0.369207 42 0.822266 42ZM33.3122 32.3434C34.2739 33.3049 34.274 34.862 33.3122 35.8238L32.7324 36.4037L22.2916 25.9629L22.8717 25.3828C23.8333 24.4208 25.3898 24.4203 26.3519 25.383L33.3122 32.3434ZM31.7348 25.635C33.1564 23.9205 34.9087 21.4722 35.6188 19.8675C36.2564 18.4256 38.2828 17.7521 39.632 19.1019C40.9817 20.4516 40.296 22.4954 38.8558 23.1223C36.8146 24.0114 33.2619 26.6333 31.5734 28.2842L30.4114 27.1222C30.8003 26.7243 31.2547 26.2142 31.7348 25.635ZM6.56445 2.80071V6.5625H2.80266L6.56445 2.80071Z" fill="#6AAF72"/>
</g>
<defs>
<clipPath id="clip0">
<rect width="42" height="42" fill="white"/>
</clipPath>
</defs>
</svg>
