<svg width="55" height="55" viewBox="0 0 55 55" fill="none" xmlns="http://www.w3.org/2000/svg">
<path d="M48.9844 13.7499H53.2813V12.0312H48.125C48.0122 12.0312 47.9004 12.0534 47.7961 12.0966C47.6919 12.1398 47.5971 12.2031 47.5173 12.2829C47.4375 12.3627 47.3742 12.4574 47.331 12.5617C47.2879 12.666 47.2656 12.7777 47.2656 12.8906V13.7499H44.6875C44.5747 13.7499 44.4629 13.7722 44.3586 13.8154C44.2544 13.8585 44.1596 13.9218 44.0798 14.0016C44 14.0814 43.9367 14.1762 43.8935 14.2804C43.8504 14.3847 43.8281 14.4965 43.8281 14.6093V15.4687H42.3444C39.7085 13.9344 36.7417 13.0579 33.6952 12.9132L27.382 2.14344C27.268 1.94915 27.0824 1.80735 26.8649 1.74855C26.6475 1.68976 26.4157 1.71866 26.2193 1.82905L12.4693 9.56342C12.3698 9.61938 12.2825 9.6946 12.2124 9.78468C12.1423 9.87477 12.0908 9.97792 12.061 10.0881C12.0312 10.1983 12.0237 10.3133 12.0389 10.4265C12.054 10.5396 12.0915 10.6486 12.1493 10.7471L26.7586 35.6689C26.8725 35.8634 27.0582 36.0053 27.2756 36.0641C27.4931 36.1229 27.725 36.0939 27.9213 35.9833L41.6713 28.249C41.7708 28.193 41.8581 28.1178 41.9282 28.0277C41.9983 27.9376 42.0498 27.8345 42.0796 27.7243C42.1094 27.6141 42.1169 27.4991 42.1018 27.3859C42.0866 27.2728 42.0491 27.1638 41.9914 27.0653L41.5271 26.2734L42.3474 25.7812H43.8281V26.6406C43.8281 26.7534 43.8504 26.8652 43.8935 26.9694C43.9367 27.0737 44 27.1684 44.0798 27.2482C44.1596 27.328 44.2544 27.3913 44.3586 27.4345C44.4629 27.4777 44.5747 27.4999 44.6875 27.4999H47.2656V30.0781C47.2656 30.1909 47.2879 30.3027 47.331 30.4069C47.3742 30.5112 47.4375 30.6059 47.5173 30.6857C47.5971 30.7656 47.6919 30.8288 47.7961 30.872C47.9004 30.9152 48.0122 30.9375 48.125 30.9374H53.2813V29.2187H48.9844V13.7499ZM35.5812 29.7026C35.0165 29.0169 34.3077 28.464 33.5051 28.0833C32.7025 27.7026 31.8258 27.5034 30.9375 27.4999C30.1599 27.4999 29.3899 27.6518 28.6705 27.9471L26.5815 24.3834L29.8971 22.5184L29.9002 22.5217C30.4036 23.024 31.0857 23.3061 31.7969 23.3061C32.508 23.3061 33.1902 23.024 33.6936 22.5217L35.2344 20.9809L35.4861 21.2326C35.9708 21.7186 36.5608 22.0866 37.2105 22.3082L37.4998 22.8018C36.4982 23.5988 35.7776 24.695 35.4431 25.9305C35.1085 27.166 35.1776 28.476 35.6402 29.6695L35.5812 29.7026ZM34.0527 30.5624L31.1581 32.1906L29.5507 29.4486C30.3289 29.1829 31.1671 29.1467 31.9653 29.3442C32.7636 29.5417 33.4882 29.9646 34.0527 30.5624ZM29.9002 18.7282C29.6503 18.9767 29.4522 19.2723 29.3173 19.5979C29.1825 19.9235 29.1135 20.2725 29.1145 20.6249C29.1147 20.7416 29.1224 20.858 29.1376 20.9737L25.7122 22.9004L23.456 19.0517L32.3641 14.0409L33.1858 15.4426L29.9002 18.7282ZM24.2139 23.7432L22.3685 24.7813L20.1123 20.9325L21.9578 19.8945L24.2139 23.7432ZM20.625 8.59369C20.6246 9.19642 20.4974 9.79232 20.2515 10.3426C20.0056 10.8929 19.6465 11.3852 19.1977 11.7875L17.4181 8.75173L20.355 7.0997C20.5339 7.57747 20.6254 8.08353 20.625 8.59369ZM22.3438 8.59369C22.3447 7.7881 22.1822 6.99069 21.8662 6.24968L21.8738 6.24537C22.436 6.97513 23.158 7.56628 23.9844 7.97337C24.8107 8.38047 25.7194 8.59268 26.6406 8.59369C27.4185 8.59377 28.189 8.44175 28.9086 8.14619L31.4947 12.5579L22.5867 17.5687L20.0792 13.2912C20.7849 12.7283 21.355 12.0138 21.747 11.2006C22.139 10.3874 22.343 9.49643 22.3438 8.59369ZM26.3262 3.74093L28.0284 6.64473C27.582 6.79872 27.1129 6.87654 26.6406 6.87494C26.0247 6.87429 25.416 6.74144 24.8558 6.48537C24.2956 6.22929 23.7969 5.85596 23.3934 5.3906L26.3262 3.74093ZM15.9199 9.59449L21.0884 18.4115L19.243 19.4495L14.0744 10.6326L15.9199 9.59449ZM27.8145 34.0715L23.2378 26.2643L25.0833 25.2262L29.6599 33.0334L27.8145 34.0715ZM37.1587 28.8153C36.9052 28.0258 36.8857 27.1798 37.1027 26.3794C37.3196 25.5791 37.7637 24.8587 38.3812 24.3053L40.0662 27.1798L37.1587 28.8153ZM42.1094 24.0624C41.9536 24.0624 41.8008 24.1048 41.6673 24.1849L40.6579 24.7905L39.3175 22.504C40.2797 22.3669 41.1712 21.9206 41.8577 21.2326L40.6423 20.0173C40.1193 20.5391 39.4107 20.8322 38.6719 20.8322C37.9331 20.8322 37.2244 20.5391 36.7014 20.0173L35.842 19.1579C35.6809 18.9968 35.4623 18.9062 35.2344 18.9062C35.0065 18.9062 34.7879 18.9968 34.6267 19.1579L32.4783 21.3063C32.2976 21.4871 32.0525 21.5886 31.7969 21.5886C31.5413 21.5886 31.2962 21.4871 31.1155 21.3063C30.9348 21.1256 30.8332 20.8805 30.8332 20.6249C30.8332 20.3694 30.9348 20.1243 31.1155 19.9435L34.8706 16.1885C35.005 16.054 35.0911 15.8788 35.1153 15.6902C35.1395 15.5016 35.1004 15.3103 35.0043 15.1462L34.7556 14.722C37.2001 15.0015 39.5566 15.8004 41.6672 17.065C41.8008 17.1451 41.9536 17.1874 42.1094 17.1874H43.8281V24.0624H42.1094ZM45.5469 25.7812V15.4687H47.2656V25.7812H45.5469Z" fill="#6AAF72"/>
<path d="M12.0312 31.7969C12.0313 31.684 12.009 31.5723 11.9658 31.468C11.9227 31.3637 11.8594 31.269 11.7796 31.1892C11.6998 31.1094 11.605 31.0461 11.5007 31.0029C11.3965 30.9597 11.2847 30.9375 11.1719 30.9375H7.73438C7.62152 30.9375 7.50977 30.9597 7.4055 31.0029C7.30124 31.0461 7.2065 31.1094 7.1267 31.1892C7.0469 31.269 6.9836 31.3637 6.94041 31.468C6.89722 31.5723 6.875 31.684 6.875 31.7969V35.2344C6.875 35.3472 6.89722 35.459 6.94041 35.5632C6.9836 35.6675 7.0469 35.7623 7.1267 35.8421C7.2065 35.9219 7.30124 35.9852 7.4055 36.0283C7.50977 36.0715 7.62152 36.0938 7.73438 36.0938H11.1719C11.2847 36.0938 11.3965 36.0715 11.5007 36.0283C11.605 35.9852 11.6998 35.9219 11.7796 35.8421C11.8594 35.7623 11.9227 35.6675 11.9658 35.5632C12.009 35.459 12.0313 35.3472 12.0312 35.2344V31.7969ZM10.3125 34.375H8.59375V32.6562H10.3125V34.375Z" fill="#6AAF72"/>
<path d="M18.9062 31.7969C18.9063 31.684 18.884 31.5723 18.8408 31.468C18.7977 31.3637 18.7344 31.269 18.6546 31.1892C18.5748 31.1094 18.48 31.0461 18.3757 31.0029C18.2715 30.9597 18.1597 30.9375 18.0469 30.9375H14.6094C14.4965 30.9375 14.3848 30.9597 14.2805 31.0029C14.1762 31.0461 14.0815 31.1094 14.0017 31.1892C13.9219 31.269 13.8586 31.3637 13.8154 31.468C13.7722 31.5723 13.75 31.684 13.75 31.7969V35.2344C13.75 35.3472 13.7722 35.459 13.8154 35.5632C13.8586 35.6675 13.9219 35.7623 14.0017 35.8421C14.0815 35.9219 14.1762 35.9852 14.2805 36.0283C14.3848 36.0715 14.4965 36.0938 14.6094 36.0938H18.0469C18.1597 36.0938 18.2715 36.0715 18.3757 36.0283C18.48 35.9852 18.5748 35.9219 18.6546 35.8421C18.7344 35.7623 18.7977 35.6675 18.8408 35.5632C18.884 35.459 18.9063 35.3472 18.9062 35.2344V31.7969ZM17.1875 34.375H15.4688V32.6562H17.1875V34.375Z" fill="#6AAF72"/>
<path d="M21.4844 30.9375C21.3715 30.9375 21.2598 30.9597 21.1555 31.0029C21.0512 31.0461 20.9565 31.1094 20.8767 31.1892C20.7969 31.269 20.7336 31.3637 20.6904 31.468C20.6472 31.5723 20.625 31.684 20.625 31.7969V35.2344C20.625 35.3472 20.6472 35.459 20.6904 35.5632C20.7336 35.6675 20.7969 35.7623 20.8767 35.8421C20.9565 35.9219 21.0512 35.9852 21.1555 36.0283C21.2598 36.0715 21.3715 36.0938 21.4844 36.0938H24.0625V34.375H22.3438V30.9375H21.4844Z" fill="#6AAF72"/>
<path d="M12.0312 38.6719C12.0313 38.559 12.009 38.4473 11.9658 38.343C11.9227 38.2387 11.8594 38.144 11.7796 38.0642C11.6998 37.9844 11.605 37.9211 11.5007 37.8779C11.3965 37.8347 11.2847 37.8125 11.1719 37.8125H7.73438C7.62152 37.8125 7.50977 37.8347 7.4055 37.8779C7.30124 37.9211 7.2065 37.9844 7.1267 38.0642C7.0469 38.144 6.9836 38.2387 6.94041 38.343C6.89722 38.4473 6.875 38.559 6.875 38.6719V42.1094C6.875 42.2222 6.89722 42.334 6.94041 42.4382C6.9836 42.5425 7.0469 42.6373 7.1267 42.7171C7.2065 42.7969 7.30124 42.8602 7.4055 42.9033C7.50977 42.9465 7.62152 42.9688 7.73438 42.9688H11.1719C11.2847 42.9688 11.3965 42.9465 11.5007 42.9033C11.605 42.8602 11.6998 42.7969 11.7796 42.7171C11.8594 42.6373 11.9227 42.5425 11.9658 42.4382C12.009 42.334 12.0313 42.2222 12.0312 42.1094V38.6719ZM10.3125 41.25H8.59375V39.5312H10.3125V41.25Z" fill="#6AAF72"/>
<path d="M25.7812 38.6719C25.7813 38.559 25.759 38.4473 25.7158 38.343C25.6727 38.2387 25.6094 38.144 25.5296 38.0642C25.4498 37.9844 25.355 37.9211 25.2507 37.8779C25.1465 37.8347 25.0347 37.8125 24.9219 37.8125H21.4844C21.3715 37.8125 21.2598 37.8347 21.1555 37.8779C21.0512 37.9211 20.9565 37.9844 20.8767 38.0642C20.7969 38.144 20.7336 38.2387 20.6904 38.343C20.6472 38.4473 20.625 38.559 20.625 38.6719V42.1094C20.625 42.2222 20.6472 42.334 20.6904 42.4382C20.7336 42.5425 20.7969 42.6373 20.8767 42.7171C20.9565 42.7969 21.0512 42.8602 21.1555 42.9033C21.2598 42.9465 21.3715 42.9688 21.4844 42.9688H24.9219C25.0347 42.9688 25.1465 42.9465 25.2507 42.9033C25.355 42.8602 25.4498 42.7969 25.5296 42.7171C25.6094 42.6373 25.6727 42.5425 25.7158 42.4382C25.759 42.334 25.7813 42.2222 25.7812 42.1094V38.6719ZM24.0625 41.25H22.3438V39.5312H24.0625V41.25Z" fill="#6AAF72"/>
<path d="M32.6562 38.6719C32.6563 38.559 32.634 38.4473 32.5908 38.343C32.5477 38.2387 32.4844 38.144 32.4046 38.0642C32.3248 37.9844 32.23 37.9211 32.1257 37.8779C32.0215 37.8347 31.9097 37.8125 31.7969 37.8125H28.3594C28.2465 37.8125 28.1348 37.8347 28.0305 37.8779C27.9262 37.9211 27.8315 37.9844 27.7517 38.0642C27.6719 38.144 27.6086 38.2387 27.5654 38.343C27.5222 38.4473 27.5 38.559 27.5 38.6719V42.1094C27.5 42.2222 27.5222 42.334 27.5654 42.4382C27.6086 42.5425 27.6719 42.6373 27.7517 42.7171C27.8315 42.7969 27.9262 42.8602 28.0305 42.9033C28.1348 42.9465 28.2465 42.9688 28.3594 42.9688H31.7969C31.9097 42.9688 32.0215 42.9465 32.1257 42.9033C32.23 42.8602 32.3248 42.7969 32.4046 42.7171C32.4844 42.6373 32.5477 42.5425 32.5908 42.4382C32.634 42.334 32.6563 42.2222 32.6562 42.1094V38.6719ZM30.9375 41.25H29.2188V39.5312H30.9375V41.25Z" fill="#6AAF72"/>
<path d="M11.1719 44.6875H7.73438C7.62152 44.6875 7.50977 44.7097 7.4055 44.7529C7.30124 44.7961 7.2065 44.8594 7.1267 44.9392C7.0469 45.019 6.9836 45.1137 6.94041 45.218C6.89722 45.3223 6.875 45.434 6.875 45.5469V48.9844C6.875 49.0972 6.89722 49.209 6.94041 49.3132C6.9836 49.4175 7.0469 49.5123 7.1267 49.5921C7.2065 49.6719 7.30124 49.7352 7.4055 49.7783C7.50977 49.8215 7.62152 49.8438 7.73438 49.8438H11.1719C11.2847 49.8438 11.3965 49.8215 11.5007 49.7783C11.605 49.7352 11.6998 49.6719 11.7796 49.5921C11.8594 49.5123 11.9227 49.4175 11.9658 49.3132C12.009 49.209 12.0313 49.0972 12.0312 48.9844V45.5469C12.0313 45.434 12.009 45.3223 11.9658 45.218C11.9227 45.1137 11.8594 45.019 11.7796 44.9392C11.6998 44.8594 11.605 44.7961 11.5007 44.7529C11.3965 44.7097 11.2847 44.6875 11.1719 44.6875ZM10.3125 48.125H8.59375V46.4062H10.3125V48.125Z" fill="#6AAF72"/>
<path d="M13.75 45.5469V48.9844C13.75 49.0972 13.7722 49.209 13.8154 49.3132C13.8586 49.4175 13.9219 49.5123 14.0017 49.5921C14.0815 49.6719 14.1762 49.7352 14.2805 49.7783C14.3848 49.8215 14.4965 49.8438 14.6094 49.8438H18.0469C18.1597 49.8438 18.2715 49.8215 18.3757 49.7783C18.48 49.7352 18.5748 49.6719 18.6546 49.5921C18.7344 49.5123 18.7977 49.4175 18.8408 49.3132C18.884 49.209 18.9063 49.0972 18.9062 48.9844V45.5469C18.9063 45.434 18.884 45.3223 18.8408 45.218C18.7977 45.1137 18.7344 45.019 18.6546 44.9392C18.5748 44.8594 18.48 44.7961 18.3757 44.7529C18.2715 44.7097 18.1597 44.6875 18.0469 44.6875H14.6094C14.4965 44.6875 14.3848 44.7097 14.2805 44.7529C14.1762 44.7961 14.0815 44.8594 14.0017 44.9392C13.9219 45.019 13.8586 45.1137 13.8154 45.218C13.7722 45.3223 13.75 45.434 13.75 45.5469ZM15.4688 46.4062H17.1875V48.125H15.4688V46.4062Z" fill="#6AAF72"/>
<path d="M24.9219 44.6875H21.4844C21.3715 44.6875 21.2598 44.7097 21.1555 44.7529C21.0512 44.7961 20.9565 44.8594 20.8767 44.9392C20.7969 45.019 20.7336 45.1137 20.6904 45.218C20.6472 45.3223 20.625 45.434 20.625 45.5469V48.9844C20.625 49.0972 20.6472 49.209 20.6904 49.3132C20.7336 49.4175 20.7969 49.5123 20.8767 49.5921C20.9565 49.6719 21.0512 49.7352 21.1555 49.7783C21.2598 49.8215 21.3715 49.8438 21.4844 49.8438H24.9219C25.0347 49.8438 25.1465 49.8215 25.2507 49.7783C25.355 49.7352 25.4498 49.6719 25.5296 49.5921C25.6094 49.5123 25.6727 49.4175 25.7158 49.3132C25.759 49.209 25.7813 49.0972 25.7812 48.9844V45.5469C25.7813 45.434 25.759 45.3223 25.7158 45.218C25.6727 45.1137 25.6094 45.019 25.5296 44.9392C25.4498 44.8594 25.355 44.7961 25.2507 44.7529C25.1465 44.7097 25.0347 44.6875 24.9219 44.6875ZM24.0625 48.125H22.3438V46.4062H24.0625V48.125Z" fill="#6AAF72"/>
<path d="M31.7969 44.6875H28.3594C28.2465 44.6875 28.1348 44.7097 28.0305 44.7529C27.9262 44.7961 27.8315 44.8594 27.7517 44.9392C27.6719 45.019 27.6086 45.1137 27.5654 45.218C27.5222 45.3223 27.5 45.434 27.5 45.5469V48.9844C27.5 49.0972 27.5222 49.209 27.5654 49.3132C27.6086 49.4175 27.6719 49.5123 27.7517 49.5921C27.8315 49.6719 27.9262 49.7352 28.0305 49.7783C28.1348 49.8215 28.2465 49.8438 28.3594 49.8438H31.7969C31.9097 49.8438 32.0215 49.8215 32.1257 49.7783C32.23 49.7352 32.3248 49.6719 32.4046 49.5921C32.4844 49.5123 32.5477 49.4175 32.5908 49.3132C32.634 49.209 32.6563 49.0972 32.6562 48.9844V45.5469C32.6563 45.434 32.634 45.3223 32.5908 45.218C32.5477 45.1137 32.4844 45.019 32.4046 44.9392C32.3248 44.8594 32.23 44.7961 32.1257 44.7529C32.0215 44.7097 31.9097 44.6875 31.7969 44.6875ZM30.9375 48.125H29.2188V46.4062H30.9375V48.125Z" fill="#6AAF72"/>
<path d="M15.2173 42.7173L16.3284 41.6062L17.4395 42.7173L18.6548 41.502L17.5437 40.3909L18.6548 39.2798L17.4395 38.0645L16.3284 39.1756L15.2173 38.0645L14.002 39.2798L15.1131 40.3909L14.002 41.502L15.2173 42.7173Z" fill="#6AAF72"/>
<path d="M36.0938 33.5156V51.5625H3.4375V29.2188H19.7656V27.5H3.4375V25.7812H18.0469V24.0625H2.57812C2.46527 24.0625 2.35352 24.0847 2.24925 24.1279C2.14499 24.1711 2.05025 24.2344 1.97045 24.3142C1.89065 24.394 1.82735 24.4887 1.78416 24.593C1.74097 24.6973 1.71875 24.809 1.71875 24.9219V52.4219C1.71875 52.5347 1.74097 52.6465 1.78416 52.7507C1.82735 52.855 1.89065 52.9498 1.97045 53.0296C2.05025 53.1094 2.14499 53.1727 2.24925 53.2158C2.35352 53.259 2.46527 53.2813 2.57812 53.2812H36.9531C37.066 53.2813 37.1777 53.259 37.282 53.2158C37.3863 53.1727 37.481 53.1094 37.5608 53.0296C37.6406 52.9498 37.7039 52.855 37.7471 52.7507C37.7903 52.6465 37.8125 52.5347 37.8125 52.4219V33.5156H36.0938Z" fill="#6AAF72"/>
</svg>
