<svg width="140" height="412" viewBox="0 0 140 412" fill="none" xmlns="http://www.w3.org/2000/svg">
<path d="M129.33 49.3357C130.315 47.3654 131.301 45.3951 132.286 43.4248C137.54 28.3191 130.644 10.9147 116.195 4.01864C99.7757 -3.86259 80.0726 3.3619 73.1766 20.1095C71.863 23.065 71.2063 26.0204 70.8779 28.9759C69.2359 41.7829 62.0115 53.6048 50.518 59.5157C36.3975 66.4118 25.2324 78.562 19.9782 94.9812C6.18609 139.642 -0.0532263 185.944 0.603543 233.56C1.26031 281.504 9.46994 327.806 24.5756 372.138C36.3975 406.29 75.8036 421.395 107.657 404.648C133.599 390.856 145.421 360.316 136.226 332.732C125.39 300.55 119.479 266.726 118.822 231.918C118.165 196.78 123.091 162.628 132.943 130.118C137.54 115.013 135.898 99.2502 129.002 85.7864C122.763 73.9646 122.763 60.1724 129.33 49.3357Z" fill="url(#paint0_linear)"/>
<path d="M102.404 5.33277C106.345 5.33277 110.613 6.31793 114.226 7.95985C126.376 13.8708 132.615 28.6481 128.018 41.4551C127.361 43.097 126.704 45.0673 125.719 46.7092C118.495 58.8594 118.166 74.2935 124.734 87.4289C131.302 100.236 132.615 114.685 128.346 128.149C118.166 161.315 113.569 196.124 113.897 231.59C114.554 266.727 120.465 301.207 131.302 334.046C140.168 359.66 129.003 387.573 105.031 400.38C97.1497 404.649 88.6117 406.619 79.7453 406.619C56.7584 406.619 36.3986 392.17 28.8457 370.496C13.74 326.821 5.85881 280.519 4.87365 233.232C4.21688 186.273 10.4562 139.97 23.9199 95.9669C28.1889 81.518 38.3689 70.0245 51.8326 63.4568C64.3113 57.2175 73.1777 44.4106 74.8196 29.3049C75.148 26.6778 75.8047 24.0507 76.7899 21.752C81.7156 11.9005 91.5672 5.33277 102.404 5.33277ZM102.404 0.735352C89.9253 0.735352 78.4318 7.95984 73.1777 20.1101C71.8641 23.0655 71.2074 26.021 70.879 28.9765C69.237 41.7835 62.0126 53.6053 50.5191 59.5162C36.3986 66.4123 25.2335 78.5626 19.9793 94.9818C6.18719 139.642 -0.0521277 185.944 0.604642 233.56C1.26141 281.504 9.47104 327.806 24.5767 372.138C33.1147 396.767 55.7733 411.545 80.0737 411.545C89.2685 411.545 98.7916 409.246 107.658 404.648C133.6 390.856 145.422 360.317 136.228 332.732C125.391 300.551 119.48 266.727 118.823 231.918C118.166 196.781 123.092 162.629 132.944 130.119C137.541 115.013 135.899 99.2508 129.003 85.787C123.092 74.2935 123.092 60.5014 129.66 49.6647C130.645 47.6944 131.63 45.7241 132.615 43.7538C137.869 28.6481 130.973 11.2437 116.524 4.3476C111.599 1.72053 107.001 0.735352 102.404 0.735352Z" fill="url(#paint1_linear)"/>
<defs>
<linearGradient id="paint0_linear" x1="71.8605" y1="411.459" x2="65.0498" y2="1.21544" gradientUnits="userSpaceOnUse">
<stop stop-color="#9F0047"/>
<stop offset="1" stop-color="#D60060"/>
</linearGradient>
<linearGradient id="paint1_linear" x1="164.902" y1="220.106" x2="-0.812988" y2="188.9" gradientUnits="userSpaceOnUse">
<stop stop-color="#720033"/>
<stop offset="1" stop-color="#E55D9A"/>
</linearGradient>
</defs>
</svg>
