<svg width="40" height="40" viewBox="0 0 40 40" fill="none" xmlns="http://www.w3.org/2000/svg">
<g clip-path="url(#clip0)">
<path d="M13.5693 4.96045H14.7172V8.2151H13.5693V4.96045Z" fill="#56A1CC"/>
<path d="M18.1829 21.1743C18.7566 22.0425 19.2316 22.9774 19.5948 23.9533L20.6706 23.553C20.277 22.4955 19.7622 21.4823 19.1405 20.5415L18.1829 21.1743Z" fill="#56A1CC"/>
<path d="M17.6236 18.573C16.9829 17.7528 16.4355 16.8584 15.9964 15.9146L14.9556 16.3986C15.4314 17.4214 16.0247 18.3907 16.7189 19.2796L17.6236 18.573Z" fill="#56A1CC"/>
<path d="M15.1943 13.7165C14.922 12.7118 14.7645 11.6749 14.7262 10.6348L13.5791 10.6771C13.6207 11.8043 13.7914 12.9279 14.0864 14.0167L15.1943 13.7165Z" fill="#56A1CC"/>
<path d="M21.6037 28.7375C21.6038 27.8202 21.5181 26.8978 21.3488 25.9961L20.2207 26.2078C20.3768 27.0399 20.4559 27.891 20.4559 28.7375V29.3414H21.6037V28.7375Z" fill="#56A1CC"/>
<path d="M20.4561 31.7827H21.6039V35.0374H20.4561V31.7827Z" fill="#56A1CC"/>
<path d="M10.5082 10.1288C10.5082 12.2825 10.8973 14.4038 11.6646 16.4339L12.7382 16.028C12.0201 14.1281 11.656 12.1433 11.656 10.1288V1.56288H13.569V2.51941H14.7169V1.56288H16.6299V6.02659L17.1895 6.04059C18.2984 6.06829 20.4838 6.25088 22.6592 7.16149C24.4512 7.91157 26.4675 7.86925 28.1914 7.04549L29.5885 6.37775L30.4134 8.10379L27.5575 9.46865L26.6347 8.36726L25.7548 9.10448L26.9673 10.5514C28.4106 12.2393 30.0416 13.3675 30.7917 13.8398L30.1504 15.7141C29.2428 15.2678 27.2947 14.0583 24.9495 11.1117C24.4693 10.5084 23.854 9.97737 23.1206 9.53339L22.5262 10.5153C23.1429 10.8887 23.6561 11.3298 24.0514 11.8265C25.4179 13.5435 26.8324 14.9168 28.2553 15.9081C29.3624 16.6794 30.1098 16.9597 30.3126 17.0272L30.8528 17.2072L32.1828 13.3183L31.7636 13.0851C31.7442 13.0743 29.9901 12.0882 28.3453 10.3644L31.9442 8.64442L30.1294 4.84707L27.6966 6.00975C26.2675 6.69272 24.5931 6.72662 23.1027 6.10258C21.0803 5.25601 19.0598 4.99262 17.7779 4.91671V0.415039H10.5083V5.5559C9.50991 5.78026 8.52354 6.10571 7.56624 6.52659L2.14745 3.31188L0 6.93154L3.51881 9.01908C2.29422 10.0201 1.61095 10.8475 1.52609 10.9525L1.16574 11.3979L3.98682 13.6883L4.42843 14.0445L4.79107 13.6082C4.81373 13.581 6.96378 11.0329 10.5082 9.91278V10.1288ZM4.29238 12.4577L2.80004 11.2461C3.19833 10.824 3.90112 10.1397 4.87716 9.41569L5.57046 8.90146L1.573 6.53003L2.54896 4.88472L7.4966 7.81989L7.77048 7.6934C8.66021 7.28263 9.57848 6.96299 10.5082 6.73641V8.71528C7.33384 9.62024 5.13856 11.5923 4.29238 12.4577Z" fill="#56A1CC"/>
<path d="M36.7962 30.4543L35.8673 31.1285C36.5133 32.0187 37.0412 33.0131 37.4403 34.0913L35.6175 34.6788C34.7341 32.3492 33.1463 30.5254 30.891 29.252C28.7173 28.0249 26.3299 27.534 24.5738 27.3431L24.2974 25.3909C25.5943 25.5025 27.3201 25.7687 29.1256 26.3846C30.5557 26.8724 32.1103 26.6126 33.2832 25.6895L37.2056 22.6032L38.3885 24.1065L33.0324 28.3212L33.6015 28.7726C34.1784 29.2301 34.711 29.7354 35.1846 30.2743L36.0469 29.5167C35.6837 29.1033 35.2891 28.7083 34.8687 28.3368L40.0005 24.2987L37.3979 20.9912L32.5735 24.7873C31.7075 25.4689 30.557 25.6599 29.4962 25.298C27.4384 24.5961 25.481 24.323 24.0855 24.222C23.3946 21.5724 22.0936 19.0908 20.3072 17.022C18.6764 15.1334 17.7784 12.6849 17.7784 10.1272V9.13696C18.2899 9.17698 18.925 9.25542 19.6158 9.40624C20.3202 9.55998 20.9788 9.76858 21.5731 10.0263L22.0297 8.97313C21.3673 8.68594 20.6375 8.45438 19.8606 8.28473C18.7843 8.04981 17.8323 7.97665 17.2234 7.95653L16.6305 7.93701V10.1272C16.6305 12.9602 17.6277 15.6752 19.4384 17.7722C21.1925 19.8037 22.4463 22.2606 23.0656 24.8784L23.4961 27.9188C23.5066 28.4344 23.5144 35.1905 23.5171 38.4375H21.6045V37.481H20.4567V38.4375H18.5436V31.1529L17.8203 31.3478C13.9204 32.399 10.3192 34.9726 9.08535 35.918L7.85647 34.4472C8.30773 34.0971 9.07464 33.5281 10.0762 32.8804L12.1168 31.7282L11.5524 30.7287L9.85455 31.6874L7.4291 29.5183L8.70442 28.0924L8.90483 28.2716C10.9106 30.0656 13.7438 30.6545 16.2992 29.8088C16.9079 29.6073 18.5435 29.2129 18.5435 29.2129V28.7381C18.5435 25.9392 17.5449 23.2234 15.7319 21.091C14.692 19.8682 13.8302 18.5137 13.1703 17.0655L12.1258 17.5414C12.8297 19.0863 13.7488 20.5308 14.8574 21.8346C16.3991 23.6479 17.2885 25.9285 17.3865 28.299C16.9113 28.417 16.4261 28.5578 15.9385 28.7191C13.7724 29.4362 11.3705 28.9369 9.67006 27.416L8.61412 26.4716L5.80835 29.6086L8.84109 32.3211C7.56906 33.1815 6.77054 33.8423 6.67175 33.9249L6.2316 34.2929L8.56193 37.0822L8.92955 37.521L9.36986 37.1551C9.40934 37.1224 13.156 34.0354 17.3956 32.6704V39.5855H24.6657L24.6652 39.0112C24.6646 38.0595 24.6588 30.7748 24.6479 28.5066C26.269 28.6998 28.3991 29.1634 30.3265 30.2517C32.4947 31.4757 33.9711 33.266 34.7146 35.5728L34.8908 36.119L38.8965 34.8279L38.7204 34.2817C38.268 32.8778 37.6206 31.5901 36.7962 30.4543Z" fill="#56A1CC"/>
</g>
<defs>
<clipPath id="clip0">
<rect width="40" height="40" fill="white"/>
</clipPath>
</defs>
</svg>
