<svg width="36" height="36" viewBox="0 0 36 36" fill="none" xmlns="http://www.w3.org/2000/svg">
<g clip-path="url(#clip0)">
<path d="M14.2785 18.2062C14.0043 17.9313 13.5585 17.9313 13.2843 18.2062C13.0094 18.4804 13.0094 18.9262 13.2843 19.2004C13.5585 19.4753 14.0043 19.4753 14.2785 19.2004C14.5535 18.9262 14.5535 18.4804 14.2785 18.2062Z" fill="#56A1CC"/>
<path d="M18 19.4062C16.8369 19.4062 15.8906 20.3525 15.8906 21.5156C15.8906 22.6787 16.8369 23.625 18 23.625C19.1631 23.625 20.1094 22.6787 20.1094 21.5156C20.1094 20.3525 19.1631 19.4062 18 19.4062ZM18 22.2188C17.6123 22.2188 17.2969 21.9033 17.2969 21.5156C17.2969 21.1279 17.6123 20.8125 18 20.8125C18.3877 20.8125 18.7031 21.1279 18.7031 21.5156C18.7031 21.9033 18.3877 22.2188 18 22.2188Z" fill="#56A1CC"/>
<path d="M18 15.8906C17.214 15.8906 16.454 16.0495 15.7413 16.3628C15.3858 16.5191 15.2243 16.9339 15.3805 17.2894C15.5367 17.6449 15.9517 17.8064 16.3072 17.6502C16.8405 17.4158 17.4101 17.2969 18 17.2969C20.3262 17.2969 22.2188 19.1894 22.2188 21.5156C22.2188 23.8418 20.3262 25.7344 18 25.7344C15.6738 25.7344 13.7812 23.8418 13.7812 21.5156C13.7812 21.4916 13.7812 21.4681 13.7817 21.444C13.7907 21.0559 13.4833 20.7338 13.0951 20.7248C12.7063 20.7151 12.3849 21.0232 12.3759 21.4114C12.3751 21.4464 12.375 21.4806 12.375 21.5156C12.375 24.6173 14.8984 27.1406 18 27.1406C21.1016 27.1406 23.625 24.6173 23.625 21.5156C23.625 18.414 21.1016 15.8906 18 15.8906Z" fill="#56A1CC"/>
<path d="M18 5.34375C17.6117 5.34375 17.2969 5.65854 17.2969 6.04688V10.2656C17.2969 10.654 17.6117 10.9688 18 10.9688C18.3883 10.9688 18.7031 10.654 18.7031 10.2656V6.04688C18.7031 5.65854 18.3883 5.34375 18 5.34375Z" fill="#56A1CC"/>
<path d="M10.1447 10.5567L7.16203 7.57409C6.88746 7.29952 6.44224 7.29952 6.1676 7.57409C5.89303 7.84866 5.89303 8.29388 6.1676 8.56852L9.15025 11.5512C9.42482 11.8257 9.87011 11.8258 10.1447 11.5512C10.4193 11.2766 10.4193 10.8314 10.1447 10.5567Z" fill="#56A1CC"/>
<path d="M29.8324 7.57409C29.5579 7.29952 29.1126 7.29952 28.838 7.57409L25.8553 10.5567C25.5808 10.8313 25.5808 11.2765 25.8553 11.5512C26.1298 11.8257 26.5751 11.8258 26.8498 11.5512L29.8324 8.56852C30.107 8.29395 30.107 7.84873 29.8324 7.57409Z" fill="#56A1CC"/>
<path d="M35.8239 21.6359C31.3573 16.5791 24.7251 12.375 18 12.375C11.274 12.375 4.64188 16.5801 0.176127 21.6359C-0.0809359 21.927 -0.0533734 22.3713 0.23765 22.6283C0.528744 22.8854 0.973119 22.8578 1.23011 22.5668C1.37995 22.3971 1.53344 22.2281 1.6889 22.0601C5.16339 27.3099 11.4618 30.6562 18 30.6562C24.5381 30.6562 30.8366 27.3099 34.3111 22.0601C34.4665 22.2282 34.62 22.3972 34.7699 22.5668C35.0261 22.8569 35.4704 22.8862 35.7623 22.6283C36.0534 22.3713 36.0809 21.9269 35.8239 21.6359ZM18 29.25C11.8185 29.25 5.87313 26.0382 2.69374 21.0248C5.19883 18.5702 10.9871 13.7812 18 13.7812C25.013 13.7812 30.8012 18.5702 33.3062 21.0248C30.1269 26.0382 24.1815 29.25 18 29.25Z" fill="#56A1CC"/>
</g>
<defs>
<clipPath id="clip0">
<rect width="36" height="36" fill="white"/>
</clipPath>
</defs>
</svg>
