<svg width="41" height="41" viewBox="0 0 41 41" fill="none" xmlns="http://www.w3.org/2000/svg">
<g clip-path="url(#clip0)">
<path d="M15.8643 22.5616V28.2678C15.8643 28.5951 16.1296 28.8605 16.457 28.8605C16.7844 28.8605 17.0497 28.5951 17.0497 28.2678V21.8773L18.8119 20.8598C19.0954 20.6962 19.1925 20.3337 19.0289 20.0502C18.8653 19.7667 18.5025 19.6696 18.2192 19.8333L17.0497 20.5086V15.6849C17.0497 15.3478 16.8484 15.0467 16.537 14.9177C16.2255 14.7888 15.8705 14.8594 15.6325 15.0976L9.98082 20.75C9.8656 20.8662 9.69973 20.9338 9.5352 20.9338C9.15873 20.9338 9.00004 20.6515 8.96037 20.565C8.9207 20.4785 8.8103 20.1739 9.05584 19.8885L15.4495 12.4619C15.9384 11.8946 16.6481 11.5693 17.3966 11.5693H18.9953C19.6271 11.5693 20.1411 11.0552 20.1411 10.4234V9.36764H22.0377V10.4234C22.0377 10.7353 22.1633 11.0182 22.3662 11.225L21.9855 11.4448C21.702 11.6085 21.605 11.971 21.7686 12.2545C21.934 12.541 22.2991 12.6329 22.5783 12.4713L24.1403 11.5693H24.7831C25.5311 11.5693 26.2404 11.8946 26.7292 12.4617L28.9703 15.0649C29.0875 15.201 29.2531 15.2709 29.4197 15.2709C29.5566 15.2709 29.6943 15.2237 29.8062 15.1274C30.0542 14.9138 30.0822 14.5396 29.8686 14.2915L27.6274 11.6881C27.1629 11.1492 26.5617 10.7609 25.8977 10.5544L28.8667 8.83976C29.1172 9.07881 29.4248 9.2529 29.7687 9.34504C30.8552 9.63617 32.0386 8.96438 32.3335 7.8642C32.6324 6.74884 31.9681 5.59832 30.8527 5.29937C29.7371 5.00049 28.5867 5.66478 28.288 6.78021C28.1959 7.12365 28.1927 7.47682 28.2743 7.81307L23.8227 10.3839H23.2233V9.22319C24.2569 8.86599 25.0016 7.88379 25.0016 6.73035V4.19152C25.0016 2.03461 23.2467 0.279785 21.0897 0.279785C19.3612 0.279785 17.8919 1.40723 17.3761 2.96505H12.1218C12.0263 2.6397 11.8506 2.33301 11.5944 2.07681C10.7778 1.26025 9.44938 1.2604 8.63274 2.07681C7.81625 2.89337 7.81625 4.22186 8.63274 5.03843C9.4493 5.85499 10.7778 5.85507 11.5944 5.03843C11.8506 4.78231 12.0262 4.47577 12.1217 4.15042H17.1791C17.179 4.16417 17.1781 4.17777 17.1781 4.19152V6.73035C17.1781 7.88372 17.9226 8.86584 18.956 9.22311V10.3839H17.3968C16.303 10.3839 15.2661 10.8593 14.5516 11.6884L8.15772 19.1152C7.68847 19.6603 7.58321 20.4052 7.88319 21.0591C8.18308 21.713 8.81623 22.1192 9.53544 22.1192C10.0109 22.1192 10.4867 21.9237 10.8207 21.5868L15.8645 16.5422V21.193L8.84982 25.2429C8.60452 25.0089 8.29909 24.8313 7.94925 24.7376C6.8448 24.4416 5.67966 25.117 5.3845 26.2184C5.09045 27.3157 5.75987 28.4871 6.86519 28.7833C7.95273 29.0747 9.12783 28.4302 9.43002 27.3024C9.52382 26.9524 9.52264 26.5989 9.44258 26.2694L15.8643 22.5616ZM29.4327 7.08699C29.564 6.59687 30.0716 6.31736 30.5457 6.44444C31.0298 6.57412 31.318 7.0734 31.1884 7.55742C31.0607 8.03402 30.5509 8.32744 30.0753 8.19997C29.5913 8.07029 29.303 7.57101 29.4327 7.08699ZM11.0217 3.55845C11.0214 3.79086 10.9329 4.02327 10.7559 4.20021C10.4017 4.55456 9.82498 4.5544 9.47072 4.20021C9.11637 3.84586 9.11637 3.2693 9.47072 2.91495C9.82498 2.56068 10.4015 2.56068 10.7559 2.91495C10.9329 3.09196 11.0215 3.32438 11.0217 3.55687V3.55774C11.0216 3.55797 11.0217 3.55821 11.0217 3.55845ZM18.3632 6.73035V4.19152C18.3632 4.17777 18.3641 4.16417 18.3643 4.15042H19.3849C19.7123 4.15042 19.9775 3.88506 19.9775 3.55774C19.9775 3.23042 19.7123 2.96505 19.3849 2.96505H18.6559C19.1055 2.07626 20.0273 1.46516 21.0896 1.46516C22.5929 1.46516 23.8159 2.68823 23.8159 4.19152V6.73035C23.8159 7.53095 23.1646 8.18227 22.364 8.18227H19.8151C19.0145 8.18227 18.3632 7.53095 18.3632 6.73035ZM8.28479 26.9955C8.15503 27.4795 7.65528 27.7676 7.17172 27.638C6.6877 27.5084 6.39949 27.0091 6.52909 26.5251C6.65719 26.0469 7.16532 25.7548 7.64208 25.8825C8.12627 26.0122 8.41447 26.5115 8.28479 26.9955ZM34.7737 24.5989C33.9571 23.7824 32.6286 23.7823 31.812 24.5989C31.5558 24.8551 31.3801 25.1617 31.2847 25.4871H26.3153V16.5429L31.3583 21.5866C31.7015 21.93 32.1582 22.1191 32.6443 22.1191C33.3637 22.1191 33.9968 21.7128 34.2965 21.0588C34.5963 20.4049 34.4907 19.66 34.0212 19.1151L31.6744 16.3892C31.4607 16.1411 31.0865 16.1133 30.8386 16.3267C30.5905 16.5403 30.5625 16.9145 30.7761 17.1626L33.1231 19.8888C33.3689 20.1741 33.2587 20.4785 33.219 20.565C33.1794 20.6515 33.0208 20.9338 32.6444 20.9338C32.4749 20.9338 32.316 20.8681 32.1966 20.7486L26.5463 15.0975C26.3082 14.8596 25.9536 14.7889 25.6423 14.9177C25.3311 15.0467 25.13 15.3479 25.13 15.685V25.4872H24.022C23.6946 25.4872 23.4293 25.7526 23.4293 26.0799C23.4293 26.4072 23.6946 26.6726 24.022 26.6726H25.13V37.5306C25.13 38.1526 25.5498 38.6999 26.1522 38.8619L27.3295 39.1763C27.4253 39.2049 27.4715 39.2649 27.4715 39.3623C27.4715 39.4686 27.3853 39.5551 27.2794 39.5551H24.12C24.0204 39.5551 23.938 39.4803 23.9282 39.3812L22.6021 25.8376C22.5286 25.0693 21.8586 24.4669 21.0893 24.4669C20.3036 24.4669 19.6532 25.0566 19.5764 25.8387L18.2505 39.381C18.2407 39.4803 18.1583 39.5551 18.0587 39.5551H14.9001C14.7786 39.5505 14.7073 39.4839 14.7073 39.3623C14.7073 39.2754 14.7664 39.1988 14.85 39.1763L16.0288 38.8615C16.6298 38.6994 17.0497 38.1521 17.0497 37.5305V31.0337C17.0497 30.7064 16.7844 30.441 16.457 30.441C16.1296 30.441 15.8643 30.7064 15.8643 31.0337V37.5305C15.8643 37.6175 15.8051 37.694 15.7216 37.7166L14.5431 38.0313C13.9419 38.193 13.5219 38.7404 13.5219 39.3623C13.5219 40.1104 14.1492 40.7446 14.9001 40.7405H18.0587C18.771 40.7405 19.3606 40.2058 19.4301 39.4967L20.7561 25.9544C20.773 25.7822 20.9163 25.6523 21.0893 25.6523C21.2584 25.6523 21.4064 25.7853 21.4225 25.9543L22.7486 39.4969C22.8183 40.2058 23.4079 40.7405 24.12 40.7405H27.2794C28.0388 40.7405 28.6568 40.1222 28.6568 39.3623C28.6568 38.7489 28.229 38.1876 27.6354 38.0311L26.4589 37.7168C26.3743 37.694 26.3153 37.6175 26.3153 37.5305V26.6725H31.2847C31.3802 26.9978 31.5559 27.3044 31.812 27.5605C32.6286 28.3772 33.9571 28.3771 34.7737 27.5605C35.5902 26.7439 35.5902 25.4155 34.7737 24.5989ZM33.9354 26.7223C33.5812 27.0766 33.0045 27.0766 32.6502 26.7223C32.2959 26.3679 32.2959 25.7914 32.6502 25.437C33.0046 25.0828 33.5811 25.0828 33.9354 25.437C34.2898 25.7915 34.2898 26.3679 33.9354 26.7223Z" fill="#56A1CC"/>
</g>
<defs>
<clipPath id="clip0">
<rect width="40.4607" height="40.4607" fill="white" transform="translate(0.120361 0.279785)"/>
</clipPath>
</defs>
</svg>
