<svg width="33" height="34" viewBox="0 0 33 34" fill="none" xmlns="http://www.w3.org/2000/svg">
<g clip-path="url(#clip0)">
<path d="M32.9863 12.7131C32.9863 13.6935 32.8327 14.6645 32.5256 15.6018C31.01 22.4151 17.9121 30.7115 17.3558 31.0593C17.2398 31.1331 17.1073 31.1681 16.9755 31.1681C16.8428 31.1681 16.711 31.1333 16.5943 31.0593C16.3286 30.8931 10.0468 26.9234 5.59169 22.22C5.32167 21.934 5.3329 21.4801 5.62034 21.211C5.90779 20.9415 6.35935 20.9527 6.63098 21.2401C10.3499 25.1678 15.5394 28.6669 16.9757 29.6065C19.1432 28.1883 29.8808 20.9137 31.1496 15.2251C31.426 14.3647 31.5571 13.544 31.5571 12.7147C31.5571 9.82906 29.9856 7.16804 27.4561 5.76612C26.2864 5.12408 24.9634 4.78277 23.6291 4.78277C21.2619 4.78277 19.0371 5.82755 17.524 7.65261C17.3872 7.81582 17.1868 7.9114 16.9741 7.9114C16.7628 7.9114 16.5597 7.81857 16.4244 7.65261C14.9079 5.82893 12.6808 4.78277 10.3143 4.78277C8.9821 4.78277 7.65835 5.1227 6.48496 5.76612C3.95666 7.16506 2.38558 9.82883 2.38558 12.7131C2.38558 13.5408 2.51761 14.3614 2.77778 15.1557C2.94465 15.8988 3.27748 16.6589 3.72767 17.4543H8.51173L10.0429 14.8909C10.1685 14.6796 10.3955 14.5483 10.643 14.5441C10.8642 14.5155 11.1205 14.6613 11.2557 14.8701L13.7611 18.7286L16.5526 11.1838C16.6559 10.9032 16.9232 10.7161 17.2219 10.7161H17.2233C17.5215 10.7161 17.7894 10.9018 17.8926 11.1824L20.2304 17.4541H24.369C24.7642 17.4541 25.0835 17.775 25.0835 18.1688C25.0835 18.5651 24.7639 18.8833 24.369 18.8833H19.7321C19.4334 18.8833 19.1668 18.699 19.0607 18.42L17.226 13.4861L14.6104 20.5642C14.5175 20.817 14.2872 20.9972 14.0185 21.0249C13.9913 21.0279 13.9656 21.0304 13.9397 21.0304C13.6997 21.0304 13.4728 20.9075 13.3396 20.7038L10.6827 16.6115L9.53177 18.5376C9.40317 18.7526 9.17029 18.8865 8.91906 18.8865H1.00109C0.606598 18.8867 0.286377 18.5658 0.286377 18.172C0.286377 17.7757 0.606598 17.4575 1.00109 17.4575H2.10158C1.777 16.7903 1.53563 16.1448 1.40085 15.5348C1.11272 14.6658 0.956389 13.6937 0.956389 12.7145C0.956389 9.31034 2.81079 6.16909 5.79478 4.51504C7.18065 3.75448 8.74187 3.35449 10.3141 3.35449C12.8335 3.35449 15.2174 4.35802 16.9725 6.13288C18.727 4.35802 21.1081 3.35449 23.6275 3.35449C25.2034 3.35449 26.7609 3.75448 28.147 4.51504C31.137 6.16703 32.9863 9.31034 32.9863 12.7131Z" fill="#56A1CC"/>
</g>
<defs>
<clipPath id="clip0">
<rect width="32.6999" height="32.6999" fill="white" transform="translate(0.286377 0.911133)"/>
</clipPath>
</defs>
</svg>
