<svg width="37" height="36" viewBox="0 0 37 36" fill="none" xmlns="http://www.w3.org/2000/svg">
<g clip-path="url(#clip0)">
<path d="M33.1411 17.1384C34.0627 12.1325 32.5582 5.25136 27.0759 1.97225C23.6133 0.0298188 19.5292 -0.48413 15.6932 0.539896C10.3798 1.96077 6.47418 5.7736 5.24602 10.7391C4.97222 11.7463 4.85615 12.7898 4.90212 13.8325C4.96095 14.4794 5.08033 15.1194 5.25874 15.7441C5.49881 16.539 5.61771 17.3656 5.61128 18.196C5.58653 19.1845 4.90565 20.2101 4.30426 21.1151C3.64867 22.1027 3.08246 22.9556 3.41081 23.7422C3.72243 24.2753 4.27087 24.6266 4.88546 24.6869C4.92086 24.6933 4.95666 24.6969 4.99261 24.6978C5.15685 24.6777 5.32151 24.7322 5.4413 24.8464C5.5611 24.9606 5.62345 25.1224 5.61128 25.2874C5.61128 26.5132 5.64184 27.1457 6.14818 27.4358C6.10401 27.528 6.07318 27.6261 6.05659 27.7269C6.00571 28.073 6.13035 28.4216 6.38894 28.6569C6.64609 28.906 6.97188 29.0723 7.32442 29.1344C7.34917 29.1402 7.37281 29.1445 7.39583 29.15C7.40979 29.2377 7.41594 29.3265 7.41428 29.4153C7.41007 29.6346 7.39451 29.8537 7.36762 30.0714C7.26967 31.015 7.1355 32.3074 9.02318 32.9243C9.40206 33.0302 9.79476 33.078 10.1879 33.066C11.9754 32.9867 13.7419 32.648 15.432 32.0608C15.92 32.9117 16.2142 33.8599 16.2935 34.8377C16.2934 34.9941 16.3555 35.1442 16.4662 35.2548C16.5768 35.3654 16.7269 35.4276 16.8834 35.4276H31.6301C31.8824 35.4245 32.1043 35.2601 32.1809 35.0197C32.2584 34.776 32.174 34.5099 31.97 34.3555C31.3597 33.8921 29.3386 29.0097 29.2764 27.256C29.4546 26.8515 29.6932 26.3974 29.9758 25.8698C31.5144 23.1581 32.5846 20.2062 33.1411 17.1384ZM28.0923 27.1967C28.1073 28.6074 29.3791 32.335 30.4717 34.2479H17.4233C17.2764 33.3441 16.9835 32.4702 16.5562 31.6604C18.2653 30.9905 19.7708 30.1293 20.4934 29.1841C20.6901 28.9251 20.6401 28.5558 20.3817 28.3584C20.1233 28.1609 19.7538 28.2098 19.5556 28.4675C17.8862 30.6519 10.9402 32.3103 9.38948 31.8031C8.40734 31.4819 8.44647 31.1049 8.54096 30.1937C8.57228 29.9353 8.58997 29.6756 8.59398 29.4154C8.59398 28.4215 8.19305 28.1248 7.59049 27.9851C7.47677 27.9688 7.36818 27.9269 7.27306 27.8624C7.38885 27.7517 7.52025 27.6587 7.66307 27.5862C7.90929 27.4652 8.03966 27.1905 7.97759 26.9233C7.91551 26.656 7.67758 26.4668 7.40322 26.4666C7.19011 26.4666 6.95335 26.4666 6.82893 26.4511C6.79146 26.0644 6.77874 25.6757 6.79091 25.2875C6.80245 24.8223 6.62563 24.3722 6.3006 24.0393C5.97557 23.7064 5.52978 23.5189 5.0645 23.5193C4.63938 23.4297 4.51032 23.3145 4.4994 23.2877C4.41354 23.083 4.9821 22.2276 5.28743 21.7679C5.94239 20.7817 6.75752 19.5541 6.79091 18.2261C6.80743 17.4891 6.72545 16.7533 6.5471 16.0381C7.19032 15.4721 7.94939 15.0534 8.77136 14.8116C9.06424 14.7604 9.36521 14.7815 9.64808 14.8729C9.96211 14.9594 10.2868 14.775 10.3733 14.461C10.4599 14.147 10.2755 13.8223 9.96149 13.7358C9.49697 13.5928 9.00452 13.5658 8.52714 13.6571C7.69355 13.8694 6.91451 14.2563 6.2415 14.7922C6.1609 14.4486 6.10636 14.0994 6.07836 13.7475C6.03841 12.8283 6.14396 11.9085 6.39116 11.0222C7.53173 6.41239 11.0329 3.00713 15.9984 1.67929C19.5257 0.73331 23.2829 1.20177 26.4699 2.98494C31.4694 5.97489 32.8311 12.3068 31.9809 16.9247C31.4508 19.8737 30.4209 22.7106 28.9359 25.313C28.6116 25.9182 28.3316 26.4407 28.1294 26.9242C28.0953 27.0108 28.0825 27.1042 28.0923 27.1967Z" fill="#56A1CC"/>
<path d="M29.263 18.4858C29.3474 17.5759 28.7245 16.7515 27.8261 16.5842L26.6965 15.0185C26.7658 14.8907 26.8188 14.7548 26.8545 14.6139L27.9484 14.1765C28.4537 14.7516 29.272 14.9356 29.9747 14.6321C30.6774 14.3285 31.1045 13.6067 31.0322 12.8446C30.9599 12.0824 30.4045 11.4539 29.6572 11.288L28.771 9.52024C29.3927 8.88684 29.4464 7.88998 28.8963 7.19354C28.3462 6.49703 27.364 6.31827 26.6039 6.7763L25.6156 5.95584C25.6904 5.76036 25.7296 5.55312 25.7312 5.34381C25.7328 4.6211 25.2938 3.97035 24.6231 3.70124C23.9523 3.43207 23.1853 3.59887 22.6869 4.12222L20.9381 3.68507C20.7286 2.92649 20.0407 2.39933 19.2537 2.39456C18.4667 2.38979 17.7724 2.90851 17.5537 3.66447L15.2166 4.1319C14.607 3.47451 13.6008 3.38002 12.8795 3.91249C12.1581 4.4449 11.9519 5.43422 12.4004 6.2105L11.2552 7.73562C10.4346 7.88396 9.82985 8.58663 9.80545 9.42021C9.78105 10.2538 10.3437 10.9906 11.1542 11.1867L12.1012 13.5245C11.5816 14.0345 11.4282 14.811 11.7148 15.4804C12.0014 16.1497 12.6693 16.5746 13.3969 16.5505C14.1246 16.5265 14.763 16.0585 15.0048 15.3717H18.1717C18.4361 16.185 19.2611 16.6775 20.1025 16.5242L22.0607 19.5029C21.5583 20.0599 21.4629 20.8735 21.8226 21.5317C22.1823 22.1898 22.9188 22.5488 23.6588 22.4267C24.3989 22.3045 24.9809 21.728 25.1101 20.9891L26.5719 19.8207C26.8501 19.9961 27.172 20.0897 27.5008 20.0908C28.4147 20.0914 29.1787 19.3957 29.263 18.4858ZM29.2705 12.4223C29.5655 12.4216 29.8156 12.6391 29.856 12.9313C29.8965 13.2235 29.7147 13.5007 29.4307 13.5802C29.1467 13.6597 28.8475 13.5171 28.7303 13.2463C28.7283 13.2409 28.7294 13.2353 28.7273 13.2299L28.7235 13.2242C28.6961 13.1568 28.6815 13.0849 28.6806 13.0121C28.681 12.6865 28.9449 12.4226 29.2705 12.4223ZM26.9234 8.17325C26.98 7.89945 27.2214 7.70306 27.501 7.70327C27.8268 7.70327 28.0908 7.96733 28.0908 8.29312C28.0908 8.61891 27.8268 8.88297 27.501 8.88297C27.428 8.88207 27.3559 8.86748 27.2883 8.83997L27.2832 8.83665C27.278 8.83458 27.2726 8.83568 27.2673 8.83368C27.0104 8.72301 26.8668 8.44713 26.9234 8.17325ZM26.3366 9.61528L25.2466 12.3408L23.3357 10.8121C23.595 10.591 23.7844 10.2994 23.8811 9.97259L26.2183 9.50517C26.2554 9.5445 26.296 9.57948 26.3366 9.61528ZM25.7086 14.3513C25.6292 14.635 25.3525 14.8165 25.0606 14.7763C24.7687 14.736 24.5513 14.4866 24.5516 14.1919C24.5519 13.8662 24.8158 13.6023 25.1414 13.602C25.2144 13.6029 25.2865 13.6175 25.3541 13.645L25.3592 13.6483C25.3645 13.6505 25.3701 13.6496 25.3754 13.6515C25.6458 13.7688 25.788 14.0675 25.7086 14.3513ZM23.9617 4.75396C24.2875 4.75396 24.5515 5.01802 24.5515 5.34381C24.5515 5.6696 24.2874 5.93366 23.9617 5.93366C23.636 5.93366 23.3718 5.6696 23.3718 5.34381C23.3722 5.01816 23.636 4.7543 23.9617 4.75396ZM20.8575 4.88087L22.2049 5.21772C22.2017 5.26016 22.1921 5.30067 22.1921 5.34388C22.1932 6.32076 22.9849 7.11245 23.9617 7.11349C24.2781 7.11183 24.5881 7.02453 24.8587 6.86077L25.847 7.68122C25.7722 7.87671 25.733 8.08394 25.7314 8.29326C25.7314 8.32893 25.7399 8.36231 25.7419 8.3975L23.8207 8.7817C23.5798 8.22095 23.0671 7.82382 22.4639 7.73085L20.3041 5.57116C20.5439 5.39143 20.7343 5.15399 20.8575 4.88087ZM22.782 9.47295C22.782 9.79874 22.5179 10.0628 22.1921 10.0628C21.8665 10.0625 21.6026 9.7986 21.6023 9.47295C21.6023 9.14716 21.8663 8.88311 22.1921 8.88311C22.5179 8.88311 22.782 9.14716 22.782 9.47295ZM19.2428 3.57419C19.5685 3.57419 19.8326 3.83825 19.8326 4.16404C19.8326 4.48983 19.5685 4.75389 19.2428 4.75389C18.917 4.75389 18.6529 4.48983 18.6529 4.16404C18.6532 3.83846 18.9171 3.57454 19.2428 3.57419ZM19.3596 6.29518L21.1306 8.06597C20.8553 8.27397 20.6469 8.55801 20.5312 8.88304H19.134C18.9947 8.49248 18.7225 8.16337 18.365 7.95323L19.3596 6.29518ZM15.693 5.23963L17.6142 4.85543C17.7649 5.20314 18.0232 5.49346 18.3509 5.68377L17.2801 7.46838L15.4291 6.28067C15.6074 6.00064 15.7026 5.67575 15.7035 5.34381C15.7035 5.30814 15.695 5.27475 15.693 5.23963ZM18.063 9.47295C18.063 9.79874 17.7989 10.0628 17.4731 10.0628C17.1475 10.0625 16.8836 9.7986 16.8833 9.47295C16.8833 9.14716 17.1473 8.88311 17.4731 8.88311C17.7989 8.88311 18.063 9.14716 18.063 9.47295ZM13.9339 4.75396C14.2597 4.75396 14.5238 5.01802 14.5238 5.34381C14.5238 5.6696 14.2597 5.93366 13.9339 5.93366C13.6081 5.93366 13.3441 5.6696 13.3441 5.34381C13.3443 5.01816 13.6083 4.7543 13.9339 4.75396ZM13.2919 6.98851C13.6513 7.13672 14.0514 7.15365 14.422 7.03642L16.2433 8.20498C16.0494 8.39487 15.9019 8.62693 15.8123 8.88304H13.2353C13.1065 8.51791 12.8617 8.20498 12.5382 7.99228L13.2919 6.98851ZM11.5744 10.0628C11.2486 10.0628 10.9845 9.79874 10.9845 9.47295C10.9849 9.1473 11.2487 8.88338 11.5744 8.88311C11.9002 8.88311 12.1642 9.14716 12.1642 9.47295C12.1642 9.79874 11.9002 10.0628 11.5744 10.0628ZM13.344 15.3716C13.0182 15.3716 12.7541 15.1075 12.7541 14.7818C12.7541 14.456 13.0182 14.1919 13.344 14.1919C13.6698 14.1919 13.9338 14.4561 13.9338 14.7818C13.9336 15.1074 13.6696 15.3713 13.344 15.3716ZM13.6795 13.0461C13.569 13.0241 13.4566 13.0127 13.344 13.0121C13.2856 13.0121 13.2304 13.0238 13.1735 13.0294L12.3697 11.045C12.7733 10.8405 13.083 10.4889 13.2353 10.0628H15.8122C15.9184 10.3599 16.1024 10.6231 16.3449 10.8248L13.6795 13.0461ZM18.1717 14.1919H15.0049C14.9419 14.0152 14.851 13.8497 14.7357 13.7018L17.6327 11.2876L18.6192 13.5002C18.4176 13.6922 18.2643 13.9293 18.1717 14.1919ZM19.134 10.0628H20.5313C20.6705 10.4534 20.9428 10.7825 21.3003 10.9926L20.0738 13.0366C19.9941 13.0229 19.9135 13.0147 19.8327 13.0122C19.787 13.0122 19.7441 13.0223 19.6992 13.0257L18.6866 10.7545C18.8881 10.5624 19.0415 10.3254 19.134 10.0628ZM19.8326 15.3716C19.5068 15.3716 19.2428 15.1075 19.2428 14.7818C19.2428 14.456 19.5069 14.1919 19.8326 14.1919C20.1584 14.1919 20.4224 14.4561 20.4224 14.7818C20.4222 15.1074 20.1583 15.3713 19.8326 15.3716ZM22.3505 11.5349L23.9978 12.8528C23.7387 13.074 23.5492 13.3656 23.4524 13.6923L21.4612 14.0905C21.3791 13.902 21.265 13.7293 21.1237 13.58L22.3505 11.5349ZM23.3718 21.2703C23.046 21.2703 22.782 21.0063 22.782 20.6805C22.782 20.3547 23.046 20.0906 23.3718 20.0906C23.6976 20.0906 23.9617 20.3547 23.9617 20.6805C23.9614 21.0061 23.6975 21.2701 23.3718 21.2703ZM25.7313 18.321C25.7334 18.5181 25.7689 18.7134 25.8362 18.8986L24.8404 19.6946C24.4681 19.1131 23.7812 18.8142 23.1019 18.9382L21.1436 15.9595C21.3186 15.7644 21.4477 15.5328 21.5216 15.2814L23.5128 14.8832C23.8925 15.7798 24.9257 16.2005 25.8236 15.8241L26.5513 16.8328C26.0416 17.1561 25.7323 17.7174 25.7313 18.321ZM26.3058 12.8698L27.4313 10.0558C27.4549 10.0567 27.4771 10.0628 27.5009 10.0628C27.572 10.06 27.6428 10.0528 27.7131 10.0414L28.4273 11.4661C27.8586 11.7729 27.5032 12.3661 27.5009 13.0122C27.5009 13.0361 27.5071 13.0583 27.508 13.082L26.7149 13.3991C26.6135 13.1983 26.4746 13.0186 26.3058 12.8698ZM27.5009 18.9109C27.1751 18.9109 26.9111 18.6468 26.9111 18.321C26.9114 17.9954 27.1753 17.7315 27.5009 17.7312C27.8267 17.7312 28.0908 17.9952 28.0908 18.321C28.0908 18.6468 27.8267 18.9109 27.5009 18.9109Z" fill="#56A1CC"/>
</g>
<defs>
<clipPath id="clip0">
<rect width="35.4031" height="35.4031" fill="white" transform="translate(0.652832 0.0244141)"/>
</clipPath>
</defs>
</svg>
