<svg width="36" height="36" viewBox="0 0 36 36" fill="none" xmlns="http://www.w3.org/2000/svg">
<g clip-path="url(#clip0)">
<path d="M21.6365 8.43295C21.6274 8.42382 21.6182 8.41468 21.6091 8.41468C18.9599 6.49625 18.3843 2.02906 18.3752 1.96511C18.3295 1.56315 17.9641 1.27995 17.5621 1.32563C17.1602 1.37131 16.877 1.73672 16.9227 2.13868C16.9501 2.33966 17.5439 7.09005 20.5494 9.44698C20.4581 9.77586 20.1109 10.4153 19.983 10.6437C19.8825 10.8264 19.8003 10.9726 19.7455 11.0913C19.7364 11.1096 19.7272 11.1279 19.7272 11.137C19.5811 11.5481 19.444 11.9592 19.307 12.3612C18.8228 13.8137 18.3661 15.1749 17.5347 16.3899C16.4568 17.9155 15.2052 19.2584 14.1912 19.9709C13.5152 20.4368 12.7661 20.7748 11.9804 21.122C11.2587 21.4509 10.5005 21.7797 9.78794 22.2365C9.40425 22.4832 9.03884 22.7572 8.69169 23.0496C7.9974 23.6159 7.33965 24.1458 6.52661 24.228C6.38958 24.2372 6.26168 24.2554 6.13379 24.2646C5.30247 24.3376 4.43461 24.4107 3.51193 24.9497C0.27801 26.859 0.351093 31.2531 0.387635 33.3634C0.39677 33.7654 0.716508 34.0851 1.11846 34.0851H1.1276C1.52956 34.076 1.84929 33.7471 1.84929 33.3451V33.336C1.78535 30.3853 2.04114 27.4893 4.23363 26.2013C4.86397 25.8358 5.47604 25.781 6.24341 25.7171C6.38044 25.708 6.51747 25.6897 6.6545 25.6805C7.89691 25.5618 8.79218 24.831 9.59609 24.1915C9.89756 23.9357 10.2173 23.6982 10.5553 23.4789C11.1856 23.077 11.8525 22.7755 12.5651 22.4649C13.3781 22.0995 14.2277 21.7249 15.0134 21.1768C16.676 20.0075 18.1559 18.0342 18.7223 17.2303C19.6724 15.8417 20.1931 14.307 20.6864 12.8271C20.8143 12.4434 20.9514 12.0506 21.0884 11.6577C21.1249 11.5938 21.1889 11.4659 21.262 11.3471C21.7827 10.4062 22.4952 9.11811 21.6365 8.43295Z" fill="#56A1CC"/>
<path d="M34.0974 10.8085C32.59 8.01303 30.1783 6.32299 27.1271 5.92103C27.1179 5.92103 27.1088 5.92103 27.0905 5.92103C26.9078 5.90276 26.7343 5.90276 26.5698 5.90276C26.2318 5.89363 25.9212 5.89363 25.7385 5.784C25.7294 5.784 25.7294 5.77487 25.7202 5.77487C25.1356 5.44599 22.8335 2.80587 22.7056 0.933119C22.6782 0.531162 22.331 0.229695 21.9291 0.257101C21.5271 0.284507 21.2256 0.631651 21.253 1.03361C21.4083 3.46362 23.9845 6.46916 24.9985 7.05382C25.5101 7.35529 26.0582 7.36442 26.5516 7.37356C26.6977 7.37356 26.8347 7.37356 26.9626 7.39183C29.5571 7.72984 31.5212 9.12755 32.8093 11.5302C33.8781 13.5399 34.4171 16.1618 34.3166 18.9298C34.0334 25.9092 30.5803 30.9702 24.5874 33.1901C22.8883 33.8296 16.9777 35.1177 12.2181 32.6511C12.2181 32.6511 12.209 32.6511 12.209 32.642C11.332 32.2035 10.5281 31.4727 9.65111 30.3308L9.64197 30.3125C8.95682 29.3898 8.02501 28.12 6.1888 28.8417C4.15161 29.6091 4.15161 32.5598 4.15161 33.8113C4.15161 34.2133 4.48048 34.5422 4.88244 34.5422C5.2844 34.5422 5.61327 34.2133 5.61327 33.8113C5.61327 32.9343 5.61327 30.6231 6.70952 30.2029H6.71865C7.44035 29.9197 7.71441 30.148 8.47264 31.1712L8.49091 31.1895L8.50005 31.1986C9.50494 32.5232 10.4824 33.3911 11.5604 33.9301C13.625 34.9989 16.0367 35.5379 18.7225 35.5379C19.0971 35.5379 19.4716 35.5288 19.8553 35.5105C22.3219 35.3735 24.3225 34.8345 25.099 34.533C28.406 33.3089 31.0096 31.2991 32.855 28.5494C34.6364 25.891 35.623 22.657 35.7691 18.9572C35.8788 15.9334 35.285 13.0466 34.0974 10.8085Z" fill="#56A1CC"/>
<path d="M31.9048 17.7786C31.786 17.5046 31.3749 16.7098 30.5801 16.6002C30.571 16.6002 30.5619 16.6002 30.5527 16.6002C30.1599 16.5636 29.4017 16.6641 28.7531 17.8061C27.2275 20.1538 24.8705 21.4237 23.1531 22.0814C20.4307 23.1411 17.6719 23.3238 14.7485 23.5065C13.9994 23.5522 13.1224 23.6436 12.282 23.9816C10.9574 24.484 10.0256 25.4889 9.73322 26.7405C9.44089 27.992 9.81544 29.3075 10.7747 30.3581C11.4233 31.0523 12.3459 31.6096 13.5884 32.0664C15.0957 32.6145 16.6944 32.8977 18.3022 32.8886C19.4715 32.8886 20.6409 32.7424 21.7828 32.4683C24.359 31.8471 26.8346 30.4677 28.9358 28.4762C30.5253 26.9414 31.5668 25.3701 32.124 23.6618C32.8366 21.6795 32.7544 19.5418 31.9048 17.7786ZM30.7354 23.1777C30.7354 23.1868 30.7263 23.1959 30.7263 23.1959C30.2421 24.6759 29.3286 26.0553 27.9126 27.4165C26.0033 29.2344 23.756 30.486 21.4265 31.0523C18.9143 31.6553 16.3746 31.5365 14.0817 30.6961C13.0768 30.3215 12.3185 29.8739 11.8435 29.3623C11.2223 28.6863 10.9665 27.855 11.1492 27.0785C11.3319 26.302 11.9348 25.6716 12.8027 25.3427C12.8118 25.3427 12.8118 25.3427 12.821 25.3336C13.4787 25.0687 14.2096 24.9956 14.8399 24.9591C17.7358 24.7763 20.7413 24.5845 23.6647 23.4426C27.1452 22.118 29.018 20.0716 29.9772 18.5826C29.9863 18.5734 29.9955 18.5552 30.0046 18.5369C30.0868 18.3633 30.2147 18.208 30.3609 18.0801C30.4431 18.1715 30.5071 18.272 30.5527 18.3816C30.5527 18.3907 30.5619 18.3999 30.571 18.409C31.2562 19.825 31.3201 21.5607 30.7354 23.1777Z" fill="#56A1CC"/>
</g>
<defs>
<clipPath id="clip0">
<rect width="35.4031" height="35.4031" fill="white" transform="translate(0.378906 0.194824)"/>
</clipPath>
</defs>
</svg>
