<svg width="44" height="44" viewBox="0 0 44 44" fill="none" xmlns="http://www.w3.org/2000/svg">
<g clip-path="url(#clip0)">
<path d="M42.0863 14.1353C41.9333 13.8232 41.5562 13.694 41.2436 13.8473C40.9313 14.0005 40.8025 14.3778 40.9556 14.6901C42.216 17.2591 42.4806 19.9022 42.4806 21.667C42.4806 24.0519 41.9858 28.5477 38.6725 31.861C37.6143 32.9192 36.2074 33.502 34.7108 33.502C33.2144 33.502 31.8074 32.9192 30.7492 31.861C29.6909 30.8028 29.1082 29.3959 29.1082 27.8993C29.1082 26.9452 29.346 26.0281 29.7919 25.214C29.805 25.194 29.8165 25.1731 29.8272 25.1517C30.0751 24.7127 30.3829 24.304 30.7491 23.9377C30.9682 23.7187 31.1502 23.4796 31.2953 23.2249C31.2976 23.2209 31.3 23.2171 31.3022 23.213C31.338 23.1495 31.372 23.0852 31.4031 23.0198C32.0559 23.4167 32.4468 24.0236 32.6391 24.3993C32.7506 24.617 32.9712 24.7421 33.2001 24.7421C33.2967 24.7421 33.3947 24.7198 33.4866 24.6727C33.7963 24.5142 33.9186 24.1348 33.7601 23.8252C33.276 22.8799 32.5564 22.1599 31.7026 21.7524C31.7034 21.7239 31.7046 21.6956 31.7046 21.667C31.7046 21.5096 31.6933 21.3547 31.6714 21.2029C32.5396 20.7985 33.2686 20.0748 33.7601 19.1149C33.9186 18.8053 33.7961 18.4259 33.4865 18.2674C33.1768 18.1088 32.7975 18.2313 32.639 18.5409C32.4288 18.9515 31.9891 19.6247 31.2385 20.0124C31.2099 19.9661 31.1799 19.9203 31.1487 19.8751C31.1413 19.8642 31.1338 19.8535 31.1258 19.843C31.0152 19.6868 30.8901 19.5372 30.7491 19.3964C28.5646 17.2119 28.5646 13.6575 30.7491 11.473C31.8072 10.4148 33.2142 9.83202 34.7107 9.83202C36.2072 9.83202 37.6142 10.4148 38.6725 11.4731C38.9422 11.7428 39.2021 12.03 39.4451 12.3269C39.6653 12.5961 40.0622 12.6357 40.3312 12.4153C40.6004 12.195 40.6401 11.7983 40.4197 11.5292C40.1504 11.2 39.8621 10.8816 39.5631 10.5825C36.8875 7.9069 32.534 7.90698 29.8586 10.5825C27.6011 12.84 27.2484 16.292 28.8005 18.9228L27.9485 18.625C27.044 18.3088 26.2844 17.6764 25.8098 16.844L24.6337 14.782C24.2996 14.1962 24.1231 13.5303 24.1231 12.856V5.62023C24.1231 4.59528 23.3374 3.75539 22.3342 3.7082C21.8142 3.68385 21.3225 3.86748 20.9473 4.22542C20.5775 4.57832 20.3653 5.07379 20.3653 5.58496V12.8561C20.3653 13.5303 20.1887 14.1963 19.8547 14.782L18.6788 16.8439C18.2041 17.6763 17.4444 18.3088 16.54 18.6249L15.6921 18.9212C16.3109 17.8761 16.6417 16.6809 16.6417 15.4345C16.6417 13.6016 15.9279 11.8784 14.6318 10.5823C13.3358 9.28626 11.6126 8.5724 9.77963 8.5724C7.9467 8.5724 6.22342 9.28618 4.92744 10.5823C1.29315 14.2168 0.750488 19.0872 0.750488 21.667C0.750488 23.9063 1.17106 28.1878 3.98789 31.7024C4.20535 31.9738 4.60175 32.0176 4.87312 31.8C5.14449 31.5825 5.18815 31.1862 4.97068 30.9148C2.39459 27.7006 2.00995 23.7411 2.00995 21.667C2.00995 19.2821 2.50466 14.7864 5.81805 11.473C6.87624 10.4148 8.28314 9.83202 9.77972 9.83202C11.2762 9.83202 12.6832 10.4148 13.7414 11.473C14.7996 12.5312 15.3824 13.9381 15.3824 15.4347C15.3824 16.9313 14.7997 18.3382 13.7414 19.3964C13.6007 19.5371 13.4758 19.6863 13.3653 19.8422C13.3573 19.8525 13.3499 19.8632 13.3426 19.8739C13.3112 19.9195 13.2808 19.9656 13.252 20.0124C12.5014 19.6247 12.0617 18.9515 11.8514 18.5408C11.6929 18.2313 11.3134 18.1089 11.0039 18.2674C10.6943 18.4259 10.5719 18.8053 10.7304 19.1149C11.222 20.0748 11.951 20.7985 12.8191 21.2028C12.7972 21.3547 12.786 21.5096 12.786 21.6669C12.786 21.6955 12.7873 21.7238 12.788 21.7524C11.9341 22.1599 11.2145 22.8798 10.7304 23.8252C10.5719 24.1348 10.6944 24.5142 11.0039 24.6727C11.0959 24.7198 11.1938 24.7421 11.2904 24.7421C11.5193 24.7421 11.7399 24.6169 11.8514 24.3993C12.0438 24.0236 12.4346 23.4167 13.0875 23.0198C13.1202 23.0886 13.1561 23.1562 13.194 23.2228C13.1987 23.2313 13.2035 23.2398 13.2086 23.248C13.3515 23.494 13.529 23.7253 13.7413 23.9376C14.1074 24.3037 14.415 24.7122 14.6628 25.151C14.6737 25.1727 14.6855 25.1941 14.6988 25.2145C15.1445 26.0284 15.3822 26.9455 15.3822 27.8993C15.3822 29.3958 14.7995 30.8028 13.7412 31.861C11.9546 33.6475 9.17887 34.0175 6.99119 32.7606C6.68959 32.5873 6.3047 32.6913 6.1314 32.9929C5.95818 33.2945 6.06221 33.6794 6.36373 33.8527C7.42654 34.4632 8.60237 34.7605 9.77107 34.7605C11.5496 34.7605 13.3114 34.072 14.6317 32.7516C15.9278 31.4555 16.6416 29.7323 16.6416 27.8994C16.6416 27.2042 16.5384 26.5251 16.3402 25.8788L16.429 25.9066C16.9847 26.0806 17.358 26.5888 17.358 27.1711V37.4368C17.358 38.4728 18.2009 39.3156 19.2369 39.3156C20.2729 39.3156 21.1159 38.4728 21.1159 37.4368V27.1711C21.1159 24.9375 19.6838 22.9883 17.5523 22.3205L17.4486 22.288L17.7799 22.1722C19.5404 21.5567 21.0189 20.3256 21.9428 18.7056L22.2441 18.1774L22.5453 18.7054C23.4693 20.3256 24.9477 21.5567 26.7084 22.1722L27.0406 22.2883L26.9379 22.3205C24.8064 22.9882 23.3744 24.9375 23.3744 27.1711V37.4368C23.3744 38.4728 24.2172 39.3156 25.2533 39.3156C26.2893 39.3156 27.1321 38.4728 27.1321 37.4368V27.1711C27.1321 26.5888 27.5054 26.0806 28.0612 25.9066L28.1499 25.8788C27.9518 26.5251 27.8486 27.2042 27.8486 27.8994C27.8486 29.7323 28.5624 31.4556 29.8583 32.7516C31.1963 34.0895 32.9531 34.7584 34.7106 34.7582C36.4676 34.7581 38.2252 34.0892 39.5628 32.7516C43.1974 29.1173 43.74 24.2467 43.74 21.667C43.74 19.7688 43.4531 16.9214 42.0863 14.1353ZM19.8566 27.1711V37.4368C19.8566 37.7783 19.5786 38.0562 19.2371 38.0562C18.8955 38.0562 18.6177 37.7783 18.6177 37.4368V27.1711C18.6177 26.0353 17.8895 25.0442 16.8056 24.7046L15.6501 24.3428C15.4066 23.9424 15.1197 23.5655 14.793 23.2163L15.4572 22.9841L17.1758 23.5224C18.7793 24.0246 19.8566 25.491 19.8566 27.1711ZM23.6394 18.0815L22.9003 16.7854C22.7661 16.5503 22.5146 16.4043 22.244 16.4044C21.9734 16.4045 21.722 16.5505 21.5881 16.7855L20.8488 18.0816C20.0755 19.4376 18.8379 20.4681 17.3643 20.9832L14.1008 22.1239C14.0652 21.9772 14.0452 21.8252 14.0452 21.6669C14.0452 21.3353 14.1238 21.0284 14.2791 20.7494L16.9555 19.8138C18.1469 19.3974 19.1474 18.5643 19.7728 17.4679L20.9487 15.406C21.3909 14.6305 21.6247 13.7488 21.6247 12.8561V5.58496C21.6247 5.41393 21.6929 5.25473 21.8166 5.13668C21.9403 5.01871 22.1034 4.95825 22.2748 4.96623C22.5994 4.98151 22.8635 5.27488 22.8635 5.62023V12.8559C22.8635 13.7486 23.0972 14.6304 23.5396 15.4059L24.7156 17.4679C25.3407 18.5642 26.3412 19.3974 27.5328 19.8138L30.2118 20.7502C30.3667 21.029 30.4451 21.3356 30.4451 21.6669C30.4451 21.8254 30.4249 21.9777 30.3893 22.1246L27.124 20.9833C25.6504 20.4682 24.4129 19.4377 23.6394 18.0815ZM27.6848 24.7046C26.601 25.0442 25.8727 26.0353 25.8727 27.1711V37.4368C25.8727 37.7783 25.5948 38.0562 25.2533 38.0562C24.9119 38.0562 24.6339 37.7783 24.6339 37.4368V27.1711C24.6339 25.491 25.7112 24.0246 27.3146 23.5224L29.0322 22.9845L29.697 23.2168C29.3705 23.5658 29.0837 23.9426 28.8403 24.3427L27.6848 24.7046Z" fill="#56A1CC"/>
</g>
<defs>
<clipPath id="clip0">
<rect width="42.9895" height="42.9895" fill="white" transform="translate(0.750488 0.0161133)"/>
</clipPath>
</defs>
</svg>
