<svg width="38" height="38" viewBox="0 0 38 38" fill="none" xmlns="http://www.w3.org/2000/svg">
<g clip-path="url(#clip0)">
<path d="M1.91376 32.483C1.64516 32.483 1.37583 32.3938 1.15134 32.2174C0.731263 31.8874 0.577836 31.3488 0.760456 30.8453C1.54172 28.6876 3.84384 24.7626 5.12761 23.7053C7.22792 21.9753 10.2542 21.3442 14.3789 21.7765C17.5303 22.1065 20.5878 20.9139 22.5591 18.587C23.4101 17.5824 24.1212 16.3624 24.6732 14.9602C23.8727 13.9944 23.3837 12.7733 23.2948 11.5157C23.2017 10.1986 23.5322 8.91463 24.2508 7.8024C25.1502 6.40996 26.9297 4.87432 28.7843 3.89008C31.0507 2.6873 33.0256 2.49461 34.3456 3.3473C37.2875 5.24782 36.1479 11.7305 34.4352 14.3816C34.3932 14.4465 34.3503 14.5103 34.3064 14.573C34.1343 14.8187 33.7955 14.8784 33.5498 14.7062C33.3041 14.5341 33.2443 14.1953 33.4165 13.9496C33.4527 13.8979 33.4882 13.8453 33.5227 13.7918C34.3164 12.5631 34.9316 10.4648 35.0533 8.57069C35.1895 6.45176 34.7167 4.88062 33.7561 4.26003C32.7956 3.63973 31.1692 3.85466 29.2938 4.84998C27.6172 5.73975 25.9573 7.16319 25.1635 8.39198C23.9685 10.2419 24.1176 12.6147 25.5345 14.2964C25.7722 14.5785 25.8378 14.9646 25.7056 15.3039C25.1071 16.8398 24.3275 18.1807 23.3882 19.2894C21.1844 21.8907 17.7737 23.2249 14.2659 22.8573C10.445 22.457 7.68234 23.0088 5.81847 24.5441C4.78237 25.3973 2.55681 29.0759 1.78207 31.2155C1.77222 31.2426 1.74947 31.3055 1.82264 31.363C1.8469 31.3821 1.91058 31.4216 1.97642 31.378H1.97635C1.97621 31.378 1.98512 31.3705 2.0033 31.3491L5.39151 27.3727C5.39694 27.3663 5.40245 27.3601 5.40817 27.354C6.55098 26.1315 8.08894 25.3136 9.73868 25.051C11.0748 24.8381 12.5641 24.8078 14.0455 24.9632C18.2501 25.4038 22.3466 23.7947 25.0033 20.6587C25.9816 19.504 26.8074 18.142 27.4577 16.6108C27.6405 16.1806 28.0893 15.9318 28.5489 16.0059C29.6775 16.1874 30.8448 15.9722 31.8361 15.3996C32.0959 15.2495 32.4282 15.3383 32.5783 15.5982C32.7284 15.858 32.6395 16.1903 32.3797 16.3404C31.19 17.0278 29.7916 17.2924 28.4355 17.0878C27.7458 18.6985 26.8702 20.1359 25.8324 21.3609C23.2576 24.4002 19.4439 26.1213 15.4152 26.1215C14.9233 26.1215 14.4286 26.0958 13.932 26.0438C12.5442 25.898 11.1532 25.9257 9.90956 26.124C8.50126 26.3482 7.18808 27.0451 6.21029 28.087L2.83034 32.0538C2.74943 32.1488 2.66685 32.2237 2.57796 32.2827C2.37651 32.4167 2.14535 32.483 1.91376 32.483Z" fill="#56A1CC"/>
<path d="M2.33713 22.3395C2.13742 22.3395 1.93929 22.2655 1.78507 22.1214C1.51038 21.8647 1.44852 21.4712 1.63106 21.1421C2.57227 19.4466 3.72138 16.672 3.79222 15.6356C4.02946 12.1649 5.84269 8.96202 8.64914 7.0452C8.36417 5.01929 9.30276 3.03865 11.0608 1.9764C11.1057 1.94916 11.1523 1.922 11.1999 1.89505C11.461 1.74749 11.7926 1.8392 11.9404 2.10027C12.0881 2.36141 11.9962 2.6929 11.7351 2.84074C11.697 2.86233 11.6597 2.88414 11.6232 2.90609C10.2158 3.75652 9.47582 5.35418 9.73769 6.97646C9.79492 7.33148 9.64004 7.68926 9.34304 7.88775C6.76318 9.61144 5.09338 12.5355 4.87635 15.7097C4.80268 16.7863 3.93442 18.9556 3.13962 20.5889C3.76332 20.0609 4.33675 19.4392 4.85252 18.7308C5.69151 17.577 6.27356 16.2101 6.58245 14.6682C7.01694 12.4982 8.21856 10.6092 9.96602 9.34892C10.3096 9.10104 10.7776 9.12103 11.1041 9.39768C12.4194 10.5119 14.2948 10.6609 15.7708 9.769C17.8497 8.5121 20.4066 4.65166 19.3576 2.91637C18.6098 1.67867 16.0023 1.55603 13.8134 2.07441C13.5209 2.14359 13.2286 1.96285 13.1596 1.67099C13.0904 1.37899 13.2711 1.08626 13.563 1.01715C14.8786 0.705591 16.2239 0.615767 17.3512 0.764195C18.7552 0.948988 19.7706 1.49888 20.2875 2.35439C20.9767 3.49437 20.7695 5.15229 19.704 7.02268C18.8393 8.54057 17.516 9.98364 16.3329 10.6989C14.493 11.811 12.1641 11.6496 10.498 10.3064C9.02981 11.405 8.01964 13.0246 7.64781 14.8815C7.308 16.5782 6.66314 18.0885 5.73114 19.3701C4.88374 20.534 3.88994 21.4891 2.77742 22.209C2.64217 22.2965 2.48918 22.3395 2.33713 22.3395Z" fill="#56A1CC"/>
<path d="M12.1757 37.5199C11.8903 37.5199 11.6262 37.3685 11.4799 37.1062C11.2988 36.7816 11.3617 36.3768 11.6332 36.1217C12.6016 35.2146 13.7682 34.4808 15.1012 33.9401C16.5685 33.3453 18.1896 33.084 19.9194 33.1631C20.2214 33.177 20.5266 33.1734 20.8272 33.1521C21.1252 33.1312 21.3863 33.3565 21.4074 33.6558C21.4286 33.9551 21.2031 34.2149 20.9037 34.236C20.5613 34.2602 20.2134 34.2644 19.8696 34.2486C18.2981 34.1766 16.8306 34.4116 15.5096 34.9471C14.6986 35.2761 13.9571 35.6823 13.2941 36.1602C15.0706 35.7833 17.3842 35.4645 18.4477 35.6528C21.7051 36.2305 25.0312 35.2352 27.3455 32.9912C27.7055 32.642 28.0714 32.2626 28.4639 31.8316C28.7429 31.5253 29.1948 31.4487 29.5628 31.6448C31.131 32.4813 33.0292 32.1971 34.2861 30.9377C36.0021 29.2182 37.5561 24.8561 36.1208 23.4233C34.6854 21.9911 30.3265 23.5532 28.6101 25.2724C27.481 26.404 27.1314 28.0959 27.7196 29.5826C27.8461 29.9025 27.7823 30.2608 27.5533 30.518C27.0964 31.0307 26.6739 31.4743 26.2617 31.8739C25.4427 32.6682 24.477 33.2796 23.3915 33.6911C23.1112 33.7974 22.7973 33.6563 22.691 33.3757C22.5846 33.0951 22.7259 32.7814 23.0064 32.6751C23.9525 32.3165 24.7932 31.7845 25.5052 31.0939C25.8765 30.734 26.2579 30.3352 26.6688 29.877C25.9785 28.0137 26.4325 25.9165 27.8411 24.5049C28.8179 23.5264 30.5349 22.5856 32.2155 22.1079C34.2858 21.5192 35.9454 21.7133 36.8885 22.6543C37.8314 23.5955 38.0286 25.2548 37.4439 27.3266C36.9693 29.0081 36.0317 30.7268 35.0552 31.7053C34.2674 32.4947 33.2687 32.9946 32.1672 33.1506C31.1476 33.2951 30.0901 33.1231 29.1731 32.6663C28.8004 33.072 28.4492 33.4343 28.102 33.7712C25.5378 36.2575 21.8583 37.3608 18.258 36.7227C17.2339 36.5414 14.2642 36.9866 12.3928 37.4908C12.32 37.5104 12.2472 37.5199 12.1757 37.5199Z" fill="#56A1CC"/>
<path d="M18.1422 29.487C17.8421 29.487 17.5989 29.2437 17.5989 28.9437C17.5989 28.6436 17.8421 28.4004 18.1422 28.4004C18.4422 28.4004 18.6855 28.6436 18.6855 28.9437C18.6855 29.2438 18.4423 29.487 18.1422 29.487Z" fill="#56A1CC"/>
<path d="M33.6695 35.7887C33.3695 35.7887 33.1262 35.5455 33.1262 35.2454C33.1262 34.9454 33.3695 34.7021 33.6695 34.7021C33.9696 34.7021 34.2128 34.9454 34.2128 35.2454C34.2128 35.5455 33.9696 35.7887 33.6695 35.7887Z" fill="#56A1CC"/>
<path d="M6.46493 34.6242C6.16488 34.6242 5.92163 34.3809 5.92163 34.0809C5.92163 33.7808 6.16488 33.5376 6.46493 33.5376C6.76497 33.5376 7.00822 33.7808 7.00822 34.0809C7.00822 34.3809 6.76497 34.6242 6.46493 34.6242Z" fill="#56A1CC"/>
<path d="M34.213 18.8273C33.9129 18.8273 33.6697 18.5841 33.6697 18.284C33.6697 17.984 33.9129 17.7407 34.213 17.7407C34.513 17.7407 34.7563 17.984 34.7563 18.284C34.7563 18.5841 34.5131 18.8273 34.213 18.8273Z" fill="#56A1CC"/>
<path d="M24.098 3.57439C23.7979 3.57439 23.5547 3.33113 23.5547 3.03109C23.5547 2.73104 23.7979 2.48779 24.098 2.48779C24.398 2.48779 24.6413 2.73104 24.6413 3.03109C24.6413 3.33121 24.398 3.57439 24.098 3.57439Z" fill="#56A1CC"/>
<path d="M19.7721 14.0788C19.472 14.0788 19.2288 13.8355 19.2288 13.5355C19.2288 13.2354 19.472 12.9922 19.7721 12.9922C20.0721 12.9922 20.3154 13.2354 20.3154 13.5355C20.3154 13.8355 20.0722 14.0788 19.7721 14.0788Z" fill="#56A1CC"/>
<path d="M12.9498 18.1828C12.6497 18.1828 12.4065 17.9395 12.4065 17.6395C12.4065 17.3394 12.6497 17.0962 12.9498 17.0962C13.2498 17.0962 13.4931 17.3394 13.4931 17.6395C13.4931 17.9395 13.2499 18.1828 12.9498 18.1828Z" fill="#56A1CC"/>
<path d="M36.1624 2.96794C35.8624 2.96794 35.6191 2.72469 35.6191 2.42464C35.6191 2.1246 35.8624 1.88135 36.1624 1.88135C36.4625 1.88135 36.7057 2.1246 36.7057 2.42464C36.7057 2.72469 36.4625 2.96794 36.1624 2.96794Z" fill="#56A1CC"/>
<path d="M4.70101 5.26921C4.40097 5.26921 4.15771 5.02596 4.15771 4.72591C4.15771 4.42587 4.40097 4.18262 4.70101 4.18262C5.00106 4.18262 5.24431 4.42587 5.24431 4.72591C5.24431 5.02596 5.00106 5.26921 4.70101 5.26921Z" fill="#56A1CC"/>
</g>
<defs>
<clipPath id="clip0">
<rect width="37.089" height="37.089" fill="white" transform="translate(0.684082 0.5625)"/>
</clipPath>
</defs>
</svg>
