<svg width="40" height="40" viewBox="0 0 40 40" fill="none" xmlns="http://www.w3.org/2000/svg">
<g clip-path="url(#clip0)">
<path d="M3.22949 38.3594C2.90582 38.3594 2.64355 38.6216 2.64355 38.9453V39.4141C2.64355 39.7377 2.90582 40 3.22949 40C3.55316 40 3.81543 39.7377 3.81543 39.4141V38.9453C3.81543 38.6216 3.55316 38.3594 3.22949 38.3594Z" fill="#56A1CC"/>
<path d="M5.27533 29.2755C5.38697 29.3749 5.52603 29.4237 5.66455 29.4237C5.82595 29.4237 5.98673 29.3573 6.10244 29.2272C6.28033 29.0273 6.46908 28.8332 6.66345 28.6502C6.89908 28.4285 6.91025 28.0577 6.68845 27.822C6.46666 27.5863 6.0958 27.5752 5.86017 27.797C5.6408 28.0035 5.42775 28.2225 5.22705 28.4481C5.01197 28.6899 5.03353 29.0604 5.27533 29.2755Z" fill="#56A1CC"/>
<path d="M4.28454 30.8124C3.98868 30.6816 3.64259 30.8151 3.51157 31.1111C3.38939 31.3872 3.27829 31.6722 3.18134 31.958C3.07743 32.2645 3.24157 32.5972 3.54806 32.7011C3.6104 32.7222 3.67384 32.7322 3.73626 32.7322C3.9804 32.7322 4.20837 32.5784 4.2911 32.3343C4.37681 32.0816 4.47501 31.8296 4.58314 31.5853C4.71415 31.2894 4.58048 30.9433 4.28454 30.8124Z" fill="#56A1CC"/>
<path d="M9.30979 25.6526C9.02674 25.7579 8.74525 25.8771 8.47314 26.0069C8.18111 26.1462 8.05729 26.496 8.19666 26.788C8.29713 26.9987 8.50705 27.1218 8.7258 27.1218C8.81041 27.1218 8.89635 27.1034 8.97775 27.0645C9.21861 26.9496 9.46768 26.8442 9.71814 26.7511C10.0215 26.6384 10.176 26.3009 10.0632 25.9977C9.95049 25.6944 9.61291 25.5398 9.30979 25.6526Z" fill="#56A1CC"/>
<path d="M3.23902 34.504C3.23613 34.5039 3.23324 34.5039 3.23035 34.5039C2.91074 34.5039 2.64926 34.7606 2.64465 35.0813C2.64387 35.1313 2.64355 35.1814 2.64355 35.2316V35.9466C2.64355 36.2703 2.90582 36.5326 3.22949 36.5326C3.55316 36.5326 3.81543 36.2703 3.81543 35.9466V35.2316C3.81543 35.1871 3.81574 35.1427 3.81637 35.0984C3.82113 34.7748 3.56262 34.5088 3.23902 34.504Z" fill="#56A1CC"/>
<path d="M12.4697 26.1977C12.5972 26.1922 12.7277 26.1895 12.8576 26.1895H12.9133C13.1631 26.1895 13.3854 26.0312 13.4671 25.7952C13.5487 25.5592 13.4718 25.2973 13.2755 25.1429C13.161 25.0529 13.0475 24.9588 12.9383 24.8632C12.6947 24.6501 12.3245 24.6749 12.1115 24.9185C12.0219 25.021 11.9743 25.146 11.9675 25.2721C11.8942 25.3746 11.8534 25.5017 11.8592 25.6374C11.8727 25.9521 12.1321 26.1982 12.4441 26.1982C12.4525 26.1982 12.4611 26.1981 12.4697 26.1977Z" fill="#56A1CC"/>
<path d="M10.7468 23.704C10.8471 23.704 10.9489 23.6782 11.0417 23.624C11.3212 23.4607 11.4154 23.1019 11.2522 22.8225C11.1248 22.6045 11.0064 22.3782 10.8999 22.15C10.7632 21.8567 10.4144 21.7298 10.1212 21.8665C9.82795 22.0032 9.701 22.3519 9.83771 22.6452C9.95936 22.906 10.0947 23.1645 10.2401 23.4135C10.3492 23.6 10.5453 23.704 10.7468 23.704Z" fill="#56A1CC"/>
<path d="M10.1442 19.1663C10.1254 18.8587 9.87153 18.6181 9.56332 18.616L9.09465 18.6128C9.09317 18.6128 9.09192 18.6128 9.09051 18.6128C8.76879 18.6128 8.50684 18.8725 8.50465 19.1947C8.50262 19.4975 8.73051 19.7481 9.02481 19.781C9.07825 20.0565 9.32051 20.2549 9.59926 20.2549C9.62137 20.2549 9.64379 20.2536 9.66629 20.2511C9.98778 20.2144 10.2188 19.924 10.1822 19.6026C10.1658 19.4588 10.153 19.312 10.1442 19.1663Z" fill="#56A1CC"/>
<path d="M7.01352 19.77L7.48227 19.7732H7.48641C7.80812 19.7732 8.07008 19.5135 8.07227 19.1913C8.07422 18.9032 7.86797 18.6623 7.5943 18.6113C7.54523 18.3373 7.3057 18.1294 7.01758 18.1294C6.69391 18.1294 6.43164 18.3917 6.43164 18.7153V19.1841C6.43164 19.5061 6.69156 19.7678 7.01352 19.77Z" fill="#56A1CC"/>
<path d="M17.9113 1.18147C17.9195 1.18147 17.9276 1.18131 17.9357 1.181C18.2258 1.16897 18.5239 1.16881 18.8167 1.18045C19.1389 1.19186 19.4127 0.941468 19.4255 0.618265C19.4383 0.294827 19.1866 0.0223274 18.8633 0.00951488C18.5392 -0.00345387 18.2091 -0.00306325 17.8877 0.0100618C17.5643 0.023343 17.313 0.296234 17.3262 0.619593C17.3392 0.934749 17.5988 1.18147 17.9113 1.18147Z" fill="#56A1CC"/>
<path d="M28.1913 7.48489C28.2897 7.70028 28.5022 7.82747 28.7246 7.82747C28.806 7.82747 28.8889 7.81036 28.9677 7.77427C29.2621 7.63974 29.3916 7.29216 29.2571 6.99786C29.1225 6.70325 28.9739 6.41052 28.8154 6.12763C28.6573 5.84536 28.3003 5.74497 28.0179 5.90286C27.7356 6.06099 27.635 6.41809 27.7931 6.70044C27.936 6.95544 28.0699 7.21942 28.1913 7.48489Z" fill="#56A1CC"/>
<path d="M25.2728 3.66832C25.4974 3.85558 25.7172 4.05441 25.9261 4.25926C26.0402 4.37121 26.1883 4.42691 26.3364 4.42691C26.4881 4.42691 26.64 4.36824 26.7547 4.25129C26.9814 4.02027 26.9778 3.64933 26.7467 3.42277C26.5154 3.19582 26.272 2.97551 26.0231 2.76816C25.7746 2.56105 25.4052 2.59449 25.1979 2.84308C24.9906 3.09168 25.0242 3.46113 25.2728 3.66832Z" fill="#56A1CC"/>
<path d="M10.4194 4.43533C10.5676 4.43533 10.7161 4.37939 10.8301 4.26728C11.0384 4.06251 11.258 3.86345 11.4828 3.67572C11.7312 3.4683 11.7644 3.09876 11.5569 2.8504C11.3494 2.60212 10.9798 2.56892 10.7316 2.77642C10.4826 2.98431 10.2394 3.20478 10.0087 3.43166C9.77788 3.65853 9.77476 4.02947 10.0016 4.26025C10.1162 4.37681 10.2677 4.43533 10.4194 4.43533Z" fill="#56A1CC"/>
<path d="M21.8357 1.7395C22.1128 1.83349 22.3892 1.94013 22.6572 2.05653C22.7332 2.0895 22.8123 2.10513 22.8902 2.10513C23.1165 2.10513 23.3321 1.97325 23.428 1.75231C23.5568 1.45552 23.4207 1.11036 23.1238 0.981532C22.8264 0.85247 22.5196 0.734032 22.2121 0.629736C21.9055 0.526064 21.5729 0.68997 21.4689 0.996376C21.365 1.30294 21.5292 1.63552 21.8357 1.7395Z" fill="#56A1CC"/>
<path d="M13.863 2.1095C13.9411 2.1095 14.0204 2.0938 14.0965 2.06067C14.364 1.94427 14.6399 1.83747 14.9166 1.74325C15.2229 1.63888 15.3867 1.30599 15.2824 0.999659C15.1781 0.693331 14.845 0.529815 14.5388 0.633878C14.2318 0.738487 13.9257 0.856925 13.6289 0.986144C13.3322 1.11528 13.1963 1.46052 13.3254 1.75724C13.4214 1.97778 13.6368 2.1095 13.863 2.1095Z" fill="#56A1CC"/>
<path d="M7.00292 11.8707C7.0144 11.8714 7.02581 11.8718 7.03722 11.8718C7.34526 11.8718 7.60362 11.6312 7.62159 11.3196C7.63854 11.0272 7.66768 10.7325 7.70815 10.4438C7.75315 10.1233 7.52995 9.82707 7.2094 9.78207C6.88972 9.73738 6.59269 9.96027 6.54769 10.2808C6.50269 10.6011 6.47042 10.9278 6.45167 11.2521C6.43308 11.575 6.67979 11.8521 7.00292 11.8707Z" fill="#56A1CC"/>
<path d="M7.79153 7.78574C7.87035 7.82168 7.95293 7.83871 8.03418 7.83871C8.25668 7.83871 8.46942 7.71129 8.5677 7.49566C8.68911 7.22941 8.82293 6.96504 8.96551 6.70988C9.1234 6.42738 9.02239 6.07035 8.73989 5.91254C8.45723 5.75449 8.10028 5.85566 7.94254 6.13816C7.78442 6.42113 7.63598 6.71433 7.50145 7.00949C7.36715 7.30402 7.49707 7.65152 7.79153 7.78574Z" fill="#56A1CC"/>
<path d="M7.01758 16.0499C7.34125 16.0499 7.60352 15.7877 7.60352 15.464V14.5352C7.60352 14.2115 7.34125 13.9492 7.01758 13.9492C6.69391 13.9492 6.43164 14.2115 6.43164 14.5352V15.464C6.43164 15.7877 6.69391 16.0499 7.01758 16.0499Z" fill="#56A1CC"/>
<path d="M30.332 14.5229C30.332 14.1993 30.0698 13.937 29.7461 13.937C29.4224 13.937 29.1602 14.1993 29.1602 14.5229V15.4518C29.1602 15.7755 29.4224 16.0377 29.7461 16.0377C30.0698 16.0377 30.332 15.7755 30.332 15.4518V14.5229Z" fill="#56A1CC"/>
<path d="M29.0537 10.4318C29.0946 10.7208 29.124 11.0156 29.1413 11.3077C29.1596 11.619 29.4178 11.8591 29.7257 11.8591C29.7372 11.8591 29.749 11.8588 29.7607 11.8581C30.0838 11.839 30.3302 11.5616 30.3111 11.2386C30.292 10.9147 30.2593 10.5881 30.2139 10.2675C30.1686 9.94716 29.8723 9.72427 29.5517 9.7695C29.2314 9.81489 29.0084 10.1114 29.0537 10.4318Z" fill="#56A1CC"/>
<path d="M29.7461 18.1294C29.458 18.1294 29.2185 18.3373 29.1694 18.6113C28.8957 18.6622 28.6894 18.9032 28.6914 19.1913C28.6936 19.5135 28.9556 19.7732 29.2773 19.7732H29.2814L29.7502 19.77C30.0721 19.7678 30.332 19.5061 30.332 19.1841V18.7153C30.332 18.3917 30.0698 18.1294 29.7461 18.1294Z" fill="#56A1CC"/>
<path d="M27.7389 19.781C28.0333 19.7482 28.2612 19.4975 28.2591 19.1947C28.2569 18.8725 27.995 18.6128 27.6733 18.6128C27.6718 18.6128 27.6705 18.6128 27.6691 18.6128L27.2004 18.616C26.8922 18.6181 26.6383 18.8587 26.6195 19.1663C26.6107 19.312 26.5979 19.4588 26.5815 19.6026C26.5448 19.9241 26.7758 20.2145 27.0974 20.2512C27.1199 20.2537 27.1422 20.255 27.1644 20.255C27.4431 20.255 27.6855 20.0565 27.7389 19.781Z" fill="#56A1CC"/>
<path d="M26.1901 22.8495C26.2687 22.8851 26.351 22.902 26.4319 22.902C26.6548 22.902 26.8678 22.7742 26.9659 22.5581C27.0555 22.3605 27.1393 22.1573 27.215 21.9542C27.328 21.651 27.1738 21.3135 26.8706 21.2006C26.5672 21.0877 26.2299 21.2418 26.1169 21.545C26.0507 21.7229 25.9772 21.9009 25.8987 22.0739C25.765 22.3684 25.8954 22.7157 26.1901 22.8495Z" fill="#56A1CC"/>
<path d="M25.6822 23.6824C25.4284 23.4813 25.0598 23.5242 24.8591 23.7777C24.7685 23.892 24.6741 24.0049 24.5782 24.1136C24.3641 24.3563 24.3873 24.7266 24.6299 24.9406C24.7413 25.0389 24.8796 25.0872 25.0173 25.0872C25.1796 25.0872 25.3412 25.0202 25.457 24.8889C25.5663 24.7649 25.6742 24.6359 25.7775 24.5056C25.9785 24.2519 25.9358 23.8834 25.6822 23.6824Z" fill="#56A1CC"/>
<path d="M16.9604 33.1138C17.0791 33.1138 17.1931 33.1572 17.2817 33.2359C17.5954 33.5146 17.9885 33.6541 18.3818 33.654C18.7749 33.654 19.1682 33.5146 19.4816 33.236C19.5704 33.1571 19.6845 33.1138 19.8031 33.1138H22.3277C22.6513 33.1138 22.9136 32.8515 22.9136 32.5278C22.9136 32.2042 22.6513 31.9419 22.3277 31.9419H19.8031C19.3973 31.9419 19.0067 32.0903 18.7031 32.3601C18.5199 32.5231 18.2434 32.523 18.0602 32.3601C17.7569 32.0905 17.3663 31.9419 16.9603 31.9419H14.4358C14.1121 31.9419 13.8499 32.2042 13.8499 32.5278C13.8499 32.8515 14.1121 33.1138 14.4358 33.1138H16.9604Z" fill="#56A1CC"/>
<path d="M36.7701 30.0743C37.0937 30.0743 37.356 29.8121 37.356 29.4884V28.1735C37.356 27.0735 36.6101 26.1185 35.5416 25.8511L31.151 24.755C31.0579 24.7317 30.9604 24.7317 30.8672 24.755L26.4753 25.8512C25.6026 26.0698 24.9456 26.7481 24.7347 27.5892C24.4598 27.5596 24.1829 27.543 23.9059 27.543H21.8879V24.5983C23.9174 23.3958 25.2813 21.1835 25.2813 18.6584V18.2184H25.9581C26.9774 18.2184 27.8067 17.3891 27.8067 16.3697V11.9501C27.8067 11.8033 27.8036 11.672 27.7974 11.5485C27.781 11.2254 27.5074 10.9766 27.1826 10.9931C26.8594 11.0095 26.6107 11.2847 26.6271 11.6079C26.6323 11.7113 26.6349 11.8233 26.6349 11.9501V13.3873C26.4251 13.3045 26.197 13.2585 25.9582 13.2585H24.6954C24.3718 13.2585 24.1095 13.5207 24.1095 13.8444V15.6188L21.6386 11.7324C21.5486 11.5907 21.4022 11.4945 21.2365 11.4681C21.0704 11.4417 20.9016 11.4875 20.772 11.5941L18.8836 13.1469C18.4247 13.5242 17.8448 13.732 17.2508 13.732H14.6729C14.493 13.732 14.3232 13.8146 14.2122 13.9559L12.6545 15.9384V13.8444C12.6545 13.5207 12.3922 13.2585 12.0686 13.2585H10.8059C10.5669 13.2585 10.3387 13.3046 10.1289 13.3874V11.9501C10.1289 7.39979 13.8312 3.69775 18.382 3.69775C20.5868 3.69775 22.6593 4.55596 24.2176 6.11447C25.0615 6.9583 25.7234 7.99268 26.1319 9.10588C26.2434 9.40963 26.5797 9.56541 26.8839 9.45408C27.1877 9.3426 27.3436 9.00596 27.2321 8.70213C26.7654 7.43041 26.0096 6.24908 25.0463 5.28572C23.2665 3.50603 20.8997 2.52588 18.3819 2.52588C13.185 2.52588 8.95693 6.75354 8.95693 11.9501L8.95716 16.3698C8.95716 17.3892 9.78646 18.2185 10.8058 18.2185H11.4826V18.6585C11.4826 21.1838 12.8466 23.3963 14.8764 24.5987V27.5431H12.8576C8.96857 27.5431 5.68731 30.4506 5.22513 34.3061C5.18661 34.6274 5.41583 34.9192 5.73716 34.9576C5.76083 34.9605 5.78435 34.9619 5.80763 34.9619C6.10005 34.9619 6.35294 34.7432 6.38864 34.4456C6.78036 31.1787 9.56138 28.7149 12.8577 28.7149H15.4624C15.7861 28.7149 16.0483 28.4527 16.0483 28.129V25.1514C16.7776 25.4143 17.5633 25.558 18.3821 25.558C19.201 25.558 19.9869 25.4142 20.7163 25.1512V28.129C20.7163 28.4527 20.9786 28.7149 21.3022 28.7149H23.906C24.159 28.7149 24.4118 28.7313 24.6622 28.7605V32.9947C24.6622 35.1576 25.8322 37.1627 27.7156 38.2276L28.7794 38.8282H11.4705V37.8358C11.4705 37.5121 11.2083 37.2499 10.8846 37.2499C10.5609 37.2499 10.2986 37.5121 10.2986 37.8358V38.8282H6.34106V37.1095C6.34106 36.7858 6.0788 36.5235 5.75513 36.5235C5.43146 36.5235 5.16919 36.7858 5.16919 37.1095V39.4142C5.16919 39.7378 5.43146 40.0001 5.75513 40.0001H31.009C31.1083 40.0001 31.2078 39.9749 31.2972 39.9243L34.302 38.2274C36.1857 37.1628 37.3559 35.1577 37.3559 32.9946V32.2227C37.3559 31.899 37.0937 31.6367 36.77 31.6367C36.4463 31.6367 36.184 31.899 36.184 32.2227V32.9946C36.184 34.7359 35.2419 36.35 33.7255 37.2071L31.009 38.7412L28.292 37.2072C26.7759 36.3499 25.834 34.7357 25.834 32.9946V28.1735C25.834 27.612 26.2148 27.1245 26.7596 26.988L31.0091 25.9274L35.2575 26.9879C35.8031 27.1245 36.1841 27.612 36.1841 28.1735V29.4883C36.1841 29.8121 36.4464 30.0743 36.7701 30.0743ZM25.2813 14.4303H25.9581C26.3312 14.4303 26.6348 14.734 26.6348 15.1071V16.3698C26.6348 16.7429 26.3312 17.0466 25.9581 17.0466H25.2813V14.4303ZM10.1289 16.3698V15.1071C10.1289 14.734 10.4325 14.4303 10.8057 14.4303H11.4824V17.0466H10.8057C10.4325 17.0466 10.1289 16.7429 10.1289 16.3698ZM12.6543 18.6585V17.8352L14.9575 14.9038H17.2507C18.1155 14.9038 18.9597 14.6013 19.6278 14.0521L21.0048 12.9198L24.1094 17.803V18.6585C24.1094 21.8167 21.5401 24.386 18.3819 24.386C15.2236 24.386 12.6543 21.8167 12.6543 18.6585Z" fill="#56A1CC"/>
<path d="M29.7464 35.7959H32.2717C32.5954 35.7959 32.8577 35.5337 32.8577 35.21V33.9019H34.1658C34.4895 33.9019 34.7517 33.6396 34.7517 33.3159V30.7905C34.7517 30.4669 34.4895 30.2046 34.1658 30.2046H32.8578V28.8965C32.8578 28.5728 32.5955 28.3105 32.2718 28.3105H29.7464C29.4228 28.3105 29.1605 28.5728 29.1605 28.8965V30.2046H27.8523C27.5286 30.2046 27.2664 30.4669 27.2664 30.7905V33.3159C27.2664 33.6396 27.5286 33.9019 27.8523 33.9019H29.1604V35.21C29.1604 35.5337 29.4228 35.7959 29.7464 35.7959ZM28.4382 32.73V31.3765H29.7464C30.07 31.3765 30.3323 31.1142 30.3323 30.7905V29.4824H31.6858V30.7905C31.6858 31.1142 31.9481 31.3765 32.2717 31.3765H33.5799V32.73H32.2718C31.9482 32.73 31.6859 32.9923 31.6859 33.3159V34.6241H30.3324V33.3159C30.3324 32.9923 30.0701 32.73 29.7464 32.73H28.4382Z" fill="#56A1CC"/>
</g>
<defs>
<clipPath id="clip0">
<rect width="40" height="40" fill="white"/>
</clipPath>
</defs>
</svg>
