<svg width="60" height="60" viewBox="0 0 60 60" fill="none" xmlns="http://www.w3.org/2000/svg">
<g clip-path="url(#clip0)">
<path d="M52.6393 28.6892C52.8947 28.4041 52.9336 27.9683 52.733 27.6425L48.5591 20.8602C48.0828 20.0859 47.2221 19.605 46.313 19.605H20.4721C19.9865 19.605 19.593 19.9986 19.593 20.4841C19.593 20.9696 19.9865 21.3633 20.4721 21.3633H22.4753L18.4827 26.6416L14.5274 21.3633H16.3695C16.8551 21.3633 17.2486 20.9696 17.2486 20.4841C17.2486 19.9986 16.8551 19.605 16.3695 19.605H13.6987C12.7895 19.605 11.9288 20.086 11.4525 20.8602L7.27867 27.6425C7.07722 27.9698 7.11824 28.406 7.37453 28.6918L28.4822 52.1074C29.3707 53.0932 30.6444 52.8003 31.5294 52.1074L52.6371 28.6919C52.6378 28.691 52.6386 28.6902 52.6393 28.6892C52.6384 28.6901 52.6655 28.6598 52.6393 28.6892C52.6384 28.6901 52.8946 28.4041 52.6393 28.6892ZM50.4109 27.2242H43.3095L47.2416 22.074L50.4109 27.2242ZM30.0055 31.3268C29.5199 31.3268 29.1264 31.7204 29.1264 32.2059V48.568L19.8672 28.9824H40.1443L30.8847 48.5689V32.2059C30.8846 31.7204 30.4911 31.3268 30.0055 31.3268ZM39.765 27.2242H31.7732L35.7692 21.9413L39.765 27.2242ZM37.5364 21.3633H45.5721L41.5356 26.6503L37.5364 21.3633ZM20.2466 27.2242L24.2425 21.9413L28.2385 27.2242H20.2466ZM34.0018 21.3633L30.0058 26.6461L26.0098 21.3633H34.0018ZM12.8119 22.006L16.7221 27.2242H9.60074L12.8119 22.006ZM17.9223 28.9824L26.6553 47.4548L10.0035 28.9824H17.9223ZM33.3558 47.4554L42.089 28.9824H50.008L33.3558 47.4554Z" fill="#6AAF72"/>
<path d="M16.4348 44.2598L14.8707 41.0922C14.6219 40.5887 14.1185 40.2759 13.5569 40.2759H2.96665C2.40509 40.2759 1.90165 40.5887 1.65286 41.0923L0.0887631 44.2598C-0.0717838 44.5844 -0.0102603 44.9903 0.238646 45.2534L7.19794 52.6041C7.47333 52.895 7.86122 53.0619 8.26189 53.0619C8.66255 53.0619 9.05033 52.895 9.32583 52.6041H9.32595L16.2851 45.2534C16.5438 44.941 16.5937 44.6098 16.4348 44.2598ZM3.14876 42.0342H13.3747L14.2319 43.7699H2.29165L3.14876 42.0342ZM2.92001 45.5282H7.38263V50.242L2.92001 45.5282ZM9.14091 50.242V45.5282H13.6035L9.14091 50.242Z" fill="#6AAF72"/>
<path d="M2.88779 16.6114L3.73271 16.8766C4.92088 17.2497 5.85299 18.1818 6.22611 19.37L6.49131 20.2147C6.63768 20.6812 7.06459 20.9948 7.5535 20.9949H7.55385C8.04264 20.9949 8.46967 20.6815 8.61627 20.2148L8.88146 19.37C9.25459 18.1818 10.1867 17.2497 11.3749 16.8766L12.2197 16.6113C12.6863 16.4648 12.9998 16.0379 12.9998 15.5488C12.9998 15.0598 12.6862 14.6329 12.2198 14.4864L11.3749 14.2212C10.1867 13.8481 9.25459 12.916 8.88146 11.7279L8.61627 10.883C8.61627 10.8829 8.61627 10.8829 8.61627 10.8828C8.46967 10.4164 8.04275 10.103 7.55385 10.103C7.55373 10.103 7.55361 10.103 7.5535 10.103C7.06459 10.1031 6.63768 10.4166 6.49143 10.883L6.22611 11.7279C5.85299 12.9161 4.92088 13.8482 3.73271 14.2213L2.88779 14.4867C2.42127 14.6331 2.10791 15.0601 2.10791 15.5491C2.10791 16.0379 2.42139 16.4648 2.88779 16.6114ZM7.55385 13.1115C8.08775 14.1604 8.94228 15.0148 9.99111 15.5488C8.94217 16.0829 8.08764 16.9373 7.55385 17.9862C7.01982 16.9373 6.16529 16.0828 5.11646 15.5488C6.16541 15.0149 7.01994 14.1604 7.55385 13.1115Z" fill="#6AAF72"/>
<path d="M59.9227 44.2598L58.3586 41.0922C58.1098 40.5887 57.6064 40.2759 57.0448 40.2759H46.4547C45.8931 40.2759 45.3897 40.5887 45.1409 41.0923L43.5768 44.2598C43.4163 44.5844 43.4778 44.9903 43.7267 45.2534L50.6859 52.604C50.6859 52.604 51.1565 53.0619 51.7499 53.0619C52.1506 53.0619 52.5384 52.895 52.814 52.604L59.7732 45.2534C60.0127 44.9976 60.0626 44.6663 59.9227 44.2598ZM46.6367 42.0342H56.8626L57.7198 43.7699H45.7796L46.6367 42.0342ZM46.4079 45.5282H50.8706V50.242L46.4079 45.5282ZM52.6288 50.242V45.5282H57.0915L52.6288 50.242Z" fill="#6AAF72"/>
<path d="M47.8457 16.6114L48.6906 16.8766C49.8788 17.2497 50.8109 18.1818 51.1839 19.37L51.4492 20.215C51.5958 20.6814 52.0227 20.9948 52.5116 20.9948C53.0005 20.9948 53.4274 20.6814 53.574 20.2148L53.8393 19.3699C54.2124 18.1818 55.1445 17.2497 56.3326 16.8766L57.1774 16.6113C57.6441 16.4648 57.9576 16.0379 57.9576 15.5488C57.9576 15.0598 57.644 14.6329 57.1775 14.4864L56.3326 14.2212C55.1445 13.8481 54.2124 12.916 53.8393 11.7278L53.574 10.8828C53.4274 10.4164 53.0005 10.103 52.5116 10.103C52.0227 10.103 51.5958 10.4164 51.4492 10.8828V10.8829L51.1839 11.7278C50.8109 12.9159 49.8788 13.848 48.6906 14.2211L47.8458 14.4864C47.3791 14.6329 47.0657 15.0598 47.0657 15.5488C47.0656 16.0379 47.3791 16.4649 47.8457 16.6114ZM52.5116 13.1115C53.0455 14.1604 53.9 15.0148 54.9489 15.5488C53.8999 16.0829 53.0454 16.9373 52.5116 17.9862C51.9777 16.9373 51.1232 16.0829 50.0743 15.5488C51.1232 15.0148 51.9777 14.1604 52.5116 13.1115Z" fill="#6AAF72"/>
<path d="M25.3396 13.4464L26.1845 13.7115C27.3727 14.0847 28.3048 15.0168 28.6778 16.2049L28.9431 17.05C29.0897 17.5164 29.5166 17.8298 30.0055 17.8298C30.4944 17.8298 30.9213 17.5164 31.0679 17.0498L31.3332 16.2048C31.7063 15.0168 32.6384 14.0847 33.8265 13.7115L34.6713 13.4462C35.138 13.2997 35.4515 12.8728 35.4515 12.3838C35.4515 11.8948 35.1379 11.4679 34.6715 11.3214L33.8265 11.0562C32.6384 10.6831 31.7063 9.75096 31.3332 8.56279L31.0679 7.71775C30.9213 7.25135 30.4944 6.93799 30.0055 6.93799C29.5166 6.93799 29.0897 7.25135 28.9431 7.71775V7.71787L28.6778 8.56291C28.3048 9.75096 27.3727 10.6831 26.1845 11.0562L25.3397 11.3215C24.873 11.468 24.5596 11.8949 24.5596 12.3839C24.5596 12.873 24.8732 13.2999 25.3396 13.4464ZM30.0055 9.94643C30.5394 10.9954 31.394 11.8498 32.4428 12.3838C31.3938 12.9178 30.5393 13.7723 30.0055 14.8212C29.4716 13.7723 28.6171 12.9178 27.5682 12.3838C28.6172 11.8498 29.4717 10.9954 30.0055 9.94643Z" fill="#6AAF72"/>
</g>
<defs>
<clipPath id="clip0">
<rect width="60" height="60" fill="white"/>
</clipPath>
</defs>
</svg>
