<svg width="358" height="271" viewBox="0 0 358 271" fill="none" xmlns="http://www.w3.org/2000/svg">
<path d="M308.722 152.865C241.075 139.401 178.682 104.592 131.395 54.0207C121.215 43.184 107.423 36.9447 93.302 35.6312C78.8531 34.3176 66.7028 26.108 58.4932 14.2862C58.1648 13.6294 57.508 12.9726 57.1797 12.3158C47.9849 0.494001 31.5657 -3.11817 18.1019 3.44952C0.697492 11.9875 -4.88505 33.3325 5.29487 49.4234C7.26518 52.3788 9.56387 54.6775 11.8626 56.9762C22.6993 65.8426 29.267 79.3064 28.9386 93.7553C28.6102 108.533 33.8643 123.31 44.701 134.803C76.226 168.299 112.677 197.196 152.411 219.855C194.116 243.499 239.762 260.246 287.049 269.441C322.514 276.337 355.353 249.738 356.666 213.616V212.959C357.98 183.733 337.292 158.775 308.722 152.865Z" fill="url(#paint0_linear)"/>
<path d="M32.2229 5.09063C40.4325 5.09063 48.6421 9.03117 53.5679 15.2705C53.8963 15.9272 54.2246 16.2556 54.553 16.9124C63.7478 30.7046 77.8683 39.2426 92.974 40.5561C106.438 41.5413 118.916 47.7806 128.111 57.6322C175.727 108.532 239.762 143.997 308.066 157.79C334.665 163.044 353.055 186.359 352.398 212.958V213.615C351.413 242.513 327.441 265.828 298.871 265.828C295.259 265.828 291.975 265.5 288.363 264.843C241.404 255.648 196.415 239.229 155.367 215.914C115.961 193.583 79.8387 165.342 48.6421 131.847C39.119 121.667 33.8648 108.203 34.1932 94.0828C34.5216 78.6487 27.2971 63.8714 15.1469 53.6915C12.8482 52.0496 11.2063 49.7509 9.56434 47.4522C5.29534 40.8845 4.31019 33.0033 6.2805 25.4504C8.2508 17.8976 13.505 11.9867 20.401 8.37448C24.0133 6.07578 27.9539 5.09063 32.2229 5.09063ZM32.2229 0.493164C27.6255 0.493164 22.6997 1.47832 18.4307 3.77701C1.02633 12.315 -4.55619 33.66 5.62374 49.7509C7.59405 52.7063 9.89274 55.0051 12.1914 57.3038C23.0281 66.1702 29.5958 79.6339 29.2674 94.0828C28.939 108.86 34.1932 123.637 45.0299 135.131C76.5548 168.626 113.006 197.524 152.74 220.183C194.445 243.826 240.09 260.574 287.378 269.769C291.318 270.425 294.931 270.754 298.543 270.754C329.411 270.754 355.682 246.125 356.995 213.943V213.286C357.98 184.06 337.621 159.103 309.051 153.192C241.404 139.728 179.011 104.92 131.723 54.3483C121.543 43.5116 107.751 37.2723 93.6308 35.9588C79.1819 34.6452 67.0317 26.4356 58.822 14.6138C58.4937 13.957 57.8369 13.3002 57.5085 12.6434C51.2692 4.7622 41.746 0.493164 32.2229 0.493164Z" fill="url(#paint1_linear)"/>
<defs>
<linearGradient id="paint0_linear" x1="181.162" y1="272.344" x2="176.608" y2="-1.95333" gradientUnits="userSpaceOnUse">
<stop offset="0.1734" stop-color="#8BBD02"/>
<stop offset="0.8668" stop-color="#CFD102"/>
</linearGradient>
<linearGradient id="paint1_linear" x1="136.454" y1="212.93" x2="201.219" y2="78.146" gradientUnits="userSpaceOnUse">
<stop offset="0.1734" stop-color="#579200"/>
<stop offset="0.8668" stop-color="#E2E365"/>
</linearGradient>
</defs>
</svg>
